<?xml version="1.0" standalone="no"?><!-- Generator: Gravit.io --><svg xmlns="http://www.w3.org/2000/svg" xmlns:xlink="http://www.w3.org/1999/xlink" style="isolation:isolate" viewBox="0 0 320 340" width="320" height="340"><defs><clipPath id="_clipPath_90ss35CcuK8C7SpmtJaIMdOrMLWhZmPM"><rect width="320" height="340"/></clipPath></defs><g clip-path="url(#_clipPath_90ss35CcuK8C7SpmtJaIMdOrMLWhZmPM)"><g id="Group"><path d=" M 122.073 239.574 C 121.581 239.574 121.12 239.333 120.84 238.928 C 120.553 238.514 120.493 237.984 120.68 237.517 C 123.882 229.511 120.799 212.208 112.768 204.177 C 103.351 194.76 105.67 180.473 110.518 171.099 C 115.313 161.828 114.911 148.907 113.453 145.699 C 113.248 145.247 113.279 144.723 113.537 144.3 C 113.794 143.876 114.245 143.607 114.741 143.581 C 114.741 143.581 184.376 139.951 184.402 139.951 C 185.089 139.951 185.692 140.42 185.858 141.093 L 209.601 237.716 C 209.711 238.167 209.607 238.644 209.319 239.007 C 209.035 239.365 208.601 239.574 208.144 239.574 C 208.138 239.574 208.132 239.574 208.126 239.574 C 207.881 239.571 183.367 239.281 158.165 239.281 C 143.369 239.281 131.236 239.38 122.105 239.574 C 122.095 239.574 122.084 239.574 122.073 239.574 Z " fill="rgb(219,85,38)"/><g id="Group"><path d=" M 184.401 141.451 L 208.144 238.074 C 208.144 238.074 183.668 237.781 158.165 237.781 C 145.415 237.781 132.406 237.854 122.073 238.074 C 125.371 229.83 122.403 211.691 113.829 203.117 C 105.255 194.543 106.904 181.353 111.85 171.789 C 116.796 162.226 116.466 148.706 114.818 145.079 L 184.401 141.451 Z  M 184.403 138.451 C 184.35 138.451 184.298 138.452 184.245 138.455 L 114.663 142.083 C 113.672 142.135 112.771 142.673 112.255 143.521 C 111.74 144.369 111.677 145.417 112.088 146.32 C 113.201 148.769 113.944 161.213 109.187 170.411 C 104.107 180.233 101.719 195.249 111.709 205.238 C 119.701 213.23 122.013 230.15 119.289 236.96 C 118.915 237.895 119.035 238.955 119.608 239.782 C 120.169 240.593 121.091 241.074 122.074 241.074 C 122.095 241.074 122.116 241.074 122.138 241.073 C 131.259 240.879 143.38 240.781 158.166 240.781 C 183.359 240.781 207.864 241.071 208.108 241.074 C 208.12 241.074 208.132 241.074 208.144 241.074 C 209.059 241.074 209.924 240.657 210.494 239.939 C 211.071 239.212 211.279 238.259 211.057 237.358 L 187.314 140.735 C 186.983 139.389 185.776 138.451 184.403 138.451 L 184.403 138.451 Z " fill="rgb(0,0,0)"/></g></g><g id="Group"><path d=" M 126.319 145.079 C 127.967 148.706 128.298 162.226 123.351 171.789 C 118.405 181.353 116.755 194.543 125.33 203.117 C 133.905 211.691 136.872 229.83 133.574 238.074 C 164.573 237.414 219.644 238.074 219.644 238.074 L 195.901 141.451 L 126.319 145.079 Z " fill="rgb(175,60,25)"/></g><g id="Group"><path d=" M 276.809 239.574 C 267.678 239.38 255.546 239.281 240.749 239.281 C 215.548 239.281 191.033 239.571 190.788 239.574 C 190.782 239.574 190.776 239.574 190.77 239.574 C 190.313 239.574 189.88 239.365 189.595 239.007 C 189.307 238.644 189.202 238.167 189.313 237.716 L 213.057 141.093 C 213.223 140.42 213.827 139.951 214.513 139.951 C 214.539 139.951 284.174 143.581 284.174 143.581 C 284.669 143.607 285.12 143.876 285.378 144.3 C 285.635 144.724 285.667 145.248 285.461 145.699 C 284.004 148.906 283.601 161.828 288.395 171.099 C 293.244 180.472 295.563 194.759 286.145 204.177 C 278.115 212.207 275.032 229.51 278.233 237.517 C 278.421 237.984 278.36 238.514 278.074 238.928 C 277.793 239.332 277.332 239.574 276.841 239.574 C 276.83 239.574 276.82 239.574 276.809 239.574 Z " fill="rgb(219,85,38)"/><g id="Group"><path d=" M 214.515 141.451 L 284.097 145.079 C 282.449 148.706 282.118 162.226 287.064 171.789 C 292.011 181.353 293.66 194.543 285.085 203.117 C 276.51 211.691 273.544 229.83 276.841 238.074 C 266.509 237.854 253.5 237.781 240.749 237.781 C 215.246 237.781 190.77 238.074 190.77 238.074 L 214.515 141.451 Z  M 214.513 138.451 C 213.14 138.451 211.933 139.389 211.602 140.735 L 187.858 237.358 C 187.636 238.259 187.844 239.212 188.421 239.939 C 188.99 240.656 189.856 241.074 190.771 241.074 C 190.783 241.074 190.794 241.074 190.807 241.074 C 191.051 241.071 215.558 240.781 240.749 240.781 C 255.535 240.781 267.656 240.879 276.777 241.073 C 276.798 241.074 276.819 241.074 276.84 241.074 C 277.822 241.074 278.745 240.593 279.306 239.782 C 279.879 238.955 279.999 237.895 279.625 236.96 C 276.902 230.15 279.214 213.23 287.205 205.238 C 297.196 195.248 294.808 180.233 289.727 170.411 C 284.97 161.212 285.713 148.769 286.827 146.32 C 287.237 145.417 287.175 144.369 286.659 143.521 C 286.144 142.673 285.243 142.135 284.252 142.083 L 214.67 138.455 C 214.618 138.453 214.566 138.451 214.513 138.451 L 214.513 138.451 Z " fill="rgb(0,0,0)"/></g></g><g id="Group"><path d=" M 273.097 145.079 C 271.449 148.706 271.118 162.226 276.064 171.789 C 281.011 181.353 282.66 194.543 274.085 203.117 C 265.51 211.691 262.544 229.83 265.841 238.074 C 234.843 237.414 179.771 238.074 179.771 238.074 L 203.515 141.451 L 273.097 145.079 Z " fill="rgb(175,60,25)"/></g><g id="Group"><g id="Group"><path d=" M 132.137 182.733 C 131.643 182.724 131.185 182.473 130.912 182.062 C 130.23 181.035 129.534 179.992 128.828 178.935 C 119.287 164.66 108.473 148.479 108.473 130.611 C 108.473 79.776 149.189 38.419 199.237 38.419 C 249.283 38.419 289.998 79.776 289.998 130.611 C 289.998 148.479 279.184 164.661 269.642 178.938 C 268.937 179.994 268.242 181.034 267.561 182.06 C 267.276 182.491 266.8 182.731 266.31 182.731 C 266.108 182.731 265.903 182.69 265.708 182.604 C 265.106 182.34 264.755 181.722 264.817 181.085 C 264.145 180.438 259.846 178.238 232.587 178.238 C 193.461 178.238 133.289 182.646 132.314 182.724 C 132.264 182.729 132.214 182.732 132.163 182.732 C 132.154 182.733 132.146 182.733 132.137 182.733 Z " fill="rgb(219,85,38)"/></g><g id="Group"><path d=" M 199.237 39.918 C 248.535 39.918 288.498 80.522 288.498 130.61 C 288.498 149.355 275.9 166.771 266.31 181.23 C 267.141 177.861 252.487 176.738 232.586 176.738 C 192.837 176.738 132.159 181.219 132.162 181.232 C 122.572 166.773 109.973 149.357 109.973 130.61 C 109.973 80.522 149.937 39.918 199.237 39.918 Z  M 199.237 36.918 C 148.362 36.918 106.973 78.948 106.973 130.61 C 106.973 148.933 118.399 166.03 127.58 179.767 C 128.286 180.823 128.981 181.864 129.662 182.89 C 130.207 183.712 131.123 184.214 132.11 184.232 C 132.127 184.232 132.145 184.232 132.162 184.232 C 132.258 184.232 132.353 184.227 132.447 184.218 C 133.639 184.125 193.552 179.738 232.586 179.738 C 255.694 179.738 261.833 181.315 263.411 182.007 C 263.641 182.862 264.245 183.601 265.103 183.978 C 265.494 184.149 265.903 184.231 266.308 184.231 C 267.288 184.231 268.239 183.75 268.809 182.889 C 269.489 181.865 270.183 180.826 270.887 179.772 C 280.07 166.033 291.496 148.934 291.496 130.611 C 291.497 78.949 250.11 36.918 199.237 36.918 L 199.237 36.918 Z " fill="rgb(0,0,0)"/></g></g><path d=" M 148.511 120.385 C 128.94 123.528 118.326 116.233 112.64 108.538 C 110.902 115.604 109.973 122.996 109.973 130.61 C 109.973 149.357 122.573 166.773 132.162 181.232 C 132.162 181.232 132.37 181.214 132.729 181.189 L 137.288 174.857 C 137.288 174.858 142.215 146.39 148.511 120.385 Z " fill="rgb(175,60,25)"/><g id="Group"><g id="Group"><path d=" M 106.851 256.673 L 107.708 255.692 C 117.451 244.53 128.168 225.95 123.898 200.82 L 123.647 199.341 L 142.888 196.067 L 143.139 197.546 C 148.869 231.255 134.16 255.699 120.812 270.27 L 119.673 271.512 L 106.851 256.673 Z " fill="rgb(239,184,134)"/><g id="Group"><path d=" M 141.66 197.797 C 147.419 231.67 131.859 255.99 119.706 269.256 L 108.838 256.678 C 118.387 245.739 129.803 226.612 125.377 200.569 L 141.66 197.797 Z  M 144.115 194.336 L 141.157 194.84 L 124.874 197.611 L 121.917 198.114 L 122.419 201.071 C 126.591 225.62 116.107 243.787 106.577 254.705 L 104.864 256.668 L 106.568 258.639 L 117.436 271.217 L 119.641 273.769 L 121.918 271.283 C 129.965 262.5 136.114 252.764 140.193 242.349 C 145.784 228.073 147.273 212.914 144.617 197.294 L 144.115 194.336 L 144.115 194.336 Z " fill="rgb(0,0,0)"/></g></g><g id="Group"><path d=" M 136.485 198.678 C 140.291 229.092 126.944 251.403 115.56 264.455 L 119.706 269.256 C 131.859 255.99 147.419 231.67 141.66 197.797 L 136.485 198.678 Z " fill="rgb(183,126,83)"/></g></g><g id="Group"><g id="Group"><path d=" M 277.145 270.27 C 263.797 255.698 249.088 231.253 254.82 197.546 L 255.071 196.067 L 274.312 199.341 L 274.06 200.82 C 269.789 225.95 280.507 244.53 290.25 255.692 L 291.106 256.673 L 278.283 271.512 L 277.145 270.27 Z " fill="rgb(239,184,134)"/><g id="Group"><path d=" M 256.298 197.797 L 272.581 200.568 C 268.155 226.611 279.571 245.738 289.12 256.677 L 278.251 269.255 C 266.099 255.991 250.538 231.67 256.298 197.797 Z  M 253.844 194.336 L 253.34 197.294 C 250.685 212.914 252.173 228.072 257.764 242.349 C 261.843 252.763 267.993 262.498 276.039 271.283 L 278.316 273.769 L 280.52 271.218 L 291.389 258.64 L 293.093 256.668 L 291.379 254.705 C 281.85 243.787 271.365 225.62 275.538 201.071 L 276.04 198.114 L 273.083 197.611 L 256.8 194.84 L 253.844 194.336 L 253.844 194.336 Z " fill="rgb(0,0,0)"/></g></g><g id="Group"><path d=" M 261.474 198.678 C 257.667 229.092 271.015 251.403 282.398 264.455 L 278.252 269.256 C 266.1 255.99 250.539 231.67 256.299 197.797 L 261.474 198.678 Z " fill="rgb(183,126,83)"/></g></g><g id="Group"><path d=" M 147.086 272.766 C 143.502 272.766 140.586 269.85 140.586 266.266 L 140.586 198.912 C 140.586 195.328 143.502 192.412 147.086 192.412 L 250.047 191.439 C 253.646 191.439 256.562 194.355 256.562 197.939 L 256.562 266.265 C 256.562 269.849 253.646 272.765 250.062 272.765 L 147.086 272.765 L 147.086 272.766 Z " fill="rgb(0,0,0)"/><g id="Group"><path d=" M 250.062 192.94 C 252.824 192.94 255.062 195.178 255.062 197.94 L 255.062 266.266 C 255.062 269.028 252.824 271.266 250.062 271.266 L 147.086 271.266 C 144.324 271.266 142.086 269.028 142.086 266.266 L 142.086 198.912 C 142.086 196.15 144.324 193.912 147.086 193.912 L 250.062 192.94 Z  M 250.062 189.94 C 250.052 189.94 250.043 189.94 250.034 189.94 L 147.058 190.913 C 142.675 190.913 139.086 194.502 139.086 198.913 L 139.086 266.267 C 139.086 270.678 142.675 274.267 147.086 274.267 L 250.062 274.267 C 254.473 274.267 258.062 270.678 258.062 266.267 L 258.062 197.941 C 258.062 193.529 254.473 189.94 250.062 189.94 L 250.062 189.94 Z " fill="rgb(0,0,0)"/></g></g><path d=" M 118.892 308.248 C 118.892 300.876 156.286 294.891 202.346 294.891 C 248.406 294.891 285.8 300.876 285.8 308.248 C 285.8 315.62 248.406 321.605 202.346 321.605 C 156.286 321.605 118.892 315.62 118.892 308.248 Z " fill="rgb(211,211,211)"/><g id="Group"><path d=" M 279.099 282.266 C 268.207 282.266 259.347 273.406 259.347 262.514 C 259.347 251.623 268.207 242.764 279.099 242.764 C 289.991 242.764 298.851 251.623 298.851 262.514 C 298.851 273.406 289.99 282.266 279.099 282.266 Z " fill="rgb(15,74,114)"/><g id="Group"><path d=" M 279.099 244.264 C 289.179 244.264 297.351 252.434 297.351 262.514 C 297.351 272.594 289.179 280.766 279.099 280.766 C 269.019 280.766 260.847 272.594 260.847 262.514 C 260.847 252.434 269.019 244.264 279.099 244.264 Z  M 279.099 241.264 C 267.38 241.264 257.847 250.797 257.847 262.514 C 257.847 274.233 267.38 283.766 279.099 283.766 C 290.818 283.766 300.351 274.233 300.351 262.514 C 300.351 250.797 290.818 241.264 279.099 241.264 L 279.099 241.264 Z " fill="rgb(0,0,0)"/></g></g><path d=" M 297.351 262.514 C 297.351 262.481 297.347 262.448 297.347 262.412 C 291.464 271.365 281.113 271.982 274.478 268.002 C 267.41 263.764 265.63 255.795 266.665 249.18 C 263.093 252.512 260.847 257.244 260.847 262.514 C 260.847 272.594 269.019 280.766 279.099 280.766 C 289.179 280.766 297.351 272.594 297.351 262.514 Z " fill="rgb(9,54,79)"/><g id="Group"><path d=" M 212.613 312.051 C 211.785 312.051 211.113 311.379 211.113 310.551 L 211.113 290.621 C 211.113 283.707 205.488 278.082 198.574 278.082 C 191.661 278.082 186.037 283.707 186.037 290.621 L 186.037 310.551 C 186.037 311.379 185.365 312.051 184.537 312.051 L 142.087 312.051 C 141.258 312.051 140.587 311.379 140.587 310.551 L 140.587 263.528 C 140.587 262.7 141.258 262.028 142.087 262.028 L 255.063 262.028 C 255.891 262.028 256.563 262.7 256.563 263.528 L 256.563 310.551 C 256.563 311.379 255.891 312.051 255.063 312.051 L 212.613 312.051 Z " fill="rgb(0,0,0)"/><path d=" M 255.062 263.528 L 255.062 310.551 L 212.613 310.551 L 212.613 290.621 C 212.613 282.867 206.328 276.582 198.574 276.582 C 190.822 276.582 184.537 282.867 184.537 290.621 L 184.537 310.551 L 142.087 310.551 L 142.087 263.528 L 255.062 263.528 Z  M 255.062 260.528 L 142.086 260.528 C 140.429 260.528 139.086 261.871 139.086 263.528 L 139.086 310.551 C 139.086 312.208 140.429 313.551 142.086 313.551 L 184.536 313.551 C 186.193 313.551 187.536 312.208 187.536 310.551 L 187.536 290.621 C 187.536 284.534 192.487 279.582 198.573 279.582 C 204.66 279.582 209.612 284.534 209.612 290.621 L 209.612 310.551 C 209.612 312.208 210.955 313.551 212.612 313.551 L 255.061 313.551 C 256.718 313.551 258.061 312.208 258.061 310.551 L 258.061 263.528 C 258.062 261.87 256.719 260.528 255.062 260.528 L 255.062 260.528 Z " fill="rgb(0,0,0)"/></g><g id="Group"><path d=" M 137.192 312.051 C 136.363 312.051 135.692 311.379 135.692 310.551 C 135.692 295.197 148.183 282.707 163.537 282.707 C 178.891 282.707 191.381 295.197 191.381 310.551 C 191.381 311.379 190.709 312.051 189.881 312.051 L 137.192 312.051 Z " fill="rgb(15,74,114)"/><g id="Group"><path d=" M 163.536 284.207 C 178.085 284.207 189.88 296.002 189.88 310.551 L 137.192 310.551 C 137.192 296.002 148.987 284.207 163.536 284.207 Z  M 163.536 281.207 C 147.355 281.207 134.191 294.37 134.191 310.551 C 134.191 312.208 135.534 313.551 137.191 313.551 L 189.879 313.551 C 191.536 313.551 192.879 312.208 192.879 310.551 C 192.88 294.37 179.717 281.207 163.536 281.207 L 163.536 281.207 Z " fill="rgb(0,0,0)"/></g></g><g id="Group"><path d=" M 207.443 312.051 C 206.615 312.051 205.943 311.379 205.943 310.551 C 205.943 295.197 218.433 282.707 233.787 282.707 C 249.141 282.707 261.631 295.197 261.631 310.551 C 261.631 311.379 260.959 312.051 260.131 312.051 L 207.443 312.051 Z " fill="rgb(15,74,114)"/><g id="Group"><path d=" M 233.786 284.207 C 248.335 284.207 260.13 296.002 260.13 310.551 L 207.442 310.551 C 207.443 296.002 219.238 284.207 233.786 284.207 Z  M 233.786 281.207 C 217.605 281.207 204.442 294.37 204.442 310.551 C 204.442 312.208 205.785 313.551 207.442 313.551 L 260.13 313.551 C 261.787 313.551 263.13 312.208 263.13 310.551 C 263.13 294.37 249.967 281.207 233.786 281.207 L 233.786 281.207 Z " fill="rgb(0,0,0)"/></g></g><g id="Group"><path d=" M 163.536 284.207 C 162.038 284.207 160.573 284.338 159.145 284.578 C 171.602 286.67 181.098 297.498 181.098 310.551 L 189.879 310.551 C 189.88 296.002 178.085 284.207 163.536 284.207 Z " fill="rgb(9,54,79)"/></g><g id="Group"><path d=" M 233.786 284.207 C 232.288 284.207 230.823 284.338 229.395 284.578 C 241.852 286.67 251.348 297.498 251.348 310.551 L 260.129 310.551 C 260.13 296.002 248.335 284.207 233.786 284.207 Z " fill="rgb(9,54,79)"/></g><g id="Group"><path d=" M 133.086 282.266 C 132.562 282.266 132.075 281.992 131.803 281.543 C 131.531 281.094 131.513 280.536 131.756 280.071 L 140.756 262.833 C 141.014 262.338 141.527 262.027 142.086 262.027 L 189.88 262.027 C 190.404 262.027 190.891 262.301 191.163 262.75 C 191.434 263.198 191.452 263.757 191.21 264.222 L 182.21 281.46 C 181.951 281.955 181.439 282.266 180.88 282.266 L 133.086 282.266 Z " fill="rgb(15,74,114)"/><g id="Group"><path d=" M 189.88 263.528 L 180.88 280.766 L 133.086 280.766 L 142.086 263.528 L 189.88 263.528 Z  M 189.88 260.528 L 142.086 260.528 C 140.969 260.528 139.944 261.149 139.427 262.139 L 130.427 279.377 C 129.941 280.308 129.977 281.423 130.521 282.32 C 131.064 283.217 132.037 283.765 133.086 283.765 L 180.88 283.765 C 181.997 283.765 183.023 283.144 183.539 282.154 L 192.539 264.916 C 193.024 263.985 192.989 262.87 192.445 261.973 C 191.901 261.076 190.929 260.528 189.88 260.528 L 189.88 260.528 Z " fill="rgb(0,0,0)"/></g></g><path d=" M 157.952 280.766 L 180.88 280.766 L 189.88 263.528 L 162.286 263.528 C 169.118 263.528 172.452 267.024 172.118 272.147 C 171.786 277.272 164.62 280.766 157.952 280.766 Z " fill="rgb(9,54,79)"/><g id="Group"><path d=" M 216.443 282.266 C 215.884 282.266 215.372 281.955 215.113 281.46 L 206.113 264.222 C 205.871 263.757 205.888 263.199 206.16 262.75 C 206.432 262.302 206.919 262.027 207.443 262.027 L 255.236 262.027 C 255.795 262.027 256.307 262.338 256.566 262.833 L 265.566 280.071 C 265.808 280.536 265.791 281.094 265.519 281.543 C 265.247 281.991 264.76 282.266 264.236 282.266 L 216.443 282.266 Z " fill="rgb(15,74,114)"/><g id="Group"><path d=" M 255.236 263.528 L 264.236 280.766 L 216.443 280.766 L 207.443 263.528 L 255.236 263.528 Z  M 255.236 260.528 L 207.443 260.528 C 206.394 260.528 205.422 261.076 204.878 261.973 C 204.334 262.87 204.299 263.986 204.784 264.916 L 213.784 282.154 C 214.301 283.144 215.326 283.765 216.443 283.765 L 264.236 283.765 C 265.285 283.765 266.257 283.217 266.801 282.32 C 267.345 281.423 267.38 280.307 266.895 279.377 L 257.895 262.139 C 257.378 261.149 256.353 260.528 255.236 260.528 L 255.236 260.528 Z " fill="rgb(0,0,0)"/></g></g><path d=" M 236.97 280.766 L 264.236 280.766 L 255.236 263.528 L 229.396 263.528 C 235.83 263.528 243.591 265.075 247.357 272.147 C 251.124 279.219 242.562 280.766 236.97 280.766 Z " fill="rgb(9,54,79)"/><g id="Group"><path d=" M 142.086 265.028 C 141.257 265.028 140.586 264.356 140.586 263.528 L 140.586 253.35 C 140.586 252.522 141.257 251.85 142.086 251.85 L 255.062 251.85 C 255.89 251.85 256.562 252.522 256.562 253.35 L 256.562 263.528 C 256.562 264.356 255.89 265.028 255.062 265.028 L 142.086 265.028 Z " fill="rgb(15,74,114)"/><g id="Group"><path d=" M 255.062 253.35 L 255.062 263.528 L 142.086 263.528 L 142.086 253.35 L 255.062 253.35 Z  M 255.062 250.35 L 142.086 250.35 C 140.429 250.35 139.086 251.693 139.086 253.35 L 139.086 263.528 C 139.086 265.185 140.429 266.528 142.086 266.528 L 255.062 266.528 C 256.719 266.528 258.062 265.185 258.062 263.528 L 258.062 253.35 C 258.062 251.693 256.719 250.35 255.062 250.35 L 255.062 250.35 Z " fill="rgb(0,0,0)"/></g></g><g id="Group"><path d=" M 134.273 290.53 C 131.97 290.53 129.828 289.497 128.397 287.696 L 47.629 186.053 C 45.056 182.815 45.597 178.087 48.835 175.515 C 50.156 174.465 51.812 173.887 53.497 173.887 C 55.8 173.887 57.942 174.92 59.374 176.721 L 140.141 278.364 C 141.388 279.932 141.949 281.892 141.721 283.883 C 141.493 285.874 140.504 287.656 138.935 288.903 C 137.613 289.951 135.958 290.53 134.273 290.53 Z " fill="rgb(117,61,14)"/><path d=" M 53.497 175.387 C 55.264 175.387 57.015 176.164 58.2 177.655 L 138.967 279.298 C 141.029 281.892 140.597 285.667 138.002 287.728 C 136.898 288.605 135.582 289.031 134.273 289.031 C 132.506 289.031 130.755 288.254 129.571 286.763 L 48.803 185.12 C 46.742 182.526 47.174 178.751 49.768 176.69 C 50.871 175.813 52.189 175.387 53.497 175.387 Z  M 53.497 172.387 L 53.497 172.387 C 51.474 172.387 49.487 173.081 47.901 174.341 C 46.02 175.836 44.833 177.975 44.559 180.363 C 44.286 182.752 44.959 185.103 46.454 186.985 L 127.222 288.628 C 128.94 290.79 131.51 292.029 134.273 292.029 C 136.295 292.029 138.283 291.335 139.868 290.075 C 141.75 288.581 142.937 286.441 143.21 284.053 C 143.483 281.665 142.81 279.313 141.314 277.431 L 60.547 175.788 C 58.83 173.626 56.26 172.387 53.497 172.387 L 53.497 172.387 Z " fill="rgb(0,0,0)"/></g><g id="Group"><path d=" M 49.768 176.69 C 49.268 177.088 48.85 177.551 48.513 178.057 C 50.887 177.159 53.665 177.842 55.328 179.936 L 136.095 281.579 C 137.76 283.671 137.797 286.534 136.387 288.643 C 136.954 288.428 137.5 288.125 138.001 287.727 C 140.596 285.666 141.027 281.891 138.966 279.297 L 58.199 177.654 C 56.138 175.061 52.363 174.627 49.768 176.69 Z " fill="rgb(81,40,9)"/></g><g id="Group"><path d=" M 62.883 243.975 C 52.798 242.235 43.739 236.866 37.376 228.858 C 31.014 220.851 27.831 210.815 28.413 200.597 L 28.488 199.281 L 66.813 196.532 L 75.516 207.486 L 64.182 244.199 L 62.883 243.975 Z " fill="rgb(168,168,168)"/><g id="Group"><path d=" M 66.131 198.084 L 73.85 207.799 L 63.138 242.496 C 53.766 240.879 44.932 235.955 38.55 227.924 C 32.168 219.893 29.369 210.176 29.91 200.682 L 66.131 198.084 Z  M 67.495 194.979 L 65.916 195.092 L 29.695 197.69 L 27.065 197.878 L 26.915 200.511 C 26.311 211.097 29.609 221.495 36.201 229.79 C 42.794 238.087 52.179 243.649 62.627 245.452 L 65.226 245.9 L 66.004 243.38 L 76.716 208.683 L 77.183 207.171 L 76.198 205.932 L 68.479 196.217 L 67.495 194.979 L 67.495 194.979 Z " fill="rgb(0,0,0)"/></g></g><g id="Group"><path d=" M 106.132 288.757 C 104.604 288.4 82.417 280.33 59.824 272.096 C 53.372 269.744 48.276 267.887 47.676 267.681 C 35.319 263.438 24.49 255.787 16.361 245.557 C 8.232 235.328 3.225 223.051 1.883 210.055 C 1.637 207.664 1.511 205.335 1.506 203.132 L 1.504 201.931 L 32.1 195.01 L 31.774 197.18 C 31.602 198.327 31.479 199.534 31.409 200.767 C 30.868 210.249 33.822 219.562 39.725 226.991 C 45.63 234.423 54.036 239.404 63.393 241.018 C 64.62 241.231 65.823 241.384 66.969 241.474 L 67.569 241.521 L 110.761 289.843 L 106.132 288.757 Z " fill="rgb(94,94,94)"/><path d=" M 30.289 196.957 C 30.103 198.191 29.98 199.436 29.91 200.682 C 29.369 210.176 32.168 219.893 38.55 227.924 C 44.932 235.955 53.766 240.879 63.138 242.496 C 64.368 242.709 65.608 242.871 66.852 242.969 L 106.474 287.297 C 104.275 286.781 50.303 266.996 48.161 266.262 C 36.489 262.254 25.781 255.002 17.534 244.623 C 9.287 234.246 4.641 222.176 3.374 209.9 C 3.143 207.646 3.01 205.388 3.005 203.129 L 30.289 196.957 Z  M 33.908 193.063 L 29.627 194.032 L 2.343 200.204 L 0 200.733 L 0.005 203.136 C 0.01 205.389 0.139 207.768 0.39 210.207 C 1.762 223.49 6.878 236.036 15.186 246.489 C 23.494 256.945 34.56 264.762 47.187 269.098 C 47.774 269.3 52.864 271.155 59.308 273.503 C 88.323 284.077 104.324 289.873 105.789 290.217 L 115.049 292.388 L 108.711 285.297 L 69.089 240.969 L 68.287 240.072 L 67.087 239.977 C 65.986 239.891 64.83 239.744 63.65 239.539 C 54.653 237.986 46.574 233.198 40.899 226.057 C 35.225 218.916 32.386 209.965 32.906 200.852 C 32.973 199.664 33.091 198.503 33.257 197.403 L 33.908 193.063 L 33.908 193.063 Z " fill="rgb(0,0,0)"/></g><g id="Group"><path d=" M 72.344 228.689 C 71.269 228.689 70.269 228.206 69.602 227.365 L 46.108 197.802 C 44.908 196.293 45.16 194.087 46.67 192.884 L 65.462 177.953 C 66.078 177.464 66.851 177.193 67.638 177.193 C 68.711 177.193 69.71 177.674 70.378 178.513 L 93.871 208.08 C 94.452 208.809 94.715 209.723 94.609 210.652 C 94.504 211.582 94.043 212.415 93.31 212.998 L 74.519 227.929 C 73.904 228.418 73.131 228.689 72.344 228.689 Z " fill="rgb(94,94,94)"/><path d=" M 67.638 178.693 C 68.227 178.693 68.81 178.952 69.205 179.448 L 92.697 209.014 C 93.385 209.877 93.241 211.137 92.377 211.825 L 73.587 226.755 C 73.219 227.047 72.78 227.19 72.344 227.19 C 71.755 227.19 71.171 226.93 70.777 226.433 L 47.283 196.869 C 46.596 196.006 46.742 194.746 47.605 194.058 L 66.396 179.128 C 66.763 178.834 67.202 178.693 67.638 178.693 Z  M 67.638 175.693 L 67.638 175.693 C 66.513 175.693 65.409 176.079 64.528 176.78 L 45.738 191.709 C 43.579 193.429 43.219 196.579 44.934 198.735 L 68.428 228.298 C 69.381 229.499 70.808 230.189 72.344 230.189 C 73.469 230.189 74.573 229.803 75.453 229.103 L 94.243 214.173 C 95.291 213.34 95.95 212.15 96.1 210.82 C 96.25 209.493 95.875 208.187 95.042 207.143 L 71.553 177.58 C 70.597 176.38 69.171 175.693 67.638 175.693 L 67.638 175.693 Z " fill="rgb(0,0,0)"/></g><g id="Group"><path d=" M 66.396 179.127 L 62.088 182.549 C 62.953 181.861 64.211 182.006 64.899 182.871 L 88.392 212.435 C 89.079 213.3 88.935 214.558 88.07 215.246 L 92.378 211.824 C 93.242 211.136 93.387 209.877 92.698 209.013 L 69.206 179.447 C 68.518 178.584 67.26 178.44 66.396 179.127 Z " fill="rgb(63,63,63)"/></g><g id="Group"><path d=" M 118.3 282.266 C 107.409 282.266 98.548 273.406 98.548 262.514 C 98.548 251.623 107.409 242.764 118.3 242.764 C 129.191 242.764 138.052 251.623 138.052 262.514 C 138.052 273.406 129.191 282.266 118.3 282.266 Z " fill="rgb(15,74,114)"/><g id="Group"><path d=" M 118.3 244.264 C 128.38 244.264 136.552 252.434 136.552 262.514 C 136.552 272.594 128.38 280.766 118.3 280.766 C 108.22 280.766 100.048 272.594 100.048 262.514 C 100.048 252.434 108.22 244.264 118.3 244.264 Z  M 118.3 241.264 C 106.582 241.264 97.048 250.797 97.048 262.514 C 97.048 274.233 106.582 283.766 118.3 283.766 C 130.018 283.766 139.552 274.233 139.552 262.514 C 139.552 250.797 130.018 241.264 118.3 241.264 L 118.3 241.264 Z " fill="rgb(0,0,0)"/></g></g><path d=" M 136.552 262.514 C 136.552 262.481 136.548 262.448 136.548 262.412 C 130.665 271.365 120.314 271.982 113.679 268.002 C 106.612 263.764 104.832 255.795 105.866 249.18 C 102.294 252.512 100.048 257.244 100.048 262.514 C 100.048 272.594 108.22 280.766 118.3 280.766 C 128.38 280.766 136.552 272.594 136.552 262.514 Z " fill="rgb(9,54,79)"/><g id="Group"><path d=" M 137.1 227.514 C 131.028 227.513 125.841 225.683 122.558 224.148 C 120.128 223.011 117.52 222.424 114.807 222.405 C 114.282 222.401 113.796 222.123 113.528 221.671 C 111.406 218.099 110.284 214.032 110.284 209.913 C 110.284 197.185 120.638 186.831 133.366 186.831 C 146.093 186.831 156.447 197.185 156.447 209.913 C 156.447 214.74 154.955 219.376 152.133 223.319 C 152.001 223.504 151.829 223.655 151.63 223.763 C 147.054 226.252 142.166 227.514 137.101 227.514 C 137.101 227.514 137.101 227.514 137.1 227.514 Z " fill="rgb(15,74,114)"/><g id="Group"><path d=" M 133.367 188.33 C 145.286 188.33 154.948 197.994 154.948 209.912 C 154.948 214.592 153.444 218.91 150.914 222.445 C 146.081 225.073 141.37 226.013 137.1 226.013 C 131.432 226.013 126.543 224.355 123.194 222.788 C 120.134 221.356 117.221 220.921 114.818 220.903 C 112.904 217.68 111.785 213.93 111.785 209.911 C 111.785 197.994 121.447 188.33 133.367 188.33 Z  M 133.367 185.33 C 119.812 185.33 108.785 196.357 108.785 209.912 C 108.785 214.301 109.979 218.632 112.239 222.436 C 112.775 223.339 113.745 223.896 114.796 223.904 C 117.292 223.923 119.69 224.462 121.922 225.506 C 125.343 227.107 130.753 229.014 137.099 229.014 C 142.418 229.014 147.548 227.691 152.347 225.081 C 152.745 224.864 153.089 224.56 153.353 224.191 C 156.359 219.992 157.948 215.053 157.948 209.912 C 157.948 196.358 146.922 185.33 133.367 185.33 L 133.367 185.33 Z " fill="rgb(0,0,0)"/></g></g><g id="Group"><path d=" M 111.785 209.912 C 111.785 210.926 111.879 211.914 112.014 212.891 C 114.982 215.684 118.968 217.409 123.367 217.409 C 132.524 217.409 139.948 209.985 139.948 200.827 C 139.948 195.86 137.754 191.417 134.295 188.378 C 133.985 188.364 133.681 188.331 133.367 188.331 C 121.447 188.33 111.785 197.994 111.785 209.912 Z " fill="rgb(52,118,155)"/></g><g id="Group"><path d=" M 260.481 227.514 C 255.416 227.514 250.527 226.252 245.951 223.763 C 245.752 223.655 245.58 223.503 245.448 223.319 C 242.625 219.377 241.133 214.74 241.133 209.913 C 241.133 197.185 251.487 186.831 264.215 186.831 C 276.943 186.831 287.297 197.185 287.297 209.913 C 287.297 214.032 286.175 218.099 284.054 221.671 C 283.785 222.123 283.3 222.401 282.775 222.405 C 280.062 222.425 277.454 223.011 275.023 224.148 C 271.738 225.684 266.551 227.514 260.481 227.514 Z " fill="rgb(15,74,114)"/><g id="Group"><path d=" M 264.214 188.33 C 276.134 188.33 285.796 197.994 285.796 209.912 C 285.796 213.932 284.677 217.682 282.763 220.904 C 280.359 220.922 277.447 221.357 274.386 222.789 C 271.037 224.355 266.149 226.014 260.481 226.014 C 256.211 226.014 251.5 225.074 246.668 222.446 C 244.137 218.911 242.633 214.592 242.633 209.913 C 242.632 197.994 252.294 188.33 264.214 188.33 Z  M 264.214 185.33 C 250.659 185.33 239.632 196.357 239.632 209.912 C 239.632 215.055 241.221 219.992 244.228 224.191 C 244.492 224.56 244.836 224.864 245.234 225.081 C 250.033 227.69 255.163 229.014 260.481 229.014 C 266.828 229.014 272.237 227.107 275.658 225.507 C 277.891 224.462 280.29 223.923 282.785 223.904 C 283.836 223.896 284.806 223.34 285.343 222.436 C 287.603 218.631 288.797 214.3 288.797 209.912 C 288.796 196.358 277.769 185.33 264.214 185.33 L 264.214 185.33 Z " fill="rgb(0,0,0)"/></g></g><g id="Group"><path d=" M 285.796 209.912 C 285.796 210.926 285.702 211.914 285.566 212.891 C 282.599 215.684 278.613 217.409 274.214 217.409 C 265.056 217.409 257.632 209.985 257.632 200.827 C 257.632 195.86 259.827 191.417 263.286 188.378 C 263.595 188.364 263.899 188.331 264.214 188.331 C 276.134 188.33 285.796 197.994 285.796 209.912 Z " fill="rgb(52,118,155)"/></g><path d=" M 288.497 130.611 C 288.497 95.509 268.87 65.069 240.159 49.994 C 244.976 56.859 252.686 73.586 237.511 97.755 C 248.011 125.505 250.761 166.505 250.761 166.505 C 250.761 166.505 253.232 172.452 255.462 177.54 C 262.581 178.222 266.765 179.39 266.31 181.231 C 275.9 166.772 288.497 149.356 288.497 130.611 Z " fill="rgb(175,60,25)"/><g id="Group"><g id="Group"><path d=" M 272.363 74.973 C 263.594 74.973 256.461 67.839 256.461 59.071 C 256.461 50.303 263.595 43.169 272.363 43.169 C 281.13 43.169 288.261 50.303 288.261 59.071 C 288.261 67.839 281.129 74.973 272.363 74.973 Z " fill="rgb(15,74,114)"/><g id="Group"><path d=" M 272.363 44.668 C 280.316 44.668 286.761 51.116 286.761 59.07 C 286.761 67.023 280.316 73.472 272.363 73.472 C 264.404 73.472 257.961 67.023 257.961 59.07 C 257.96 51.116 264.404 44.668 272.363 44.668 Z  M 272.363 41.668 C 262.767 41.668 254.961 49.475 254.961 59.07 C 254.961 68.665 262.768 76.472 272.363 76.472 C 281.957 76.472 289.761 68.665 289.761 59.07 C 289.761 49.475 281.956 41.668 272.363 41.668 L 272.363 41.668 Z " fill="rgb(0,0,0)"/></g></g><path d=" M 264.038 61.783 C 262.542 61.783 261.327 60.566 261.327 59.07 C 261.327 52.983 266.274 48.035 272.362 48.035 C 273.858 48.035 275.073 49.252 275.073 50.748 C 275.073 52.244 273.858 53.461 272.362 53.461 C 269.266 53.461 266.753 55.975 266.753 59.07 C 266.753 60.567 265.538 61.783 264.038 61.783 Z " fill="rgb(98,161,188)"/></g><g id="Group"><g id="Group"><path d=" M 126.645 74.973 C 117.876 74.973 110.743 67.839 110.743 59.071 C 110.743 50.303 117.877 43.169 126.645 43.169 C 135.412 43.169 142.543 50.303 142.543 59.071 C 142.543 67.839 135.411 74.973 126.645 74.973 Z " fill="rgb(15,74,114)"/><g id="Group"><path d=" M 126.645 44.668 C 134.599 44.668 141.043 51.116 141.043 59.07 C 141.043 67.023 134.599 73.472 126.645 73.472 C 118.687 73.472 112.243 67.023 112.243 59.07 C 112.242 51.116 118.687 44.668 126.645 44.668 Z  M 126.645 41.668 C 117.049 41.668 109.243 49.475 109.243 59.07 C 109.243 68.665 117.05 76.472 126.645 76.472 C 136.239 76.472 144.043 68.665 144.043 59.07 C 144.043 49.475 136.238 41.668 126.645 41.668 L 126.645 41.668 Z " fill="rgb(0,0,0)"/></g></g><path d=" M 118.321 61.783 C 116.825 61.783 115.61 60.566 115.61 59.07 C 115.61 52.983 120.558 48.035 126.645 48.035 C 128.141 48.035 129.356 49.252 129.356 50.748 C 129.356 52.244 128.141 53.461 126.645 53.461 C 123.55 53.461 121.036 55.975 121.036 59.07 C 121.035 60.567 119.821 61.783 118.321 61.783 Z " fill="rgb(98,161,188)"/></g><g id="Group"><g id="Group"><path d=" M 198.314 53.307 C 184.031 53.307 172.41 41.687 172.41 27.404 C 172.41 13.121 184.031 1.501 198.314 1.501 C 212.593 1.501 224.21 13.121 224.21 27.404 C 224.21 41.687 212.593 53.307 198.314 53.307 Z " fill="rgb(15,74,114)"/><g id="Group"><path d=" M 198.314 3 C 211.791 3 222.71 13.926 222.71 27.403 C 222.71 40.879 211.79 51.806 198.314 51.806 C 184.83 51.806 173.91 40.878 173.91 27.403 C 173.909 13.926 184.829 3 198.314 3 Z  M 198.314 0 C 183.204 0 170.91 12.293 170.91 27.403 C 170.91 42.513 183.204 54.806 198.314 54.806 C 213.42 54.806 225.71 42.513 225.71 27.403 C 225.71 12.293 213.42 0 198.314 0 L 198.314 0 Z " fill="rgb(0,0,0)"/></g></g><path d=" M 184.208 32 C 181.673 32 179.614 29.938 179.614 27.403 C 179.614 17.09 187.999 8.705 198.313 8.705 C 200.848 8.705 202.906 10.767 202.906 13.302 C 202.906 15.837 200.848 17.899 198.313 17.899 C 193.069 17.899 188.807 22.159 188.807 27.404 C 188.808 29.939 186.749 32 184.208 32 Z " fill="rgb(98,161,188)"/></g><g id="Group"><path d=" M 199.183 240.776 C 155.392 240.776 119.766 192.361 119.766 132.85 C 119.766 132.526 119.778 132.206 119.789 131.885 L 119.809 131.237 L 119.821 131.153 C 123.385 104.839 139.13 95.502 151.53 95.502 C 157.12 95.502 162.337 97.284 166.219 100.52 C 178.668 110.895 188.044 115.72 197.57 116.656 C 197.985 116.709 198.706 116.785 199.074 116.785 C 199.074 116.785 199.299 116.784 199.302 116.784 C 199.791 116.784 200.559 116.695 200.822 116.661 C 210.394 115.72 219.77 110.894 232.22 100.519 C 236.101 97.285 241.315 95.503 246.902 95.503 C 259.166 95.503 274.807 104.688 278.528 130.572 L 278.541 130.655 L 278.563 131.307 C 278.582 131.82 278.6 132.332 278.6 132.849 C 278.599 192.361 242.973 240.776 199.183 240.776 Z " fill="rgb(239,184,134)"/><path d=" M 151.529 97.001 C 156.792 97.001 161.7 98.706 165.258 101.671 C 176.137 110.737 186.198 117.045 197.422 118.148 C 197.422 118.148 198.466 118.285 199.072 118.285 C 199.124 118.285 199.173 118.284 199.217 118.282 C 199.261 118.284 199.31 118.285 199.362 118.285 C 199.969 118.285 201.014 118.148 201.014 118.148 C 212.237 117.045 222.298 110.738 233.178 101.671 C 236.736 98.706 241.639 97.003 246.9 97.003 C 259.234 97.003 273.531 106.366 277.042 130.785 C 277.063 131.473 277.099 132.157 277.099 132.849 C 277.099 191.626 242.214 239.275 199.183 239.275 C 156.15 239.275 121.266 191.627 121.266 132.849 C 121.266 132.347 121.296 131.853 121.307 131.353 C 124.672 106.506 139.096 97 151.529 97.001 Z  M 151.527 94.001 C 138.523 94.001 122.028 103.678 118.335 130.951 L 118.312 131.119 L 118.308 131.289 C 118.304 131.47 118.298 131.65 118.291 131.83 C 118.278 132.169 118.267 132.508 118.267 132.85 C 118.267 161.91 126.578 189.265 141.667 209.876 C 156.963 230.77 177.39 242.275 199.184 242.275 C 220.977 242.275 241.403 230.769 256.7 209.876 C 271.79 189.265 280.1 161.909 280.1 132.85 C 280.1 132.314 280.081 131.784 280.062 131.252 L 280.041 130.691 L 280.036 130.524 L 280.013 130.358 C 276.156 103.524 259.765 94.003 246.902 94.003 C 240.965 94.003 235.41 95.908 231.259 99.366 C 219.058 109.533 209.926 114.258 200.723 115.161 L 200.674 115.166 L 200.626 115.172 C 200.215 115.226 199.615 115.283 199.363 115.283 L 199.218 115.276 L 199.073 115.283 C 198.805 115.283 198.169 115.218 197.813 115.171 L 197.764 115.165 L 197.715 115.16 C 188.511 114.256 179.379 109.532 167.179 99.365 C 163.028 95.906 157.469 94 151.529 94 C 151.529 94.001 151.528 94.001 151.527 94.001 L 151.527 94.001 Z " fill="rgb(0,0,0)"/></g><g id="Group"><path d=" M 277.042 130.783 C 273.663 107.276 260.29 97.736 248.292 97.056 C 253.126 107.586 255.907 119.804 255.907 132.849 C 255.907 191.626 230.511 239.275 199.182 239.275 C 242.213 239.275 277.098 191.627 277.098 132.849 C 277.099 132.157 277.064 131.472 277.042 130.783 Z " fill="rgb(183,126,83)"/></g><path d=" M 155.246 157.44 C 155.246 153.491 158.452 150.285 162.401 150.285 C 166.35 150.285 169.556 153.491 169.556 157.44 C 169.556 161.389 166.35 164.595 162.401 164.595 C 158.452 164.595 155.246 161.389 155.246 157.44 Z " fill="rgb(0,0,0)"/><path d=" M 228.798 157.44 C 228.798 153.491 232.004 150.285 235.953 150.285 C 239.902 150.285 243.108 153.491 243.108 157.44 C 243.108 161.389 239.902 164.595 235.953 164.595 C 232.004 164.595 228.798 161.389 228.798 157.44 Z " fill="rgb(0,0,0)"/><g id="Group"><path d=" M 180.037 154.881 L 146.055 151.781 C 145.605 151.74 145.198 151.499 144.946 151.124 C 144.694 150.749 144.625 150.281 144.757 149.849 L 147.925 139.481 C 148.05 139.072 148.344 138.735 148.733 138.557 C 148.932 138.466 149.146 138.42 149.36 138.42 C 149.565 138.42 149.769 138.462 149.961 138.545 L 180.775 152.013 C 181.45 152.308 181.81 153.048 181.628 153.761 C 181.456 154.428 180.854 154.887 180.176 154.887 C 180.13 154.887 180.084 154.885 180.037 154.881 Z " fill="rgb(219,85,38)"/><g id="Group"><path d=" M 149.36 139.919 L 180.174 153.387 L 146.192 150.287 L 149.36 139.919 Z  M 149.36 136.919 C 148.932 136.919 148.504 137.011 148.107 137.193 C 147.329 137.551 146.741 138.223 146.491 139.042 L 143.323 149.41 C 143.059 150.273 143.198 151.21 143.702 151.96 C 144.206 152.71 145.02 153.192 145.92 153.274 L 179.902 156.374 C 179.994 156.382 180.086 156.386 180.176 156.386 C 181.532 156.386 182.737 155.469 183.079 154.133 C 183.445 152.708 182.724 151.227 181.375 150.637 L 150.561 137.169 C 150.178 137.003 149.769 136.919 149.36 136.919 L 149.36 136.919 Z " fill="rgb(0,0,0)"/></g></g><g id="Group"><path d=" M 219.397 154.887 C 218.718 154.887 218.117 154.428 217.945 153.761 C 217.762 153.048 218.123 152.308 218.798 152.013 L 249.612 138.545 C 249.803 138.462 250.008 138.42 250.213 138.42 C 250.427 138.42 250.641 138.466 250.84 138.557 C 251.229 138.736 251.523 139.072 251.648 139.481 L 254.816 149.849 C 254.948 150.281 254.879 150.749 254.627 151.124 C 254.375 151.499 253.968 151.74 253.519 151.781 L 219.537 154.881 C 219.488 154.885 219.442 154.887 219.397 154.887 Z " fill="rgb(219,85,38)"/><g id="Group"><path d=" M 250.212 139.919 L 253.38 150.287 L 219.398 153.387 L 250.212 139.919 Z  M 250.212 136.919 C 249.803 136.919 249.394 137.002 249.011 137.17 L 218.197 150.638 C 216.848 151.227 216.127 152.708 216.493 154.134 C 216.836 155.47 218.04 156.387 219.396 156.387 C 219.487 156.387 219.579 156.383 219.67 156.375 L 253.652 153.275 C 254.551 153.193 255.366 152.71 255.87 151.961 C 256.374 151.212 256.513 150.274 256.249 149.411 L 253.081 139.043 C 252.831 138.224 252.243 137.552 251.466 137.194 C 251.069 137.011 250.64 136.919 250.212 136.919 L 250.212 136.919 Z " fill="rgb(0,0,0)"/></g></g><g id="Group"><path d=" M 197.011 273.838 C 196.891 273.838 196.769 273.823 196.649 273.793 C 196.011 273.635 195.551 273.079 195.514 272.424 C 195.244 267.705 193.493 262.16 175.71 250.939 C 158.201 239.89 154.522 222.373 154.374 221.632 C 154.256 221.044 154.5 220.442 154.995 220.102 C 155.25 219.926 155.548 219.838 155.845 219.838 C 156.123 219.838 156.402 219.915 156.647 220.07 C 167.751 227.087 177.16 230.644 184.613 230.644 C 190.538 230.644 195.258 228.333 198.641 223.775 C 198.912 223.41 199.334 223.188 199.788 223.171 C 199.807 223.17 199.826 223.17 199.845 223.17 C 200.28 223.17 200.693 223.358 200.979 223.688 C 204.96 228.283 209.77 230.516 215.68 230.516 C 222.422 230.516 230.737 227.502 240.392 221.561 C 240.633 221.413 240.906 221.338 241.178 221.338 C 241.458 221.338 241.739 221.416 241.984 221.573 C 242.468 221.882 242.735 222.439 242.669 223.011 C 240.984 237.539 228.756 250.216 225.048 253.755 C 222.354 256.327 218.549 258.354 214.521 260.5 C 208.294 263.816 201.855 267.246 198.294 273.116 C 198.017 273.572 197.527 273.838 197.011 273.838 Z " fill="rgb(219,85,38)"/><g id="Group"><path d=" M 155.845 221.338 C 167.232 228.534 176.874 232.145 184.613 232.145 C 191.033 232.145 196.142 229.658 199.845 224.67 C 204.014 229.481 209.224 232.016 215.68 232.016 C 222.645 232.016 231.06 229.065 241.178 222.838 C 239.845 234.338 231.345 245.67 224.011 252.67 C 217.452 258.932 203.179 262.17 197.011 272.338 C 196.678 266.504 193.679 260.504 176.511 249.67 C 159.345 238.838 155.845 221.338 155.845 221.338 Z  M 155.845 218.338 C 155.25 218.338 154.657 218.515 154.146 218.866 C 153.157 219.546 152.668 220.749 152.904 221.926 C 153.057 222.693 156.864 240.82 174.911 252.207 C 192.09 263.048 193.78 268.371 194.016 272.509 C 194.091 273.821 195.011 274.932 196.287 275.249 C 196.528 275.309 196.771 275.338 197.012 275.338 C 198.043 275.338 199.025 274.805 199.577 273.894 C 202.924 268.376 209.178 265.045 215.225 261.824 C 219.346 259.629 223.24 257.554 226.082 254.841 C 229.882 251.214 242.416 238.212 244.158 223.185 C 244.29 222.043 243.759 220.926 242.79 220.309 C 242.299 219.996 241.738 219.839 241.178 219.839 C 240.633 219.839 240.088 219.987 239.606 220.284 C 230.19 226.078 222.14 229.016 215.68 229.016 C 210.23 229.016 205.792 226.952 202.113 222.705 C 201.542 222.047 200.714 221.67 199.845 221.67 C 199.808 221.67 199.77 221.671 199.732 221.672 C 198.823 221.706 197.979 222.151 197.436 222.882 C 194.308 227.096 190.113 229.145 184.613 229.145 C 177.448 229.145 168.308 225.666 157.448 218.802 C 156.957 218.492 156.401 218.338 155.845 218.338 L 155.845 218.338 Z " fill="rgb(0,0,0)"/></g></g><g id="Group"><path d=" M 199.511 117.004 C 189.078 117.004 179.345 112.452 172.807 104.516 C 165.171 95.249 162.501 82.269 165.288 67.967 C 171.898 34.057 187.086 26.282 198.771 25.788 C 198.873 25.766 198.978 25.754 199.086 25.754 C 199.198 25.754 199.592 25.766 199.592 25.766 C 199.592 25.766 199.928 25.754 200.041 25.754 C 200.151 25.754 200.259 25.766 200.362 25.789 C 212.048 26.286 227.231 34.063 233.84 67.967 C 236.627 82.269 233.958 95.248 226.322 104.515 C 219.783 112.452 210.05 117.004 199.617 117.004 L 199.511 117.004 Z " fill="rgb(219,85,38)"/><path d=" M 200.042 27.254 L 200.042 27.277 C 214.617 27.759 226.741 39.383 232.368 68.254 C 238.026 97.281 220.118 115.504 199.618 115.504 L 199.511 115.504 C 179.011 115.504 161.104 97.281 166.761 68.254 C 172.389 39.384 184.513 27.76 199.087 27.277 L 199.087 27.254 C 199.247 27.254 199.405 27.263 199.566 27.266 C 199.724 27.263 199.882 27.254 200.042 27.254 Z  M 200.042 24.254 C 199.912 24.254 199.783 24.258 199.654 24.262 L 199.565 24.265 L 199.473 24.262 C 199.344 24.258 199.215 24.254 199.086 24.254 C 198.917 24.254 198.752 24.268 198.59 24.295 C 186.378 24.858 170.591 32.922 163.816 67.68 C 160.941 82.43 163.722 95.851 171.648 105.47 C 178.473 113.753 188.628 118.504 199.51 118.504 L 199.617 118.504 C 210.5 118.504 220.655 113.753 227.48 105.469 C 235.405 95.849 238.186 82.429 235.311 67.679 C 228.536 32.914 212.744 24.853 200.531 24.294 C 200.373 24.268 200.209 24.254 200.042 24.254 L 200.042 24.254 Z " fill="rgb(0,0,0)"/></g><path d=" M 232.368 68.254 C 226.741 39.384 214.617 27.76 200.042 27.277 L 200.042 27.254 C 199.882 27.254 199.724 27.263 199.565 27.266 C 199.405 27.263 199.247 27.254 199.086 27.254 L 199.086 27.277 C 195.967 27.381 192.961 27.999 190.106 29.183 L 190.344 29.504 C 194.677 28.504 218.01 32.337 221.01 62.837 C 223.986 93.085 211.055 111.522 187.918 113.45 C 191.579 114.794 195.492 115.503 199.51 115.503 L 199.617 115.503 C 220.118 115.504 238.027 97.282 232.368 68.254 Z " fill="rgb(175,60,25)"/><g id="Group"><path d=" M 256.969 105.908 C 255.518 105.908 254.057 105.646 252.623 105.129 C 252.551 105.112 252.479 105.089 252.409 105.061 L 251.95 104.869 C 251.872 104.836 251.798 104.797 251.727 104.752 C 248.573 103.228 246.317 100.669 245.363 97.525 C 244.481 94.616 244.299 89.715 248.445 82.884 C 255.348 71.513 262.568 60.992 268.605 60.992 C 269.115 60.992 269.613 61.065 270.089 61.209 C 270.204 61.229 270.318 61.262 270.429 61.31 C 270.449 61.318 270.475 61.331 270.503 61.345 C 270.563 61.366 270.621 61.392 270.677 61.42 C 270.744 61.454 270.809 61.492 270.869 61.535 C 276.33 64.49 274.693 75.931 270.549 92.173 C 267.385 104.57 259.998 105.908 256.969 105.908 L 256.969 105.908 Z " fill="rgb(219,85,38)"/><path d=" M 268.606 62.492 C 269.025 62.492 269.433 62.56 269.826 62.7 L 269.834 62.685 C 269.863 62.698 269.889 62.715 269.918 62.729 C 269.947 62.74 269.979 62.746 270.008 62.76 L 270.002 62.773 C 275.207 65.296 272.219 79.569 269.098 91.8 C 266.711 101.149 261.723 104.407 256.97 104.407 C 255.598 104.407 254.245 104.136 252.981 103.66 L 252.977 103.67 C 252.903 103.64 252.831 103.605 252.758 103.573 C 252.684 103.544 252.608 103.515 252.533 103.484 L 252.539 103.474 C 247.072 100.926 243.277 94.289 249.728 83.661 C 255.806 73.651 263.218 62.491 268.606 62.492 Z  M 268.606 59.492 C 262.205 59.492 255.405 68.532 247.164 82.106 C 242.73 89.41 242.958 94.759 243.929 97.96 C 245 101.488 247.51 104.359 251.013 106.071 C 251.127 106.138 251.246 106.198 251.369 106.25 C 251.445 106.282 251.523 106.313 251.6 106.343 C 251.699 106.387 251.771 106.419 251.843 106.448 C 251.955 106.494 252.071 106.533 252.187 106.565 C 253.76 107.124 255.369 107.407 256.969 107.407 C 260.348 107.407 268.577 105.959 272.003 92.542 C 276.432 75.189 277.913 63.697 271.645 60.246 C 271.55 60.184 271.452 60.128 271.348 60.076 C 271.259 60.032 271.176 59.995 271.1 59.965 C 271.076 59.954 271.051 59.943 271.026 59.932 C 270.832 59.848 270.632 59.785 270.431 59.744 C 269.843 59.577 269.231 59.492 268.606 59.492 L 268.606 59.492 L 268.606 59.492 L 268.606 59.492 Z " fill="rgb(0,0,0)"/></g><g id="Group"><path d=" M 141.835 105.908 C 138.806 105.908 131.419 104.57 128.253 92.172 C 124.108 75.927 122.472 64.486 127.936 61.532 C 127.996 61.49 128.059 61.452 128.125 61.419 C 128.17 61.397 128.341 61.324 128.374 61.31 C 128.487 61.261 128.603 61.227 128.72 61.207 C 129.194 61.064 129.69 60.992 130.197 60.992 C 136.234 60.992 143.454 71.513 150.357 82.884 C 154.503 89.714 154.322 94.614 153.44 97.523 C 152.486 100.669 150.226 103.231 147.067 104.755 C 146.999 104.798 146.927 104.836 146.852 104.867 L 146.394 105.059 C 146.323 105.088 146.249 105.112 146.175 105.129 C 144.744 105.647 143.284 105.908 141.835 105.908 Z " fill="rgb(219,85,38)"/><path d=" M 130.197 62.492 C 135.585 62.492 142.997 73.651 149.075 83.662 C 155.528 94.291 151.731 100.928 146.265 103.475 L 146.27 103.485 C 146.196 103.516 146.121 103.545 146.046 103.574 C 145.974 103.605 145.901 103.64 145.827 103.671 L 145.823 103.661 C 144.558 104.136 143.205 104.408 141.833 104.408 C 137.08 104.408 132.092 101.15 129.705 91.801 C 126.584 79.57 123.596 65.297 128.801 62.774 L 128.795 62.761 C 128.824 62.746 128.856 62.74 128.885 62.73 C 128.915 62.716 128.941 62.699 128.97 62.686 L 128.977 62.701 C 129.371 62.56 129.779 62.492 130.197 62.492 Z  M 130.197 59.492 C 129.569 59.492 128.954 59.578 128.362 59.748 C 128.165 59.789 127.969 59.85 127.778 59.933 C 127.755 59.943 127.733 59.953 127.71 59.963 C 127.632 59.994 127.546 60.031 127.455 60.077 C 127.351 60.129 127.252 60.186 127.157 60.248 C 120.891 63.701 122.373 75.193 126.8 92.542 C 130.226 105.959 138.456 107.407 141.835 107.407 C 143.438 107.407 145.046 107.123 146.622 106.563 C 146.737 106.532 146.851 106.493 146.962 106.448 C 147.043 106.415 147.122 106.38 147.201 106.344 L 147.201 106.344 L 147.201 106.344 C 147.279 106.314 147.358 106.283 147.435 106.25 C 147.558 106.198 147.677 106.138 147.791 106.071 C 151.295 104.359 153.806 101.487 154.876 97.958 C 155.847 94.757 156.073 89.408 151.64 82.104 C 143.399 68.532 136.599 59.492 130.197 59.492 L 130.197 59.492 Z " fill="rgb(0,0,0)"/></g><path d=" M 269.097 91.801 C 272.218 79.57 275.206 65.297 270.001 62.774 L 270.007 62.761 C 269.978 62.746 269.946 62.74 269.917 62.73 C 269.888 62.716 269.862 62.699 269.833 62.686 L 269.825 62.701 C 267.973 62.037 265.813 63.004 263.512 64.99 C 263.512 64.995 263.51 65 263.51 65 C 270.885 64.63 265.51 78.005 262.01 90.005 C 258.598 101.704 251.266 102.353 248.121 99.829 C 249.244 101.452 250.807 102.67 252.537 103.476 L 252.531 103.486 C 252.605 103.517 252.681 103.546 252.756 103.575 C 252.828 103.606 252.901 103.641 252.975 103.672 L 252.979 103.662 C 258.624 105.782 266.021 103.848 269.097 91.801 Z " fill="rgb(175,60,25)"/><path d=" M 149.075 83.662 C 142.524 72.872 134.424 60.748 128.977 62.7 L 128.97 62.685 C 128.941 62.698 128.915 62.715 128.885 62.729 C 128.856 62.74 128.824 62.746 128.795 62.76 L 128.801 62.773 C 127.42 63.443 126.62 64.945 126.242 67.011 L 126.26 67.128 C 127.51 65.003 135.76 64.378 141.76 78.628 C 147.733 92.812 148.498 103.153 137.411 103.372 C 140.186 104.755 143.194 104.647 145.823 103.66 L 145.827 103.67 C 145.901 103.64 145.973 103.605 146.046 103.573 C 146.12 103.544 146.195 103.515 146.27 103.484 L 146.265 103.474 C 151.732 100.928 155.529 94.291 149.075 83.662 Z " fill="rgb(175,60,25)"/><path d=" M 215.993 232.006 C 217.676 233.805 223.155 240.928 215.055 250.5 C 205.646 261.619 195.014 260.641 184.75 255.143 C 184.742 255.186 184.736 255.229 184.729 255.27 C 194.706 262.743 196.74 267.596 197.01 272.338 C 203.178 262.17 217.451 258.932 224.01 252.67 C 231.344 245.67 239.844 234.338 241.177 222.838 C 231.208 228.973 222.898 231.92 215.993 232.006 Z " fill="rgb(175,60,25)"/><path d=" M 226.665 263.528 L 255.061 263.528 L 255.061 253.35 L 230.435 253.35 L 230.31 253.469 C 236.937 254.071 238.763 261.461 226.665 263.528 Z " fill="rgb(9,54,79)"/><path d=" M 99.851 279.889 L 57.161 263.01 C 55.98 262.67 54.807 262.307 53.642 261.906 C 41.97 257.9 31.262 250.646 23.015 240.269 C 14.768 229.89 10.122 217.82 8.855 205.546 C 8.73 204.321 8.64 203.095 8.578 201.868 L 3.006 203.128 C 3.011 205.388 3.144 207.646 3.375 209.899 C 4.643 222.174 9.288 234.245 17.535 244.622 C 25.624 254.804 36.084 261.968 47.496 266.018 L 47.496 266.018 C 47.719 266.098 47.938 266.184 48.162 266.26 C 50.304 266.994 104.275 286.78 106.475 287.295 L 99.851 279.889 Z " fill="rgb(168,168,168)"/><g id="Group"><path d=" M 199.511 115.504 C 199.511 115.504 199.079 115.441 198.281 115.266 C 197.483 115.087 196.31 114.811 194.857 114.319 C 193.404 113.832 191.655 113.167 189.735 112.199 C 187.814 111.239 185.698 110.008 183.594 108.356 C 181.489 106.715 179.373 104.676 177.525 102.186 C 175.664 99.711 174.109 96.768 173.056 93.539 C 172 90.314 171.391 86.82 171.34 83.276 C 171.318 81.516 171.389 79.695 171.511 77.996 C 171.606 76.28 171.766 74.5 171.93 72.756 C 172.294 69.265 172.809 65.782 173.467 62.377 C 174.122 58.97 175.012 55.656 176.062 52.505 C 178.15 46.205 181.262 40.633 184.888 36.691 C 186.683 34.708 188.563 33.122 190.332 31.894 C 192.099 30.657 193.755 29.776 195.132 29.105 C 196.506 28.425 197.636 28.011 198.392 27.704 C 199.158 27.419 199.566 27.267 199.566 27.267 C 199.566 27.267 199.181 27.47 198.46 27.85 C 197.746 28.243 196.701 28.823 195.418 29.622 C 194.137 30.423 192.629 31.467 191.025 32.797 C 189.426 34.134 187.778 35.809 186.193 37.795 C 184.612 39.787 183.173 42.148 181.87 44.749 C 180.566 47.355 179.51 50.259 178.567 53.308 C 177.632 56.363 176.926 59.602 176.308 62.915 C 175.702 66.231 175.233 69.635 174.911 73.06 C 174.592 76.441 174.233 79.98 174.24 83.231 C 174.286 86.526 174.689 89.757 175.586 92.748 C 176.483 95.732 177.756 98.503 179.363 100.89 C 180.975 103.272 182.821 105.32 184.704 107.028 C 188.514 110.417 192.348 112.489 195.078 113.761 C 197.825 115.028 199.511 115.504 199.511 115.504 Z " fill="rgb(232,117,82)"/></g><g id="Group"><path d=" M 201.696 115.478 C 201.696 115.478 201.359 115.306 200.745 114.936 C 200.141 114.555 199.247 113.993 198.202 113.152 C 197.158 112.314 195.901 111.257 194.633 109.872 C 194.311 109.528 193.979 109.174 193.637 108.809 C 193.321 108.422 192.995 108.023 192.661 107.615 C 191.967 106.813 191.346 105.891 190.698 104.924 C 189.388 103.002 188.183 100.769 187.142 98.302 C 186.847 97.698 186.627 97.057 186.408 96.407 C 186.182 95.757 185.955 95.099 185.724 94.435 C 185.467 93.776 185.325 93.08 185.157 92.382 C 184.992 91.683 184.825 90.977 184.657 90.266 C 184.108 87.399 183.697 84.395 183.667 81.329 C 183.546 79.795 183.708 78.26 183.763 76.713 L 183.88 74.37 L 184.118 72.108 C 184.303 70.598 184.446 69.101 184.672 67.587 C 184.897 66.073 185.12 64.566 185.342 63.07 C 185.845 60.094 186.456 57.188 187.141 54.391 C 187.815 51.592 188.641 48.925 189.521 46.429 C 189.961 45.182 190.459 43.988 190.916 42.831 C 191.456 41.702 191.927 40.595 192.472 39.571 C 193.53 37.51 194.65 35.699 195.762 34.185 C 196.297 33.415 196.865 32.742 197.368 32.109 C 197.911 31.507 198.385 30.936 198.853 30.457 C 199.765 29.478 200.54 28.771 201.048 28.272 C 201.564 27.78 201.839 27.517 201.839 27.517 C 201.839 27.517 200.886 28.711 199.312 30.838 C 198.529 31.903 197.639 33.233 196.723 34.811 C 196.271 35.603 195.797 36.448 195.367 37.376 C 194.895 38.28 194.479 39.272 194.033 40.297 C 193.588 41.322 193.219 42.435 192.787 43.558 C 192.432 44.716 192.002 45.886 191.65 47.122 C 190.937 49.592 190.304 52.23 189.716 54.978 C 189.456 56.361 189.139 57.752 188.913 59.185 C 188.679 60.615 188.442 62.061 188.203 63.52 C 188.004 64.981 187.802 66.454 187.599 67.932 C 187.394 69.409 187.271 70.936 187.098 72.439 L 186.832 74.698 L 186.702 76.888 C 186.634 78.36 186.457 79.828 186.559 81.281 C 186.578 82.008 186.597 82.732 186.617 83.452 C 186.619 84.174 186.633 84.892 186.734 85.596 C 186.809 86.304 186.884 87.007 186.96 87.705 C 187.041 88.403 187.081 89.104 187.245 89.776 C 187.541 91.123 187.732 92.479 188.092 93.759 C 188.274 94.399 188.453 95.033 188.631 95.659 C 188.803 96.288 188.975 96.909 189.222 97.494 C 190.093 99.877 191.061 102.091 192.16 104.028 C 192.436 104.513 192.706 104.987 192.971 105.451 C 193.238 105.914 193.553 106.33 193.824 106.762 C 194.105 107.188 194.379 107.603 194.645 108.007 C 194.938 108.391 195.223 108.765 195.499 109.127 C 196.034 109.869 196.605 110.502 197.119 111.105 C 197.619 111.723 198.144 112.226 198.596 112.708 C 200.444 114.596 201.696 115.478 201.696 115.478 Z " fill="rgb(204,83,55)"/></g></g></svg>