<?xml version="1.0" standalone="no"?><!-- Generator: Gravit.io --><svg xmlns="http://www.w3.org/2000/svg" xmlns:xlink="http://www.w3.org/1999/xlink" style="isolation:isolate" viewBox="0 0 350 310" width="350" height="310"><defs><clipPath id="_clipPath_r3i7T8o2gem48qRK1EP4cFWKeRiEnus9"><rect width="350" height="310"/></clipPath></defs><g clip-path="url(#_clipPath_r3i7T8o2gem48qRK1EP4cFWKeRiEnus9)"><g id="Group"><g id="Group"><path d=" M 315.993 257.026 C 302.644 242.457 287.935 218.013 293.667 184.303 L 293.918 182.824 L 313.159 186.097 L 312.907 187.576 C 308.636 212.707 319.354 231.287 329.097 242.448 L 329.953 243.429 L 317.132 258.268 L 315.993 257.026 Z " fill="rgb(239,184,134)"/><g id="Group"><path d=" M 295.145 184.554 L 311.428 187.325 C 307.002 213.368 318.418 232.496 327.967 243.434 L 317.099 256.012 C 304.946 242.747 289.386 218.427 295.145 184.554 Z  M 292.69 181.093 L 292.187 184.051 C 289.532 199.671 291.02 214.829 296.612 229.105 C 300.691 239.521 306.841 249.255 314.887 258.039 L 317.164 260.525 L 319.368 257.973 L 330.236 245.395 L 331.94 243.424 L 330.226 241.461 C 320.697 230.544 310.212 212.378 314.385 187.827 L 314.887 184.87 L 311.93 184.367 L 295.647 181.596 L 292.69 181.093 L 292.69 181.093 Z " fill="rgb(0,0,0)"/></g></g><g id="Group"><path d=" M 300.321 185.434 C 296.515 215.848 309.862 238.159 321.246 251.212 L 317.1 256.012 C 304.947 242.747 289.387 218.427 295.146 184.554 L 300.321 185.434 Z " fill="rgb(183,126,83)"/></g></g><g id="Group"><g id="Group"><path d=" M 141.706 239.184 L 142.734 238.384 C 154.426 229.284 168.489 213.088 169.087 187.604 L 169.122 186.105 L 188.633 186.558 L 188.599 188.058 C 187.8 222.242 168.702 243.434 152.821 255.192 L 151.466 256.196 L 141.706 239.184 Z " fill="rgb(239,184,134)"/><g id="Group"><path d=" M 170.586 187.639 L 187.099 188.023 C 186.296 222.374 166.386 243.282 151.928 253.987 L 143.656 239.568 C 155.115 230.65 169.967 214.049 170.586 187.639 Z  M 167.658 184.57 L 167.588 187.569 C 167.004 212.465 153.25 228.3 141.814 237.201 L 139.757 238.801 L 141.054 241.062 L 149.326 255.481 L 151.004 258.405 L 153.713 256.399 C 163.287 249.31 171.178 240.926 177.168 231.479 C 185.377 218.532 189.728 203.934 190.098 188.094 L 190.168 185.094 L 187.168 185.025 L 170.656 184.641 L 167.658 184.57 L 167.658 184.57 Z " fill="rgb(0,0,0)"/></g></g><g id="Group"><path d=" M 181.85 187.901 C 179.789 218.482 162.435 237.84 148.772 248.485 L 151.928 253.987 C 166.386 243.282 186.296 222.374 187.099 188.023 L 181.85 187.901 Z " fill="rgb(183,126,83)"/></g></g><g id="Group"><path d=" M 171.852 217.461 C 160.004 217.46 150.748 213.049 150.36 212.861 C 149.998 212.685 149.721 212.372 149.592 211.99 C 149.463 211.608 149.493 211.19 149.676 210.831 L 161.432 187.683 C 161.696 187.163 162.223 186.863 162.77 186.863 C 162.99 186.863 163.214 186.911 163.425 187.014 C 164.245 187.412 183.596 196.934 191.6 210.759 C 191.804 211.111 191.856 211.53 191.746 211.92 C 191.636 212.31 191.371 212.639 191.014 212.831 C 185.31 215.903 178.864 217.461 171.855 217.461 C 171.853 217.461 171.853 217.461 171.852 217.461 Z " fill="rgb(255,255,255)"/><path d=" M 162.769 188.363 C 162.769 188.363 182.436 197.924 190.302 211.511 C 184.103 214.849 177.673 215.961 171.852 215.961 C 160.211 215.961 151.013 211.511 151.013 211.511 L 162.769 188.363 Z  M 162.771 185.362 C 161.676 185.362 160.623 185.964 160.094 187.005 L 148.338 210.153 C 147.973 210.872 147.913 211.707 148.17 212.469 C 148.427 213.233 148.981 213.861 149.706 214.211 C 150.107 214.405 159.664 218.961 171.852 218.961 C 179.113 218.961 185.799 217.343 191.724 214.152 C 192.439 213.767 192.967 213.109 193.189 212.328 C 193.41 211.548 193.305 210.71 192.899 210.008 C 184.668 195.789 164.918 186.071 164.081 185.664 C 163.659 185.459 163.211 185.362 162.771 185.362 L 162.771 185.362 Z " fill="rgb(0,0,0)"/></g><g id="Group"><path d=" M 303.808 217.461 C 296.798 217.461 290.351 215.903 284.647 212.831 C 284.29 212.639 284.025 212.31 283.915 211.92 C 283.805 211.529 283.856 211.11 284.061 210.759 C 292.065 196.934 311.416 187.412 312.236 187.014 C 312.448 186.911 312.671 186.863 312.891 186.863 C 313.438 186.863 313.965 187.164 314.23 187.683 L 325.986 210.831 C 326.168 211.19 326.198 211.608 326.07 211.99 C 325.941 212.372 325.664 212.685 325.301 212.861 C 324.912 213.049 315.656 217.461 303.808 217.461 Z " fill="rgb(255,255,255)"/><path d=" M 312.891 188.363 L 324.647 211.511 C 324.647 211.511 315.449 215.961 303.808 215.961 C 297.987 215.961 291.557 214.849 285.358 211.511 C 293.224 197.923 312.891 188.363 312.891 188.363 Z  M 312.889 185.362 C 312.449 185.362 312.001 185.46 311.579 185.665 C 310.742 186.072 290.992 195.79 282.761 210.009 C 282.355 210.711 282.25 211.549 282.471 212.329 C 282.693 213.11 283.221 213.768 283.936 214.153 C 289.861 217.343 296.547 218.962 303.808 218.962 C 315.996 218.962 325.552 214.406 325.954 214.212 C 326.68 213.861 327.232 213.233 327.49 212.47 C 327.748 211.707 327.687 210.872 327.322 210.154 L 315.566 187.006 C 315.038 185.964 313.984 185.362 312.889 185.362 L 312.889 185.362 Z " fill="rgb(0,0,0)"/></g><g id="Group"><g id="Group"><g id="Group"><path d=" M 192.358 209.012 C 192.173 209.012 191.989 208.978 191.814 208.909 L 142.041 189.54 C 141.269 189.24 140.887 188.371 141.187 187.599 C 144.402 179.337 153.256 173.999 163.744 173.999 C 167.82 173.999 171.891 174.779 175.843 176.317 C 182.809 179.027 188.514 183.783 191.906 189.708 C 195.358 195.737 196.015 202.253 193.757 208.056 C 193.613 208.427 193.327 208.725 192.963 208.885 C 192.77 208.97 192.564 209.012 192.358 209.012 Z " fill="rgb(170,170,170)"/><path d=" M 163.743 175.499 C 167.499 175.499 171.435 176.211 175.298 177.715 C 189.043 183.063 196.68 196.404 192.358 207.512 L 142.585 188.143 C 145.692 180.158 154.134 175.499 163.743 175.499 Z  M 163.743 172.499 C 152.632 172.499 143.229 178.213 139.788 187.055 C 139.187 188.599 139.952 190.338 141.496 190.939 L 191.269 210.308 C 191.62 210.444 191.988 210.512 192.357 210.512 C 192.769 210.512 193.18 210.427 193.565 210.258 C 194.293 209.938 194.864 209.341 195.153 208.6 C 197.579 202.367 196.887 195.393 193.206 188.963 C 189.644 182.741 183.671 177.753 176.386 174.919 C 172.26 173.314 168.006 172.499 163.743 172.499 L 163.743 172.499 Z " fill="rgb(0,0,0)"/></g></g></g><g id="Group"><path d=" M 317.946 269.023 C 307.054 269.023 298.194 260.163 298.194 249.271 C 298.194 238.38 307.054 229.52 317.946 229.52 C 328.838 229.52 337.698 238.38 337.698 249.271 C 337.698 260.162 328.837 269.023 317.946 269.023 Z " fill="rgb(170,170,170)"/><g id="Group"><path d=" M 317.946 231.02 C 328.026 231.02 336.198 239.191 336.198 249.271 C 336.198 259.351 328.026 267.523 317.946 267.523 C 307.866 267.523 299.694 259.351 299.694 249.271 C 299.694 239.191 307.866 231.02 317.946 231.02 Z  M 317.946 228.02 C 306.227 228.02 296.694 237.553 296.694 249.271 C 296.694 260.99 306.227 270.523 317.946 270.523 C 329.665 270.523 339.198 260.99 339.198 249.271 C 339.198 237.553 329.664 228.02 317.946 228.02 L 317.946 228.02 Z " fill="rgb(0,0,0)"/></g></g><path d=" M 336.198 249.271 C 336.198 249.238 336.194 249.204 336.194 249.169 C 330.311 258.122 319.96 258.739 313.325 254.759 C 306.258 250.521 304.478 242.551 305.512 235.937 C 301.94 239.269 299.694 244.001 299.694 249.271 C 299.694 259.351 307.866 267.523 317.946 267.523 C 328.026 267.523 336.198 259.351 336.198 249.271 Z " fill="rgb(127,127,127)"/><g id="Group"><g id="Group"><g id="Group"><path d=" M 283.295 209.012 C 283.089 209.012 282.883 208.97 282.691 208.885 C 282.327 208.725 282.041 208.427 281.897 208.056 C 279.638 202.253 280.295 195.738 283.748 189.708 C 287.14 183.783 292.845 179.027 299.811 176.317 C 303.763 174.779 307.833 173.999 311.911 173.999 C 322.398 173.999 331.253 179.337 334.467 187.599 C 334.768 188.371 334.386 189.241 333.613 189.54 L 283.84 208.909 C 283.664 208.978 283.48 209.012 283.295 209.012 Z " fill="rgb(170,170,170)"/><path d=" M 311.911 175.499 C 321.519 175.499 329.962 180.157 333.069 188.143 L 283.296 207.512 C 278.974 196.405 286.61 183.063 300.356 177.715 C 304.218 176.211 308.154 175.499 311.911 175.499 Z  M 311.911 172.499 L 311.911 172.499 C 307.647 172.499 303.393 173.313 299.267 174.919 C 291.982 177.753 286.008 182.741 282.447 188.963 C 278.765 195.393 278.074 202.366 280.5 208.6 C 280.789 209.341 281.36 209.938 282.088 210.258 C 282.473 210.427 282.884 210.512 283.296 210.512 C 283.665 210.512 284.033 210.444 284.384 210.308 L 334.157 190.939 C 335.701 190.338 336.466 188.599 335.865 187.055 C 332.424 178.213 323.021 172.499 311.911 172.499 L 311.911 172.499 Z " fill="rgb(0,0,0)"/></g></g></g><g id="Group"><path d=" M 185.934 259.523 C 182.35 259.523 179.434 256.607 179.434 253.023 L 179.434 185.669 C 179.434 182.085 182.35 179.169 185.934 179.169 L 288.895 178.196 C 292.493 178.196 295.409 181.112 295.409 184.696 L 295.409 253.022 C 295.409 256.606 292.493 259.522 288.909 259.522 L 185.934 259.522 L 185.934 259.523 Z " fill="rgb(0,0,0)"/><g id="Group"><path d=" M 288.909 179.697 C 291.671 179.697 293.909 181.935 293.909 184.697 L 293.909 253.023 C 293.909 255.785 291.671 258.023 288.909 258.023 L 185.934 258.023 C 183.172 258.023 180.934 255.785 180.934 253.023 L 180.934 185.669 C 180.934 182.907 183.172 180.669 185.934 180.669 L 288.909 179.697 Z  M 288.909 176.697 C 288.899 176.697 288.89 176.697 288.881 176.697 L 185.906 177.67 C 181.523 177.67 177.934 181.259 177.934 185.67 L 177.934 253.024 C 177.934 257.435 181.523 261.024 185.934 261.024 L 288.909 261.024 C 293.32 261.024 296.909 257.435 296.909 253.024 L 296.909 184.698 C 296.909 180.285 293.32 176.697 288.909 176.697 L 288.909 176.697 Z " fill="rgb(0,0,0)"/></g></g><path d=" M 157.741 295.004 C 157.741 287.632 195.135 281.646 241.194 281.646 C 287.253 281.646 324.647 287.632 324.647 295.004 C 324.647 302.376 287.253 308.362 241.194 308.362 C 195.135 308.362 157.741 302.376 157.741 295.004 Z " fill="rgb(211,211,211)"/><g id="Group"><path d=" M 251.459 298.808 C 250.631 298.808 249.959 298.136 249.959 297.308 L 249.959 277.377 C 249.959 270.464 244.334 264.839 237.421 264.839 C 230.508 264.839 224.883 270.464 224.883 277.377 L 224.883 297.308 C 224.883 298.136 224.211 298.808 223.383 298.808 L 180.934 298.808 C 180.106 298.808 179.434 298.136 179.434 297.308 L 179.434 250.284 C 179.434 249.456 180.106 248.784 180.934 248.784 L 293.909 248.784 C 294.737 248.784 295.409 249.456 295.409 250.284 L 295.409 297.308 C 295.409 298.136 294.737 298.808 293.909 298.808 L 251.459 298.808 Z " fill="rgb(0,0,0)"/><path d=" M 293.909 250.284 L 293.909 297.308 L 251.46 297.308 L 251.46 277.377 C 251.46 269.624 245.175 263.339 237.422 263.339 C 229.669 263.339 223.384 269.624 223.384 277.377 L 223.384 297.308 L 180.935 297.308 L 180.935 250.284 L 293.909 250.284 Z  M 293.909 247.284 L 180.934 247.284 C 179.277 247.284 177.934 248.627 177.934 250.284 L 177.934 297.308 C 177.934 298.965 179.277 300.308 180.934 300.308 L 223.383 300.308 C 225.04 300.308 226.383 298.965 226.383 297.308 L 226.383 277.377 C 226.383 271.29 231.334 266.339 237.421 266.339 C 243.508 266.339 248.459 271.29 248.459 277.377 L 248.459 297.308 C 248.459 298.965 249.802 300.308 251.459 300.308 L 293.908 300.308 C 295.565 300.308 296.908 298.965 296.908 297.308 L 296.908 250.284 C 296.909 248.626 295.566 247.284 293.909 247.284 L 293.909 247.284 Z " fill="rgb(0,0,0)"/></g><g id="Group"><path d=" M 174.934 291.023 C 174.496 291.023 174.08 290.832 173.796 290.501 C 173.511 290.169 173.385 289.73 173.451 289.297 L 179.451 250.058 C 179.562 249.326 180.192 248.785 180.933 248.785 L 293.908 248.785 C 294.649 248.785 295.279 249.326 295.39 250.058 L 301.39 289.297 C 301.456 289.73 301.33 290.169 301.045 290.501 C 300.761 290.832 300.345 291.023 299.907 291.023 L 174.934 291.023 Z " fill="rgb(255,255,255)"/><g id="Group"><path d=" M 293.909 250.284 L 299.909 289.523 L 174.934 289.523 L 180.934 250.284 L 293.909 250.284 Z  M 293.909 247.284 L 180.934 247.284 C 179.453 247.284 178.193 248.366 177.968 249.831 L 171.968 289.07 C 171.836 289.934 172.088 290.814 172.657 291.477 C 173.227 292.141 174.058 292.523 174.933 292.523 L 299.908 292.523 C 300.783 292.523 301.614 292.141 302.184 291.477 C 302.753 290.814 303.005 289.934 302.873 289.07 L 296.873 249.831 C 296.65 248.366 295.39 247.284 293.909 247.284 L 293.909 247.284 Z " fill="rgb(0,0,0)"/></g></g><g id="Group"><path d=" M 293.909 250.284 L 284.021 250.284 L 288.97 289.523 L 299.909 289.523 L 293.909 250.284 Z " fill="rgb(209,209,209)"/></g><g id="Group"><path d=" M 238.03 131.355 C 229.348 131.355 222.286 124.292 222.286 115.611 C 222.286 106.93 229.349 99.867 238.03 99.867 C 246.711 99.867 253.774 106.93 253.774 115.611 C 253.774 124.292 246.711 131.355 238.03 131.355 Z " fill="rgb(229,229,229)"/><path d=" M 238.03 101.367 C 245.896 101.367 252.274 107.745 252.274 115.611 C 252.274 123.477 245.896 129.855 238.03 129.855 C 230.164 129.855 223.786 123.477 223.786 115.611 C 223.786 107.745 230.163 101.367 238.03 101.367 Z  M 238.03 98.367 C 228.521 98.367 220.786 106.103 220.786 115.611 C 220.786 125.119 228.521 132.855 238.03 132.855 C 247.539 132.855 255.274 125.119 255.274 115.611 C 255.274 106.103 247.538 98.367 238.03 98.367 L 238.03 98.367 Z " fill="rgb(0,0,0)"/></g><g id="Group"><path d=" M 180.934 227.532 C 180.106 227.532 179.434 226.86 179.434 226.032 L 179.434 188.363 C 179.434 187.535 180.106 186.863 180.934 186.863 L 293.909 186.863 C 294.737 186.863 295.409 187.535 295.409 188.363 L 295.409 226.032 C 295.409 226.86 294.737 227.532 293.909 227.532 L 180.934 227.532 Z " fill="rgb(170,170,170)"/><g id="Group"><path d=" M 293.909 188.363 L 293.909 226.032 L 180.934 226.032 L 180.934 188.363 L 293.909 188.363 Z  M 293.909 185.363 L 180.934 185.363 C 179.277 185.363 177.934 186.706 177.934 188.363 L 177.934 226.032 C 177.934 227.689 179.277 229.032 180.934 229.032 L 293.909 229.032 C 295.566 229.032 296.909 227.689 296.909 226.032 L 296.909 188.363 C 296.909 186.705 295.566 185.363 293.909 185.363 L 293.909 185.363 Z " fill="rgb(0,0,0)"/></g></g><g id="Group"><path d=" M 238.03 227.532 C 194.24 227.532 158.614 179.117 158.614 119.606 C 158.614 79.323 194.24 46.55 238.03 46.55 C 281.82 46.55 317.446 79.322 317.446 119.606 C 317.446 179.117 281.82 227.532 238.03 227.532 Z " fill="rgb(239,184,134)"/><path d=" M 238.03 48.05 C 281.061 48.05 315.946 80.087 315.946 119.606 C 315.946 178.383 281.061 226.032 238.03 226.032 C 194.998 226.032 160.114 178.384 160.114 119.606 C 160.114 80.087 194.997 48.05 238.03 48.05 Z  M 238.03 45.05 C 193.413 45.05 157.114 78.495 157.114 119.606 C 157.114 148.666 165.425 176.021 180.514 196.632 C 195.81 217.526 216.236 229.031 238.03 229.031 C 259.823 229.031 280.249 217.525 295.546 196.632 C 310.636 176.021 318.946 148.665 318.946 119.606 C 318.946 78.495 282.647 45.05 238.03 45.05 L 238.03 45.05 Z " fill="rgb(0,0,0)"/></g><g id="Group"><path d=" M 238.03 48.05 C 269.358 48.05 294.755 80.087 294.755 119.606 C 294.755 178.383 269.359 226.032 238.03 226.032 C 281.061 226.032 315.946 178.384 315.946 119.606 C 315.946 80.087 281.061 48.05 238.03 48.05 Z " fill="rgb(183,126,83)"/></g><path d=" M 194.092 144.196 C 194.092 140.247 197.298 137.041 201.247 137.041 C 205.196 137.041 208.402 140.247 208.402 144.196 C 208.402 148.145 205.196 151.351 201.247 151.351 C 197.298 151.351 194.092 148.145 194.092 144.196 Z " fill="rgb(0,0,0)"/><path d=" M 267.646 144.196 C 267.646 140.247 270.852 137.041 274.801 137.041 C 278.75 137.041 281.956 140.247 281.956 144.196 C 281.956 148.145 278.75 151.351 274.801 151.351 C 270.852 151.351 267.646 148.145 267.646 144.196 Z " fill="rgb(0,0,0)"/><g id="Group"><path d=" M 237.037 288.25 C 236.891 288.25 236.745 288.229 236.603 288.186 L 220.037 283.186 C 219.353 282.98 218.909 282.32 218.977 281.608 L 221.977 250.141 C 222.05 249.371 222.697 248.784 223.47 248.784 L 250.72 248.784 C 251.493 248.784 252.14 249.372 252.213 250.141 L 255.213 281.608 C 255.281 282.321 254.836 282.982 254.15 283.187 L 237.466 288.187 C 237.327 288.229 237.182 288.25 237.037 288.25 Z " fill="rgb(170,170,170)"/><g id="Group"><path d=" M 250.72 250.284 L 253.72 281.751 L 237.036 286.751 L 220.47 281.751 L 223.47 250.284 L 250.72 250.284 Z  M 250.72 247.284 L 223.47 247.284 C 221.923 247.284 220.63 248.46 220.484 249.999 L 217.484 281.466 C 217.348 282.889 218.235 284.21 219.603 284.623 L 236.169 289.623 C 236.452 289.708 236.744 289.751 237.036 289.751 C 237.326 289.751 237.616 289.709 237.897 289.625 L 254.581 284.625 C 255.952 284.214 256.842 282.892 256.706 281.466 L 253.706 249.999 C 253.56 248.459 252.267 247.284 250.72 247.284 L 250.72 247.284 Z " fill="rgb(0,0,0)"/></g></g><g id="Group"><path d=" M 180.934 251.784 C 180.106 251.784 179.434 251.112 179.434 250.284 L 179.434 240.107 C 179.434 239.279 180.106 238.607 180.934 238.607 L 293.909 238.607 C 294.737 238.607 295.409 239.279 295.409 240.107 L 295.409 250.284 C 295.409 251.112 294.737 251.784 293.909 251.784 L 180.934 251.784 Z " fill="rgb(170,170,170)"/><g id="Group"><path d=" M 293.909 240.107 L 293.909 250.284 L 180.934 250.284 L 180.934 240.107 L 293.909 240.107 Z  M 293.909 237.107 L 180.934 237.107 C 179.277 237.107 177.934 238.45 177.934 240.107 L 177.934 250.284 C 177.934 251.941 179.277 253.284 180.934 253.284 L 293.909 253.284 C 295.566 253.284 296.909 251.941 296.909 250.284 L 296.909 240.107 C 296.909 238.45 295.566 237.107 293.909 237.107 L 293.909 237.107 Z " fill="rgb(0,0,0)"/></g></g><g id="Group"><path d=" M 176.039 298.808 C 175.211 298.808 174.539 298.136 174.539 297.308 C 174.539 281.954 187.029 269.464 202.383 269.464 C 217.737 269.464 230.227 281.954 230.227 297.308 C 230.227 298.136 229.555 298.808 228.727 298.808 L 176.039 298.808 Z " fill="rgb(170,170,170)"/><g id="Group"><path d=" M 202.383 270.964 C 216.932 270.964 228.727 282.759 228.727 297.308 L 176.039 297.308 C 176.039 282.759 187.834 270.964 202.383 270.964 Z  M 202.383 267.964 C 186.202 267.964 173.039 281.127 173.039 297.308 C 173.039 298.965 174.382 300.308 176.039 300.308 L 228.727 300.308 C 230.384 300.308 231.727 298.965 231.727 297.308 C 231.727 281.127 218.564 267.964 202.383 267.964 L 202.383 267.964 Z " fill="rgb(0,0,0)"/></g></g><g id="Group"><path d=" M 246.289 298.808 C 245.461 298.808 244.789 298.136 244.789 297.308 C 244.789 281.954 257.279 269.464 272.633 269.464 C 287.987 269.464 300.477 281.954 300.477 297.308 C 300.477 298.136 299.805 298.808 298.977 298.808 L 246.289 298.808 Z " fill="rgb(170,170,170)"/><g id="Group"><path d=" M 272.633 270.964 C 287.182 270.964 298.977 282.759 298.977 297.308 L 246.289 297.308 C 246.289 282.759 258.084 270.964 272.633 270.964 Z  M 272.633 267.964 C 256.452 267.964 243.289 281.127 243.289 297.308 C 243.289 298.965 244.632 300.308 246.289 300.308 L 298.977 300.308 C 300.634 300.308 301.977 298.965 301.977 297.308 C 301.977 281.127 288.814 267.964 272.633 267.964 L 272.633 267.964 Z " fill="rgb(0,0,0)"/></g></g><g id="Group"><path d=" M 202.383 270.964 C 200.886 270.964 199.421 271.095 197.992 271.335 C 210.45 273.427 219.945 284.255 219.945 297.308 L 228.726 297.308 C 228.727 282.759 216.932 270.964 202.383 270.964 Z " fill="rgb(127,127,127)"/></g><g id="Group"><path d=" M 272.633 270.964 C 271.136 270.964 269.671 271.095 268.242 271.335 C 280.7 273.427 290.195 284.255 290.195 297.308 L 298.976 297.308 C 298.977 282.759 287.182 270.964 272.633 270.964 Z " fill="rgb(127,127,127)"/></g><g id="Group"><path d=" M 302.197 148.2 L 302.197 148.2 C 302.191 148.255 302.18 148.305 302.175 148.36 C 302.024 149.633 301.819 150.848 301.58 152.026 C 301.497 152.436 301.419 152.85 301.325 153.249 C 301.325 153.249 301.324 153.255 301.323 153.257 C 301.27 153.484 301.217 153.71 301.16 153.933 C 301.16 153.933 301.159 153.935 301.159 153.937 C 301.087 154.223 301 154.494 300.923 154.775 C 300.788 155.259 300.663 155.754 300.512 156.222 C 300.512 156.222 300.512 156.224 300.511 156.226 C 300.301 156.876 300.066 157.499 299.824 158.117 C 299.435 159.114 299.013 160.075 298.549 160.989 L 298.548 160.99 C 298.226 161.623 297.888 162.238 297.529 162.833 C 297.528 162.834 297.527 162.836 297.526 162.838 C 297.463 162.942 297.394 163.042 297.33 163.146 C 297.324 163.155 297.319 163.163 297.314 163.17 C 297.01 163.656 296.695 164.131 296.368 164.593 L 296.368 164.593 C 296.022 165.081 295.656 165.547 295.284 166.008 C 295.171 166.148 295.064 166.294 294.949 166.432 C 294.945 166.436 294.942 166.44 294.938 166.445 C 294.602 166.844 294.247 167.224 293.891 167.603 C 293.708 167.795 293.535 167.999 293.348 168.186 L 293.347 168.186 C 293.093 168.442 292.826 168.682 292.562 168.928 C 292.313 169.16 292.066 169.395 291.809 169.619 C 291.803 169.624 291.797 169.629 291.791 169.635 C 291.647 169.76 291.505 169.885 291.358 170.008 L 291.356 170.01 C 291.213 170.129 291.06 170.239 290.916 170.356 C 290.46 170.723 290 171.086 289.52 171.43 C 289.517 171.432 289.514 171.434 289.511 171.436 C 289.267 171.611 289.011 171.774 288.76 171.944 C 288.35 172.22 287.94 172.497 287.514 172.757 C 287.513 172.758 287.512 172.758 287.512 172.758 C 287.054 173.039 286.587 173.31 286.113 173.572 C 286.111 173.573 286.109 173.574 286.107 173.576 C 285.964 173.654 285.826 173.736 285.682 173.814 C 285.679 173.815 285.677 173.816 285.674 173.818 C 285.07 174.141 284.45 174.451 283.819 174.748 C 283.817 174.749 283.815 174.75 283.813 174.751 C 283.63 174.836 283.444 174.917 283.259 175 L 283.258 175.001 C 283.245 175.007 283.233 175.012 283.22 175.018 C 281.842 175.639 280.41 176.206 278.916 176.713 C 278.902 176.717 278.889 176.722 278.875 176.727 C 278.385 176.892 277.884 177.046 277.382 177.2 C 276.997 177.318 276.613 177.436 276.221 177.549 C 276.219 177.55 276.217 177.55 276.215 177.551 C 275.662 177.708 275.103 177.86 274.537 178.005 C 274.517 178.01 274.499 178.015 274.48 178.02 C 272.539 178.515 270.522 178.939 268.436 179.298 C 268.432 179.298 268.427 179.299 268.423 179.3 C 267.705 179.423 266.98 179.54 266.246 179.65 C 266.24 179.651 266.234 179.652 266.228 179.653 C 266.137 179.666 266.048 179.681 265.957 179.695 C 265.953 179.696 265.949 179.697 265.945 179.697 C 265.938 179.697 265.931 179.699 265.924 179.7 L 265.923 179.7 C 268.925 201.226 264.236 214.122 255.058 223.477 C 286.723 213.831 311.122 177.868 315.305 133.261 C 315.305 133.208 315.308 133.157 315.308 133.103 C 312.99 132.503 310.676 131.94 308.369 131.41 C 306.059 130.879 303.756 130.383 301.459 129.915 C 302.165 133.738 302.553 137.673 302.553 141.701 C 302.556 143.996 302.431 146.157 302.197 148.2 Z " fill="rgb(209,209,209)"/></g><g id="Group"><path d=" M 238.03 232.52 C 200.171 232.52 174.741 218.286 163.566 204.964 C 163.169 204.49 163.103 203.821 163.4 203.279 C 163.666 202.794 164.172 202.5 164.715 202.5 C 164.779 202.5 164.845 202.504 164.91 202.513 C 164.939 202.517 167.877 202.897 171.427 202.897 C 173.965 202.897 176.16 202.709 177.959 202.345 C 172.087 200.316 161.516 195.526 153.25 185.509 C 152.772 184.93 152.796 184.087 153.306 183.535 C 161.777 174.372 161.508 154.587 160.586 143.565 C 159.958 139.794 159.476 135.963 159.152 132.178 C 159.083 131.363 159.679 130.643 160.492 130.558 C 162.199 130.382 166.962 129.82 174.306 128.423 C 174.4 128.405 174.494 128.397 174.586 128.397 C 174.979 128.397 175.36 128.551 175.644 128.834 C 175.996 129.184 176.152 129.684 176.061 130.17 C 175.351 134.01 174.991 137.888 174.991 141.697 C 174.991 176.82 204.806 179.729 238.023 179.729 C 271.24 179.729 301.055 176.82 301.055 141.697 C 301.055 137.897 300.696 134.024 299.987 130.183 C 299.896 129.693 300.055 129.19 300.411 128.84 C 300.694 128.562 301.072 128.41 301.462 128.41 C 301.562 128.41 301.661 128.42 301.761 128.44 C 305.974 129.297 310.157 130.249 314.214 131.273 C 314.486 130.822 314.977 130.55 315.497 130.55 C 315.634 130.55 315.773 130.569 315.912 130.609 C 316.654 130.823 317.113 131.566 316.972 132.325 C 316.97 132.333 316.913 132.642 316.822 133.192 C 316.821 133.208 316.82 133.225 316.818 133.241 C 316.531 136.334 316.137 139.458 315.649 142.527 C 314.617 153.848 314.188 174.177 322.838 183.535 C 323.348 184.087 323.371 184.93 322.894 185.509 C 314.628 195.526 304.057 200.316 298.185 202.345 C 299.984 202.709 302.179 202.897 304.717 202.897 C 308.266 202.897 311.204 202.517 311.234 202.513 C 311.299 202.504 311.365 202.5 311.429 202.5 C 311.971 202.5 312.479 202.794 312.744 203.279 C 313.041 203.821 312.975 204.49 312.578 204.964 C 301.403 218.285 275.974 232.52 238.114 232.52 L 238.03 232.52 Z " fill="rgb(219,85,38)"/><g id="Group"><path d=" M 174.587 129.898 C 173.879 133.725 173.491 137.666 173.491 141.698 C 173.491 177.338 202.383 181.23 238.023 181.23 C 273.663 181.23 302.555 177.337 302.555 141.698 C 302.555 137.67 302.167 133.735 301.461 129.912 C 305.982 130.832 310.533 131.872 315.102 133.05 L 315.497 132.052 C 315.497 132.052 315.427 132.429 315.316 133.102 C 315.319 133.103 315.321 133.103 315.324 133.104 C 315.034 136.228 314.643 139.308 314.159 142.342 C 313.03 154.677 312.804 174.892 321.736 184.555 C 310.09 198.668 293.462 202.163 293.462 202.163 C 296.176 203.959 300.826 204.397 304.717 204.397 C 308.417 204.397 311.429 204.001 311.429 204.001 C 300.105 217.501 274.805 231.021 238.115 231.021 L 238.03 231.021 C 201.34 231.021 176.04 217.501 164.716 204.001 C 164.716 204.001 167.727 204.397 171.428 204.397 C 175.318 204.397 179.97 203.959 182.683 202.163 C 182.683 202.163 166.054 198.668 154.409 184.555 C 163.095 175.159 163.12 155.784 162.077 143.38 C 161.458 139.673 160.976 135.895 160.648 132.052 C 162.195 131.891 167.075 131.327 174.587 129.898 Z  M 174.587 126.898 C 174.4 126.898 174.213 126.916 174.026 126.951 C 166.738 128.337 162.025 128.893 160.338 129.068 C 158.711 129.236 157.518 130.677 157.657 132.307 C 157.982 136.112 158.466 139.961 159.095 143.752 C 159.992 154.539 160.269 173.793 152.203 182.519 C 151.184 183.621 151.137 185.307 152.092 186.464 C 158.281 193.965 165.738 198.616 171.668 201.397 C 171.588 201.397 171.507 201.398 171.426 201.398 C 167.962 201.398 165.134 201.031 165.106 201.027 C 164.975 201.01 164.843 201.002 164.713 201.002 C 163.629 201.002 162.615 201.591 162.084 202.559 C 161.489 203.644 161.62 204.983 162.416 205.93 C 173.807 219.511 199.653 234.022 238.029 234.022 L 238.114 234.022 C 276.49 234.022 302.336 219.511 313.727 205.93 C 314.522 204.983 314.654 203.644 314.058 202.559 C 313.527 201.591 312.513 201.002 311.429 201.002 C 311.299 201.002 311.168 201.011 311.036 201.027 C 311.01 201.031 308.156 201.398 304.716 201.398 C 304.635 201.398 304.554 201.397 304.474 201.397 C 310.404 198.617 317.861 193.965 324.049 186.464 C 325.005 185.307 324.957 183.62 323.939 182.519 C 315.695 173.6 316.131 153.797 317.137 142.715 C 317.627 139.63 318.022 136.49 318.311 133.382 C 318.311 133.381 318.311 133.379 318.311 133.377 C 318.392 132.893 318.443 132.618 318.446 132.603 C 318.728 131.084 317.811 129.599 316.327 129.171 C 316.051 129.092 315.771 129.054 315.496 129.054 C 314.864 129.054 314.254 129.255 313.75 129.615 C 309.931 128.664 306.009 127.779 302.06 126.975 C 301.862 126.934 301.662 126.915 301.462 126.915 C 300.684 126.915 299.927 127.218 299.36 127.774 C 298.648 128.473 298.331 129.479 298.511 130.46 C 299.203 134.21 299.555 137.993 299.555 141.701 C 299.555 172.411 277.929 178.233 238.023 178.233 C 198.117 178.233 176.491 172.411 176.491 141.701 C 176.491 137.984 176.843 134.198 177.537 130.447 C 177.717 129.473 177.405 128.473 176.703 127.775 C 176.136 127.206 175.372 126.898 174.587 126.898 L 174.587 126.898 Z " fill="rgb(0,0,0)"/></g></g><g id="Group"><path d=" M 198.584 221.008 C 198.325 221.008 198.066 220.942 197.835 220.808 C 197.355 220.531 197.065 220.011 197.085 219.456 C 198.256 185.324 211.303 164.928 223.239 164.928 C 225.604 164.928 227.862 165.688 229.95 167.186 C 234.653 170.558 236.958 174.775 236.803 179.719 C 236.263 196.856 205.534 216.93 199.38 220.78 C 199.137 220.932 198.861 221.008 198.584 221.008 Z " fill="rgb(219,85,38)"/><g id="Group"><path d=" M 223.241 166.428 C 225.253 166.428 227.223 167.075 229.077 168.405 C 248.875 182.6 216.788 208.121 198.585 219.509 C 199.729 186.15 212.127 166.428 223.241 166.428 Z  M 223.24 163.428 C 216.399 163.428 209.569 169.14 204.501 179.098 C 199.218 189.478 196.135 203.416 195.587 219.406 C 195.549 220.514 196.126 221.553 197.087 222.107 C 197.551 222.375 198.068 222.508 198.585 222.508 C 199.138 222.508 199.69 222.356 200.176 222.051 C 208.982 216.543 237.753 197.214 238.303 179.766 C 238.476 174.29 235.96 169.648 230.825 165.966 C 228.477 164.283 225.924 163.428 223.24 163.428 L 223.24 163.428 Z " fill="rgb(0,0,0)"/></g></g><path d=" M 229.077 168.405 C 227.357 167.171 225.534 166.544 223.673 166.46 C 232.391 185.001 198.585 219.509 198.585 219.509 C 216.788 208.12 248.874 182.6 229.077 168.405 Z " fill="rgb(175,60,25)"/><g id="Group"><path d=" M 157.148 111.466 C 156.319 111.466 155.648 110.795 155.648 109.966 C 155.648 63.039 193.153 24.861 239.253 24.861 C 285.353 24.861 322.858 63.039 322.858 109.966 C 322.858 110.795 322.186 111.466 321.358 111.466 L 157.148 111.466 Z " fill="rgb(170,170,170)"/><g id="Group"><path d=" M 239.253 26.361 C 284.599 26.361 321.358 63.793 321.358 109.966 L 157.148 109.966 C 157.148 63.792 193.908 26.361 239.253 26.361 Z  M 239.253 23.361 C 192.325 23.361 154.148 62.212 154.148 109.966 C 154.148 111.623 155.491 112.966 157.148 112.966 L 321.359 112.966 C 323.016 112.966 324.359 111.623 324.359 109.966 C 324.359 62.212 286.181 23.361 239.253 23.361 L 239.253 23.361 Z " fill="rgb(0,0,0)"/></g></g><g id="Group"><path d=" M 239.253 26.361 C 236.025 26.361 232.849 26.571 229.719 26.94 C 270.57 31.753 302.289 67.079 302.289 109.966 L 321.358 109.966 C 321.359 63.792 284.599 26.361 239.253 26.361 Z " fill="rgb(127,127,127)"/></g><g id="Group"><path d=" M 289.395 92.65 C 280.309 92.65 272.038 86.943 268.812 78.447 C 264.502 67.099 270.228 54.361 281.577 50.051 C 284.092 49.096 286.721 48.613 289.389 48.613 C 289.954 48.613 290.517 48.635 291.077 48.678 L 291.304 48.701 C 291.608 48.734 291.902 48.858 292.143 49.047 C 292.376 49.092 292.689 49.141 293.101 49.188 C 293.712 49.256 294.731 49.338 296.087 49.338 L 296.087 49.338 C 297.187 49.338 298.288 49.283 299.361 49.176 C 302.298 48.874 304.764 48.247 306.688 47.312 C 307.876 46.724 308.815 46.041 309.631 45.167 C 310.584 44.154 311.39 42.792 311.965 41.228 L 312.287 40.293 C 312.295 40.23 312.305 40.169 312.316 40.111 L 312.309 40.109 C 312.309 40.109 312.828 37.677 312.828 37.677 L 313.773 33.349 L 314.282 31.117 L 315.063 28.208 C 315.196 27.715 315.328 27.226 315.476 26.734 L 316.155 24.606 C 316.467 23.556 316.877 22.493 317.273 21.464 C 317.404 21.125 317.534 20.789 317.658 20.459 C 317.846 19.971 318.064 19.493 318.281 19.022 L 318.695 18.113 C 318.951 17.553 319.215 16.974 319.554 16.384 C 321.026 13.451 322.937 11.107 324.275 9.67 C 326.02 7.76 327.907 6.477 329.538 5.425 C 330.938 4.586 332.29 3.881 333.834 3.179 C 335.002 2.648 335.918 2.26 336.548 2.004 L 337.477 1.617 C 337.665 1.538 337.861 1.501 338.054 1.501 C 338.529 1.501 338.99 1.726 339.278 2.132 C 339.684 2.704 339.64 3.48 339.173 4.002 L 338.49 4.762 C 338.045 5.25 337.412 5.965 336.639 6.882 C 335.694 8.002 334.877 9.086 334.141 10.195 C 333.369 11.46 332.547 12.874 332.091 14.459 C 331.528 16.364 331.259 18.064 331.24 19.819 C 331.24 19.857 331.238 19.894 331.234 19.932 C 331.207 20.257 331.217 20.651 331.229 21.069 C 331.229 21.069 331.249 21.76 331.251 21.964 C 331.256 22.278 331.261 22.592 331.289 22.924 C 331.324 23.273 331.353 23.634 331.383 23.996 C 331.446 24.776 331.507 25.512 331.634 26.293 L 331.891 28.119 C 331.948 28.483 332.022 28.877 332.096 29.272 L 332.558 31.761 L 333.236 34.686 L 333.882 37.444 L 334.365 39.47 C 334.423 39.595 334.464 39.729 334.486 39.869 L 334.846 42.08 C 335.426 46.178 335.336 50.406 334.59 54.336 C 333.833 58.409 332.298 62.545 330.152 66.292 C 328.312 69.531 325.913 72.673 323.024 75.625 C 320.737 77.956 318.25 80.075 315.42 82.104 C 311.504 84.893 307.422 87.2 302.937 89.162 C 301.518 89.774 300.142 90.308 298.95 90.708 C 298.7 90.794 298.456 90.873 298.223 90.942 L 298.082 90.985 C 297.91 91.038 297.761 91.083 297.523 91.137 L 297.197 91.214 C 294.685 92.167 292.06 92.65 289.395 92.65 Z " fill="rgb(255,255,255)"/><path d=" M 338.054 3 C 338.054 3 337.818 3.264 337.373 3.758 C 336.926 4.248 336.279 4.978 335.49 5.914 C 334.701 6.85 333.787 8.012 332.889 9.363 C 332.041 10.75 331.157 12.273 330.648 14.042 C 330.126 15.811 329.761 17.678 329.739 19.801 C 329.696 20.302 329.724 20.859 329.737 21.404 C 329.758 21.956 329.745 22.479 329.795 23.051 C 329.909 24.208 329.955 25.314 330.153 26.531 C 330.237 27.125 330.32 27.722 330.405 28.325 C 330.499 28.929 330.627 29.558 330.737 30.175 C 330.851 30.79 330.967 31.409 331.083 32.031 C 331.224 32.644 331.364 33.261 331.507 33.88 C 331.81 35.173 332.114 36.476 332.421 37.783 L 332.913 39.848 L 332.975 40.106 L 332.991 40.171 L 332.999 40.203 C 333 40.23 333.001 40.24 333.001 40.24 C 333.003 40.24 333.002 40.093 333.003 40.093 C 333.004 40.093 333.004 40.094 333.004 40.098 L 333.032 40.267 L 333.145 40.946 L 333.365 42.315 C 333.886 45.997 333.883 50.022 333.117 54.053 C 332.368 58.081 330.849 62.054 328.851 65.543 C 326.858 69.052 324.423 72.048 321.953 74.573 C 319.474 77.1 316.943 79.164 314.547 80.882 C 309.736 84.308 305.475 86.412 302.337 87.784 C 300.762 88.464 299.458 88.952 298.473 89.283 C 298.234 89.365 298.008 89.438 297.793 89.503 C 297.576 89.567 297.447 89.614 297.19 89.673 C 296.99 89.723 296.77 89.769 296.736 89.783 C 296.695 89.799 296.674 89.806 296.674 89.806 C 294.277 90.716 291.815 91.148 289.395 91.148 C 281.121 91.148 273.326 86.106 270.214 77.913 C 266.192 67.321 271.517 55.475 282.109 51.452 C 284.505 50.542 286.968 50.111 289.388 50.111 C 289.914 50.111 290.439 50.132 290.96 50.172 L 291.143 50.192 C 291.143 50.192 291.165 50.193 291.208 50.197 C 291.258 50.2 291.163 50.226 291.129 50.251 C 291.038 50.285 291.114 50.296 291.141 50.319 C 291.17 50.343 291.227 50.366 291.307 50.387 C 291.596 50.482 292.157 50.589 292.929 50.677 C 293.763 50.77 294.848 50.837 296.085 50.837 C 297.137 50.837 298.298 50.789 299.509 50.668 C 302.148 50.397 304.95 49.822 307.342 48.66 C 308.541 48.066 309.683 47.306 310.726 46.19 C 311.768 45.082 312.694 43.589 313.372 41.744 L 313.614 41.039 L 313.739 40.681 L 313.77 40.591 C 313.77 40.592 313.77 40.592 313.77 40.592 C 313.773 40.592 313.771 40.394 313.773 40.394 C 313.774 40.394 313.774 40.402 313.775 40.42 L 313.782 40.388 L 313.796 40.324 L 313.852 40.064 L 314.294 37.989 C 314.61 36.541 314.926 35.098 315.238 33.669 C 315.407 32.926 315.576 32.187 315.744 31.45 C 315.938 30.725 316.131 30.004 316.323 29.287 C 316.521 28.571 316.699 27.873 316.912 27.167 C 317.138 26.46 317.361 25.757 317.583 25.062 C 317.991 23.691 318.57 22.296 319.062 20.986 C 319.316 20.327 319.646 19.662 319.929 19.022 C 320.224 18.38 320.496 17.754 320.854 17.134 C 322.095 14.664 323.735 12.452 325.373 10.693 C 327.016 8.896 328.821 7.673 330.352 6.686 C 331.926 5.744 333.309 5.066 334.455 4.545 C 335.6 4.024 336.497 3.645 337.114 3.394 C 337.727 3.137 338.054 3 338.054 3 Z  M 338.053 0 C 337.665 0 337.273 0.076 336.897 0.232 L 335.959 0.623 C 335.407 0.848 334.459 1.246 333.211 1.813 C 331.615 2.538 330.217 3.269 328.81 4.11 C 328.782 4.128 328.752 4.145 328.725 4.163 C 327.015 5.266 325.034 6.615 323.159 8.667 C 321.784 10.144 319.797 12.581 318.211 15.711 C 317.858 16.334 317.59 16.921 317.331 17.49 L 317.204 17.767 C 317.1 17.999 317.011 18.195 316.919 18.393 C 316.698 18.873 316.469 19.37 316.263 19.905 C 316.131 20.257 316.003 20.588 315.874 20.923 C 315.471 21.969 315.054 23.051 314.718 24.174 L 314.437 25.057 L 314.055 26.253 C 313.888 26.805 313.752 27.307 313.616 27.815 L 313.433 28.484 L 313.123 29.643 L 312.848 30.67 C 312.838 30.707 312.829 30.743 312.821 30.78 L 312.687 31.366 L 312.314 33 L 311.985 34.508 L 311.365 37.345 L 310.92 39.435 L 310.864 39.692 L 310.849 39.762 L 310.849 39.762 C 310.834 39.828 310.822 39.896 310.812 39.965 L 310.783 40.048 L 310.548 40.735 C 310.042 42.1 309.349 43.274 308.542 44.133 C 307.847 44.877 307.044 45.458 306.013 45.969 C 304.267 46.817 301.969 47.397 299.204 47.681 C 298.187 47.783 297.137 47.835 296.087 47.835 C 295.083 47.835 294.08 47.785 293.263 47.694 C 293.072 47.672 292.907 47.65 292.768 47.63 C 292.384 47.398 291.947 47.25 291.482 47.208 L 291.482 47.208 C 291.479 47.208 291.476 47.208 291.473 47.208 C 291.459 47.207 291.445 47.206 291.43 47.205 C 291.425 47.205 291.42 47.204 291.415 47.204 L 291.281 47.19 C 291.252 47.187 291.222 47.184 291.193 47.182 C 290.595 47.136 289.988 47.113 289.389 47.113 C 286.538 47.113 283.731 47.63 281.045 48.649 C 275.173 50.879 270.521 55.262 267.945 60.991 C 265.369 66.72 265.18 73.108 267.41 78.98 C 270.855 88.054 279.69 94.15 289.395 94.15 C 292.208 94.15 294.98 93.646 297.635 92.652 C 297.713 92.634 297.801 92.613 297.887 92.592 C 298.153 92.53 298.326 92.478 298.524 92.417 L 298.647 92.379 C 298.905 92.302 299.167 92.217 299.445 92.122 C 300.659 91.714 302.075 91.165 303.525 90.539 C 308.12 88.53 312.29 86.172 316.287 83.326 C 319.196 81.241 321.748 79.067 324.095 76.675 C 327.077 73.627 329.554 70.381 331.46 67.026 C 333.683 63.144 335.277 58.845 336.066 54.602 C 336.84 50.524 336.934 46.126 336.336 41.894 C 336.333 41.876 336.33 41.858 336.327 41.839 L 336.107 40.47 L 335.991 39.773 L 335.968 39.632 C 335.934 39.41 335.875 39.197 335.795 38.995 L 335.34 37.086 L 334.697 34.34 L 334.428 33.194 L 334.154 31.995 L 334.022 31.419 L 333.839 30.442 L 333.687 29.625 C 333.652 29.427 333.611 29.208 333.57 28.99 C 333.5 28.612 333.427 28.233 333.371 27.864 L 333.263 27.09 L 333.125 26.111 C 333.122 26.09 333.119 26.069 333.115 26.049 C 332.998 25.326 332.94 24.619 332.879 23.871 C 332.849 23.501 332.818 23.131 332.781 22.756 C 332.761 22.527 332.757 22.254 332.752 21.937 C 332.748 21.722 332.744 21.506 332.736 21.287 L 332.729 21.024 C 332.718 20.667 332.708 20.298 332.729 20.058 C 332.735 19.983 332.739 19.909 332.74 19.833 C 332.757 18.221 333.007 16.651 333.526 14.893 C 333.931 13.486 334.681 12.188 335.421 10.977 C 336.117 9.932 336.891 8.908 337.784 7.849 C 338.597 6.885 339.215 6.192 339.59 5.781 L 340.289 5.004 C 341.225 3.96 341.312 2.406 340.5 1.263 C 339.922 0.451 339.001 0 338.053 0 L 338.053 0 Z " fill="rgb(0,0,0)"/></g><g id="Group"><path d=" M 191.813 92.65 C 189.148 92.65 186.523 92.167 184.01 91.214 L 183.656 91.13 C 183.447 91.083 183.298 91.037 183.126 90.984 L 182.988 90.942 C 182.753 90.871 182.509 90.792 182.25 90.703 C 181.066 90.306 179.69 89.772 178.277 89.162 C 173.786 87.198 169.704 84.89 165.792 82.104 C 162.958 80.072 160.471 77.954 158.185 75.624 C 155.295 72.67 152.895 69.528 151.053 66.284 C 148.91 62.542 147.375 58.406 146.617 54.327 C 145.871 50.403 145.782 46.174 146.358 42.104 L 146.723 39.865 C 146.745 39.725 146.786 39.591 146.844 39.466 L 147.328 37.434 L 148.241 33.537 L 148.663 31.695 L 149.113 29.268 C 149.187 28.873 149.261 28.479 149.321 28.095 L 149.57 26.321 C 149.702 25.508 149.762 24.772 149.826 23.992 C 149.855 23.631 149.885 23.269 149.921 22.903 C 149.948 22.589 149.952 22.275 149.958 21.961 C 149.961 21.757 149.98 21.066 149.98 21.066 C 149.992 20.649 150.003 20.254 149.975 19.929 C 149.972 19.891 149.97 19.854 149.97 19.816 C 149.951 18.062 149.682 16.361 149.122 14.466 C 148.663 12.871 147.842 11.457 147.039 10.145 C 146.332 9.083 145.516 8 144.572 6.881 C 143.799 5.963 143.166 5.249 142.728 4.768 L 142.038 4 C 141.57 3.478 141.526 2.702 141.933 2.13 C 142.222 1.724 142.682 1.499 143.156 1.499 C 143.35 1.499 143.546 1.537 143.734 1.615 L 144.673 2.007 C 145.292 2.258 146.208 2.646 147.377 3.178 C 148.92 3.879 150.272 4.584 151.629 5.397 C 153.302 6.476 155.189 7.759 156.944 9.679 C 158.273 11.106 160.184 13.451 161.696 16.459 C 161.995 16.973 162.259 17.552 162.514 18.112 L 162.928 19.021 C 163.145 19.491 163.364 19.97 163.547 20.445 C 163.675 20.788 163.805 21.124 163.936 21.463 C 164.332 22.492 164.743 23.555 165.063 24.632 L 165.726 26.71 C 165.881 27.225 166.014 27.714 166.146 28.207 L 166.913 31.061 L 167.433 33.336 L 168.38 37.669 C 168.38 37.669 168.886 40.039 168.891 40.066 C 168.909 40.143 168.921 40.225 168.929 40.312 L 169.255 41.258 C 169.82 42.793 170.626 44.154 171.576 45.164 C 172.395 46.04 173.335 46.724 174.533 47.317 C 176.446 48.247 178.913 48.875 181.853 49.177 C 182.922 49.284 184.024 49.339 185.124 49.339 C 186.48 49.339 187.499 49.257 188.114 49.189 C 188.503 49.145 188.803 49.099 189.023 49.058 C 189.268 48.851 189.578 48.721 189.913 48.702 L 190.09 48.683 C 190.694 48.636 191.256 48.614 191.821 48.614 C 194.489 48.614 197.118 49.098 199.633 50.052 C 210.982 54.362 216.707 67.1 212.398 78.448 C 209.17 86.942 200.899 92.65 191.813 92.65 Z " fill="rgb(255,255,255)"/><path d=" M 143.154 3 C 143.154 3 143.481 3.137 144.095 3.393 C 144.712 3.644 145.61 4.024 146.754 4.544 C 147.9 5.065 149.282 5.742 150.857 6.685 C 152.387 7.672 154.193 8.895 155.836 10.692 C 157.474 12.452 159.113 14.664 160.355 17.133 C 160.712 17.753 160.985 18.379 161.28 19.021 C 161.563 19.661 161.893 20.326 162.147 20.985 C 162.638 22.296 163.217 23.69 163.626 25.061 C 163.848 25.756 164.071 26.459 164.297 27.166 C 164.51 27.872 164.688 28.57 164.886 29.286 C 165.078 30.003 165.271 30.724 165.465 31.449 C 165.633 32.185 165.802 32.925 165.971 33.668 C 166.284 35.098 166.599 36.54 166.915 37.988 L 167.357 40.063 L 167.413 40.323 L 167.427 40.387 L 167.434 40.419 C 167.435 40.401 167.435 40.393 167.436 40.393 C 167.438 40.393 167.436 40.591 167.438 40.591 C 167.438 40.591 167.438 40.591 167.438 40.59 L 167.469 40.68 L 167.594 41.038 L 167.836 41.743 C 168.515 43.589 169.44 45.081 170.482 46.189 C 171.525 47.304 172.667 48.065 173.866 48.659 C 176.258 49.821 179.06 50.395 181.699 50.667 C 182.91 50.788 184.071 50.836 185.123 50.836 C 186.36 50.836 187.445 50.769 188.279 50.676 C 189.051 50.588 189.612 50.481 189.901 50.386 C 189.981 50.365 190.038 50.342 190.067 50.318 C 190.093 50.295 190.17 50.284 190.079 50.25 C 190.045 50.226 189.95 50.199 190 50.196 C 190.043 50.192 190.065 50.191 190.065 50.191 L 190.248 50.171 C 190.769 50.131 191.294 50.11 191.82 50.11 C 194.24 50.11 196.703 50.541 199.099 51.451 C 209.691 55.473 215.016 67.32 210.994 77.912 C 207.883 86.106 200.088 91.147 191.813 91.147 C 189.393 91.147 186.931 90.715 184.534 89.805 C 184.534 89.805 184.513 89.797 184.472 89.782 C 184.438 89.767 184.218 89.721 184.018 89.672 C 183.761 89.613 183.632 89.567 183.415 89.502 C 183.2 89.438 182.975 89.364 182.735 89.282 C 181.75 88.951 180.446 88.463 178.871 87.783 C 175.733 86.411 171.472 84.306 166.661 80.881 C 164.265 79.163 161.734 77.1 159.255 74.572 C 156.784 72.047 154.35 69.051 152.357 65.542 C 150.359 62.053 148.84 58.08 148.091 54.052 C 147.325 50.021 147.321 45.995 147.843 42.314 L 148.063 40.945 L 148.176 40.266 L 148.204 40.097 C 148.204 40.094 148.204 40.092 148.204 40.092 C 148.205 40.092 148.204 40.239 148.206 40.239 C 148.206 40.239 148.207 40.229 148.208 40.202 L 148.216 40.17 L 148.232 40.105 L 148.294 39.847 L 148.786 37.782 C 149.093 36.474 149.397 35.172 149.7 33.879 C 149.843 33.261 149.983 32.644 150.124 32.03 C 150.239 31.408 150.355 30.789 150.47 30.174 C 150.58 29.558 150.708 28.929 150.802 28.324 C 150.887 27.721 150.97 27.124 151.054 26.53 C 151.252 25.312 151.298 24.207 151.412 23.05 C 151.462 22.478 151.448 21.954 151.47 21.403 C 151.483 20.858 151.511 20.301 151.468 19.8 C 151.446 17.677 151.081 15.81 150.559 14.041 C 150.05 12.272 149.165 10.749 148.318 9.362 C 147.421 8.01 146.506 6.848 145.717 5.913 C 144.928 4.976 144.281 4.247 143.834 3.757 C 143.39 3.264 143.154 3 143.154 3 Z  M 143.155 0 C 142.206 0 141.285 0.451 140.709 1.262 C 139.896 2.405 139.984 3.958 140.92 5.003 L 141.604 5.764 C 141.995 6.192 142.612 6.885 143.423 7.847 C 144.318 8.908 145.091 9.931 145.788 10.976 C 146.527 12.187 147.277 13.484 147.676 14.871 C 148.201 16.65 148.451 18.22 148.468 19.832 C 148.469 19.907 148.472 19.982 148.479 20.057 C 148.5 20.297 148.489 20.666 148.479 21.023 L 148.471 21.333 C 148.464 21.505 148.46 21.721 148.456 21.936 C 148.451 22.253 148.446 22.527 148.423 22.79 C 148.389 23.131 148.359 23.5 148.329 23.871 C 148.268 24.62 148.21 25.327 148.093 26.049 C 148.09 26.07 148.087 26.09 148.084 26.111 L 147.946 27.09 L 147.831 27.905 C 147.78 28.233 147.708 28.612 147.638 28.99 C 147.597 29.209 147.556 29.427 147.517 29.644 L 147.368 30.442 L 147.186 31.419 L 147.054 31.995 L 146.777 33.203 L 146.511 34.339 L 145.865 37.095 L 145.413 38.993 C 145.333 39.195 145.275 39.409 145.24 39.63 L 145.217 39.768 L 145.103 40.449 L 144.88 41.837 C 144.877 41.856 144.874 41.874 144.872 41.892 C 144.272 46.123 144.366 50.521 145.143 54.611 C 145.93 58.842 147.524 63.141 149.752 67.032 C 151.653 70.379 154.13 73.624 157.109 76.67 C 159.459 79.065 162.01 81.239 164.912 83.319 C 168.916 86.171 173.086 88.528 177.667 90.531 C 179.131 91.162 180.547 91.712 181.778 92.125 C 182.039 92.214 182.3 92.299 182.55 92.375 L 182.681 92.415 C 182.878 92.476 183.052 92.528 183.318 92.59 C 183.404 92.611 183.492 92.632 183.57 92.65 C 186.227 93.645 188.998 94.148 191.81 94.148 C 201.515 94.148 210.35 88.052 213.795 78.978 C 216.024 73.106 215.835 66.718 213.26 60.989 C 210.685 55.26 206.032 50.877 200.161 48.647 C 197.474 47.627 194.667 47.111 191.816 47.111 C 191.217 47.111 190.61 47.134 190.012 47.18 C 189.983 47.182 189.953 47.185 189.924 47.188 L 189.801 47.201 C 189.779 47.202 189.752 47.205 189.724 47.207 C 189.259 47.249 188.822 47.397 188.438 47.629 C 188.298 47.65 188.131 47.672 187.936 47.694 C 187.125 47.784 186.123 47.835 185.119 47.835 C 184.069 47.835 183.018 47.783 181.994 47.68 C 179.237 47.397 176.939 46.817 175.174 45.959 C 174.162 45.458 173.36 44.876 172.67 44.138 C 171.857 43.274 171.164 42.099 170.658 40.735 L 170.427 40.062 L 170.386 39.946 C 170.378 39.896 170.369 39.846 170.359 39.798 L 170.363 39.797 L 170.342 39.698 L 170.285 39.433 L 169.843 37.361 L 169.219 34.509 L 168.895 33.026 L 168.517 31.367 L 168.383 30.781 C 168.375 30.744 168.365 30.707 168.356 30.671 L 168.081 29.644 L 167.777 28.508 L 167.589 27.816 C 167.452 27.309 167.316 26.806 167.163 26.3 L 166.768 25.058 L 166.487 24.175 C 166.151 23.051 165.734 21.97 165.33 20.924 C 165.201 20.589 165.073 20.257 164.951 19.932 C 164.735 19.371 164.507 18.874 164.285 18.394 C 164.194 18.196 164.104 18 164.018 17.807 L 163.874 17.491 C 163.614 16.922 163.347 16.335 162.993 15.712 C 161.408 12.582 159.421 10.145 158.028 8.648 C 156.17 6.616 154.189 5.267 152.48 4.164 C 152.452 4.146 152.423 4.128 152.395 4.111 C 150.988 3.269 149.589 2.539 147.993 1.813 C 146.745 1.246 145.798 0.848 145.222 0.614 L 144.307 0.232 C 143.935 0.076 143.542 0 143.155 0 L 143.155 0 Z " fill="rgb(0,0,0)"/></g><path d=" M 325.054 20.333 C 325.054 30.333 328.388 56.001 309.721 64.667 C 295.679 71.186 278.056 72.421 269.9 64.263 C 268.493 68.564 268.482 73.354 270.214 77.914 C 274.235 88.505 286.082 93.83 296.674 89.808 C 296.674 89.808 296.695 89.8 296.736 89.785 C 296.77 89.77 296.99 89.724 297.19 89.675 C 297.447 89.616 297.576 89.57 297.793 89.505 C 298.008 89.441 298.233 89.367 298.473 89.285 C 299.458 88.954 300.762 88.466 302.337 87.786 C 305.475 86.414 309.736 84.309 314.547 80.884 C 316.943 79.166 319.474 77.103 321.953 74.575 C 324.424 72.05 326.858 69.054 328.851 65.545 C 330.849 62.056 332.368 58.083 333.117 54.055 C 333.883 50.024 333.887 45.998 333.365 42.317 L 333.145 40.948 L 333.032 40.269 L 333.004 40.1 C 333.001 40.054 333.004 40.342 332.999 40.205 L 332.991 40.173 L 332.975 40.108 L 332.913 39.85 L 332.421 37.785 C 332.114 36.477 331.81 35.175 331.507 33.882 C 331.364 33.264 331.224 32.647 331.083 32.033 C 330.968 31.411 330.852 30.792 330.737 30.177 C 330.627 29.561 330.499 28.932 330.405 28.327 C 330.32 27.724 330.237 27.127 330.153 26.533 C 329.955 25.315 329.909 24.21 329.795 23.053 C 329.745 22.481 329.759 21.957 329.737 21.406 C 329.724 20.861 329.696 20.304 329.739 19.803 C 329.761 17.68 330.126 15.813 330.648 14.044 C 331.157 12.275 332.042 10.752 332.889 9.365 C 333.786 8.013 334.701 6.851 335.49 5.916 C 336.279 4.979 336.926 4.25 337.373 3.76 C 337.817 3.266 338.054 3.002 338.054 3.002 C 338.054 3.002 325.054 10.333 325.054 20.333 Z " fill="rgb(209,209,209)"/><path d=" M 145.717 5.914 C 146.506 6.85 147.42 8.012 148.318 9.363 C 149.166 10.75 150.05 12.273 150.559 14.042 C 151.081 15.811 151.446 17.678 151.468 19.801 C 151.511 20.302 151.483 20.859 151.47 21.404 C 151.449 21.956 151.462 22.479 151.412 23.051 C 151.298 24.208 151.252 25.314 151.054 26.531 C 150.97 27.125 150.887 27.722 150.802 28.325 C 150.708 28.929 150.58 29.558 150.47 30.175 C 150.356 30.79 150.24 31.409 150.124 32.031 C 149.983 32.644 149.843 33.261 149.7 33.88 C 149.397 35.173 149.093 36.476 148.786 37.783 L 148.294 39.848 L 148.232 40.106 L 148.216 40.171 L 148.208 40.203 C 148.203 40.34 148.206 40.052 148.203 40.098 L 148.175 40.267 L 148.062 40.946 L 147.842 42.315 C 147.321 45.997 147.324 50.022 148.09 54.053 C 148.839 58.081 150.358 62.054 152.356 65.543 C 154.349 69.052 156.784 72.048 159.254 74.573 C 161.733 77.1 164.264 79.164 166.66 80.882 C 171.471 84.308 175.732 86.412 178.87 87.784 C 180.445 88.464 181.749 88.952 182.734 89.283 C 182.973 89.365 183.199 89.438 183.414 89.503 C 183.631 89.567 183.76 89.614 184.017 89.673 C 184.217 89.723 184.437 89.769 184.471 89.783 C 184.512 89.799 184.533 89.806 184.533 89.806 C 195.125 93.828 206.971 88.503 210.993 77.912 C 214.274 69.271 211.331 59.799 204.386 54.417 C 203.239 62.733 197.332 70.671 184.147 68.161 C 162.241 63.991 155.387 37.665 155.387 23.331 C 155.387 8.997 143.154 2.998 143.154 2.998 C 143.154 2.998 143.39 3.262 143.835 3.756 C 144.282 4.248 144.928 4.978 145.717 5.914 Z " fill="rgb(209,209,209)"/><path d=" M 311.429 204 C 311.429 204 298.757 205.667 293.462 202.162 C 293.462 202.162 310.091 198.667 321.736 184.554 C 312.803 174.891 313.03 154.676 314.159 142.341 C 314.643 139.307 315.034 136.227 315.324 133.103 C 315.321 133.102 315.319 133.102 315.316 133.101 C 315.426 132.428 315.497 132.051 315.497 132.051 L 315.102 133.049 C 310.534 131.871 305.983 130.831 301.461 129.911 C 302.167 133.734 302.555 137.669 302.555 141.697 C 302.555 153.515 299.363 161.828 293.816 167.679 C 297.202 175.276 302.705 183.173 310.937 182.999 C 298.719 190.666 276.987 188.361 276.987 188.361 C 278.052 194.332 286.611 208.689 300.499 207.51 C 289.985 214.082 267.645 226.99 213.23 228.791 C 220.793 230.207 229.069 231.018 238.029 231.018 L 238.114 231.018 C 274.805 231.02 300.105 217.5 311.429 204 Z " fill="rgb(175,60,25)"/><g id="Group"><path d=" M 153.013 130.945 C 151.083 130.945 149.513 129.375 149.513 127.445 L 149.513 105.778 C 149.513 103.848 151.083 102.278 153.013 102.278 L 325.047 102.278 C 326.977 102.278 328.547 103.848 328.547 105.778 L 328.547 127.445 C 328.547 129.375 326.977 130.945 325.047 130.945 L 153.013 130.945 Z " fill="rgb(170,170,170)"/><g id="Group"><path d=" M 325.047 103.778 C 326.151 103.778 327.047 104.674 327.047 105.778 L 327.047 127.445 C 327.047 128.549 326.151 129.445 325.047 129.445 L 153.013 129.445 C 151.909 129.445 151.013 128.549 151.013 127.445 L 151.013 105.778 C 151.013 104.674 151.909 103.778 153.013 103.778 L 325.047 103.778 Z  M 325.047 100.778 L 153.013 100.778 C 150.256 100.778 148.013 103.021 148.013 105.778 L 148.013 127.445 C 148.013 130.202 150.256 132.445 153.013 132.445 L 325.047 132.445 C 327.804 132.445 330.047 130.202 330.047 127.445 L 330.047 105.778 C 330.047 103.021 327.804 100.778 325.047 100.778 L 325.047 100.778 Z " fill="rgb(0,0,0)"/></g></g><g id="Group"><path d=" M 325.047 103.778 L 321.736 103.778 L 321.736 122.778 C 321.736 123.882 320.84 124.778 319.736 124.778 L 151.013 124.778 L 151.013 127.445 C 151.013 128.549 151.909 129.445 153.013 129.445 L 325.047 129.445 C 326.151 129.445 327.047 128.549 327.047 127.445 L 327.047 105.778 C 327.047 104.673 326.152 103.778 325.047 103.778 Z " fill="rgb(127,127,127)"/></g><g id="Group"><path d=" M 152.946 134.234 L 99.15 152.013 L 56.538 188.741 L 24.301 131.723 L 77.918 114.045 L 120.709 77.215 L 152.946 134.234 Z " fill="rgb(94,94,94)" vector-effect="non-scaling-stroke" stroke-width="3" stroke="rgb(0,0,0)" stroke-linejoin="miter" stroke-linecap="butt" stroke-miterlimit="10"/><g id="Group"><path d=" M 180.305 299.267 C 177.605 299.267 175.101 297.808 173.772 295.458 L 70.235 112.385 C 68.2 108.786 69.473 104.202 73.072 102.166 C 74.198 101.529 75.473 101.192 76.761 101.192 C 79.463 101.192 81.966 102.652 83.294 105.002 L 186.828 288.073 C 187.815 289.816 188.063 291.839 187.528 293.769 C 186.993 295.699 185.737 297.306 183.993 298.292 C 182.868 298.93 181.592 299.267 180.305 299.267 Z " fill="rgb(117,61,14)"/><path d=" M 76.761 102.693 C 78.853 102.693 80.885 103.789 81.988 105.741 L 185.522 288.812 C 187.155 291.696 186.139 295.356 183.254 296.988 C 182.32 297.516 181.306 297.767 180.305 297.767 C 178.213 297.767 176.181 296.671 175.077 294.72 L 71.54 111.647 C 69.91 108.764 70.926 105.103 73.81 103.472 C 74.744 102.944 75.759 102.693 76.761 102.693 Z  M 76.761 99.693 L 76.761 99.693 C 75.215 99.693 73.684 100.097 72.333 100.861 C 68.015 103.303 66.488 108.804 68.93 113.123 L 172.467 296.196 C 174.062 299.015 177.066 300.766 180.306 300.766 C 181.851 300.766 183.382 300.362 184.732 299.598 C 186.826 298.414 188.332 296.487 188.974 294.17 C 189.616 291.853 189.318 289.425 188.133 287.332 L 84.6 104.262 C 83.006 101.444 80.002 99.693 76.761 99.693 L 76.761 99.693 Z " fill="rgb(0,0,0)"/></g><g id="Group"><path d=" M 73.81 103.472 C 73.254 103.785 72.768 104.179 72.357 104.625 C 74.842 104.109 77.48 105.217 78.795 107.544 L 182.33 290.617 C 183.648 292.943 183.238 295.777 181.516 297.642 C 182.111 297.518 182.698 297.304 183.254 296.988 C 186.139 295.356 187.154 291.696 185.522 288.812 L 81.988 105.741 C 80.357 102.855 76.696 101.839 73.81 103.472 Z " fill="rgb(81,40,9)"/></g><g id="Group"><path d=" M 87.71 172.703 C 86.45 172.703 85.282 172.021 84.662 170.925 L 54.119 116.903 C 53.659 116.09 53.543 115.146 53.793 114.245 C 54.043 113.344 54.628 112.594 55.442 112.134 L 91.117 91.965 C 91.641 91.668 92.237 91.511 92.838 91.511 C 94.098 91.511 95.266 92.192 95.886 93.288 L 126.429 147.312 C 126.889 148.125 127.005 149.069 126.755 149.97 C 126.505 150.871 125.919 151.621 125.105 152.081 L 89.431 172.25 C 88.906 172.546 88.311 172.703 87.71 172.703 L 87.71 172.703 Z " fill="rgb(229,229,229)"/><g id="Group"><path d=" M 92.837 93.01 C 93.535 93.01 94.212 93.376 94.58 94.026 L 125.123 148.049 C 125.667 149.01 125.328 150.231 124.367 150.774 L 88.692 170.944 C 88.381 171.12 88.043 171.204 87.709 171.204 C 87.012 171.204 86.334 170.838 85.966 170.187 L 55.423 116.165 C 54.879 115.204 55.218 113.983 56.179 113.439 L 91.854 93.27 C 92.166 93.094 92.504 93.01 92.837 93.01 Z  M 92.837 90.01 C 91.977 90.01 91.127 90.235 90.377 90.659 L 54.704 110.827 C 53.541 111.485 52.704 112.556 52.348 113.843 C 51.991 115.131 52.157 116.48 52.814 117.642 L 83.356 171.663 C 84.242 173.229 85.91 174.203 87.71 174.203 C 88.569 174.203 89.42 173.978 90.169 173.555 L 125.844 153.385 C 127.006 152.728 127.843 151.657 128.2 150.37 C 128.557 149.082 128.391 147.733 127.734 146.571 L 97.192 92.549 C 96.305 90.983 94.637 90.01 92.837 90.01 L 92.837 90.01 Z " fill="rgb(0,0,0)"/></g></g><g id="Group"><path d=" M 91.855 93.27 L 88.373 95.238 L 115.472 143.168 C 116.016 144.129 115.677 145.35 114.715 145.894 L 82.523 164.095 L 85.968 170.188 C 86.512 171.15 87.732 171.489 88.694 170.945 L 124.369 150.775 C 125.33 150.232 125.669 149.011 125.125 148.05 L 94.582 94.027 C 94.037 93.065 92.816 92.726 91.855 93.27 Z " fill="rgb(196,196,196)"/></g><g id="Group"><path d=" M 140.52 142.846 C 139.259 142.846 138.091 142.164 137.472 141.067 L 106.929 87.046 C 106.469 86.232 106.353 85.288 106.603 84.387 C 106.853 83.486 107.439 82.737 108.253 82.277 L 143.927 62.107 C 144.451 61.81 145.047 61.653 145.648 61.653 C 146.908 61.653 148.077 62.335 148.697 63.431 L 179.241 117.453 C 180.189 119.133 179.595 121.272 177.918 122.222 L 142.242 142.392 C 141.716 142.689 141.121 142.846 140.52 142.846 L 140.52 142.846 Z " fill="rgb(229,229,229)"/><g id="Group"><path d=" M 145.647 63.152 C 146.344 63.152 147.022 63.518 147.39 64.169 L 177.934 118.191 C 178.477 119.153 178.138 120.373 177.177 120.917 L 141.502 141.087 C 141.191 141.263 140.853 141.346 140.52 141.346 C 139.823 141.346 139.145 140.981 138.778 140.33 L 108.234 86.308 C 107.69 85.346 108.029 84.126 108.991 83.582 L 144.665 63.412 C 144.975 63.236 145.313 63.152 145.647 63.152 Z  M 145.647 60.152 C 144.787 60.152 143.937 60.377 143.187 60.801 L 107.515 80.97 C 105.115 82.327 104.266 85.384 105.623 87.783 L 136.167 141.805 C 137.051 143.37 138.719 144.345 140.521 144.345 C 141.38 144.345 142.23 144.121 142.979 143.698 L 178.655 123.528 C 181.053 122.171 181.902 119.115 180.548 116.716 L 150.003 62.692 C 149.116 61.125 147.447 60.152 145.647 60.152 L 145.647 60.152 Z " fill="rgb(0,0,0)"/></g></g><g id="Group"><path d=" M 144.664 63.411 L 141.182 65.38 L 168.282 113.309 C 168.825 114.271 168.486 115.491 167.524 116.035 L 135.333 134.236 L 138.778 140.33 C 139.321 141.292 140.542 141.63 141.503 141.087 L 177.178 120.917 C 178.139 120.373 178.478 119.153 177.935 118.191 L 147.391 64.169 C 146.846 63.206 145.625 62.868 144.664 63.411 Z " fill="rgb(196,196,196)"/></g><g id="Group"><path d=" M 35.189 202.398 C 33.929 202.398 32.761 201.716 32.141 200.62 L 1.597 146.598 C 0.648 144.917 1.243 142.778 2.921 141.828 L 38.596 121.658 C 39.121 121.362 39.716 121.205 40.316 121.205 C 41.577 121.205 42.746 121.886 43.365 122.983 L 73.908 177.005 C 74.368 177.818 74.484 178.764 74.234 179.664 C 73.984 180.565 73.398 181.315 72.584 181.775 L 36.91 201.944 C 36.386 202.241 35.79 202.398 35.189 202.398 L 35.189 202.398 Z " fill="rgb(229,229,229)"/><g id="Group"><path d=" M 40.316 122.704 C 41.014 122.704 41.692 123.069 42.059 123.72 L 72.603 177.742 C 73.147 178.704 72.808 179.925 71.846 180.469 L 36.172 200.638 C 35.861 200.814 35.523 200.898 35.189 200.898 C 34.492 200.898 33.814 200.532 33.446 199.881 L 2.902 145.859 C 2.359 144.897 2.697 143.677 3.659 143.133 L 39.334 122.963 C 39.645 122.787 39.983 122.704 40.316 122.704 Z  M 40.316 119.704 C 39.458 119.704 38.608 119.928 37.858 120.351 L 2.183 140.521 C -0.215 141.877 -1.065 144.933 0.29 147.333 L 30.835 201.357 C 31.721 202.923 33.389 203.897 35.189 203.897 C 36.048 203.897 36.899 203.672 37.648 203.249 L 73.322 183.08 C 75.722 181.723 76.571 178.666 75.214 176.266 L 44.67 122.244 C 43.786 120.678 42.117 119.704 40.316 119.704 L 40.316 119.704 Z " fill="rgb(0,0,0)"/></g></g><g id="Group"><path d=" M 39.334 122.963 L 35.852 124.932 L 62.951 172.862 C 63.495 173.823 63.156 175.044 62.194 175.588 L 30.002 193.788 L 33.447 199.882 C 33.991 200.844 35.211 201.183 36.173 200.639 L 71.847 180.47 C 72.809 179.926 73.148 178.705 72.604 177.743 L 42.06 123.721 C 41.516 122.759 40.295 122.42 39.334 122.963 Z " fill="rgb(196,196,196)"/></g></g><g id="Group"><path d=" M 148.623 254.972 C 137.732 254.972 128.871 246.112 128.871 235.22 C 128.871 224.329 137.732 215.469 148.623 215.469 C 159.514 215.469 168.375 224.329 168.375 235.22 C 168.375 246.112 159.515 254.972 148.623 254.972 Z " fill="rgb(170,170,170)"/><g id="Group"><path d=" M 148.623 216.969 C 158.703 216.969 166.875 225.14 166.875 235.22 C 166.875 245.3 158.703 253.472 148.623 253.472 C 138.543 253.472 130.371 245.3 130.371 235.22 C 130.371 225.14 138.543 216.969 148.623 216.969 Z  M 148.623 213.969 C 136.905 213.969 127.371 223.502 127.371 235.22 C 127.371 246.939 136.905 256.472 148.623 256.472 C 160.341 256.472 169.875 246.939 169.875 235.22 C 169.875 223.502 160.342 213.969 148.623 213.969 L 148.623 213.969 Z " fill="rgb(0,0,0)"/></g></g><path d=" M 166.875 235.22 C 166.875 235.187 166.871 235.153 166.871 235.118 C 160.988 244.071 150.637 244.688 144.002 240.708 C 136.935 236.47 135.155 228.5 136.189 221.886 C 132.617 225.218 130.371 229.95 130.371 235.22 C 130.371 245.3 138.543 253.472 148.623 253.472 C 158.703 253.472 166.875 245.3 166.875 235.22 Z " fill="rgb(127,127,127)"/><g id="Group"><path d=" M 274.482 222.027 C 274.177 222.027 273.874 221.934 273.616 221.752 C 267.69 217.558 238.156 195.766 238.593 178.626 C 238.719 173.68 241.261 169.601 246.148 166.502 C 248.125 165.249 250.214 164.613 252.359 164.613 C 255.851 164.613 259.372 166.327 262.542 169.569 C 271.476 178.709 276.501 197.771 275.983 220.561 C 275.97 221.116 275.653 221.618 275.157 221.867 C 274.943 221.974 274.712 222.027 274.482 222.027 Z " fill="rgb(219,85,38)"/><g id="Group"><path d=" M 252.358 166.113 C 263.622 166.113 275.253 186.624 274.482 220.527 C 256.957 208.121 226.376 180.814 246.951 167.768 C 248.706 166.655 250.528 166.113 252.358 166.113 Z  M 252.358 163.113 L 252.358 163.113 C 249.924 163.113 247.564 163.827 245.344 165.235 C 240.008 168.618 237.232 173.11 237.092 178.588 C 236.648 196.039 264.272 216.975 272.748 222.976 C 273.265 223.342 273.871 223.528 274.481 223.528 C 274.941 223.528 275.403 223.423 275.829 223.208 C 276.82 222.71 277.455 221.705 277.48 220.597 C 278.007 197.412 272.822 177.945 263.611 168.522 C 260.154 164.983 256.262 163.113 252.358 163.113 L 252.358 163.113 Z " fill="rgb(0,0,0)"/></g></g><path d=" M 246.951 167.768 C 245.778 168.512 244.781 169.303 243.929 170.134 C 265.087 174.851 274.483 220.527 274.483 220.527 C 275.377 181.115 259.515 159.801 246.951 167.768 Z " fill="rgb(175,60,25)"/><path d=" M 258.529 250.284 L 293.909 250.284 L 293.909 240.107 L 257.303 240.107 C 259.72 240.107 267.485 241.722 267.485 245.196 C 267.485 248.67 261.836 250.284 258.529 250.284 Z " fill="rgb(127,127,127)"/><g id="Group"><path d=" M 217.993 141.637 L 184.011 138.537 C 183.562 138.496 183.155 138.255 182.903 137.88 C 182.651 137.505 182.582 137.037 182.714 136.605 L 185.882 126.237 C 186.007 125.828 186.301 125.491 186.69 125.313 C 186.889 125.222 187.103 125.176 187.317 125.176 C 187.521 125.176 187.726 125.218 187.918 125.301 L 218.732 138.769 C 219.407 139.064 219.767 139.804 219.585 140.517 C 219.413 141.184 218.811 141.643 218.133 141.643 C 218.085 141.643 218.039 141.641 217.993 141.637 Z " fill="rgb(219,85,38)"/><g id="Group"><path d=" M 187.315 126.675 L 218.129 140.143 L 184.147 137.043 L 187.315 126.675 Z  M 187.315 123.675 C 186.887 123.675 186.459 123.767 186.061 123.949 C 185.284 124.307 184.696 124.979 184.446 125.798 L 181.278 136.166 C 181.014 137.029 181.153 137.966 181.657 138.716 C 182.161 139.466 182.975 139.948 183.875 140.03 L 217.857 143.13 C 217.949 143.138 218.041 143.142 218.131 143.142 C 219.487 143.142 220.692 142.225 221.034 140.889 C 221.4 139.464 220.679 137.983 219.33 137.393 L 188.516 123.925 C 188.133 123.759 187.724 123.675 187.315 123.675 L 187.315 123.675 Z " fill="rgb(0,0,0)"/></g></g><g id="Group"><path d=" M 257.352 141.643 C 256.673 141.643 256.072 141.184 255.9 140.517 C 255.717 139.804 256.078 139.064 256.753 138.769 L 287.567 125.301 C 287.758 125.218 287.963 125.176 288.168 125.176 C 288.382 125.176 288.596 125.222 288.795 125.313 C 289.184 125.492 289.478 125.828 289.603 126.237 L 292.771 136.605 C 292.903 137.037 292.834 137.505 292.582 137.88 C 292.33 138.255 291.923 138.496 291.474 138.537 L 257.492 141.637 C 257.443 141.641 257.397 141.643 257.352 141.643 Z " fill="rgb(219,85,38)"/><g id="Group"><path d=" M 288.167 126.675 L 291.335 137.043 L 257.353 140.143 L 288.167 126.675 Z  M 288.167 123.675 C 287.758 123.675 287.349 123.758 286.966 123.926 L 256.152 137.394 C 254.803 137.983 254.082 139.464 254.448 140.89 C 254.791 142.226 255.995 143.143 257.351 143.143 C 257.442 143.143 257.534 143.139 257.625 143.131 L 291.607 140.031 C 292.506 139.949 293.321 139.466 293.825 138.717 C 294.329 137.968 294.468 137.03 294.204 136.167 L 291.036 125.799 C 290.786 124.98 290.198 124.308 289.421 123.95 C 289.024 123.767 288.595 123.675 288.167 123.675 L 288.167 123.675 Z " fill="rgb(0,0,0)"/></g></g></g></svg>