<?xml version="1.0" standalone="no"?><!-- Generator: Gravit.io --><svg xmlns="http://www.w3.org/2000/svg" xmlns:xlink="http://www.w3.org/1999/xlink" style="isolation:isolate" viewBox="0 0 250 350" width="250" height="350"><defs><clipPath id="_clipPath_QxQ4uWzy3Rxatqd6rOnXwGlQ4XCH2VJ5"><rect width="250" height="350"/></clipPath></defs><g clip-path="url(#_clipPath_QxQ4uWzy3Rxatqd6rOnXwGlQ4XCH2VJ5)"><g id="Group"><rect x="-93" y="-41" width="426" height="426" transform="matrix(1,0,0,1,0,0)" fill="none"/></g><g id="Group"><path d=" M 55.611 326.524 C 55.611 319.152 93.005 313.166 139.064 313.166 C 185.123 313.166 222.517 319.152 222.517 326.524 C 222.517 333.897 185.123 339.882 139.064 339.882 C 93.005 339.882 55.611 333.897 55.611 326.524 Z " fill="rgb(211,211,211)"/><path d=" M 105.591 287.661 L 41.388 134.523 L 231.589 133.087 L 179.921 287.661 L 105.591 287.661 Z " fill="rgb(175,175,175)"/><path d=" M 229.501 134.603 L 178.841 286.162 L 106.589 286.162 L 43.637 136.007 L 229.501 134.603 M 233.678 131.572 L 229.479 131.603 L 43.614 133.006 L 39.14 133.04 L 40.87 137.166 L 103.822 287.321 L 104.593 289.161 L 106.588 289.161 L 178.84 289.161 L 181 289.161 L 181.686 287.112 L 232.346 135.553 L 233.678 131.572 L 233.678 131.572 Z " fill="rgb(0,0,0)"/><path d=" M 171.327 286.161 L 111.918 286.161 L 60.156 136.006 L 212.982 134.603 L 171.327 286.161 Z " fill="rgb(124,124,124)"/><path d=" M 157.073 324.011 C 156.245 324.011 155.573 323.339 155.573 322.511 L 155.573 206.995 C 155.573 206.167 156.245 205.495 157.073 205.495 L 178.841 205.495 C 179.669 205.495 180.341 206.167 180.341 206.995 L 180.341 322.512 C 180.341 323.34 179.669 324.012 178.841 324.012 L 157.073 324.012 L 157.073 324.011 L 157.073 324.011 Z " fill="rgb(109,94,22)"/><path d=" M 178.841 206.995 L 178.841 322.512 L 157.073 322.512 L 157.073 206.995 L 178.841 206.995 Z  M 178.841 203.995 L 157.073 203.995 C 155.416 203.995 154.073 205.338 154.073 206.995 L 154.073 322.512 C 154.073 324.169 155.416 325.512 157.073 325.512 L 178.841 325.512 C 180.498 325.512 181.841 324.169 181.841 322.512 L 181.841 206.995 C 181.841 205.337 180.498 203.995 178.841 203.995 L 178.841 203.995 Z " fill="rgb(0,0,0)"/><path d=" M 161.48 260.294 L 157.073 307.269 L 157.073 322.511 L 172.903 322.511 L 172.903 228.649 L 162.886 233.293 L 161.48 260.294 Z " fill="rgb(73,62,13)"/><path d=" M 150.552 318.453 C 150.421 318.453 150.289 318.435 150.16 318.401 L 123.857 311.282 C 123.227 311.111 122.779 310.552 122.751 309.899 L 120.304 253.709 C 120.303 251.373 119.813 248.73 119.339 246.176 C 118.473 241.504 117.654 237.092 119.754 234.569 C 120.751 233.37 122.263 232.762 124.25 232.762 L 150.498 231.795 C 152.406 231.794 153.962 231.3 155.335 230.864 C 156.459 230.507 157.521 230.17 158.566 230.17 C 159.521 230.17 160.359 230.45 161.089 231.02 C 161.845 228.536 162.937 224.332 163.851 220.481 C 163.982 219.927 164.416 219.496 164.971 219.367 C 165.083 219.341 165.198 219.328 165.31 219.328 C 165.752 219.328 166.179 219.524 166.467 219.874 C 169.294 223.304 179.274 226.949 192.198 226.949 C 194.794 226.949 197.432 226.802 200.042 226.511 C 200.098 226.505 200.153 226.502 200.208 226.502 C 200.584 226.502 200.949 226.644 201.229 226.902 C 201.548 227.199 201.723 227.62 201.708 228.055 C 200.864 251.507 201.7 280.094 201.708 280.38 C 201.723 280.852 201.514 281.303 201.145 281.597 C 200.876 281.812 200.545 281.925 200.209 281.925 C 200.083 281.925 199.957 281.909 199.833 281.877 C 199.022 281.667 180.61 276.674 165.977 253.968 L 152.018 317.276 C 151.93 317.676 151.681 318.023 151.33 318.236 C 151.093 318.379 150.823 318.453 150.552 318.453 L 150.552 318.453 Z " fill="rgb(133,17,153)"/><path d=" M 165.31 220.828 C 168.545 224.753 178.978 228.449 192.199 228.449 C 194.774 228.449 197.455 228.308 200.209 228.003 C 199.354 251.778 200.209 280.427 200.209 280.427 C 200.209 280.427 180.061 275.212 165.311 250.022 L 150.553 316.955 L 124.251 309.836 L 121.804 253.646 C 121.804 245.643 116.247 234.264 124.251 234.264 L 150.553 233.296 C 154.162 233.296 156.641 231.672 158.567 231.672 C 159.702 231.672 160.646 232.236 161.516 234.028 C 162.366 233.231 165.31 220.828 165.31 220.828 M 165.31 217.828 C 165.084 217.828 164.857 217.853 164.631 217.906 C 163.522 218.163 162.653 219.027 162.391 220.135 C 161.688 223.096 160.839 226.419 160.149 228.881 C 159.65 228.74 159.122 228.67 158.566 228.67 C 157.288 228.67 156.119 229.041 154.88 229.435 C 153.549 229.858 152.173 230.294 150.552 230.294 C 150.515 230.294 150.479 230.295 150.442 230.296 L 124.191 231.262 C 121.766 231.275 119.886 232.065 118.601 233.609 C 116.052 236.674 116.933 241.422 117.865 246.45 C 118.326 248.938 118.803 251.512 118.803 253.644 C 118.803 253.688 118.804 253.731 118.806 253.775 L 121.253 309.965 C 121.31 311.27 122.205 312.389 123.466 312.73 L 149.768 319.849 C 150.026 319.919 150.289 319.953 150.552 319.953 C 151.095 319.953 151.633 319.806 152.107 319.518 C 152.808 319.093 153.305 318.4 153.482 317.598 L 166.687 257.705 C 181.285 278.413 198.659 283.122 199.457 283.329 C 199.705 283.393 199.958 283.425 200.209 283.425 C 200.882 283.425 201.543 283.198 202.081 282.77 C 202.818 282.181 203.235 281.279 203.208 280.335 C 203.199 280.05 202.365 251.509 203.207 228.108 C 203.238 227.237 202.889 226.395 202.25 225.801 C 201.692 225.283 200.962 225 200.209 225 C 200.099 225 199.988 225.006 199.878 225.019 C 197.322 225.302 194.739 225.447 192.199 225.447 C 178.962 225.447 169.86 221.629 167.626 218.918 C 167.048 218.219 166.194 217.828 165.31 217.828 L 165.31 217.828 L 165.31 217.828 Z " fill="rgb(0,0,0)"/><path d=" M 199.638 281.926 C 192.725 281.926 188.995 268.693 188.995 256.24 C 188.995 243.789 192.724 230.555 199.638 230.555 C 206.552 230.555 210.283 243.788 210.283 256.24 C 210.282 268.693 206.552 281.926 199.638 281.926 L 199.638 281.926 Z " fill="rgb(81,8,96)"/><path d=" M 199.638 232.056 C 204.689 232.056 208.783 242.885 208.783 256.241 C 208.783 269.599 204.689 280.427 199.638 280.427 C 194.589 280.427 190.495 269.6 190.495 256.241 C 190.495 242.885 194.589 232.056 199.638 232.056 M 199.638 229.056 C 191.666 229.056 187.495 242.732 187.495 256.241 C 187.495 269.751 191.666 283.427 199.638 283.427 C 207.611 283.427 211.783 269.751 211.783 256.241 C 211.782 242.732 207.611 229.056 199.638 229.056 L 199.638 229.056 Z " fill="rgb(0,0,0)"/><path d=" M 201.503 279.92 C 200.901 280.249 200.278 280.426 199.638 280.426 C 194.589 280.426 190.495 269.599 190.495 256.24 C 190.495 248.479 191.882 241.59 194.032 237.165 L 199.458 238.106 C 199.458 238.107 191.259 261.163 201.503 279.92 Z " fill="rgb(54,5,66)"/><path d=" M 106.589 330.328 C 105.76 330.328 105.089 329.656 105.089 328.828 L 105.089 255.238 C 90.599 276.864 72.863 281.672 72.068 281.878 C 71.944 281.91 71.818 281.926 71.692 281.926 C 71.356 281.926 71.025 281.813 70.756 281.598 C 70.387 281.304 70.179 280.853 70.193 280.381 C 70.202 280.095 71.037 251.508 70.193 228.056 C 70.177 227.62 70.352 227.2 70.672 226.903 C 70.951 226.644 71.316 226.503 71.693 226.503 C 71.748 226.503 71.803 226.506 71.859 226.512 C 74.469 226.802 77.108 226.95 79.702 226.95 C 92.628 226.95 102.606 223.304 105.433 219.875 C 105.728 219.518 106.157 219.329 106.592 219.329 C 106.876 219.329 107.163 219.41 107.416 219.576 C 107.437 219.591 107.511 219.639 107.627 219.723 C 110.55 215.134 115.552 212.353 121.082 212.353 L 151.275 212.353 C 160.093 212.353 167.267 219.527 167.267 228.344 L 167.267 328.829 C 167.267 329.657 166.595 330.329 165.767 330.329 L 106.589 330.329 L 106.589 330.328 L 106.589 330.328 Z " fill="rgb(133,17,153)"/><path d=" M 151.273 213.852 C 159.277 213.852 165.765 220.34 165.765 228.343 L 165.765 328.828 L 106.589 328.828 L 106.589 250.02 C 91.84 275.21 71.692 280.425 71.692 280.425 C 71.692 280.425 72.547 251.777 71.692 228.001 C 74.446 228.307 77.126 228.447 79.701 228.447 C 92.922 228.447 103.355 224.751 106.59 220.826 C 106.59 220.826 107.202 221.229 108.054 222.026 C 110.403 217.192 115.345 213.85 121.081 213.85 L 151.273 213.85 M 151.273 210.852 L 121.08 210.852 C 115.462 210.852 110.343 213.475 107.081 217.868 C 106.918 217.842 106.754 217.828 106.59 217.828 C 105.72 217.828 104.862 218.205 104.273 218.92 C 102.039 221.631 92.937 225.449 79.699 225.449 C 77.159 225.449 74.576 225.304 72.021 225.021 C 71.911 225.008 71.8 225.002 71.69 225.002 C 70.937 225.002 70.207 225.285 69.649 225.803 C 69.009 226.397 68.66 227.239 68.691 228.11 C 69.533 251.51 68.699 280.051 68.691 280.337 C 68.663 281.28 69.08 282.183 69.818 282.772 C 70.355 283.201 71.017 283.427 71.69 283.427 C 71.941 283.427 72.193 283.396 72.441 283.331 C 73.21 283.132 89.357 278.757 103.587 259.931 L 103.587 328.829 C 103.587 330.486 104.93 331.829 106.587 331.829 L 165.763 331.829 C 167.42 331.829 168.763 330.486 168.763 328.829 L 168.763 228.343 C 168.765 218.699 160.918 210.852 151.273 210.852 L 151.273 210.852 L 151.273 210.852 Z " fill="rgb(0,0,0)"/><path d=" M 106.589 260.109 C 112.918 243.15 116.058 222.737 105.721 239.613 C 94.933 257.223 78.785 265.286 71.95 268.058 C 71.839 275.503 71.692 280.426 71.692 280.426 C 71.692 280.426 91.84 275.211 106.589 250.021 L 106.589 260.109 Z " fill="rgb(100,12,119)"/><path d=" M 165.765 235.585 L 145.648 219.568 L 109.096 220.226 C 108.707 220.799 108.358 221.399 108.053 222.027 C 107.201 221.23 106.589 220.827 106.589 220.827 C 103.975 224 96.651 227.015 86.961 228.057 L 87.877 232.055 L 100.13 247.422 L 133.006 256.859 L 165.765 249.095 L 165.765 235.585 L 165.765 235.585 Z " fill="rgb(100,12,119)"/><path d=" M 72.259 281.926 C 65.346 281.926 61.616 268.693 61.616 256.24 C 61.616 243.789 65.346 230.555 72.259 230.555 C 79.173 230.555 82.904 243.788 82.904 256.24 C 82.904 268.693 79.173 281.926 72.259 281.926 Z " fill="rgb(81,8,96)"/><path d=" M 72.259 232.056 C 77.31 232.056 81.404 242.885 81.404 256.241 C 81.404 269.599 77.31 280.427 72.259 280.427 C 67.21 280.427 63.116 269.6 63.116 256.241 C 63.117 242.885 67.211 232.056 72.259 232.056 Z  M 72.259 229.056 C 64.287 229.056 60.116 242.732 60.116 256.241 C 60.116 269.751 64.287 283.427 72.259 283.427 C 80.232 283.427 84.404 269.751 84.404 256.241 C 84.404 242.732 80.233 229.056 72.259 229.056 L 72.259 229.056 Z " fill="rgb(0,0,0)"/><path d=" M 70.395 279.92 C 70.998 280.249 71.621 280.426 72.259 280.426 C 77.31 280.426 81.404 269.599 81.404 256.24 C 81.404 248.479 80.016 241.59 77.867 237.165 L 72.439 238.106 C 72.439 238.107 80.64 261.163 70.395 279.92 Z " fill="rgb(54,5,66)"/><path d=" M 131.715 251.197 C 131.586 251.197 131.456 251.18 131.33 251.147 L 105.746 244.354 C 105.478 244.283 105.236 244.139 105.045 243.938 L 91.465 229.683 C 91.236 229.443 91.093 229.133 91.059 228.802 L 88.383 202.818 C 88.341 202.414 88.466 202.009 88.728 201.698 C 88.99 201.387 89.368 201.196 89.774 201.168 L 133.797 198.195 C 133.831 198.193 133.864 198.192 133.898 198.192 C 134.126 198.192 134.351 198.244 134.556 198.344 L 176.794 218.96 C 177.434 219.272 177.766 219.99 177.589 220.68 L 172.026 242.379 C 171.882 242.939 171.43 243.366 170.864 243.479 L 132.005 251.168 C 131.909 251.187 131.812 251.197 131.715 251.197 L 131.715 251.197 Z " fill="rgb(109,94,22)"/><path d=" M 133.898 199.692 L 176.136 220.308 L 170.573 242.007 L 131.714 249.696 L 106.13 242.903 L 92.55 228.648 L 89.874 202.664 L 133.898 199.692 Z  M 133.898 196.692 C 133.831 196.692 133.763 196.694 133.696 196.699 L 89.673 199.672 C 88.861 199.727 88.106 200.11 87.581 200.732 C 87.057 201.354 86.808 202.164 86.891 202.973 L 89.567 228.957 C 89.635 229.618 89.921 230.237 90.38 230.719 L 103.96 244.974 C 104.342 245.374 104.827 245.662 105.362 245.804 L 130.946 252.597 C 131.198 252.664 131.457 252.698 131.716 252.698 C 131.911 252.698 132.106 252.679 132.299 252.641 L 171.157 244.952 C 172.291 244.727 173.194 243.873 173.481 242.754 L 179.044 221.055 C 179.398 219.676 178.733 218.239 177.454 217.614 L 135.216 196.998 C 134.803 196.795 134.353 196.692 133.898 196.692 L 133.898 196.692 L 133.898 196.692 Z " fill="rgb(0,0,0)"/><path d=" M 115.159 243.931 C 114.7 243.908 114.277 243.675 114.012 243.299 L 91.059 210.875 C 90.758 210.45 90.699 209.899 90.904 209.42 C 91.109 208.941 91.548 208.602 92.063 208.525 L 180.693 195.355 C 180.767 195.343 180.84 195.338 180.914 195.338 C 181.306 195.338 181.685 195.491 181.969 195.772 C 182.305 196.103 182.464 196.574 182.401 197.042 L 178.047 228.852 C 177.992 229.252 177.777 229.615 177.452 229.855 L 156.059 245.679 C 155.801 245.87 155.488 245.973 155.167 245.973 C 155.142 245.973 115.159 243.931 115.159 243.931 L 115.159 243.931 Z " fill="rgb(142,126,32)"/><path d=" M 180.913 196.839 L 176.559 228.649 L 155.166 244.473 L 115.235 242.433 L 92.282 210.009 L 180.913 196.839 M 180.913 193.839 C 180.767 193.839 180.619 193.85 180.472 193.871 L 91.842 207.041 C 90.811 207.194 89.933 207.872 89.524 208.83 C 89.114 209.789 89.232 210.892 89.834 211.742 L 112.787 244.166 C 113.318 244.916 114.164 245.382 115.083 245.429 L 155.014 247.469 C 155.066 247.472 155.117 247.473 155.167 247.473 C 155.808 247.473 156.434 247.268 156.951 246.885 L 178.344 231.061 C 178.994 230.58 179.422 229.857 179.532 229.056 L 183.886 197.246 C 184.014 196.31 183.694 195.369 183.023 194.705 C 182.456 194.147 181.697 193.839 180.913 193.839 L 180.913 193.839 L 180.913 193.839 Z " fill="rgb(0,0,0)"/><path d=" M 124.25 194.114 C 124.25 194.114 136.51 200.245 150.552 194.114" fill="rgb(239,184,134)" vector-effect="non-scaling-stroke" stroke-width="3" stroke="rgb(0,0,0)" stroke-linejoin="miter" stroke-linecap="round" stroke-miterlimit="10"/><path d=" M 165.765 328.828 L 165.765 247.943 L 154.179 251.841 C 154.179 251.841 164.515 266.888 152.2 274.314 C 152.925 283.549 152.2 287.894 152.2 287.894 C 155.229 290.756 161.175 299.419 158.899 328.828 L 165.765 328.828 Z " fill="rgb(100,12,119)"/><path d=" M 108.619 247.094 L 99.813 251.715 L 98.989 260.88 C 101.593 257.754 104.164 254.162 106.589 250.021 L 106.589 303.547 C 109.074 295.908 112.095 291.292 113.961 288.386 C 111.218 286.948 111.073 279.432 117.281 273.947 C 105.154 269.471 107.609 251.716 107.609 251.716 L 108.619 247.094 L 108.619 247.094 Z " fill="rgb(100,12,119)"/><rect x="105.089" y="274.776" width="62.176" height="12.886" transform="matrix(1,0,0,1,0,0)" fill="rgb(229,224,44)"/><path d=" M 165.765 276.276 L 165.765 286.162 L 106.589 286.162 L 106.589 276.276 L 165.765 276.276 Z  M 168.765 273.276 L 165.765 273.276 L 106.589 273.276 L 103.589 273.276 L 103.589 276.276 L 103.589 286.162 L 103.589 289.162 L 106.589 289.162 L 165.765 289.162 L 168.765 289.162 L 168.765 286.162 L 168.765 276.276 L 168.765 273.276 L 168.765 273.276 Z " fill="rgb(0,0,0)"/><path d=" M 155.167 244.473 L 176.56 228.649 L 180.913 196.839 L 164.657 199.254 L 164.569 214.777 L 152.2 242.007 L 145.109 243.958 L 155.167 244.473 Z " fill="rgb(109,94,22)"/><path d=" M 124.25 239.453 C 124.018 239.453 123.788 239.399 123.579 239.295 L 99.98 227.493 C 99.652 227.329 99.395 227.05 99.259 226.709 L 89.845 203.222 C 89.659 202.76 89.716 202.237 89.995 201.824 C 90.274 201.412 90.739 201.165 91.237 201.165 L 176.56 201.165 C 177.023 201.165 177.46 201.379 177.745 201.745 C 178.03 202.111 178.129 202.588 178.014 203.036 L 173.233 221.739 C 173.168 221.995 173.036 222.229 172.851 222.418 L 158.505 237.063 C 158.244 237.33 157.894 237.489 157.522 237.51 C 157.521 237.509 124.279 239.453 124.25 239.453 L 124.25 239.453 Z " fill="rgb(170,155,41)"/><path d=" M 176.56 202.664 L 171.779 221.367 L 157.433 236.012 L 124.25 237.953 L 100.651 226.151 L 91.237 202.664 L 176.56 202.664 M 176.56 199.664 L 91.237 199.664 C 90.241 199.664 89.31 200.158 88.752 200.983 C 88.194 201.807 88.082 202.855 88.452 203.78 L 97.866 227.267 C 98.139 227.949 98.652 228.505 99.309 228.834 L 122.908 240.636 C 123.325 240.844 123.785 240.952 124.25 240.952 C 124.308 240.952 124.367 240.95 124.425 240.947 L 157.608 239.006 C 158.353 238.962 159.054 238.643 159.576 238.11 L 173.922 223.465 C 174.292 223.088 174.555 222.62 174.686 222.109 L 179.467 203.406 C 179.696 202.509 179.498 201.554 178.93 200.823 C 178.361 200.092 177.486 199.664 176.56 199.664 L 176.56 199.664 L 176.56 199.664 Z " fill="rgb(0,0,0)"/><path d=" M 174.882 202.664 L 172.403 202.664 L 153.236 213.852 L 146.558 231.286 L 118.423 235.04 L 124.25 237.953 L 157.433 236.012 L 171.778 221.368 L 175.052 208.564 L 174.882 202.664 Z " fill="rgb(142,126,32)"/><path d=" M 136.176 227.652 C 92.386 227.652 56.76 179.237 56.76 119.726 C 56.76 79.443 92.386 46.67 136.176 46.67 C 179.967 46.67 215.593 79.442 215.593 119.726 C 215.593 179.237 179.967 227.652 136.176 227.652 L 136.176 227.652 Z " fill="rgb(239,184,134)"/><path d=" M 136.176 48.17 C 179.208 48.17 214.093 80.207 214.093 119.726 C 214.093 178.503 179.208 226.152 136.176 226.152 C 93.144 226.152 58.26 178.504 58.26 119.726 C 58.26 80.207 93.144 48.17 136.176 48.17 M 136.176 45.17 C 91.559 45.17 55.26 78.615 55.26 119.726 C 55.26 148.786 63.571 176.141 78.66 196.752 C 93.956 217.646 114.382 229.151 136.176 229.151 C 157.97 229.151 178.395 217.645 193.692 196.752 C 208.782 176.141 217.092 148.785 217.092 119.726 C 217.093 78.616 180.794 45.17 136.176 45.17 L 136.176 45.17 L 136.176 45.17 Z " fill="rgb(0,0,0)"/><path d=" M 190.466 111.542 C 190.466 111.542 204.71 209.759 131.715 225.975 C 133.192 226.088 134.679 226.152 136.177 226.152 C 179.209 226.152 214.094 178.504 214.094 119.726 C 214.094 117.993 214.002 116.28 213.871 114.577 L 203.816 101.754 L 190.466 111.542 L 190.466 111.542 Z " fill="rgb(183,126,83)"/><path d=" M 70.865 177.774 C 70.865 177.774 60.269 149.743 73.701 106.67 C 85.551 118.572 110.072 136.208 149.624 142.222 C 125.498 121.737 122.191 110.112 122.191 110.112 C 140.922 124.11 181.265 139.768 204.601 142.222 C 204.205 154.169 200.249 172.135 196.691 180.95 C 215.56 163.189 222.795 126.089 222.795 126.089 L 151.207 80.209 L 100.205 60.037 L 55.889 77.836 L 58.5 128.103 L 70.865 177.774 L 70.865 177.774 Z " fill="rgb(183,126,83)"/><path d=" M 93.049 140.486 C 93.049 136.537 96.255 133.331 100.204 133.331 C 104.153 133.331 107.359 136.537 107.359 140.486 C 107.359 144.435 104.153 147.641 100.204 147.641 C 96.255 147.641 93.049 144.435 93.049 140.486 Z " fill="rgb(0,0,0)"/><path d=" M 166.603 140.486 C 166.603 136.537 169.809 133.331 173.758 133.331 C 177.707 133.331 180.913 136.537 180.913 140.486 C 180.913 144.435 177.707 147.641 173.758 147.641 C 169.809 147.641 166.603 144.435 166.603 140.486 Z " fill="rgb(0,0,0)"/><path d=" M 198.58 180.261 C 205.128 167.569 209.581 152.826 211.492 137.541 C 171.249 128.062 136.94 110.973 115.889 90.08 C 119.817 101.099 128.388 123.198 137.316 133.627 L 141.196 138.16 L 135.633 136.001 C 94.548 120.052 76.776 98.387 69.458 85.546 C 63.105 95.953 59.76 107.716 59.76 119.726 C 59.76 141.557 64.605 162.49 73.772 180.261 L 77.487 187.462 L 71.441 182.067 C 49.987 162.925 37.683 135.293 37.683 106.254 C 37.683 50.762 81.867 5.616 136.177 5.616 C 190.487 5.616 234.672 50.762 234.672 106.254 C 234.672 135.292 222.367 162.925 200.913 182.067 L 194.865 187.463 L 198.58 180.261 L 198.58 180.261 Z " fill="rgb(255,255,255)"/><path d=" M 136.176 7.118 C 189.745 7.118 233.171 51.505 233.171 106.256 C 233.171 136.063 220.282 162.776 199.913 180.949 C 206.624 167.94 211.253 152.785 213.142 136.386 C 164.191 125.093 130.149 104.393 112.225 84.006 C 112.225 84.006 123.733 120.065 136.177 134.603 C 93.283 117.953 76.104 95.186 69.559 82.595 C 62.391 93.42 58.261 106.13 58.261 119.726 C 58.261 142.518 63.508 163.633 72.44 180.949 C 52.071 162.775 39.183 136.062 39.183 106.256 C 39.182 51.504 82.608 7.118 136.176 7.118 Z  M 136.176 4.118 C 81.039 4.118 36.182 49.937 36.182 106.256 C 36.182 135.722 48.669 163.762 70.442 183.188 L 82.535 193.978 L 75.105 179.575 C 66.048 162.015 61.26 141.32 61.26 119.727 C 61.26 108.823 64.085 98.123 69.468 88.501 C 77.62 101.705 95.853 122.169 135.091 137.4 L 146.216 141.718 L 138.455 132.652 C 131.067 124.021 123.89 107.15 119.48 95.507 C 140.691 114.378 172.718 129.765 209.83 138.688 C 207.853 153.323 203.524 167.406 197.247 179.574 L 189.815 193.978 L 201.91 183.187 C 223.683 163.761 236.171 135.72 236.171 106.255 C 236.171 49.936 191.314 4.118 136.176 4.118 L 136.176 4.118 L 136.176 4.118 Z " fill="rgb(0,0,0)"/><path d=" M 181.802 18.765 C 194.044 32.266 202.939 48.399 196.691 63.595 C 183.459 95.781 169.9 102.097 139.065 106.521 C 157.725 118.572 182.514 129.32 213.143 136.386 C 211.254 152.784 206.625 167.94 199.914 180.949 C 220.283 162.775 233.172 136.062 233.172 106.256 C 233.171 68.364 212.366 35.451 181.802 18.765 L 181.802 18.765 Z " fill="rgb(209,209,209)"/><path d=" M 125.257 116.732 C 113.96 117.531 99.926 112.173 88.789 106.669 C 99.282 116.136 114.416 126.156 136.176 134.603 C 132.344 130.126 128.603 123.608 125.257 116.732 Z " fill="rgb(209,209,209)"/><path d=" M 136.176 134.603 C 136.176 134.603 134.455 133.773 131.442 132.32 C 129.923 131.62 128.164 130.598 126.116 129.47 C 124.04 128.384 121.826 126.954 119.395 125.411 C 118.158 124.671 116.969 123.754 115.691 122.872 C 114.423 121.975 113.103 121.059 111.83 120.004 C 110.55 118.961 109.182 117.95 107.879 116.803 C 106.581 115.652 105.246 114.481 103.924 113.252 C 102.645 111.978 101.345 110.681 100.029 109.37 C 98.785 107.989 97.493 106.618 96.265 105.172 C 93.847 102.248 91.477 99.199 89.355 95.975 L 87.779 93.55 C 87.272 92.731 86.802 91.89 86.313 91.063 C 85.312 89.422 84.453 87.71 83.571 86.029 C 82.696 84.345 81.939 82.617 81.175 80.923 C 80.487 79.195 79.737 77.516 79.157 75.804 C 77.869 72.427 76.947 69.052 76.12 65.852 C 75.345 62.636 74.757 59.564 74.359 56.709 C 73.546 50.999 73.441 46.187 73.51 42.839 C 73.531 41.163 73.653 39.85 73.727 38.957 C 73.81 38.064 73.879 37.591 73.879 37.591 C 73.879 37.591 73.761 39.503 73.899 42.837 C 73.958 44.503 74.09 46.524 74.35 48.829 C 74.589 51.136 74.995 53.721 75.492 56.524 C 76.01 59.326 76.719 62.329 77.564 65.475 C 78.476 68.602 79.495 71.885 80.805 75.185 C 81.405 76.856 82.174 78.491 82.879 80.174 C 83.25 81.007 83.668 81.826 84.063 82.66 C 84.464 83.491 84.837 84.34 85.291 85.154 C 86.166 86.797 87.018 88.47 88.01 90.072 C 88.495 90.88 88.96 91.701 89.462 92.501 L 91.02 94.87 C 93.08 98.042 95.386 101.047 97.742 103.932 C 98.945 105.353 100.19 106.72 101.384 108.102 C 102.655 109.415 103.909 110.713 105.143 111.99 C 106.418 113.226 107.722 114.389 108.96 115.572 C 110.209 116.742 111.527 117.777 112.759 118.846 C 113.981 119.929 115.266 120.862 116.48 121.803 C 117.706 122.728 118.846 123.687 120.038 124.47 C 122.389 126.083 124.501 127.638 126.488 128.833 C 128.451 130.068 130.142 131.188 131.619 131.978 C 134.521 133.648 136.176 134.603 136.176 134.603 L 136.176 134.603 Z " fill="rgb(170,170,170)"/><path d=" M 76.849 37.59 C 76.849 37.59 77.546 37.533 78.858 37.487 C 80.169 37.437 82.095 37.385 84.546 37.426 C 86.996 37.469 89.973 37.573 93.381 37.82 C 95.086 37.935 96.895 38.111 98.804 38.291 C 100.708 38.517 102.714 38.733 104.792 39.065 C 108.963 39.637 113.441 40.523 118.159 41.548 C 120.496 42.15 122.93 42.653 125.359 43.385 C 126.579 43.735 127.811 44.088 129.056 44.445 C 130.285 44.853 131.525 45.266 132.776 45.682 C 135.295 46.467 137.77 47.509 140.318 48.443 C 141.578 48.948 142.824 49.507 144.089 50.042 C 145.35 50.586 146.629 51.105 147.865 51.734 C 149.113 52.338 150.365 52.944 151.622 53.552 C 152.887 54.143 154.087 54.87 155.328 55.525 C 156.55 56.213 157.814 56.835 159.008 57.583 L 162.608 59.798 C 163.204 60.174 163.812 60.53 164.391 60.933 L 166.118 62.151 C 167.268 62.963 168.418 63.774 169.565 64.584 C 170.687 65.427 171.767 66.322 172.865 67.186 C 173.943 68.075 175.083 68.882 176.098 69.83 C 180.269 73.489 184.204 77.292 187.661 81.288 C 189.363 83.307 191.146 85.205 192.588 87.305 C 193.342 88.327 194.088 89.339 194.824 90.339 C 195.185 90.844 195.575 91.323 195.905 91.84 C 196.235 92.357 196.562 92.87 196.887 93.38 C 197.537 94.399 198.178 95.405 198.81 96.395 C 199.429 97.393 200.098 98.338 200.613 99.355 C 201.701 101.35 202.754 103.278 203.763 105.128 C 204.735 106.997 205.522 108.86 206.332 110.599 C 207.124 112.347 207.896 113.995 208.448 115.617 C 209.045 117.218 209.603 118.717 210.12 120.102 C 210.378 120.794 210.625 121.457 210.861 122.092 C 211.076 122.735 211.247 123.359 211.427 123.944 C 212.808 128.644 213.597 131.33 213.597 131.33 C 213.597 131.33 212.674 128.69 211.059 124.071 C 210.856 123.495 210.661 122.882 210.421 122.251 C 210.16 121.628 209.887 120.977 209.603 120.297 C 209.034 118.941 208.418 117.473 207.761 115.904 C 207.149 114.317 206.315 112.71 205.459 111.007 C 204.586 109.314 203.779 107.478 202.766 105.653 C 201.721 103.845 200.632 101.963 199.506 100.014 C 198.974 99.022 198.288 98.102 197.652 97.131 C 197.004 96.168 196.346 95.19 195.679 94.199 C 195.346 93.704 195.01 93.205 194.672 92.703 C 194.335 92.202 193.937 91.737 193.568 91.248 C 192.817 90.28 192.057 89.301 191.289 88.31 C 189.804 86.289 188.065 84.407 186.361 82.44 C 182.924 78.532 179.018 74.819 174.884 71.252 C 173.878 70.327 172.747 69.542 171.681 68.676 C 170.592 67.836 169.524 66.963 168.412 66.142 C 167.276 65.355 166.139 64.566 165 63.776 L 163.291 62.591 C 162.72 62.198 162.113 61.858 161.529 61.485 L 158.003 59.276 C 156.834 58.529 155.593 57.908 154.394 57.22 C 153.177 56.565 152 55.838 150.757 55.246 C 149.523 54.636 148.292 54.028 147.067 53.423 C 145.852 52.793 144.593 52.27 143.353 51.723 C 142.109 51.186 140.882 50.623 139.642 50.114 C 137.132 49.172 134.695 48.12 132.21 47.325 C 130.976 46.904 129.752 46.486 128.541 46.072 C 127.316 45.697 126.103 45.326 124.902 44.959 C 122.515 44.175 120.118 43.619 117.816 42.965 C 113.166 41.836 108.743 40.847 104.614 40.177 C 96.371 38.749 89.41 38.09 84.53 37.818 C 82.089 37.693 80.168 37.611 78.858 37.6 C 77.549 37.571 76.849 37.59 76.849 37.59 L 76.849 37.59 Z " fill="rgb(170,170,170)"/><path d=" M 43.636 136.006 C 49.056 153.611 59.156 169.097 72.439 180.948 C 63.507 163.633 58.26 142.517 58.26 119.725 C 58.26 106.129 62.39 93.419 69.558 82.594 C 69.558 82.595 48.154 89.346 43.636 136.006 Z " fill="rgb(209,209,209)"/><path d=" M 75.366 34.92 C 75.366 34.92 75.499 34.752 75.758 34.425 C 76.029 34.109 76.371 33.59 76.932 33.007 C 77.983 31.778 79.689 30.11 82.114 28.301 C 84.535 26.49 87.693 24.571 91.539 22.837 C 93.45 21.943 95.55 21.145 97.781 20.358 C 100.024 19.603 102.419 18.919 104.946 18.323 C 110.003 17.147 115.59 16.306 121.538 16.011 C 127.482 15.703 133.796 15.898 140.235 16.834 C 146.675 17.736 153.248 19.318 159.684 21.634 C 166.12 23.947 172.404 27.022 178.248 30.799 C 184.061 34.621 189.429 39.124 194.089 44.136 C 198.797 49.109 202.755 54.603 206.078 60.193 C 209.423 65.779 211.993 71.546 214.016 77.138 C 216.054 82.73 217.525 88.166 218.606 93.231 C 218.903 94.492 219.141 95.737 219.358 96.958 C 219.572 98.178 219.829 99.362 219.988 100.531 C 220.313 102.868 220.669 105.076 220.862 107.17 C 220.975 108.214 221.085 109.225 221.19 110.2 C 221.265 111.178 221.338 112.121 221.408 113.027 C 221.554 114.838 221.67 116.502 221.716 118.009 C 221.881 121.018 221.882 123.385 221.887 124.998 C 221.899 126.61 221.905 127.471 221.905 127.471 C 221.905 127.471 221.861 126.612 221.779 125.001 C 221.738 124.196 221.688 123.204 221.629 122.037 C 221.541 120.872 221.441 119.533 221.328 118.033 C 221.233 116.533 221.064 114.877 220.859 113.077 C 220.759 112.177 220.657 111.241 220.549 110.269 C 220.412 109.301 220.271 108.299 220.124 107.263 C 219.543 103.121 218.681 98.481 217.509 93.479 C 216.337 88.478 214.773 83.126 212.651 77.647 C 210.544 72.165 207.88 66.558 204.589 61.078 C 201.288 55.61 197.373 50.25 192.732 45.414 C 188.139 40.536 182.859 36.176 177.159 32.471 C 171.471 28.742 165.342 25.691 159.049 23.383 C 152.756 21.071 146.313 19.475 139.988 18.547 C 133.664 17.621 127.465 17.268 121.6 17.461 C 115.733 17.634 110.205 18.354 105.193 19.416 C 100.186 20.507 95.679 21.901 91.836 23.515 C 87.982 25.104 84.796 26.9 82.341 28.615 C 79.892 30.336 78.104 31.898 77.014 33.077 C 76.431 33.633 76.065 34.138 75.78 34.442 C 75.506 34.758 75.366 34.92 75.366 34.92 L 75.366 34.92 Z " fill="rgb(170,170,170)"/><path d=" M 208.782 245.973 C 195.437 245.973 185.682 210.958 185.682 192.733 C 185.682 179.997 196.044 169.634 208.782 169.634 C 221.52 169.634 231.882 179.996 231.882 192.733 C 231.882 210.958 222.127 245.973 208.782 245.973 Z " fill="rgb(255,255,255)"/><path d=" M 208.782 171.134 C 220.71 171.134 230.382 180.805 230.382 192.733 C 230.382 210.472 220.71 244.473 208.782 244.473 C 196.852 244.473 187.182 210.472 187.182 192.733 C 187.183 180.805 196.853 171.134 208.782 171.134 Z  M 208.782 168.134 C 195.218 168.134 184.182 179.169 184.182 192.733 C 184.182 209.454 193.476 247.473 208.782 247.473 C 224.088 247.473 233.382 209.453 233.382 192.733 C 233.382 179.169 222.347 168.134 208.782 168.134 L 208.782 168.134 Z " fill="rgb(0,0,0)"/><path d=" M 208.782 171.134 C 204.067 171.134 199.719 172.661 196.169 175.223 C 198.618 174.26 201.276 173.713 204.065 173.713 C 215.995 173.713 225.665 183.384 225.665 195.312 C 225.665 210.061 218.977 236.034 209.868 244.376 C 221.292 242.41 230.382 209.931 230.382 192.732 C 230.382 180.805 220.71 171.134 208.782 171.134 Z " fill="rgb(211,211,211)"/><path d=" M 198.806 187.483 C 198.806 186.477 199.623 185.66 200.629 185.66 C 201.635 185.66 202.452 186.477 202.452 187.483 C 202.452 188.489 201.635 189.306 200.629 189.306 C 199.623 189.306 198.806 188.489 198.806 187.483 Z " fill="rgb(0,0,0)"/><path d=" M 215.904 187.483 C 215.904 186.477 216.721 185.66 217.727 185.66 C 218.733 185.66 219.55 186.477 219.55 187.483 C 219.55 188.489 218.733 189.306 217.727 189.306 C 216.721 189.306 215.904 188.489 215.904 187.483 Z " fill="rgb(0,0,0)"/><path d=" M 202.452 186.302 L 209.177 205.359 L 215.903 186.302 L 202.452 186.302 Z " fill="rgb(234,216,83)"/><path d=" M 209.177 217.779 C 197.279 217.779 190.253 207.071 187.991 202.956 C 190.544 221.061 198.882 244.474 208.782 244.474 C 218.968 244.474 227.503 219.684 229.78 201.396 C 228.052 207.896 223.161 217.779 209.177 217.779 Z " fill="rgb(211,211,211)"/><path d=" M 208.782 261.794 C 197.871 261.794 188.995 252.918 188.995 242.007 C 188.995 231.097 197.871 222.221 208.782 222.221 C 219.693 222.221 228.569 231.097 228.569 242.007 C 228.569 252.918 219.694 261.794 208.782 261.794 Z " fill="rgb(239,184,134)"/><path d=" M 208.782 223.721 C 218.882 223.721 227.069 231.908 227.069 242.007 C 227.069 252.106 218.881 260.294 208.782 260.294 C 198.683 260.294 190.495 252.106 190.495 242.007 C 190.495 231.908 198.683 223.721 208.782 223.721 Z  M 208.782 220.721 C 197.045 220.721 187.495 230.27 187.495 242.007 C 187.495 253.744 197.045 263.294 208.782 263.294 C 220.519 263.294 230.069 253.744 230.069 242.007 C 230.069 230.27 220.52 220.721 208.782 220.721 L 208.782 220.721 Z " fill="rgb(0,0,0)"/><path d=" M 190.495 242.007 C 190.495 241.974 190.499 241.94 190.501 241.907 C 196.394 250.875 206.765 251.494 213.413 247.506 C 220.493 243.258 222.276 235.275 221.241 228.649 C 224.819 231.986 227.069 236.728 227.069 242.007 C 227.069 252.107 218.881 260.294 208.782 260.294 C 198.683 260.294 190.495 252.107 190.495 242.007 L 190.495 242.007 Z " fill="rgb(214,154,105)"/><path d=" M 117.281 308.382 C 112.981 308.382 109.482 304.883 109.482 300.583 C 109.482 296.283 112.981 292.784 117.281 292.784 C 121.581 292.784 125.079 296.283 125.079 300.583 C 125.079 304.883 121.581 308.382 117.281 308.382 Z " fill="rgb(211,81,30)"/><path d=" M 117.281 294.285 C 120.76 294.285 123.579 297.105 123.579 300.584 C 123.579 304.063 120.76 306.883 117.281 306.883 C 113.802 306.883 110.982 304.063 110.982 300.584 C 110.982 297.105 113.801 294.285 117.281 294.285 Z  M 117.281 291.285 C 112.154 291.285 107.982 295.457 107.982 300.584 C 107.982 305.711 112.153 309.883 117.281 309.883 C 122.408 309.883 126.579 305.711 126.579 300.584 C 126.579 295.457 122.408 291.285 117.281 291.285 L 117.281 291.285 Z " fill="rgb(0,0,0)"/><path d=" M 113.64 301.77 C 112.986 301.77 112.454 301.238 112.454 300.583 C 112.454 297.921 114.618 295.757 117.28 295.757 C 117.934 295.757 118.466 296.289 118.466 296.944 C 118.466 297.599 117.935 298.131 117.28 298.131 C 115.926 298.131 114.827 299.231 114.827 300.584 C 114.828 301.238 114.297 301.77 113.64 301.77 L 113.64 301.77 Z " fill="rgb(234,131,99)"/><path d=" M 117.281 292.926 C 117.281 292.926 118.058 289.812 117.761 287.364" fill="rgb(211,81,30)" vector-effect="non-scaling-stroke" stroke-width="3" stroke="rgb(0,0,0)" stroke-linejoin="round" stroke-linecap="butt" stroke-miterlimit="10"/><path d=" M 5.428 130.271 L 13.236 107.136 L 35.043 118.119 L 55.014 166.789 L 25.401 178.942 L 5.428 130.271 Z " fill="rgb(37,175,193)"/><path d=" M 14.104 109.253 L 33.868 119.206 L 53.057 165.971 L 26.219 176.985 L 7.029 130.22 L 14.104 109.253 M 12.367 105.019 L 11.262 108.294 L 4.187 129.261 L 3.829 130.323 L 4.254 131.359 L 23.444 178.124 L 24.583 180.899 L 27.358 179.76 L 54.196 168.746 L 56.971 167.607 L 55.832 164.832 L 36.643 118.067 L 36.218 117.03 L 35.217 116.526 L 15.453 106.573 L 12.367 105.019 L 12.367 105.019 L 12.367 105.019 Z " fill="rgb(0,0,0)"/><path d=" M 42.145 177.586 L 55.564 172.079 L 33.868 119.206 L 29.666 117.09 L 25.23 136.367 L 42.145 177.586 Z " fill="rgb(24,149,158)"/><path d=" M 7.029 130.22 L 25.23 136.367 L 33.868 119.206 L 14.104 109.253 L 7.029 130.22 Z " fill="rgb(98,212,221)"/><path d=" M 87.974 306.237 C 84.55 306.236 84.165 302.584 83.855 299.649 C 83.676 297.951 83.491 296.195 82.879 295.137 L 82.295 294.133 C 79.931 290.084 76.99 285.045 76.749 280.992 C 76.524 277.204 75.602 274.842 72.955 271.267 C 72.08 270.085 70.963 268.84 69.884 267.635 C 67.419 264.885 64.869 262.041 64.282 259.062 C 63.546 255.338 61.736 249.364 59.503 245.047 C 58.842 243.77 58.11 242.746 57.401 241.756 C 55.732 239.423 54.006 237.01 53.564 231.773 C 53.182 227.258 51.762 223.665 50.388 220.19 C 49.709 218.473 49.068 216.851 48.563 215.16 C 47.667 212.161 47.749 208.689 48.066 205.921 C 45.307 205.421 41.004 204.187 38.854 201.217 C 37.67 199.582 37.286 197.67 37.712 195.534 C 38.204 193.065 38.868 190.99 39.527 189.003 C 38.649 188.717 37.765 188.44 36.891 188.168 C 33.733 187.183 30.751 186.251 28.559 185.026 C 20.851 180.72 20.441 174.008 21.278 168.304 C 13.856 165.801 7.458 161.385 8.492 148.338 L 8.989 142.071 L 11.375 147.886 C 14.824 156.29 18.311 158.054 20.628 158.054 C 21.311 158.054 22.028 157.91 22.758 157.626 C 25.735 156.47 28.935 155.883 32.269 155.883 C 42.519 155.883 53.157 161.652 58.139 169.91 C 61.642 175.718 61.992 182.056 59.141 187.812 C 59.588 190.928 58.95 193.668 58.641 194.74 C 58.342 195.779 58.026 196.828 57.712 197.87 C 56.236 202.77 54.71 207.838 55.51 210.154 C 55.697 210.694 55.975 211.465 56.309 212.389 C 58.724 219.071 61.292 226.439 61.185 229.314 C 61.096 231.677 64.898 239.253 66.726 242.895 C 67.226 243.89 67.643 244.724 67.916 245.303 C 68.381 246.292 68.859 247.732 69.464 249.555 C 70.787 253.541 72.599 259 75.299 262.402 C 79.372 267.533 84.564 277.436 85.4 281.669 C 86.127 285.343 87.526 289.147 89.679 293.297 C 91.446 296.706 93.03 301.243 92.179 303.756 C 91.827 304.795 91.162 305.29 90.666 305.524 C 89.653 306.003 88.772 306.237 87.974 306.237 L 87.974 306.237 L 87.974 306.237 Z  M 25.351 169.534 C 26.506 175.123 29.37 176.043 35.899 176.406 C 35.647 175.813 35.35 175.232 35.01 174.667 C 33.33 171.868 29.474 170.714 25.351 169.534 L 25.351 169.534 Z " fill="rgb(181,154,87)"/><path d=" M 9.987 148.457 C 11.459 152.044 14.93 159.556 20.628 159.556 C 21.47 159.556 22.361 159.392 23.301 159.027 C 26.202 157.899 29.239 157.385 32.269 157.385 C 48.909 157.385 65.317 172.9 57.582 187.57 C 58.068 190.26 57.621 192.867 57.2 194.328 C 55.381 200.641 52.946 207.329 54.093 210.647 C 55.24 213.965 59.813 225.882 59.688 229.261 C 59.561 232.64 65.122 242.885 66.561 245.945 C 67.999 249 70.049 258.202 74.127 263.338 C 78.203 268.473 83.181 278.165 83.931 281.963 C 84.682 285.76 86.101 289.654 88.35 293.99 C 90.598 298.328 91.898 303.291 90.03 304.169 C 89.196 304.562 88.523 304.737 87.975 304.737 C 84.506 304.737 86.098 297.703 84.179 294.386 C 81.954 290.544 78.488 284.94 78.247 280.904 C 78.007 276.867 77.011 274.223 74.161 270.376 C 71.313 266.531 66.503 262.571 65.754 258.773 C 65.003 254.975 63.134 248.802 60.835 244.359 C 58.535 239.915 55.648 238.63 55.059 231.648 C 54.468 224.662 51.509 219.788 50.001 214.732 C 49.1 211.713 49.248 207.901 49.75 204.66 C 47.168 204.347 37.806 202.729 39.184 195.829 C 39.777 192.858 40.65 190.407 41.422 188.056 C 37.046 186.546 32.259 185.376 29.292 183.718 C 22.598 179.979 21.722 174.212 22.968 167.274 C 15.822 165.077 8.939 161.679 9.987 148.457 M 38.015 178.005 C 37.679 176.663 37.13 175.282 36.296 173.894 C 33.98 170.038 28.727 168.998 23.51 167.438 C 24.623 177.286 29.289 177.658 38.015 178.005 M 7.989 135.687 L 6.996 148.22 C 5.936 161.588 12.415 166.62 19.638 169.314 C 19.03 174.95 19.861 181.886 27.827 186.336 C 30.154 187.637 33.209 188.59 36.443 189.6 C 36.837 189.723 37.234 189.847 37.632 189.973 C 37.128 191.558 36.626 193.3 36.239 195.242 C 35.735 197.767 36.218 200.138 37.636 202.097 C 39.729 204.989 43.391 206.417 46.442 207.123 C 46.238 209.775 46.304 212.846 47.124 215.59 C 47.646 217.343 48.33 219.07 48.991 220.742 C 50.324 224.116 51.704 227.604 52.067 231.9 C 52.544 237.547 54.392 240.13 56.179 242.629 C 56.888 243.619 57.557 244.555 58.168 245.736 C 60.238 249.736 62.069 255.614 62.809 259.353 C 63.476 262.735 66.165 265.735 68.765 268.635 C 69.87 269.868 70.915 271.033 71.748 272.158 C 74.224 275.502 75.042 277.586 75.25 281.08 C 75.512 285.49 78.554 290.7 80.998 294.887 L 81.58 295.887 C 82.032 296.667 82.215 298.407 82.362 299.804 C 82.654 302.575 83.198 307.735 87.972 307.735 C 88.995 307.735 90.086 307.456 91.305 306.881 C 92.377 306.377 93.192 305.439 93.599 304.238 C 94.826 300.616 92.198 294.898 91.011 292.608 C 88.924 288.585 87.57 284.912 86.871 281.379 C 85.984 276.889 80.737 266.841 76.474 261.471 C 73.938 258.278 72.175 252.964 70.888 249.084 C 70.267 247.213 69.777 245.736 69.273 244.665 C 68.988 244.061 68.561 243.209 68.066 242.223 C 66.721 239.543 62.628 231.388 62.684 229.372 C 62.789 226.521 60.943 220.801 57.719 211.881 C 57.387 210.964 57.112 210.2 56.927 209.665 C 56.285 207.807 57.939 202.314 59.147 198.304 C 59.463 197.256 59.78 196.201 60.082 195.158 C 60.403 194.044 61.05 191.274 60.685 188.065 C 63.554 181.946 63.118 175.262 59.423 169.137 C 54.1 160.313 43.188 154.384 32.269 154.384 C 28.748 154.384 25.365 155.005 22.214 156.23 C 21.658 156.446 21.124 156.555 20.628 156.555 C 19.106 156.555 16.061 155.355 12.762 147.318 L 7.989 135.687 L 7.989 135.687 L 7.989 135.687 Z  M 33.175 174.701 C 30.17 174.364 28.546 173.663 27.597 171.766 C 29.983 172.526 31.98 173.373 33.175 174.701 L 33.175 174.701 Z " fill="rgb(0,0,0)"/><path d=" M 55.935 180.798 C 53.731 162.145 28.777 166.186 19.244 163.791 C 14.538 162.607 11.982 159.544 10.595 156.744 C 11.844 161.187 14.619 163.682 17.936 165.34 L 22.492 167.12 C 22.583 167.147 22.673 167.178 22.763 167.205 L 23.512 167.437 C 28.729 168.997 33.982 170.037 36.298 173.893 C 37.132 175.282 37.681 176.663 38.017 178.004 C 44.605 178.55 51.314 177.352 55.935 180.798 L 55.935 180.798 Z " fill="rgb(142,116,60)"/><path d=" M 32.484 182.513 C 29.165 182.109 26.138 180.196 23.687 178.024 C 24.72 180.233 26.492 182.154 29.291 183.717 C 36.57 187.782 54.802 188.922 51.035 199.304 C 50.82 199.899 50.594 200.65 50.379 201.511 C 59.877 186.135 39.905 183.415 32.484 182.513 L 32.484 182.513 Z " fill="rgb(142,116,60)"/><path d=" M 53.549 201.549 C 51.161 209.797 52.696 213.018 54.348 217.04 C 55.999 221.064 56.898 231.386 60.163 237.1 C 63.428 242.813 67.463 252.702 68.284 257.28 C 69.105 261.86 74.834 264.639 77.11 269.264 C 79.384 273.887 82.041 283.485 82.834 285.939 C 83.449 287.84 89.999 297.328 89.856 304.243 C 89.915 304.218 89.967 304.198 90.028 304.169 C 91.896 303.291 90.596 298.328 88.348 293.99 C 86.099 289.654 84.68 285.76 83.929 281.963 C 83.179 278.165 78.201 268.473 74.125 263.338 C 70.047 258.202 67.997 249 66.559 245.945 C 65.12 242.885 59.559 232.64 59.686 229.261 C 59.811 225.882 55.239 213.965 54.091 210.647 C 52.945 207.329 55.379 200.64 57.198 194.328 C 57.619 192.867 58.066 190.261 57.58 187.57 C 57.59 192.548 55.936 193.302 53.549 201.549 L 53.549 201.549 Z " fill="rgb(142,116,60)"/><path d=" M 43.636 187.57 L 40.397 184.951 L 38.873 187.22 C 39.727 187.491 40.581 187.766 41.421 188.056 C 40.649 190.408 39.775 192.859 39.183 195.829 C 37.805 202.729 47.167 204.348 49.749 204.66 C 38.146 200.044 43.636 187.57 43.636 187.57 Z " fill="rgb(142,116,60)"/><path d=" M 63.117 261.794 C 52.206 261.794 43.33 252.918 43.33 242.007 C 43.33 231.097 52.206 222.221 63.117 222.221 C 74.028 222.221 82.904 231.097 82.904 242.007 C 82.904 252.918 74.027 261.794 63.117 261.794 Z " fill="rgb(239,184,134)"/><path d=" M 63.117 223.721 C 73.217 223.721 81.404 231.908 81.404 242.007 C 81.404 252.106 73.216 260.294 63.117 260.294 C 53.018 260.294 44.83 252.106 44.83 242.007 C 44.83 231.908 53.017 223.721 63.117 223.721 Z  M 63.117 220.721 C 51.379 220.721 41.83 230.27 41.83 242.007 C 41.83 253.744 51.379 263.294 63.117 263.294 C 74.855 263.294 84.404 253.744 84.404 242.007 C 84.404 230.27 74.855 220.721 63.117 220.721 L 63.117 220.721 Z " fill="rgb(0,0,0)"/><path d=" M 81.404 242.007 C 81.404 241.974 81.399 241.94 81.398 241.907 C 75.505 250.875 65.134 251.494 58.486 247.506 C 51.405 243.258 49.622 235.275 50.658 228.649 C 47.08 231.986 44.83 236.728 44.83 242.007 C 44.83 252.107 53.018 260.294 63.117 260.294 C 73.216 260.294 81.404 252.107 81.404 242.007 L 81.404 242.007 Z " fill="rgb(214,154,105)"/><path d=" M 146.511 286.161 L 165.765 286.161 L 165.765 276.275 L 146.568 276.275 C 148.916 277.614 150.533 279.037 150.562 280.425 C 150.597 282.185 149.093 284.218 146.511 286.161 L 146.511 286.161 Z " fill="rgb(178,170,22)"/></g></g></svg>