<?xml version="1.0" standalone="no"?><!-- Generator: Gravit.io --><svg xmlns="http://www.w3.org/2000/svg" xmlns:xlink="http://www.w3.org/1999/xlink" style="isolation:isolate" viewBox="0 0 360 420" width="360" height="420"><defs><clipPath id="_clipPath_V3qNyLpM3kNEjOftzq2LkoUpcoIuazvx"><rect width="360" height="420"/></clipPath></defs><g clip-path="url(#_clipPath_V3qNyLpM3kNEjOftzq2LkoUpcoIuazvx)"><path d=" M 140.68 401.15 C 140.68 393.778 178.074 387.792 224.133 387.792 C 270.192 387.792 307.586 393.778 307.586 401.15 C 307.586 408.522 270.192 414.508 224.133 414.508 C 178.074 414.508 140.68 408.522 140.68 401.15 Z " fill="rgb(211,211,211)"/><path d=" M 139.93 275.876 C 139.93 275.876 232.93 300.376 301.93 275.876 C 283.43 292.376 281.43 297.71 280.93 305.21 C 280.43 312.71 275.93 327.876 264.93 335.876 C 253.93 343.876 240.866 345.064 235.93 359.876 C 229.93 377.877 198.836 383.423 224.133 401.149 C 205.43 395.376 197.93 382.376 202.43 366.876 C 206.93 351.376 181.264 356.21 175.93 334.877 C 170.713 314.014 166.178 311.997 157.93 306.877 C 143.431 297.877 153.93 284.376 139.93 275.876 Z " fill="rgb(0,0,0)" vector-effect="non-scaling-stroke" stroke-width="3" stroke="rgb(0,0,0)" stroke-linejoin="round" stroke-linecap="butt" stroke-miterlimit="10"/><path d=" M 171.68 312.126 C 171.68 312.126 188.93 339.126 211.43 333.876 C 233.93 328.626 242.68 314.126 270.43 315.876 C 262.43 313.126 242.93 311.626 227.68 321.876 C 212.43 332.126 187.18 326.876 171.68 312.126 Z " fill="rgb(76,76,76)"/><path d=" M 199.93 341.543 C 199.93 341.543 214.93 349.876 231.264 337.543 C 247.596 325.21 263.596 327.877 263.596 327.877 C 254.93 329.543 240.596 333.876 233.596 342.543 C 226.596 351.21 206.93 351.209 199.93 341.543 Z " fill="rgb(107,107,107)"/><path d=" M 197.53 305.05 C 197.53 305.05 204.983 315.617 216.219 308.832 C 227.455 302.046 233.684 303.603 237.69 308.054 C 236.577 303.826 229.012 297.707 221.559 301.49 C 214.106 305.273 203.872 310.056 197.53 305.05 Z " fill="rgb(48,48,48)"/><rect x="167.93" y="235.876" width="107.5" height="59" transform="matrix(1,0,0,1,0,0)" fill="rgb(0,0,0)" vector-effect="non-scaling-stroke" stroke-width="3" stroke="rgb(0,0,0)" stroke-linejoin="round" stroke-linecap="butt" stroke-miterlimit="10"/><g id="Group"><path d=" M 134.93 191.376 C 134.775 191.376 134.62 191.352 134.47 191.304 C 134.071 191.176 133.743 190.885 133.568 190.504 C 133.358 190.047 112.9 144.575 145.621 123.613 C 175.414 104.528 168.618 92.884 163.157 83.53 L 162.632 82.628 C 160.601 79.12 160.566 74.507 162.531 69.639 C 165.888 61.327 175.923 50.604 194.018 45.434 C 205.625 42.118 213.34 35.274 215.184 26.658 C 216.368 21.128 214.75 15.712 210.964 12.524 C 206.962 9.154 205.41 6.439 206.219 4.222 C 206.672 2.98 208.059 1.5 212.09 1.5 C 214.845 1.5 218.405 2.174 222.387 3.448 C 231.661 6.416 247.269 16.919 251.315 30.037 C 253.498 37.113 252.084 43.931 247.113 50.3 C 241.933 56.936 240.136 62.626 241.619 67.693 C 243.988 75.792 254.724 82.814 276.429 90.463 C 303.473 99.992 321.209 117.811 323.874 138.128 C 326.144 155.436 317.179 172.379 299.277 184.616 C 299.021 184.791 298.726 184.878 298.43 184.878 C 298.123 184.878 297.818 184.784 297.557 184.598 C 269.363 164.417 235.295 160.181 211.682 160.181 C 198.415 160.181 189.064 161.559 187.436 161.816 L 135.67 191.183 C 135.442 191.31 135.187 191.376 134.93 191.376 Z " fill="rgb(0,0,0)"/><path d=" M 212.09 3 C 214.593 3 217.987 3.615 221.93 4.876 C 234.43 8.876 261.93 28.876 245.93 49.376 C 229.93 69.876 245.955 81.314 275.93 91.876 C 328.43 110.376 337.93 156.376 298.43 183.376 C 269.592 162.734 234.669 158.678 211.682 158.678 C 196.806 158.678 186.93 160.376 186.93 160.376 L 134.93 189.876 C 134.93 189.876 114.43 145.376 146.43 124.876 C 178.43 104.376 169.43 91.376 163.93 81.876 C 158.43 72.376 169.93 53.876 194.43 46.876 C 218.93 39.876 221.43 19.376 211.93 11.376 C 205.426 5.899 206.657 3 212.09 3 Z  M 212.09 0 C 207.192 0 205.428 2.016 204.81 3.708 C 203.248 7.988 208.329 12.266 209.998 13.672 C 213.359 16.503 214.785 21.359 213.718 26.345 C 211.994 34.401 204.664 40.833 193.607 43.992 C 174.992 49.311 164.63 60.438 161.141 69.078 C 158.998 74.384 159.067 79.463 161.334 83.38 L 161.861 84.287 C 164.529 88.858 167.288 93.584 166.183 99.345 C 164.831 106.392 157.641 114.133 144.811 122.352 C 130.733 131.371 124.121 146.226 125.689 165.311 C 126.844 179.365 131.986 190.659 132.204 191.133 C 132.555 191.895 133.21 192.476 134.009 192.733 C 134.309 192.83 134.619 192.878 134.928 192.878 C 135.442 192.878 135.952 192.746 136.408 192.487 L 187.937 163.254 C 190.1 162.924 199.116 161.678 211.682 161.678 C 235.076 161.678 268.813 165.866 296.684 185.815 C 297.205 186.189 297.818 186.376 298.43 186.376 C 299.021 186.376 299.612 186.202 300.123 185.853 C 318.507 173.287 327.706 155.82 325.359 137.932 C 324.039 127.86 319.066 118.119 310.98 109.763 C 302.489 100.988 291.032 94.018 276.926 89.048 C 255.723 81.576 245.278 74.86 243.057 67.272 C 241.72 62.701 243.433 57.452 248.294 51.223 C 253.51 44.54 255.05 37.061 252.747 29.596 C 248.543 15.967 232.418 5.084 222.843 2.02 C 218.716 0.698 214.999 0 212.09 0 L 212.09 0 Z " fill="rgb(0,0,0)"/></g><path d=" M 186.749 49.618 C 167.591 57.888 159.042 73.432 163.93 81.876 C 169.43 91.376 178.43 104.376 146.43 124.876 C 114.43 145.376 134.93 189.876 134.93 189.876 L 136.734 188.853 L 139.597 179.21 C 139.597 179.21 125.93 153.543 144.93 136.21 C 163.93 118.877 179.597 93.21 173.597 79.21 C 169.844 70.453 177.437 58.958 186.749 49.618 Z " fill="rgb(107,107,107)"/><path d=" M 193.885 162.297 C 193.885 162.297 193.535 162.042 192.94 161.554 C 187.944 157.457 165.623 136.884 187.182 112.031 C 211.311 84.217 209.582 74.047 205.227 65.669 C 200.87 57.291 242.811 46.014 227.731 22.892 C 233.428 28.254 240.465 42.329 226.725 55.063 C 212.985 67.797 228.737 68.802 218.012 92.93 C 207.289 117.058 204.608 136.159 219.688 145.207" fill="rgb(107,107,107)"/><path d=" M 256.837 139.172 C 256.837 139.172 279.464 125.223 260.866 108.795 C 242.268 92.367 233.278 90.198 232.038 66.021 C 235.14 77.179 238.548 84.619 250.017 88.648 C 261.486 92.677 282.253 104.457 276.365 112.515 C 270.474 120.575 271.715 127.392 281.324 140.722 C 258.696 146.921 256.837 139.172 256.837 139.172 Z " fill="rgb(107,107,107)"/><path d=" M 285.204 159.081 C 285.204 159.081 317.374 153.146 291.138 112.229 C 308.005 128.47 327.056 159.392 289.263 170.012 C 287.077 162.204 285.204 159.081 285.204 159.081 Z " fill="rgb(107,107,107)"/><g id="Group"><path d=" M 208.237 302.299 C 196.382 302.299 186.737 292.654 186.737 280.799 L 186.737 275.998 C 158.218 262.668 139.847 233.878 139.847 202.376 C 139.847 157.575 176.295 121.126 221.097 121.126 C 265.899 121.126 302.347 157.575 302.347 202.376 C 302.347 234.079 283.814 262.944 255.042 276.192 L 255.042 280.798 C 255.042 292.653 245.397 302.298 233.542 302.298 L 208.237 302.298 L 208.237 302.299 Z " fill="rgb(254,252,222)"/><path d=" M 221.096 122.626 C 265.141 122.626 300.846 158.331 300.846 202.376 C 300.846 234.862 281.41 262.794 253.541 275.226 L 253.541 280.799 C 253.541 291.845 244.586 300.799 233.541 300.799 L 208.236 300.799 C 197.191 300.799 188.236 291.845 188.236 280.799 L 188.236 275.037 C 160.59 262.514 141.346 234.701 141.346 202.376 C 141.347 158.331 177.052 122.626 221.096 122.626 Z  M 221.096 119.626 C 175.468 119.626 138.346 156.748 138.346 202.376 C 138.346 234.139 156.686 263.195 185.236 276.946 L 185.236 280.799 C 185.236 293.482 195.553 303.799 208.236 303.799 L 233.541 303.799 C 246.224 303.799 256.541 293.482 256.541 280.799 L 256.541 277.148 C 285.343 263.476 303.846 234.342 303.846 202.377 C 303.846 156.748 266.725 119.626 221.096 119.626 L 221.096 119.626 Z " fill="rgb(0,0,0)"/></g><g id="Group"><path d=" M 221.096 122.626 C 218.963 122.626 216.856 122.735 214.764 122.899 C 255.844 126.129 288.18 160.464 288.18 202.376 C 288.18 234.862 268.744 262.794 240.875 275.226 L 240.875 280.799 C 240.875 291.845 231.92 300.799 220.875 300.799 L 233.541 300.799 C 244.586 300.799 253.541 291.845 253.541 280.799 L 253.541 275.226 C 281.41 262.794 300.846 234.863 300.846 202.376 C 300.846 158.331 265.141 122.626 221.096 122.626 Z " fill="rgb(211,207,165)"/></g><path d=" M 222.014 243.376 L 222.014 229.45 L 235.085 251.06 L 222.014 243.376 Z " fill="rgb(211,207,165)"/><g id="Group"><path d=" M 237.168 258.4 C 236.98 258.4 236.79 258.365 236.606 258.291 L 221.997 252.378 L 207.388 258.291 C 207.204 258.365 207.014 258.4 206.826 258.4 C 206.32 258.4 205.832 258.143 205.551 257.692 C 205.166 257.072 205.283 256.265 205.828 255.78 L 220.871 242.385 C 221.007 242.234 221.174 242.109 221.365 242.023 C 221.561 241.935 221.77 241.89 221.978 241.887 C 221.989 241.887 222 241.886 222.012 241.886 C 222.218 241.886 222.425 241.929 222.619 242.016 C 222.828 242.11 223.009 242.245 223.152 242.412 L 238.165 255.779 C 238.71 256.264 238.827 257.071 238.442 257.691 C 238.162 258.143 237.673 258.4 237.168 258.4 Z " fill="rgb(58,54,33)"/><g id="Group"><path d=" M 222.014 243.376 L 222.014 243.406 L 237.168 256.899 L 221.996 250.758 L 206.824 256.899 L 221.978 243.406 L 221.978 243.376 L 221.996 243.392 L 222.014 243.376 Z  M 221.98 240.386 C 221.566 240.386 221.15 240.472 220.759 240.647 C 220.383 240.816 220.052 241.056 219.781 241.346 L 204.829 254.659 C 203.739 255.629 203.506 257.243 204.276 258.482 C 204.838 259.386 205.813 259.899 206.825 259.899 C 207.202 259.899 207.583 259.829 207.95 259.68 L 221.996 253.994 L 236.042 259.68 C 236.409 259.828 236.791 259.899 237.167 259.899 C 238.179 259.899 239.154 259.386 239.716 258.482 C 240.487 257.243 240.253 255.628 239.163 254.659 L 224.172 241.31 C 223.911 241.039 223.598 240.813 223.242 240.654 C 222.859 240.482 222.453 240.394 222.049 240.386 C 222.027 240.387 222.004 240.386 221.98 240.386 L 221.98 240.386 Z " fill="rgb(0,0,0)"/></g></g><g id="Group"><path d=" M 260.776 263.41 L 260.776 271.537 C 284.715 257.776 300.846 231.969 300.846 202.376 C 300.846 183.629 294.362 166.407 283.535 152.792 C 274.047 143.442 262.781 135.257 250.529 128.365 C 250.322 128.249 250.127 128.135 249.924 128.019 C 240.981 124.549 231.266 122.625 221.096 122.625 C 210.53 122.625 200.453 124.699 191.225 128.431 C 179.621 134.969 168.907 142.671 159.753 151.421 C 148.262 165.239 141.347 182.998 141.347 202.375 C 141.347 231.834 157.333 257.539 181.093 271.346 L 181.093 263.409 C 170.113 260.115 151.449 252.063 151.449 224.25 C 151.449 196.477 198.886 177.462 220.886 187.244 L 220.886 187.286 C 220.902 187.278 220.919 187.272 220.935 187.265 C 220.951 187.273 220.968 187.279 220.984 187.286 L 220.984 187.244 C 242.986 177.462 290.422 196.476 290.422 224.25 C 290.421 252.065 271.756 260.116 260.776 263.41 Z " fill="rgb(175,169,126)"/></g><g id="Group"><path d=" M 262.235 296.896 C 261.966 296.896 261.698 296.824 261.461 296.68 C 261.011 296.409 260.735 295.921 260.735 295.396 L 260.735 258.596 C 260.735 257.934 261.17 257.35 261.804 257.159 C 281.763 251.173 291.465 238.364 291.465 218.003 C 291.465 207.752 284.769 197.769 272.611 189.895 C 261.709 182.834 247.503 178.447 235.538 178.447 C 230.213 178.447 225.594 179.28 221.802 180.923 C 221.793 180.929 221.783 180.935 221.774 180.941 C 221.527 181.093 221.246 181.175 220.964 181.177 C 220.942 181.178 220.918 181.178 220.896 181.178 C 220.599 181.178 220.303 181.092 220.053 180.922 C 220.045 180.917 220.036 180.911 220.029 180.905 C 216.245 179.274 211.638 178.447 206.332 178.447 C 194.367 178.447 180.162 182.834 169.26 189.896 C 157.102 197.771 150.406 207.753 150.406 218.003 C 150.406 238.364 160.108 251.172 180.066 257.159 C 180.701 257.349 181.135 257.933 181.135 258.596 L 181.135 295.396 C 181.135 295.921 180.86 296.41 180.409 296.68 C 180.172 296.824 179.903 296.896 179.635 296.896 C 179.395 296.896 179.154 296.838 178.935 296.722 C 178.375 296.427 165.093 289.329 151.61 275.087 C 139.134 261.909 124.263 239.926 124.263 210.036 C 124.263 173.905 147.439 140.971 189.522 117.299 C 210.007 105.776 217.919 96.271 219.451 94.262 C 219.593 93.805 219.947 93.433 220.418 93.279 C 220.571 93.229 220.729 93.204 220.885 93.204 C 221.118 93.204 221.348 93.259 221.556 93.362 C 221.959 93.531 222.273 93.852 222.41 94.249 C 223.918 96.23 231.82 105.75 252.35 117.298 C 294.433 140.969 317.609 173.904 317.609 210.035 C 317.609 239.925 302.738 261.908 290.261 275.086 C 276.779 289.328 263.495 296.426 262.936 296.721 C 262.716 296.838 262.475 296.896 262.235 296.896 Z " fill="rgb(45,45,45)"/><path d=" M 220.985 94.705 L 220.985 94.849 C 221.919 96.144 229.643 106.248 251.614 118.607 C 288.034 139.093 316.108 170.582 316.108 210.037 C 316.108 266.943 262.235 295.396 262.235 295.396 L 262.235 258.596 C 273.618 255.182 292.965 246.835 292.965 218.003 C 292.965 194.432 260.004 176.947 235.537 176.947 C 230.12 176.947 225.118 177.804 220.984 179.643 L 220.984 179.686 C 220.968 179.678 220.951 179.672 220.933 179.665 C 220.917 179.673 220.9 179.679 220.882 179.686 L 220.882 179.643 C 216.746 177.804 211.748 176.947 206.329 176.947 C 181.863 176.947 148.903 194.434 148.903 218.003 C 148.903 246.835 168.251 255.182 179.632 258.596 L 179.632 295.396 C 179.632 295.396 125.76 266.943 125.76 210.037 C 125.76 170.582 153.834 139.094 190.255 118.607 C 212.226 106.249 219.948 96.144 220.882 94.849 L 220.882 94.705 C 220.882 94.705 220.903 94.734 220.933 94.777 C 220.965 94.734 220.985 94.705 220.985 94.705 Z  M 220.981 91.652 C 220.449 91.652 219.933 91.792 219.484 92.057 C 218.873 92.379 218.397 92.899 218.128 93.521 C 216.389 95.756 208.551 104.873 188.786 115.991 C 169.321 126.94 153.127 140.569 141.955 155.403 C 129.219 172.314 122.762 190.695 122.762 210.036 C 122.762 234.086 132.36 256.936 150.519 276.118 C 164.17 290.538 177.665 297.748 178.232 298.048 C 178.671 298.28 179.153 298.396 179.633 298.396 C 180.17 298.396 180.706 298.251 181.182 297.965 C 182.082 297.422 182.633 296.447 182.633 295.396 L 182.633 258.596 C 182.633 257.271 181.764 256.103 180.495 255.723 C 173.423 253.601 151.904 247.146 151.904 218.003 C 151.904 204.882 163.288 195.549 170.073 191.154 C 180.746 184.241 194.638 179.946 206.33 179.946 C 211.404 179.946 215.791 180.723 219.375 182.257 C 219.756 182.479 220.175 182.615 220.603 182.66 C 220.73 182.676 220.857 182.684 220.985 182.684 C 221.533 182.684 222.079 182.534 222.56 182.237 C 222.576 182.227 222.591 182.217 222.607 182.208 C 226.17 180.707 230.517 179.945 235.538 179.945 C 247.229 179.945 261.123 184.239 271.796 191.152 C 278.582 195.547 289.966 204.879 289.966 218.001 C 289.966 247.145 268.445 253.6 261.373 255.721 C 260.104 256.101 259.235 257.269 259.235 258.594 L 259.235 295.394 C 259.235 296.446 259.786 297.42 260.686 297.963 C 261.162 298.249 261.698 298.394 262.235 298.394 C 262.715 298.394 263.197 298.279 263.636 298.046 C 264.203 297.746 277.699 290.536 291.35 276.116 C 309.509 256.934 319.108 234.084 319.108 210.034 C 319.108 190.694 312.651 172.312 299.915 155.401 C 288.744 140.567 272.55 126.939 253.085 115.989 C 233.414 104.924 225.558 95.844 223.767 93.553 C 223.434 92.705 222.739 92.025 221.831 91.768 C 221.547 91.692 221.262 91.652 220.981 91.652 L 220.981 91.652 Z " fill="rgb(0,0,0)"/></g><g id="Group"><path d=" M 262.235 296.896 C 261.966 296.896 261.698 296.824 261.461 296.68 C 261.011 296.409 260.735 295.921 260.735 295.396 L 260.735 258.596 C 260.735 257.934 261.17 257.35 261.804 257.159 C 281.763 251.173 291.465 238.364 291.465 218.003 C 291.465 207.752 284.769 197.769 272.611 189.895 C 261.709 182.834 247.503 178.447 235.538 178.447 C 230.213 178.447 225.594 179.28 221.802 180.923 C 221.793 180.929 221.783 180.935 221.774 180.941 C 221.527 181.093 221.246 181.175 220.964 181.177 C 220.942 181.178 220.918 181.178 220.896 181.178 C 220.599 181.178 220.303 181.092 220.053 180.922 C 220.045 180.917 220.036 180.911 220.029 180.905 C 216.245 179.274 211.638 178.447 206.332 178.447 C 194.367 178.447 180.162 182.834 169.26 189.896 C 157.102 197.771 150.406 207.753 150.406 218.003 C 150.406 238.364 160.108 251.172 180.066 257.159 C 180.701 257.349 181.135 257.933 181.135 258.596 L 181.135 295.396 C 181.135 295.921 180.86 296.41 180.409 296.68 C 180.172 296.824 179.903 296.896 179.635 296.896 C 179.395 296.896 179.154 296.838 178.935 296.722 C 178.375 296.427 165.093 289.329 151.61 275.087 C 139.134 261.909 124.263 239.926 124.263 210.036 C 124.263 173.905 147.439 140.971 189.522 117.299 C 210.007 105.776 217.919 96.271 219.451 94.262 C 219.593 93.805 219.947 93.433 220.418 93.279 C 220.571 93.229 220.729 93.204 220.885 93.204 C 221.118 93.204 221.348 93.259 221.556 93.362 C 221.959 93.531 222.273 93.852 222.41 94.249 C 223.918 96.23 231.82 105.75 252.35 117.298 C 294.433 140.969 317.609 173.904 317.609 210.035 C 317.609 239.925 302.738 261.908 290.261 275.086 C 276.779 289.328 263.495 296.426 262.936 296.721 C 262.716 296.838 262.475 296.896 262.235 296.896 Z " fill="rgb(45,45,45)"/><path d=" M 220.985 94.705 L 220.985 94.849 C 221.919 96.144 229.643 106.248 251.614 118.607 C 288.034 139.093 316.108 170.582 316.108 210.037 C 316.108 266.943 262.235 295.396 262.235 295.396 L 262.235 258.596 C 273.618 255.182 292.965 246.835 292.965 218.003 C 292.965 194.432 260.004 176.947 235.537 176.947 C 230.12 176.947 225.118 177.804 220.984 179.643 L 220.984 179.686 C 220.968 179.678 220.951 179.672 220.933 179.665 C 220.917 179.673 220.9 179.679 220.882 179.686 L 220.882 179.643 C 216.746 177.804 211.748 176.947 206.329 176.947 C 181.863 176.947 148.903 194.434 148.903 218.003 C 148.903 246.835 168.251 255.182 179.632 258.596 L 179.632 295.396 C 179.632 295.396 125.76 266.943 125.76 210.037 C 125.76 170.582 153.834 139.094 190.255 118.607 C 212.226 106.249 219.948 96.144 220.882 94.849 L 220.882 94.705 C 220.882 94.705 220.903 94.734 220.933 94.777 C 220.965 94.734 220.985 94.705 220.985 94.705 Z  M 220.981 91.652 C 220.449 91.652 219.933 91.792 219.484 92.057 C 218.873 92.379 218.397 92.899 218.128 93.521 C 216.389 95.756 208.551 104.873 188.786 115.991 C 169.321 126.94 153.127 140.569 141.955 155.403 C 129.219 172.314 122.762 190.695 122.762 210.036 C 122.762 234.086 132.36 256.936 150.519 276.118 C 164.17 290.538 177.665 297.748 178.232 298.048 C 178.671 298.28 179.153 298.396 179.633 298.396 C 180.17 298.396 180.706 298.251 181.182 297.965 C 182.082 297.422 182.633 296.447 182.633 295.396 L 182.633 258.596 C 182.633 257.271 181.764 256.103 180.495 255.723 C 173.423 253.601 151.904 247.146 151.904 218.003 C 151.904 204.882 163.288 195.549 170.073 191.154 C 180.746 184.241 194.638 179.946 206.33 179.946 C 211.404 179.946 215.791 180.723 219.375 182.257 C 219.756 182.479 220.175 182.615 220.603 182.66 C 220.73 182.676 220.857 182.684 220.985 182.684 C 221.533 182.684 222.079 182.534 222.56 182.237 C 222.576 182.227 222.591 182.217 222.607 182.208 C 226.17 180.707 230.517 179.945 235.538 179.945 C 247.229 179.945 261.123 184.239 271.796 191.152 C 278.582 195.547 289.966 204.879 289.966 218.001 C 289.966 247.145 268.445 253.6 261.373 255.721 C 260.104 256.101 259.235 257.269 259.235 258.594 L 259.235 295.394 C 259.235 296.446 259.786 297.42 260.686 297.963 C 261.162 298.249 261.698 298.394 262.235 298.394 C 262.715 298.394 263.197 298.279 263.636 298.046 C 264.203 297.746 277.699 290.536 291.35 276.116 C 309.509 256.934 319.108 234.084 319.108 210.034 C 319.108 190.694 312.651 172.312 299.915 155.401 C 288.744 140.567 272.55 126.939 253.085 115.989 C 233.414 104.924 225.558 95.844 223.767 93.553 C 223.434 92.705 222.739 92.025 221.831 91.768 C 221.547 91.692 221.262 91.652 220.981 91.652 L 220.981 91.652 Z " fill="rgb(0,0,0)"/></g><path d=" M 220.93 179.666 L 220.93 94.77 C 220.905 94.734 220.883 94.705 220.883 94.705 L 220.883 94.849 C 219.949 96.144 212.227 106.248 190.256 118.607 C 153.836 139.093 125.761 170.582 125.761 210.037 C 125.761 266.943 179.633 295.396 179.633 295.396 L 179.633 258.596 C 168.252 255.182 148.904 246.835 148.904 218.003 C 148.904 189.213 198.076 169.502 220.883 179.643 L 220.883 179.686 C 220.899 179.679 220.915 179.673 220.93 179.666 Z " fill="rgb(107,107,107)"/><path d=" M 220.93 179.666 L 220.93 94.77 C 220.905 94.734 220.883 94.705 220.883 94.705 L 220.883 94.849 C 219.949 96.144 212.227 106.248 190.256 118.607 C 153.836 139.093 125.761 170.582 125.761 210.037 C 125.761 266.943 179.633 295.396 179.633 295.396 L 179.633 258.596 C 168.252 255.182 148.904 246.835 148.904 218.003 C 148.904 189.213 198.076 169.502 220.883 179.643 L 220.883 179.686 C 220.899 179.679 220.915 179.673 220.93 179.666 Z " fill="rgb(107,107,107)"/><path d=" M 216.784 123.814 L 216.606 116.095 C 216.547 113.523 216.428 110.949 216.333 108.376 L 216.333 108.333 C 216.313 107.842 216.104 107.357 215.714 106.998 C 214.933 106.282 213.722 106.334 213.005 107.114 L 210.665 109.663 L 210.079 110.305 L 209.436 110.907 L 208.153 112.117 L 206.866 113.332 C 206.44 113.742 205.962 114.1 205.512 114.487 L 202.77 116.777 L 199.946 118.994 C 199.005 119.736 198.016 120.417 197.065 121.155 C 196.112 121.894 195.116 122.568 194.141 123.28 C 193.168 123.998 192.172 124.676 191.18 125.377 C 193.418 124.452 195.616 123.41 197.768 122.29 C 198.844 121.727 199.932 121.177 200.979 120.559 L 204.135 118.716 C 205.18 118.081 206.178 117.375 207.203 116.705 C 207.709 116.357 208.234 116.043 208.723 115.666 L 210.2 114.55 L 211.677 113.428 C 211.913 113.263 212.136 113.082 212.357 112.894 C 212.318 113.961 212.279 115.029 212.255 116.096 L 212.075 123.815 C 211.977 128.961 211.942 134.107 211.93 139.253 C 211.938 144.399 211.971 149.545 212.067 154.691 C 212.116 157.263 212.163 159.837 212.243 162.41 C 212.284 164.242 212.354 166.075 212.427 167.908 C 211.968 167.841 211.511 167.777 211.052 167.769 L 209.152 167.669 C 208.517 167.625 207.886 167.654 207.257 167.686 L 205.374 167.767 C 204.745 167.772 204.126 167.886 203.505 167.949 L 201.648 168.171 C 201.027 168.223 200.421 168.386 199.81 168.502 L 197.99 168.883 C 197.379 168.99 196.789 169.186 196.191 169.349 L 194.412 169.855 C 193.814 170.005 193.234 170.219 192.66 170.445 L 190.935 171.096 C 190.365 171.323 189.781 171.504 189.232 171.785 C 188.125 172.319 187.017 172.833 185.931 173.379 L 189.464 172.483 C 190.042 172.312 190.646 172.221 191.235 172.098 L 193.006 171.749 C 193.592 171.619 194.184 171.525 194.781 171.454 L 196.558 171.206 C 197.15 171.129 197.736 171.019 198.333 170.999 L 200.114 170.878 C 200.708 170.856 201.294 170.76 201.887 170.774 L 203.658 170.756 C 204.246 170.762 204.836 170.715 205.42 170.776 L 207.174 170.893 C 207.758 170.926 208.34 170.96 208.912 171.066 L 210.633 171.295 C 211.211 171.348 211.764 171.498 212.322 171.621 L 213.992 171.994 C 214.099 172.018 214.222 172.035 214.34 172.04 C 215.404 172.081 216.301 171.251 216.344 170.186 L 216.346 170.127 C 216.446 167.554 216.557 164.981 216.616 162.408 C 216.694 159.835 216.741 157.262 216.792 154.689 C 216.886 149.543 216.921 144.397 216.927 139.251 C 216.917 134.106 216.883 128.959 216.784 123.814 Z " fill="rgb(186,186,186)"/><path d=" M 181.854 144.911 C 181.254 145.195 180.629 145.461 180.057 145.766 L 178.369 146.708 C 177.29 147.384 176.207 148.051 175.188 148.79 C 174.138 149.493 173.155 150.273 172.154 151.032 C 171.155 151.793 170.216 152.623 169.252 153.422 L 166.475 155.943 L 163.813 158.577 L 161.263 161.314 C 160.427 162.238 159.64 163.206 158.829 164.15 C 158.008 165.087 157.296 166.113 156.527 167.09 C 156.154 167.587 155.765 168.072 155.404 168.578 L 154.344 170.113 C 153.646 171.142 152.909 172.141 152.281 173.216 C 151.631 174.274 150.972 175.326 150.346 176.396 L 148.588 179.673 C 147.973 180.747 147.51 181.903 146.972 183.016 C 146.456 184.14 145.929 185.257 145.511 186.422 L 144.179 189.875 L 145.79 186.549 C 146.3 185.429 146.916 184.362 147.519 183.291 C 148.132 182.227 148.662 181.119 149.346 180.097 L 151.302 176.985 L 153.406 173.975 C 154.082 172.956 154.865 172.013 155.607 171.043 L 156.73 169.597 C 157.113 169.121 157.521 168.666 157.916 168.201 C 158.724 167.286 159.474 166.323 160.33 165.452 C 161.169 164.567 161.976 163.653 162.834 162.79 L 165.438 160.23 L 168.143 157.784 L 170.947 155.459 C 171.917 154.732 172.856 153.965 173.838 153.26 C 174.824 152.563 175.795 151.84 176.815 151.204 C 177.814 150.527 178.85 149.937 179.879 149.336 L 180.219 149.16 C 180.166 149.408 180.106 149.657 180.057 149.906 C 179.797 151.194 179.528 152.48 179.311 153.776 C 179.086 155.07 178.842 156.361 178.655 157.663 C 178.46 158.964 178.245 160.261 178.067 161.564 L 177.576 165.485 C 177.39 166.789 177.324 168.114 177.192 169.427 L 177.018 171.403 C 176.945 172.058 176.95 172.727 176.914 173.39 L 176.815 175.977 L 175.646 176.367 C 174.814 176.624 174.003 176.944 173.199 177.28 C 172.395 177.618 171.571 177.907 170.786 178.288 L 168.424 179.418 C 167.642 179.803 166.891 180.253 166.123 180.669 C 165.35 181.076 164.614 181.55 163.878 182.021 C 163.139 182.488 162.396 182.95 161.696 183.476 C 160.994 183.998 160.255 184.471 159.585 185.036 C 158.908 185.592 158.21 186.122 157.553 186.701 C 156.905 187.291 156.242 187.865 155.607 188.469 C 154.989 189.093 154.364 189.708 153.764 190.35 C 153.186 191.012 152.579 191.648 152.027 192.333 C 151.481 193.025 150.904 193.688 150.4 194.417 C 149.872 195.123 149.367 195.851 148.893 196.605 C 148.397 197.338 147.97 198.133 147.53 198.917 L 147.276 199.419 C 145.187 198.284 143.094 197.185 140.944 196.149 C 140.257 195.8 139.541 195.492 138.839 195.163 C 138.136 194.837 137.431 194.517 136.694 194.23 L 135.602 193.788 C 135.233 193.647 134.889 193.48 134.497 193.361 L 134.091 193.225 L 135.244 190.133 C 135.875 188.529 136.375 186.868 137.15 185.326 L 139.309 180.624 C 139.984 179.032 140.856 177.543 141.667 176.02 C 142.504 174.512 143.27 172.958 144.168 171.486 L 146.939 167.107 C 147.821 165.617 148.896 164.261 149.903 162.856 C 150.936 161.47 151.879 160.011 153.016 158.706 L 156.313 154.689 L 159.838 150.867 C 161.011 149.588 162.296 148.421 163.521 147.187 C 164.732 145.937 166.079 144.839 167.368 143.671 C 168.644 142.483 170.042 141.448 171.381 140.334 C 172.717 139.213 174.159 138.235 175.547 137.176 C 176.99 136.201 178.409 135.179 179.895 134.262 C 181.36 133.307 182.877 132.438 184.43 131.626 C 182.817 132.306 181.223 133.053 179.678 133.887 C 178.106 134.676 176.612 135.601 175.092 136.488 C 173.626 137.457 172.101 138.347 170.678 139.384 C 169.246 140.408 167.782 141.397 166.421 142.517 C 165.051 143.624 163.618 144.665 162.319 145.861 C 161.011 147.044 159.623 148.148 158.379 149.403 L 154.613 153.138 L 151.067 157.088 C 149.847 158.377 148.807 159.813 147.701 161.196 C 146.623 162.602 145.477 163.962 144.523 165.458 L 141.535 169.861 C 140.564 171.346 139.726 172.913 138.816 174.437 C 137.934 175.977 136.976 177.48 136.257 179.106 L 133.941 183.906 C 133.113 185.482 132.562 187.177 131.881 188.817 L 129.923 193.776 C 129.917 193.792 129.908 193.816 129.902 193.832 C 129.574 194.754 130.055 195.766 130.975 196.093 L 131.159 196.158 L 133.179 196.877 C 133.515 196.982 133.856 197.156 134.194 197.292 L 135.21 197.727 C 135.889 198.003 136.561 198.331 137.236 198.646 C 137.911 198.966 138.59 199.263 139.258 199.608 C 140.602 200.27 141.939 200.952 143.267 201.659 C 144.591 202.364 145.922 203.091 147.21 203.823 C 147.267 203.856 147.329 203.887 147.391 203.915 C 148.38 204.349 149.534 203.898 149.967 202.909 L 149.997 202.84 L 150.451 201.805 L 150.985 200.77 C 151.377 200.089 151.75 199.394 152.205 198.737 C 152.632 198.064 153.092 197.411 153.577 196.77 C 154.035 196.113 154.573 195.509 155.073 194.879 C 155.581 194.256 156.145 193.675 156.677 193.07 C 157.23 192.482 157.818 191.926 158.379 191.346 C 158.961 190.785 159.57 190.252 160.164 189.703 C 160.768 189.164 161.412 188.672 162.033 188.152 C 162.647 187.625 163.333 187.185 163.978 186.697 C 164.622 186.203 165.309 185.772 165.992 185.335 C 166.673 184.893 167.351 184.447 168.069 184.066 C 168.781 183.676 169.473 183.251 170.2 182.888 L 172.392 181.822 C 173.121 181.463 173.89 181.19 174.637 180.869 C 175.386 180.55 176.14 180.245 176.919 180.001 L 179.232 179.212 L 179.261 179.203 C 180.021 178.941 180.575 178.227 180.593 177.377 L 180.677 173.547 C 180.7 172.908 180.681 172.272 180.74 171.63 L 180.873 169.708 C 180.977 168.427 181.016 167.145 181.172 165.862 L 181.576 162.016 C 181.726 160.735 181.914 159.456 182.08 158.175 C 182.238 156.894 182.455 155.618 182.65 154.341 C 183.037 151.79 183.48 149.226 183.964 146.715 L 183.991 146.569 C 184.052 146.261 184.016 145.934 183.872 145.63 C 183.516 144.873 182.612 144.552 181.854 144.911 Z " fill="rgb(186,186,186)"/><path d=" M 146.43 209.376 C 143.654 208.415 140.877 207.454 138.117 206.452 C 135.349 205.472 132.6 204.444 129.845 203.432 L 131.02 202.866 L 130.639 204.782 C 130.517 205.42 130.47 206.077 130.373 206.721 C 130.281 207.366 130.2 208.012 130.185 208.668 L 130.082 210.625 C 130.028 211.274 130.1 211.933 130.102 212.584 L 130.155 214.541 C 130.189 215.192 130.29 215.842 130.354 216.491 L 130.555 218.437 C 130.598 219.087 130.779 219.724 130.882 220.367 L 131.247 222.29 C 131.361 222.932 131.481 223.572 131.683 224.196 L 132.218 226.08 L 132.749 227.963 C 132.927 228.589 133.203 229.188 133.424 229.801 L 134.79 233.469 L 132.826 232.421 L 139.513 231.207 L 141.187 230.904 C 141.746 230.804 142.299 230.689 142.87 230.631 L 146.27 230.213 L 147.828 230.022 L 148.277 231.608 C 148.513 232.446 148.759 233.269 149.014 234.077 C 149.285 234.88 149.535 235.689 149.849 236.468 C 150.139 237.257 150.463 238.031 150.812 238.79 C 151.129 239.565 151.546 240.289 151.913 241.038 C 152.302 241.776 152.748 242.477 153.16 243.2 L 154.56 245.261 L 156.099 247.215 L 157.773 249.056 C 158.361 249.64 158.982 250.193 159.584 250.765 C 160.183 251.341 160.876 251.81 161.517 252.341 C 162.151 252.881 162.86 253.325 163.557 253.783 C 164.256 254.239 164.936 254.727 165.69 255.1 L 167.899 256.303 L 170.208 257.327 C 170.595 257.496 170.972 257.685 171.365 257.839 L 172.56 258.266 L 174.954 259.123 L 176.279 259.6 L 176.258 260.875 C 176.189 265.041 176.164 269.209 176.059 273.375 L 175.757 285.875 L 175.703 288.084 L 173.914 287.098 L 172.113 286.106 C 171.496 285.79 171.004 285.383 170.444 285.026 C 169.905 284.653 169.348 284.299 168.826 283.911 L 167.277 282.73 C 166.765 282.333 166.236 281.955 165.74 281.54 L 164.258 280.29 L 162.78 279.038 L 161.353 277.73 L 159.928 276.424 C 159.446 275.997 159.001 275.528 158.542 275.076 C 157.646 274.147 156.707 273.269 155.852 272.305 C 154.996 271.342 154.118 270.403 153.293 269.416 L 150.929 266.375 L 153.63 269.102 C 154.086 269.548 154.582 269.957 155.047 270.393 L 156.46 271.681 C 157.394 272.545 158.412 273.323 159.381 274.146 C 159.873 274.549 160.343 274.977 160.855 275.358 L 162.364 276.528 L 163.87 277.696 L 165.419 278.803 L 166.964 279.913 C 167.475 280.287 168.012 280.619 168.534 280.975 L 170.11 282.024 C 170.638 282.366 171.184 282.664 171.719 282.985 C 172.258 283.282 172.788 283.661 173.331 283.889 L 174.943 284.653 L 173.101 285.876 L 172.799 273.376 C 172.694 269.21 172.669 265.042 172.6 260.876 L 173.905 262.628 L 171.31 261.781 L 170.012 261.356 C 169.582 261.202 169.166 261.01 168.742 260.838 L 166.218 259.762 L 163.784 258.469 C 162.958 258.065 162.198 257.537 161.422 257.039 C 160.647 256.54 159.862 256.054 159.149 255.463 C 158.429 254.883 157.66 254.361 156.983 253.729 C 156.303 253.099 155.607 252.486 154.945 251.838 L 153.053 249.795 L 151.337 247.604 L 149.796 245.291 C 149.342 244.485 148.855 243.696 148.432 242.876 C 148.033 242.044 147.582 241.234 147.239 240.38 C 146.864 239.539 146.516 238.689 146.208 237.825 C 145.873 236.97 145.611 236.096 145.329 235.231 C 145.063 234.361 144.814 233.499 144.581 232.643 L 146.588 234.038 L 143.328 234.365 C 142.784 234.405 142.24 234.503 141.696 234.583 L 140.065 234.833 L 133.531 235.83 L 132.003 236.063 L 131.566 234.782 L 130.234 230.869 C 130.031 230.212 129.774 229.572 129.616 228.9 L 129.143 226.886 L 128.673 224.874 C 128.494 224.209 128.397 223.525 128.306 222.842 L 128.015 220.795 C 127.936 220.111 127.782 219.438 127.766 218.746 L 127.655 216.682 C 127.633 215.993 127.573 215.307 127.581 214.619 L 127.655 212.553 C 127.697 211.865 127.67 211.178 127.768 210.493 L 128.008 208.44 C 128.069 207.755 128.197 207.077 128.338 206.401 C 128.479 205.725 128.582 205.047 128.77 204.38 L 129.338 202.386 L 129.619 201.404 L 130.513 201.82 C 133.174 203.058 135.842 204.281 138.491 205.55 C 141.15 206.798 143.789 208.087 146.43 209.376 Z " fill="rgb(186,186,186)"/><g id="Group"><path d=" M 225.059 123.814 L 225.237 116.095 C 225.296 113.523 225.415 110.949 225.51 108.376 L 225.51 108.333 C 225.53 107.842 225.739 107.357 226.129 106.998 C 226.91 106.282 228.121 106.334 228.838 107.114 L 231.178 109.663 L 231.764 110.305 L 232.407 110.907 L 233.69 112.117 L 234.977 113.332 C 235.403 113.742 235.881 114.1 236.331 114.487 L 239.073 116.777 L 241.897 118.994 C 242.838 119.736 243.827 120.417 244.778 121.155 C 245.731 121.894 246.727 122.568 247.702 123.28 C 248.675 123.998 249.671 124.676 250.663 125.377 C 248.425 124.452 246.227 123.41 244.075 122.29 C 242.999 121.727 241.911 121.177 240.864 120.559 L 237.708 118.716 C 236.663 118.081 235.665 117.375 234.64 116.705 C 234.134 116.357 233.609 116.043 233.12 115.666 L 231.643 114.55 L 230.166 113.428 C 229.93 113.263 229.707 113.082 229.486 112.894 C 229.525 113.961 229.564 115.029 229.588 116.096 L 229.768 123.815 C 229.866 128.961 229.901 134.107 229.913 139.253 C 229.905 144.399 229.872 149.545 229.776 154.691 C 229.727 157.263 229.68 159.837 229.6 162.41 C 229.559 164.242 229.489 166.075 229.416 167.908 C 229.875 167.841 230.332 167.777 230.791 167.769 L 232.691 167.669 C 233.326 167.625 233.957 167.654 234.586 167.686 L 236.469 167.767 C 237.098 167.772 237.717 167.886 238.338 167.949 L 240.195 168.171 C 240.816 168.223 241.422 168.386 242.033 168.502 L 243.853 168.883 C 244.464 168.99 245.054 169.186 245.652 169.349 L 247.431 169.855 C 248.029 170.005 248.609 170.219 249.183 170.445 L 250.908 171.096 C 251.478 171.323 252.062 171.504 252.611 171.785 C 253.718 172.319 254.826 172.833 255.912 173.379 L 252.379 172.483 C 251.801 172.312 251.197 172.221 250.608 172.098 L 248.837 171.749 C 248.251 171.619 247.659 171.525 247.062 171.454 L 245.285 171.206 C 244.693 171.129 244.107 171.019 243.51 170.999 L 241.729 170.878 C 241.135 170.856 240.549 170.76 239.956 170.774 L 238.185 170.756 C 237.597 170.762 237.007 170.715 236.423 170.776 L 234.669 170.893 C 234.085 170.926 233.503 170.96 232.931 171.066 L 231.21 171.295 C 230.632 171.348 230.079 171.498 229.521 171.621 L 227.851 171.994 C 227.744 172.018 227.621 172.035 227.503 172.04 C 226.439 172.081 225.542 171.251 225.499 170.186 L 225.497 170.127 C 225.397 167.554 225.286 164.981 225.227 162.408 C 225.149 159.835 225.102 157.262 225.051 154.689 C 224.957 149.543 224.922 144.397 224.916 139.251 C 224.926 134.106 224.96 128.959 225.059 123.814 Z " fill="rgb(107,107,107)"/><path d=" M 259.989 144.911 C 260.589 145.195 261.214 145.461 261.786 145.766 L 263.474 146.708 C 264.552 147.384 265.636 148.051 266.656 148.79 C 267.705 149.493 268.689 150.273 269.689 151.032 C 270.689 151.793 271.627 152.623 272.591 153.422 L 275.368 155.943 L 278.03 158.577 L 280.581 161.314 C 281.417 162.238 282.204 163.206 283.015 164.15 C 283.835 165.087 284.548 166.113 285.316 167.09 C 285.689 167.587 286.078 168.072 286.439 168.578 L 287.5 170.113 C 288.197 171.142 288.934 172.141 289.563 173.216 C 290.213 174.274 290.872 175.326 291.499 176.396 L 293.257 179.673 C 293.872 180.747 294.335 181.903 294.872 183.016 C 295.388 184.14 295.915 185.257 296.333 186.422 L 297.665 189.875 L 296.054 186.549 C 295.544 185.429 294.929 184.362 294.325 183.291 C 293.712 182.227 293.182 181.119 292.497 180.097 L 290.542 176.985 L 288.438 173.975 C 287.762 172.956 286.979 172.013 286.237 171.043 L 285.114 169.597 C 284.731 169.121 284.323 168.666 283.928 168.201 C 283.119 167.286 282.369 166.323 281.514 165.452 C 280.674 164.567 279.868 163.653 279.01 162.79 L 276.405 160.23 L 273.7 157.784 L 270.897 155.459 C 269.926 154.732 268.987 153.965 268.006 153.26 C 267.02 152.563 266.049 151.84 265.029 151.204 C 264.029 150.527 262.994 149.937 261.965 149.336 L 261.625 149.16 C 261.678 149.408 261.738 149.657 261.787 149.906 C 262.047 151.194 262.316 152.48 262.533 153.776 C 262.758 155.07 263.002 156.361 263.189 157.663 C 263.384 158.964 263.599 160.261 263.777 161.564 L 264.267 165.485 C 264.453 166.789 264.519 168.114 264.652 169.427 L 264.826 171.403 C 264.898 172.058 264.894 172.727 264.93 173.39 L 265.03 175.977 L 266.198 176.367 C 267.03 176.624 267.841 176.944 268.645 177.28 C 269.45 177.618 270.274 177.907 271.059 178.288 L 273.42 179.418 C 274.203 179.803 274.953 180.253 275.721 180.669 C 276.494 181.076 277.231 181.55 277.967 182.021 C 278.705 182.488 279.449 182.95 280.149 183.476 C 280.85 183.998 281.59 184.471 282.26 185.036 C 282.936 185.592 283.635 186.122 284.291 186.701 C 284.939 187.291 285.602 187.865 286.238 188.469 C 286.855 189.093 287.48 189.708 288.08 190.35 C 288.658 191.012 289.266 191.648 289.818 192.333 C 290.363 193.025 290.941 193.688 291.445 194.417 C 291.972 195.123 292.478 195.851 292.951 196.605 C 293.447 197.338 293.875 198.133 294.314 198.917 L 294.568 199.419 C 296.658 198.284 298.75 197.185 300.9 196.149 C 301.588 195.8 302.304 195.492 303.005 195.163 C 303.708 194.837 304.413 194.517 305.15 194.23 L 306.242 193.788 C 306.611 193.647 306.955 193.48 307.347 193.361 L 307.753 193.225 L 306.601 190.133 C 305.97 188.529 305.47 186.868 304.695 185.326 L 302.535 180.624 C 301.861 179.032 300.988 177.543 300.178 176.02 C 299.34 174.512 298.574 172.958 297.676 171.486 L 294.905 167.107 C 294.024 165.617 292.948 164.261 291.942 162.856 C 290.909 161.47 289.965 160.011 288.829 158.706 L 285.532 154.689 L 282.007 150.867 C 280.833 149.588 279.548 148.421 278.323 147.187 C 277.112 145.937 275.766 144.839 274.477 143.671 C 273.2 142.483 271.803 141.448 270.463 140.334 C 269.127 139.213 267.686 138.235 266.297 137.176 C 264.854 136.201 263.436 135.179 261.949 134.262 C 260.484 133.307 258.967 132.438 257.414 131.626 C 259.027 132.306 260.621 133.053 262.166 133.887 C 263.738 134.676 265.232 135.601 266.752 136.488 C 268.219 137.457 269.744 138.347 271.166 139.384 C 272.598 140.408 274.062 141.397 275.424 142.517 C 276.793 143.624 278.227 144.665 279.526 145.861 C 280.833 147.044 282.221 148.148 283.465 149.403 L 287.231 153.138 L 290.778 157.088 C 291.997 158.377 293.038 159.813 294.143 161.196 C 295.221 162.602 296.368 163.962 297.321 165.458 L 300.309 169.861 C 301.28 171.346 302.118 172.913 303.028 174.437 C 303.911 175.977 304.868 177.48 305.587 179.106 L 307.903 183.906 C 308.731 185.482 309.282 187.177 309.964 188.817 L 311.921 193.776 C 311.927 193.792 311.937 193.816 311.942 193.832 C 312.27 194.754 311.788 195.766 310.868 196.093 L 310.684 196.158 L 308.664 196.877 C 308.328 196.982 307.988 197.156 307.65 197.292 L 306.634 197.727 C 305.954 198.003 305.282 198.331 304.607 198.646 C 303.933 198.966 303.253 199.263 302.586 199.608 C 301.242 200.27 299.904 200.952 298.576 201.659 C 297.252 202.364 295.922 203.091 294.633 203.823 C 294.576 203.856 294.514 203.887 294.453 203.915 C 293.463 204.349 292.31 203.898 291.877 202.909 L 291.846 202.84 L 291.393 201.805 L 290.858 200.77 C 290.467 200.089 290.094 199.394 289.639 198.737 C 289.211 198.064 288.752 197.411 288.266 196.77 C 287.809 196.113 287.27 195.509 286.77 194.879 C 286.262 194.256 285.698 193.675 285.166 193.07 C 284.613 192.482 284.025 191.926 283.463 191.346 C 282.881 190.785 282.272 190.252 281.678 189.703 C 281.074 189.164 280.43 188.672 279.809 188.152 C 279.196 187.625 278.51 187.185 277.864 186.697 C 277.221 186.203 276.534 185.772 275.85 185.335 C 275.17 184.893 274.491 184.447 273.774 184.066 C 273.061 183.676 272.37 183.251 271.643 182.888 L 269.45 181.822 C 268.721 181.463 267.952 181.19 267.206 180.869 C 266.456 180.55 265.702 180.245 264.923 180.001 L 262.61 179.212 L 262.581 179.203 C 261.821 178.941 261.267 178.227 261.249 177.377 L 261.165 173.547 C 261.142 172.908 261.161 172.272 261.102 171.63 L 260.969 169.708 C 260.865 168.427 260.826 167.145 260.67 165.862 L 260.266 162.016 C 260.116 160.735 259.928 159.456 259.762 158.175 C 259.604 156.894 259.387 155.618 259.192 154.341 C 258.805 151.79 258.362 149.226 257.878 146.715 L 257.851 146.569 C 257.79 146.261 257.826 145.934 257.97 145.63 C 258.327 144.873 259.231 144.552 259.989 144.911 Z " fill="rgb(107,107,107)"/><path d=" M 295.413 209.376 C 298.19 208.415 300.966 207.454 303.726 206.452 C 306.494 205.472 309.244 204.444 311.999 203.432 L 310.823 202.866 L 311.204 204.782 C 311.327 205.42 311.374 206.077 311.47 206.721 C 311.562 207.366 311.644 208.012 311.658 208.668 L 311.762 210.625 C 311.815 211.274 311.744 211.933 311.742 212.584 L 311.689 214.541 C 311.654 215.192 311.554 215.842 311.49 216.491 L 311.289 218.437 C 311.246 219.087 311.064 219.724 310.961 220.367 L 310.596 222.29 C 310.483 222.932 310.362 223.572 310.16 224.196 L 309.625 226.08 L 309.094 227.963 C 308.916 228.589 308.641 229.188 308.42 229.801 L 307.053 233.469 L 309.018 232.421 L 302.33 231.207 L 300.656 230.904 C 300.097 230.804 299.545 230.689 298.974 230.631 L 295.574 230.213 L 294.015 230.022 L 293.566 231.608 C 293.33 232.446 293.084 233.269 292.83 234.077 C 292.559 234.88 292.309 235.689 291.994 236.468 C 291.705 237.257 291.381 238.031 291.031 238.79 C 290.715 239.565 290.297 240.289 289.931 241.038 C 289.542 241.776 289.095 242.477 288.683 243.2 L 287.283 245.261 L 285.744 247.215 L 284.07 249.056 C 283.482 249.64 282.861 250.193 282.259 250.765 C 281.661 251.341 280.968 251.81 280.327 252.341 C 279.692 252.881 278.983 253.325 278.286 253.783 C 277.587 254.239 276.907 254.727 276.153 255.1 L 273.944 256.303 L 271.635 257.327 C 271.248 257.496 270.871 257.685 270.479 257.839 L 269.284 258.266 L 266.889 259.123 L 265.565 259.6 L 265.585 260.875 C 265.655 265.041 265.679 269.209 265.784 273.375 L 266.087 285.875 L 266.14 288.084 L 267.929 287.098 L 269.73 286.106 C 270.347 285.79 270.839 285.383 271.4 285.026 C 271.939 284.653 272.496 284.299 273.017 283.911 L 274.566 282.73 C 275.078 282.333 275.607 281.955 276.103 281.54 L 277.585 280.29 L 279.064 279.038 L 280.49 277.73 L 281.916 276.424 C 282.398 275.997 282.842 275.528 283.301 275.076 C 284.197 274.147 285.137 273.269 285.992 272.305 C 286.847 271.342 287.726 270.403 288.551 269.416 L 290.914 266.375 L 288.213 269.102 C 287.758 269.548 287.262 269.957 286.797 270.393 L 285.383 271.681 C 284.449 272.545 283.432 273.323 282.463 274.146 C 281.971 274.549 281.5 274.977 280.988 275.358 L 279.48 276.528 L 277.974 277.696 L 276.425 278.803 L 274.88 279.913 C 274.368 280.287 273.831 280.619 273.31 280.975 L 271.734 282.024 C 271.205 282.366 270.66 282.664 270.125 282.985 C 269.586 283.282 269.055 283.661 268.512 283.889 L 266.901 284.653 L 268.743 285.876 L 269.044 273.376 C 269.149 269.21 269.175 265.042 269.243 260.876 L 267.938 262.628 L 270.534 261.781 L 271.831 261.356 C 272.261 261.202 272.677 261.01 273.101 260.838 L 275.626 259.762 L 278.06 258.469 C 278.886 258.065 279.646 257.537 280.421 257.039 C 281.196 256.54 281.982 256.054 282.694 255.463 C 283.415 254.883 284.184 254.361 284.86 253.729 C 285.54 253.099 286.237 252.486 286.899 251.838 L 288.79 249.795 L 290.507 247.604 L 292.048 245.291 C 292.501 244.485 292.989 243.696 293.411 242.876 C 293.811 242.044 294.261 241.234 294.604 240.38 C 294.979 239.539 295.327 238.689 295.635 237.825 C 295.971 236.97 296.233 236.096 296.514 235.231 C 296.78 234.361 297.03 233.499 297.262 232.643 L 295.256 234.038 L 298.516 234.365 C 299.059 234.405 299.604 234.503 300.147 234.583 L 301.778 234.833 L 308.313 235.83 L 309.84 236.063 L 310.278 234.782 L 311.61 230.869 C 311.813 230.212 312.069 229.572 312.227 228.9 L 312.7 226.886 L 313.171 224.874 C 313.349 224.209 313.446 223.525 313.538 222.842 L 313.829 220.795 C 313.907 220.111 314.061 219.438 314.077 218.746 L 314.188 216.682 C 314.211 215.993 314.27 215.307 314.262 214.619 L 314.188 212.553 C 314.147 211.865 314.174 211.178 314.075 210.493 L 313.835 208.44 C 313.774 207.755 313.646 207.077 313.505 206.401 C 313.364 205.725 313.261 205.047 313.073 204.38 L 312.505 202.386 L 312.224 201.404 L 311.331 201.82 C 308.669 203.058 306.001 204.281 303.352 205.55 C 300.694 206.798 298.053 208.087 295.413 209.376 Z " fill="rgb(107,107,107)"/></g><g id="Group"><g id="Group"><path d=" M 35.978 360.76 C 29.486 356.755 23.762 351.841 18.965 346.156 C 1.277 325.193 -3.153 295.192 6.494 261.681 C 16.072 228.407 38.433 195.498 69.458 169.016 L 70.605 168.037 L 100.483 203.447 L 99.348 204.415 C 73.081 226.834 52.57 254.747 41.593 283.007 C 30.815 310.756 29.594 337.716 38.156 358.921 L 39.867 363.158 L 35.978 360.76 Z " fill="rgb(168,168,168)"/><g id="Group"><path d=" M 70.432 170.157 L 98.375 203.274 C 43.216 250.355 18.925 315.297 36.766 359.483 C 30.513 355.626 24.908 350.873 20.112 345.188 C -15.789 302.642 6.769 224.497 70.432 170.157 Z  M 70.779 165.917 L 68.484 167.876 C 37.238 194.546 14.711 227.712 5.052 261.266 C -4.738 295.274 -0.203 325.765 17.818 347.123 C 22.717 352.93 28.562 357.948 35.19 362.037 L 42.969 366.836 L 39.547 358.36 C 31.129 337.51 32.352 310.942 42.991 283.55 C 53.88 255.516 74.241 227.818 100.322 205.555 L 102.591 203.618 L 100.668 201.338 L 72.725 168.221 L 70.779 165.917 L 70.779 165.917 Z " fill="rgb(0,0,0)"/></g></g><g id="Group"><path d=" M 93.217 197.16 L 98.375 203.274 C 43.216 250.355 18.925 315.297 36.766 359.483 C 31.975 356.527 27.569 353.042 23.61 349.018 C 12.551 304.742 39.16 243.277 93.217 197.16 Z " fill="rgb(255,255,255)"/></g><g id="Group"><path d=" M 262.041 401.338 C 260.218 401.338 258.499 400.539 257.325 399.147 L 54.402 158.654 C 52.209 156.056 52.539 152.157 55.136 149.965 C 56.248 149.027 57.66 148.511 59.112 148.511 C 60.934 148.511 62.653 149.309 63.828 150.701 L 266.75 391.194 C 268.942 393.795 268.612 397.693 266.015 399.885 C 264.903 400.822 263.492 401.338 262.041 401.338 L 262.041 401.338 Z " fill="rgb(127,127,127)"/><path d=" M 59.112 150.01 C 60.439 150.01 61.758 150.573 62.681 151.668 L 265.603 392.161 C 267.265 394.132 267.017 397.075 265.046 398.738 C 264.17 399.476 263.102 399.838 262.039 399.838 C 260.712 399.838 259.393 399.275 258.47 398.18 L 55.549 157.687 C 53.886 155.716 54.136 152.773 56.105 151.111 C 56.981 150.371 58.049 150.01 59.112 150.01 Z  M 59.112 147.01 C 57.307 147.01 55.551 147.652 54.17 148.817 C 50.939 151.545 50.529 156.391 53.256 159.621 L 256.178 400.114 C 257.638 401.844 259.775 402.838 262.04 402.838 C 263.845 402.838 265.599 402.196 266.98 401.032 C 270.211 398.304 270.622 393.459 267.896 390.226 L 64.975 149.733 C 63.514 148.003 61.378 147.01 59.112 147.01 L 59.112 147.01 Z " fill="rgb(0,0,0)"/></g><g id="Group"><path d=" M 56.105 151.11 C 56.409 150.855 56.74 150.66 57.081 150.493 C 55.866 152.187 55.89 154.545 57.297 156.212 L 260.218 396.705 C 261.626 398.373 263.945 398.793 265.82 397.88 C 265.599 398.189 265.351 398.483 265.049 398.738 C 263.078 400.399 260.135 400.15 258.473 398.179 L 55.549 157.687 C 53.886 155.716 54.136 152.773 56.105 151.11 Z " fill="rgb(63,63,63)"/></g><g id="Group"><path d=" M 95.872 219.383 C 94.837 219.383 93.862 218.929 93.196 218.139 L 55.363 173.303 C 54.118 171.826 54.307 169.614 55.782 168.37 L 73.08 153.774 C 73.709 153.242 74.511 152.949 75.336 152.949 C 76.371 152.949 77.346 153.402 78.012 154.192 L 115.845 199.03 C 117.089 200.505 116.902 202.717 115.427 203.962 L 98.128 218.559 C 97.497 219.09 96.696 219.383 95.872 219.383 L 95.872 219.383 Z " fill="rgb(94,94,94)"/><path d=" M 75.337 154.448 C 75.906 154.448 76.471 154.689 76.867 155.158 L 114.7 199.996 C 115.412 200.84 115.305 202.101 114.461 202.814 L 97.162 217.411 C 96.787 217.727 96.329 217.883 95.873 217.883 C 95.304 217.883 94.739 217.641 94.344 217.172 L 56.511 172.335 C 55.799 171.49 55.906 170.229 56.75 169.517 L 74.049 154.92 C 74.423 154.603 74.881 154.448 75.337 154.448 Z  M 75.337 151.448 C 74.158 151.448 73.013 151.867 72.112 152.628 L 54.815 167.223 C 53.794 168.083 53.17 169.29 53.057 170.622 C 52.945 171.952 53.356 173.247 54.217 174.268 L 92.051 219.106 C 93.002 220.234 94.395 220.882 95.873 220.882 C 97.05 220.882 98.195 220.463 99.095 219.704 L 116.395 205.106 C 118.502 203.328 118.77 200.167 116.993 198.06 L 79.16 153.222 C 78.207 152.095 76.814 151.448 75.337 151.448 L 75.337 151.448 Z " fill="rgb(0,0,0)"/></g><g id="Group"><path d=" M 56.749 169.517 L 61.385 165.605 C 60.541 166.317 60.435 167.579 61.147 168.423 L 98.98 213.26 C 99.692 214.105 100.954 214.211 101.798 213.499 L 97.161 217.411 C 96.316 218.123 95.055 218.016 94.343 217.172 L 56.51 172.335 C 55.798 171.49 55.904 170.229 56.749 169.517 Z " fill="rgb(53,53,53)"/></g></g><g id="Group"><path d=" M 181.536 247.725 C 166.957 247.725 155.097 235.865 155.097 221.286 C 155.097 215.462 156.957 209.935 160.477 205.304 L 161.097 204.489 L 207.761 217.766 L 207.856 218.789 C 207.938 219.669 207.978 220.485 207.978 221.286 C 207.977 235.864 196.116 247.725 181.536 247.725 Z " fill="rgb(58,54,33)"/><g id="Group"><path d=" M 161.671 206.211 L 206.362 218.927 C 206.434 219.703 206.477 220.49 206.477 221.285 C 206.477 235.059 195.311 246.224 181.536 246.224 C 167.763 246.224 156.597 235.059 156.597 221.285 C 156.597 215.619 158.488 210.399 161.671 206.211 Z  M 160.522 202.765 L 159.282 204.395 C 155.563 209.29 153.596 215.129 153.596 221.285 C 153.596 236.691 166.129 249.224 181.535 249.224 C 196.942 249.224 209.476 236.691 209.476 221.285 C 209.476 220.437 209.434 219.575 209.348 218.648 L 209.158 216.603 L 207.182 216.04 L 162.491 203.325 L 160.522 202.765 L 160.522 202.765 Z " fill="rgb(0,0,0)"/></g></g><path d=" M 163.536 221.285 C 163.536 216.34 164.978 211.734 167.461 207.858 L 161.671 206.211 C 158.488 210.399 156.597 215.619 156.597 221.285 C 156.597 235.059 167.763 246.224 181.536 246.224 C 182.716 246.224 183.872 246.136 185.007 245.979 C 172.876 244.29 163.536 233.881 163.536 221.285 Z " fill="rgb(168,163,123)"/><g id="Group"><path d=" M 260.838 247.725 C 246.259 247.725 234.399 235.865 234.399 221.286 C 234.399 220.482 234.439 219.642 234.519 218.789 L 234.614 217.766 L 281.278 204.489 L 281.898 205.304 C 285.418 209.933 287.278 215.46 287.278 221.286 C 287.278 235.864 275.418 247.725 260.838 247.725 Z " fill="rgb(58,54,33)"/><g id="Group"><path d=" M 280.704 206.211 C 283.888 210.399 285.778 215.619 285.778 221.285 C 285.778 235.059 274.612 246.224 260.839 246.224 C 247.066 246.224 235.9 235.059 235.9 221.285 C 235.9 220.489 235.941 219.703 236.013 218.927 L 280.704 206.211 Z  M 281.852 202.765 L 279.882 203.326 L 235.191 216.041 L 233.215 216.604 L 233.025 218.649 C 232.941 219.548 232.899 220.436 232.899 221.286 C 232.899 236.692 245.432 249.225 260.838 249.225 C 276.244 249.225 288.777 236.692 288.777 221.286 C 288.777 215.13 286.811 209.289 283.091 204.396 L 281.852 202.765 L 281.852 202.765 Z " fill="rgb(0,0,0)"/></g></g><path d=" M 278.838 221.285 C 278.838 216.34 277.397 211.734 274.914 207.858 L 280.703 206.211 C 283.887 210.399 285.777 215.619 285.777 221.285 C 285.777 235.059 274.611 246.224 260.838 246.224 C 259.66 246.224 258.502 246.136 257.367 245.979 C 269.499 244.29 278.838 233.881 278.838 221.285 Z " fill="rgb(168,163,123)"/><g id="Group"><path d=" M 157.188 302.105 C 151.512 302.105 146.107 299.664 142.358 295.408 C 135.159 287.236 135.952 274.73 144.125 267.531 C 147.735 264.352 152.369 262.601 157.174 262.601 C 162.849 262.601 168.254 265.042 172.002 269.298 C 175.49 273.257 177.227 278.337 176.893 283.603 C 176.56 288.868 174.195 293.688 170.235 297.175 C 166.627 300.354 161.993 302.105 157.188 302.105 Z " fill="rgb(254,252,222)"/><g id="Group"><path d=" M 157.173 264.101 C 162.234 264.101 167.268 266.194 170.876 270.289 C 177.539 277.853 176.809 289.387 169.243 296.049 C 165.776 299.104 161.472 300.605 157.188 300.605 C 152.127 300.605 147.091 298.512 143.483 294.417 C 136.821 286.854 137.552 275.319 145.116 268.657 C 148.585 265.602 152.888 264.102 157.173 264.101 Z  M 157.174 261.101 L 157.173 261.101 C 152.003 261.102 147.017 262.986 143.133 266.406 C 138.874 270.158 136.33 275.344 135.971 281.009 C 135.612 286.675 137.48 292.141 141.232 296.401 C 145.265 300.98 151.081 303.606 157.188 303.606 C 162.358 303.606 167.344 301.722 171.227 298.301 C 175.487 294.55 178.03 289.363 178.39 283.698 C 178.75 278.033 176.88 272.567 173.128 268.306 C 169.094 263.728 163.28 261.101 157.174 261.101 L 157.174 261.101 Z " fill="rgb(0,0,0)"/></g></g><path d=" M 169.243 296.049 C 169.269 296.027 169.292 296 169.318 295.979 C 158.712 297.482 151.406 290.123 150.007 282.511 C 148.515 274.406 153.32 267.803 158.966 264.208 C 154.106 263.73 149.07 265.172 145.115 268.656 C 137.552 275.318 136.82 286.852 143.482 294.416 C 150.147 301.981 161.681 302.712 169.243 296.049 Z " fill="rgb(211,207,165)"/><g id="Group"><path d=" M 221.79 372.773 C 216.114 372.773 210.709 370.333 206.959 366.076 C 199.762 357.904 200.554 345.399 208.727 338.199 C 212.336 335.02 216.97 333.269 221.775 333.269 C 227.451 333.269 232.856 335.71 236.604 339.966 C 240.091 343.925 241.829 349.005 241.495 354.271 C 241.162 359.536 238.797 364.356 234.837 367.843 C 231.227 371.022 226.594 372.773 221.79 372.773 Z " fill="rgb(254,252,222)"/><g id="Group"><path d=" M 221.774 334.769 C 226.835 334.769 231.87 336.862 235.477 340.957 C 242.141 348.521 241.411 360.055 233.844 366.717 C 230.376 369.772 226.073 371.273 221.789 371.273 C 216.728 371.273 211.692 369.18 208.084 365.085 C 201.422 357.522 202.154 345.987 209.717 339.325 C 213.186 336.27 217.49 334.77 221.774 334.769 Z  M 221.775 331.769 L 221.775 331.769 C 216.604 331.77 211.618 333.654 207.735 337.074 C 198.941 344.82 198.089 358.275 205.834 367.068 C 209.868 371.647 215.684 374.273 221.79 374.273 C 226.96 374.273 231.945 372.389 235.828 368.968 C 240.088 365.217 242.633 360.03 242.991 354.365 C 243.35 348.7 241.481 343.233 237.728 338.973 C 233.696 334.396 227.88 331.769 221.775 331.769 L 221.775 331.769 Z " fill="rgb(0,0,0)"/></g></g><path d=" M 233.844 366.717 C 233.871 366.695 233.893 366.668 233.92 366.647 C 223.313 368.15 216.008 360.791 214.609 353.179 C 213.117 345.074 217.922 338.471 223.568 334.876 C 218.707 334.398 213.672 335.84 209.716 339.324 C 202.153 345.986 201.421 357.52 208.083 365.084 C 214.749 372.649 226.282 373.38 233.844 366.717 Z " fill="rgb(211,207,165)"/><g id="Group"><path d=" M 318.262 331.376 C 309.9 331.376 303.096 324.572 303.096 316.21 C 303.096 315.433 303.166 314.629 303.31 313.758 C 303.311 313.745 303.381 313.317 303.381 313.317 L 303.431 313.051 C 304.675 306.098 312.138 295.534 322.016 290.656 C 328.301 287.552 331.711 282.035 331.833 278.189 C 331.873 276.904 331.574 275.171 329.918 274.22 C 322.058 269.702 318.622 265.348 319.708 261.279 C 321.186 255.742 330.278 253.769 338.294 253.769 C 341.889 253.769 345.673 254.163 349.236 254.907 C 349.943 255.055 350.445 255.686 350.429 256.409 C 350.412 257.132 349.884 257.74 349.17 257.856 C 340.268 259.309 334.285 261.919 333.167 264.835 C 332.998 265.275 332.484 266.616 334.348 268.936 C 335.173 269.962 336.398 271.359 337.816 272.975 C 346.483 282.854 354.073 292.139 351.789 297.181 C 350.894 299.156 348.734 300.158 345.367 300.158 L 345.367 300.158 C 345.004 300.158 344.621 300.146 344.219 300.123 C 343.373 300.075 342.558 300.05 341.796 300.05 C 337.169 300.05 334.123 300.936 332.743 302.681 C 331.079 304.786 331.894 308.231 332.551 310.999 L 332.665 311.484 C 333.171 313.023 333.428 314.612 333.428 316.21 C 333.428 324.572 326.625 331.376 318.262 331.376 Z " fill="rgb(206,206,206)"/><path d=" M 338.295 255.27 C 341.698 255.27 345.334 255.625 348.931 256.376 C 336.681 258.376 327.556 262.876 333.181 269.876 C 338.686 276.726 360.709 298.658 345.369 298.658 C 345.033 298.658 344.679 298.647 344.306 298.626 C 343.416 298.575 342.582 298.55 341.797 298.55 C 327.573 298.551 329.998 306.654 331.222 311.894 C 331.675 313.251 331.929 314.701 331.929 316.21 C 331.929 323.757 325.812 329.876 318.263 329.876 C 310.716 329.876 304.597 323.757 304.597 316.21 C 304.597 315.413 304.681 314.636 304.812 313.876 C 304.81 313.876 304.806 313.876 304.806 313.876 C 304.812 313.819 304.829 313.756 304.837 313.698 C 304.858 313.583 304.878 313.467 304.901 313.352 C 305.971 307.37 312.84 296.86 322.68 292 C 332.805 287 336.264 276.137 330.666 272.919 C 312.394 262.419 323.014 255.27 338.295 255.27 Z  M 338.296 252.27 L 338.296 252.27 C 329.722 252.27 319.957 254.535 318.26 260.892 C 316.977 265.701 320.649 270.622 329.172 275.522 C 329.475 275.695 330.395 276.224 330.334 278.142 C 330.228 281.541 327.107 286.469 321.353 289.312 C 311.073 294.388 303.289 305.441 301.955 312.791 C 301.938 312.877 301.922 312.965 301.906 313.052 L 301.888 313.15 C 301.885 313.169 301.881 313.186 301.878 313.205 C 301.853 313.333 301.834 313.454 301.821 313.568 C 301.67 314.501 301.596 315.368 301.596 316.212 C 301.596 325.401 309.073 332.878 318.262 332.878 C 327.451 332.878 334.928 325.401 334.928 316.212 C 334.928 314.477 334.654 312.751 334.112 311.081 L 334.011 310.655 C 333.429 308.202 332.706 305.148 333.92 303.613 C 334.971 302.284 337.768 301.552 341.796 301.551 C 342.529 301.551 343.316 301.575 344.133 301.622 C 344.558 301.646 344.974 301.659 345.367 301.659 C 350.36 301.659 352.358 299.56 353.155 297.801 C 355.816 291.928 348.624 283.021 338.944 271.988 C 337.538 270.384 336.323 269 335.518 267.999 C 334.639 266.905 334.32 266.022 334.568 265.374 C 335.303 263.456 340.178 260.847 349.413 259.339 C 350.84 259.106 351.897 257.889 351.929 256.444 C 351.961 254.999 350.958 253.736 349.543 253.441 C 345.881 252.675 341.992 252.27 338.296 252.27 L 338.296 252.27 Z " fill="rgb(0,0,0)"/></g><path d=" M 348.469 256.454 L 348.467 256.454 C 348.467 256.454 328.645 256.352 327.254 262.388 C 326.451 265.868 330.369 269.064 334.227 273.662 C 338.085 278.26 349.801 291.761 338.379 293.096 C 326.957 294.431 326.041 305.831 327.254 312.974 C 329.004 323.279 315.979 331.962 308.117 325.287 C 308.115 325.305 308.115 325.322 308.113 325.34 C 310.615 328.119 314.228 329.877 318.261 329.877 C 325.81 329.877 331.927 323.758 331.927 316.211 C 331.927 314.701 331.673 313.252 331.22 311.895 C 329.929 306.367 327.298 297.649 344.304 298.627 C 361.679 299.627 338.804 276.877 333.179 269.877 C 327.626 262.964 336.454 258.492 348.469 256.454 Z " fill="rgb(178,178,178)"/></g></svg>