<?xml version="1.0" standalone="no"?><!-- Generator: Gravit.io --><svg xmlns="http://www.w3.org/2000/svg" xmlns:xlink="http://www.w3.org/1999/xlink" style="isolation:isolate" viewBox="0 0 270 350" width="270" height="350"><defs><clipPath id="_clipPath_VRNs73X5b8OSK2uFSaGmH0WVaeJSqW1c"><rect width="270" height="350"/></clipPath></defs><g clip-path="url(#_clipPath_VRNs73X5b8OSK2uFSaGmH0WVaeJSqW1c)"><g id="arrows"><g id="Group"><rect x="119.772" y="184.037" width="106" height="89" transform="matrix(0.976,-0.219,0.219,0.976,-45.919,43.46)" fill="none"/></g><g id="Group"><path d=" M 162.778 241.274 C 161.571 241.545 160.336 241.013 159.704 239.951 C 159.317 239.303 159.203 238.538 159.39 237.8 C 159.577 237.061 160.041 236.438 160.696 236.049 L 200.208 212.496 C 200.468 212.341 200.749 212.229 201.042 212.163 C 202.241 211.894 203.474 212.422 204.11 213.477 C 204.916 214.832 204.472 216.583 203.124 217.388 L 163.611 240.941 C 163.351 241.096 163.071 241.208 162.778 241.274 L 162.778 241.274 Z " fill="rgb(229,167,28)"/><path d=" M 201.372 213.628 C 201.925 213.503 202.517 213.739 202.825 214.252 C 203.204 214.89 202.995 215.719 202.356 216.1 L 162.843 239.653 C 162.717 239.728 162.584 239.78 162.449 239.81 C 161.895 239.935 161.299 239.699 160.994 239.184 C 160.613 238.547 160.822 237.719 161.463 237.338 L 200.976 213.785 C 201.103 213.71 201.236 213.658 201.372 213.628 M 200.714 210.701 C 200.266 210.801 199.839 210.971 199.443 211.208 L 159.927 234.762 C 158.929 235.356 158.22 236.305 157.935 237.434 C 157.652 238.561 157.823 239.73 158.419 240.726 C 159.378 242.339 161.265 243.151 163.107 242.737 C 163.555 242.636 163.983 242.465 164.379 242.23 L 203.892 218.677 C 205.95 217.449 206.629 214.777 205.403 212.718 C 204.426 211.095 202.545 210.289 200.714 210.701 L 200.714 210.701 L 200.714 210.701 Z " fill="rgb(0,0,0)"/><path d=" M 158.281 233.73 C 157.078 234.001 155.844 233.471 155.21 232.412 C 154.408 231.062 154.85 229.311 156.195 228.508 L 195.714 204.953 C 195.973 204.799 196.254 204.686 196.548 204.62 C 197.752 204.349 198.985 204.881 199.616 205.942 C 200.417 207.291 199.976 209.041 198.632 209.844 L 159.115 233.398 C 158.856 233.552 158.575 233.664 158.281 233.73 Z " fill="rgb(229,167,28)"/><path d=" M 196.877 206.084 C 197.43 205.959 198.023 206.195 198.327 206.709 C 198.706 207.348 198.501 208.175 197.862 208.557 L 158.347 232.11 C 158.22 232.185 158.087 232.237 157.952 232.267 C 157.399 232.391 156.804 232.155 156.498 231.642 C 156.119 231.003 156.326 230.177 156.965 229.795 L 196.482 206.241 C 196.608 206.167 196.742 206.114 196.877 206.084 Z  M 196.219 203.157 C 195.77 203.258 195.341 203.429 194.944 203.667 L 155.43 227.218 C 153.373 228.448 152.697 231.12 153.921 233.175 C 154.89 234.798 156.773 235.607 158.61 235.194 C 159.06 235.093 159.49 234.921 159.886 234.684 L 199.398 211.134 C 201.454 209.905 202.129 207.233 200.906 205.176 C 199.942 203.555 198.059 202.743 196.219 203.157 L 196.219 203.157 L 196.219 203.157 Z " fill="rgb(0,0,0)"/><path d=" M 160.22 236.988 C 159.018 237.259 157.785 236.728 157.152 235.669 C 156.349 234.316 156.792 232.567 158.14 231.763 L 197.654 208.211 C 197.912 208.057 198.195 207.944 198.489 207.878 C 199.693 207.607 200.927 208.138 201.557 209.198 C 201.946 209.849 202.059 210.614 201.873 211.353 C 201.685 212.091 201.223 212.713 200.57 213.103 L 161.056 236.654 C 160.797 236.808 160.515 236.922 160.22 236.988 L 160.22 236.988 Z " fill="rgb(229,167,28)"/><path d=" M 198.817 209.342 C 199.37 209.218 199.964 209.454 200.268 209.967 C 200.649 210.605 200.44 211.435 199.801 211.815 L 160.287 235.366 C 160.161 235.442 160.027 235.494 159.89 235.525 C 159.338 235.649 158.745 235.413 158.439 234.899 C 158.059 234.26 158.269 233.432 158.906 233.053 L 198.421 209.5 C 198.548 209.425 198.682 209.373 198.817 209.342 M 198.159 206.415 C 197.709 206.517 197.28 206.688 196.883 206.926 L 157.37 230.476 C 155.315 231.7 154.637 234.372 155.86 236.432 C 156.831 238.056 158.713 238.865 160.549 238.452 C 161 238.35 161.431 238.178 161.828 237.94 L 201.337 214.392 C 202.335 213.796 203.042 212.847 203.326 211.721 C 203.61 210.594 203.439 209.424 202.843 208.427 C 201.882 206.813 200 206.002 198.159 206.415 L 198.159 206.415 Z " fill="rgb(0,0,0)"/><path d=" M 200.269 209.966 C 200.14 209.75 199.953 209.606 199.747 209.495 C 199.749 209.954 199.537 210.405 199.111 210.658 L 159.598 234.211 C 159.174 234.463 158.68 234.436 158.274 234.217 C 158.272 234.451 158.314 234.684 158.44 234.9 C 158.821 235.539 159.648 235.75 160.288 235.366 L 199.802 211.815 C 200.44 211.434 200.65 210.605 200.269 209.966 Z " fill="rgb(168,118,17)"/><path d=" M 165.027 245.045 C 163.822 245.316 162.586 244.785 161.955 243.724 C 161.565 243.071 161.454 242.305 161.641 241.567 C 161.829 240.829 162.293 240.208 162.948 239.819 L 202.456 216.269 C 202.715 216.115 202.997 216.002 203.292 215.936 C 204.495 215.665 205.729 216.195 206.36 217.256 C 206.748 217.907 206.862 218.672 206.674 219.411 C 206.488 220.149 206.025 220.77 205.373 221.158 L 165.859 244.713 C 165.598 244.869 165.318 244.98 165.027 245.045 Z " fill="rgb(229,167,28)"/><path d=" M 203.62 217.4 C 204.172 217.276 204.766 217.512 205.07 218.024 C 205.451 218.663 205.242 219.491 204.605 219.87 L 165.09 243.425 C 164.964 243.499 164.832 243.551 164.696 243.581 C 164.143 243.705 163.548 243.469 163.243 242.956 C 162.861 242.316 163.071 241.489 163.712 241.109 L 203.223 217.557 C 203.35 217.482 203.484 217.431 203.62 217.4 M 202.962 214.473 C 202.511 214.575 202.082 214.746 201.686 214.984 L 162.177 238.533 C 161.181 239.124 160.473 240.072 160.187 241.199 C 159.901 242.326 160.072 243.497 160.668 244.495 C 161.63 246.112 163.514 246.923 165.356 246.509 C 165.802 246.408 166.229 246.239 166.624 246.004 L 206.142 222.447 C 207.139 221.854 207.845 220.906 208.129 219.779 C 208.413 218.652 208.242 217.482 207.646 216.486 C 206.685 214.871 204.802 214.06 202.962 214.473 L 202.962 214.473 Z " fill="rgb(0,0,0)"/><path d=" M 205.071 218.024 C 204.945 217.809 204.755 217.663 204.55 217.551 C 204.551 218.01 204.339 218.461 203.915 218.713 L 164.402 242.266 C 163.976 242.518 163.482 242.492 163.075 242.271 C 163.074 242.506 163.115 242.74 163.244 242.956 C 163.623 243.595 164.452 243.805 165.091 243.425 L 204.606 219.87 C 205.242 219.49 205.452 218.663 205.071 218.024 Z " fill="rgb(168,118,17)"/><path d=" M 158.123 250.06 C 153.911 251.006 149.596 249.149 147.384 245.439 L 146.663 244.228 C 145.301 241.942 144.909 239.263 145.562 236.684 C 146.215 234.104 147.833 231.933 150.118 230.572 L 175.257 215.587 C 175.395 215.505 175.544 215.447 175.697 215.412 C 175.924 215.361 176.164 215.364 176.394 215.422 C 176.78 215.52 177.111 215.766 177.315 216.107 L 186.7 231.852 C 187.124 232.564 186.89 233.485 186.179 233.91 L 161.041 248.894 C 160.131 249.437 159.149 249.829 158.123 250.06 L 158.123 250.06 L 158.123 250.06 Z " fill="rgb(117,61,14)"/><path d=" M 176.026 216.875 L 185.411 232.62 L 160.272 247.604 C 159.481 248.075 158.645 248.404 157.793 248.595 C 154.32 249.376 150.593 247.893 148.672 244.669 L 147.95 243.458 C 145.558 239.445 146.871 234.252 150.885 231.86 L 176.026 216.875 Z  M 175.368 213.948 C 175.061 214.017 174.765 214.134 174.489 214.297 L 149.35 229.283 C 146.72 230.849 144.858 233.346 144.107 236.314 C 143.357 239.281 143.806 242.364 145.373 244.993 L 146.097 246.206 C 148.64 250.475 153.606 252.611 158.453 251.521 C 159.634 251.255 160.763 250.805 161.809 250.18 L 186.948 235.196 C 188.371 234.348 188.837 232.507 187.989 231.083 L 178.604 215.338 C 178.196 214.655 177.534 214.161 176.764 213.966 C 176.3 213.851 175.823 213.846 175.368 213.948 L 175.368 213.948 L 175.368 213.948 Z " fill="rgb(0,0,0)"/><path d=" M 183.01 228.593 L 157.87 243.577 C 154.34 245.682 149.896 244.916 147.25 241.966 C 147.433 242.477 147.662 242.977 147.95 243.458 L 148.672 244.669 C 151.063 248.684 156.257 249.998 160.272 247.604 L 185.411 232.62 L 183.01 228.593 L 183.01 228.593 Z " fill="rgb(81,40,9)"/></g></g><path d=" M 81.352 256.936 C 81.139 256.913 80.931 256.844 80.744 256.732 C 80.402 256.527 80.155 256.195 80.058 255.809 L 77.752 246.619 C 77.551 245.818 78.036 245.003 78.838 244.8 C 79.604 244.605 97.691 239.823 104.426 221.899 C 104.598 221.44 104.984 221.095 105.459 220.974 C 105.635 220.93 105.815 220.917 105.99 220.936 C 106.29 220.968 106.576 221.091 106.81 221.293 C 108.172 222.47 109.099 223.584 109.738 224.465 L 115.745 216.919 C 116.072 216.509 116.579 216.308 117.079 216.362 C 117.237 216.379 117.395 216.422 117.545 216.491 C 118.173 216.78 118.522 217.459 118.391 218.138 C 113.252 244.801 90.593 254.12 83.772 256.34 C 82.72 256.683 82.05 256.855 81.881 256.898 C 81.706 256.942 81.527 256.955 81.352 256.936 L 81.352 256.936 Z " fill="rgb(239,184,134)"/><path d=" M 116.918 217.854 C 111.924 243.764 89.85 252.784 83.306 254.914 C 82.308 255.24 81.673 255.403 81.512 255.444 L 79.205 246.254 C 80.084 246.031 98.848 241.006 105.828 222.428 C 108.738 224.943 109.476 227.122 109.841 227.162 C 109.97 227.176 110.053 226.925 110.166 226.333 L 116.918 217.854 M 117.242 214.871 C 116.241 214.763 115.225 215.164 114.571 215.986 L 109.731 222.065 C 109.198 221.467 108.559 220.823 107.79 220.158 C 107.323 219.753 106.749 219.51 106.15 219.445 C 105.799 219.407 105.44 219.432 105.088 219.521 C 104.138 219.763 103.365 220.454 103.02 221.372 C 96.558 238.57 79.203 243.159 78.467 243.345 C 76.864 243.752 75.893 245.379 76.295 246.984 L 78.602 256.174 C 78.796 256.946 79.288 257.61 79.973 258.019 C 80.347 258.243 80.763 258.38 81.189 258.426 C 81.54 258.464 81.899 258.439 82.247 258.351 C 82.502 258.286 83.205 258.101 84.235 257.765 C 91.253 255.481 114.568 245.889 119.862 218.42 C 120.124 217.064 119.426 215.705 118.17 215.128 C 117.871 214.991 117.557 214.905 117.242 214.871 L 117.242 214.871 L 117.242 214.871 Z " fill="rgb(0,0,0)"/><path d=" M 113.961 217.284 C 108.179 241.505 87.181 250.076 80.828 252.145 C 80.779 252.16 80.742 252.172 80.696 252.187 L 81.513 255.444 C 81.673 255.403 82.309 255.24 83.307 254.914 C 89.85 252.784 111.925 243.764 116.919 217.854 L 113.961 217.284 L 113.961 217.284 Z " fill="rgb(183,126,83)"/><g id="paladin"><g id="Group"><rect x="4.528" y="-11.457" width="291" height="379" transform="matrix(0.994,0.108,-0.108,0.994,20.009,-15.096)" fill="none"/></g></g><path d=" M 196.93 261.336 C 196.753 261.336 196.576 261.305 196.409 261.242 C 196.245 261.181 195.598 260.938 194.59 260.484 C 188.046 257.543 166.52 245.843 164.277 218.781 C 164.22 218.093 164.64 217.455 165.295 217.235 C 165.452 217.182 165.613 217.157 165.773 217.157 C 166.276 217.157 166.759 217.411 167.041 217.854 L 172.202 226.001 C 172.931 225.195 173.973 224.187 175.453 223.163 C 175.708 222.987 176.006 222.896 176.307 222.896 C 176.484 222.896 176.661 222.927 176.831 222.991 C 177.29 223.162 177.638 223.548 177.76 224.022 C 182.528 242.566 199.996 249.264 200.738 249.541 C 201.512 249.829 201.908 250.69 201.622 251.466 L 198.341 260.355 C 198.203 260.728 197.922 261.032 197.561 261.199 C 197.358 261.29 197.144 261.336 196.93 261.336 L 196.93 261.336 Z " fill="rgb(239,184,134)"/><path d=" M 165.771 218.657 L 171.572 227.813 C 171.622 228.415 171.676 228.672 171.805 228.672 C 172.172 228.672 173.141 226.585 176.304 224.397 C 181.246 243.618 199.362 250.63 200.211 250.947 L 196.93 259.836 C 196.775 259.778 196.161 259.547 195.204 259.116 C 188.927 256.295 167.951 244.954 165.771 218.657 Z  M 165.771 215.657 C 165.453 215.657 165.131 215.708 164.817 215.813 C 163.507 216.251 162.668 217.528 162.782 218.905 C 165.093 246.785 187.242 258.826 193.975 261.852 C 194.965 262.297 195.642 262.557 195.886 262.648 C 196.224 262.773 196.577 262.836 196.93 262.836 C 197.359 262.836 197.786 262.744 198.183 262.562 C 198.907 262.229 199.468 261.623 199.745 260.875 L 203.026 251.986 C 203.598 250.434 202.808 248.713 201.258 248.135 C 200.547 247.87 183.784 241.443 179.209 223.65 C 178.965 222.7 178.271 221.929 177.353 221.587 C 177.012 221.46 176.658 221.398 176.304 221.398 C 175.702 221.398 175.106 221.579 174.598 221.93 C 173.762 222.508 173.058 223.079 172.464 223.618 L 168.305 217.053 C 167.743 216.165 166.777 215.657 165.771 215.657 L 165.771 215.657 L 165.771 215.657 Z " fill="rgb(0,0,0)"/><path d=" M 168.773 218.408 C 171.918 243.111 191.872 253.889 197.966 256.629 C 198.013 256.65 198.048 256.665 198.093 256.685 L 196.93 259.836 C 196.775 259.778 196.161 259.547 195.204 259.116 C 188.927 256.295 167.95 244.954 165.77 218.657 L 168.773 218.408 L 168.773 218.408 Z " fill="rgb(183,126,83)"/><path d=" M 206.661 278.79 C 203.864 278.79 201.143 278.204 198.574 277.05 C 188.64 272.584 184.191 260.87 188.656 250.936 C 191.84 243.855 198.916 239.279 206.683 239.279 C 209.479 239.279 212.2 239.864 214.77 241.019 C 224.704 245.485 229.152 257.199 224.687 267.132 C 221.504 274.213 214.429 278.79 206.661 278.79 C 206.661 278.79 206.662 278.79 206.661 278.79 L 206.661 278.79 Z " fill="rgb(38,38,38)"/><path d=" M 206.684 240.778 C 209.184 240.778 211.727 241.295 214.156 242.386 C 223.349 246.519 227.453 257.322 223.32 266.516 C 220.279 273.282 213.628 277.289 206.662 277.289 C 204.161 277.289 201.619 276.772 199.19 275.681 C 189.996 271.548 185.892 260.744 190.025 251.55 C 193.066 244.786 199.717 240.778 206.684 240.778 M 206.684 237.778 C 198.327 237.778 190.713 242.701 187.288 250.32 C 184.961 255.498 184.789 261.272 186.805 266.579 C 188.821 271.887 192.783 276.091 197.96 278.418 C 200.724 279.66 203.651 280.29 206.661 280.29 C 215.017 280.29 222.631 275.366 226.056 267.746 C 230.86 257.058 226.074 244.455 215.386 239.65 C 212.621 238.408 209.694 237.778 206.684 237.778 L 206.684 237.778 Z " fill="rgb(0,0,0)"/><path d=" M 190.025 251.55 C 190.039 251.52 190.056 251.49 190.071 251.459 C 191.765 262.037 200.955 266.844 208.638 265.934 C 216.822 264.965 221.712 258.425 223.48 251.969 C 225.373 256.472 225.48 261.709 223.32 266.516 C 219.187 275.71 208.383 279.813 199.19 275.681 C 189.995 271.548 185.892 260.745 190.025 251.55 L 190.025 251.55 Z " fill="rgb(15,15,15)"/><path d=" M 60.244 322.899 C 60.244 315.527 97.638 309.541 143.697 309.541 C 189.756 309.541 227.15 315.527 227.15 322.899 C 227.15 330.272 189.756 336.257 143.697 336.257 C 97.638 336.257 60.244 330.272 60.244 322.899 Z " fill="rgb(211,211,211)"/><path d=" M 109.446 284.037 L 109.446 254.632 L 104.69 221.903 L 112.806 215.275 C 115.961 211.112 120.739 208.728 125.946 208.728 L 155.122 208.728 C 160.264 208.728 165.168 211.181 168.281 215.3 L 176.366 221.903 L 171.622 254.551 L 171.622 284.037 L 109.446 284.037 L 109.446 284.037 Z " fill="rgb(38,38,38)"/><path d=" M 155.121 210.227 C 160.076 210.227 164.457 212.64 167.188 216.344 L 174.758 222.527 L 170.12 254.442 L 170.12 282.537 C 159.548 282.537 124.767 282.537 110.944 282.537 L 110.944 254.523 L 106.295 222.527 L 113.896 216.32 C 116.628 212.63 121 210.227 125.945 210.227 L 155.121 210.227 M 155.121 207.227 L 125.945 207.227 C 120.409 207.227 115.122 209.834 111.722 214.222 L 104.398 220.203 L 103.083 221.277 L 103.327 222.958 L 107.945 254.739 L 107.945 282.536 L 107.945 285.536 L 110.945 285.536 L 170.121 285.536 L 173.121 285.536 L 173.121 282.536 L 173.121 254.659 L 177.727 222.959 L 177.971 221.278 L 176.656 220.204 L 169.365 214.249 C 165.965 209.844 160.671 207.227 155.121 207.227 L 155.121 207.227 Z " fill="rgb(0,0,0)"/><path d=" M 147.823 326.704 C 146.995 326.704 146.323 326.032 146.323 325.204 L 146.323 303.079 C 146.323 299.887 143.726 297.29 140.535 297.29 C 137.343 297.29 134.746 299.887 134.746 303.079 L 134.746 325.204 C 134.746 326.032 134.074 326.704 133.246 326.704 L 115.946 326.704 C 115.185 326.704 114.545 326.135 114.456 325.379 L 109.456 282.712 C 109.406 282.286 109.54 281.86 109.825 281.54 C 110.11 281.22 110.517 281.037 110.946 281.037 L 170.122 281.037 C 170.551 281.037 170.958 281.22 171.243 281.54 C 171.527 281.86 171.662 282.286 171.612 282.712 L 166.612 325.379 C 166.523 326.135 165.883 326.704 165.122 326.704 L 147.823 326.704 Z " fill="rgb(68,68,68)"/><path d=" M 170.121 282.537 L 165.121 325.204 L 147.822 325.204 L 147.822 303.079 C 147.822 299.054 144.559 295.79 140.534 295.79 C 136.508 295.79 133.245 299.054 133.245 303.079 L 133.245 325.204 L 115.945 325.204 L 110.945 282.537 L 170.121 282.537 Z  M 170.121 279.537 L 110.945 279.537 C 110.089 279.537 109.273 279.903 108.704 280.543 C 108.135 281.183 107.866 282.035 107.966 282.887 L 112.966 325.554 C 113.143 327.065 114.424 328.204 115.945 328.204 L 133.245 328.204 C 134.902 328.204 136.245 326.861 136.245 325.204 L 136.245 303.079 C 136.245 300.714 138.169 298.79 140.534 298.79 C 142.898 298.79 144.822 300.714 144.822 303.079 L 144.822 325.204 C 144.822 326.861 146.165 328.204 147.822 328.204 L 165.121 328.204 C 166.642 328.204 167.924 327.064 168.1 325.554 L 173.1 282.887 C 173.2 282.035 172.931 281.183 172.362 280.543 C 171.793 279.903 170.978 279.537 170.121 279.537 L 170.121 279.537 L 170.121 279.537 Z " fill="rgb(0,0,0)"/><path d=" M 163.464 289.211 C 163.464 295.514 159.385 302.435 150.028 303.871 C 155.313 307.445 161.136 309.234 166.917 309.884 L 170.121 282.537 L 158.913 282.537 C 161.412 284.439 163.464 286.749 163.464 289.211 Z " fill="rgb(40,40,40)"/><path d=" M 113.693 305.975 L 115.946 325.204 L 133.245 325.204 L 133.245 305.975 L 113.693 305.975 Z " fill="rgb(117,61,14)"/><path d=" M 111.916 312.363 C 108.623 312.363 105.944 309.683 105.944 306.39 C 105.944 303.097 108.623 300.417 111.916 300.417 L 136.061 300.417 C 139.354 300.417 142.034 303.097 142.034 306.39 C 142.034 309.683 139.354 312.363 136.061 312.363 L 111.916 312.363 Z " fill="rgb(117,61,14)"/><path d=" M 136.061 301.918 C 138.532 301.918 140.534 303.921 140.534 306.391 C 140.534 308.862 138.532 310.864 136.061 310.864 L 111.916 310.864 C 109.446 310.864 107.444 308.862 107.444 306.391 C 107.444 303.921 109.446 301.918 111.916 301.918 L 136.061 301.918 Z  M 136.061 298.918 L 111.916 298.918 C 107.796 298.918 104.444 302.271 104.444 306.391 C 104.444 310.511 107.796 313.864 111.916 313.864 L 136.061 313.864 C 140.181 313.864 143.534 310.511 143.534 306.391 C 143.534 302.271 140.181 298.918 136.061 298.918 L 136.061 298.918 Z " fill="rgb(0,0,0)"/><path d=" M 167.375 305.975 L 165.122 325.204 L 147.823 325.204 L 147.823 305.975 L 167.375 305.975 Z " fill="rgb(117,61,14)"/><path d=" M 112.812 326.703 C 111.983 326.703 111.312 326.031 111.312 325.203 C 111.312 319.189 115.293 314.297 120.186 314.297 L 129.022 314.297 C 133.916 314.297 137.896 319.19 137.896 325.203 C 137.896 326.031 137.224 326.703 136.396 326.703 L 112.812 326.703 Z " fill="rgb(117,61,14)"/><path d=" M 129.022 315.797 C 133.094 315.797 136.396 320.009 136.396 325.203 L 112.812 325.203 C 112.812 320.009 116.114 315.797 120.186 315.797 L 129.022 315.797 Z  M 129.022 312.797 L 120.186 312.797 C 114.466 312.797 109.812 318.362 109.812 325.203 C 109.812 326.86 111.155 328.203 112.812 328.203 L 136.396 328.203 C 138.053 328.203 139.396 326.86 139.396 325.203 C 139.396 318.362 134.743 312.797 129.022 312.797 L 129.022 312.797 Z " fill="rgb(0,0,0)"/><path d=" M 144.629 326.703 C 143.801 326.703 143.129 326.031 143.129 325.203 C 143.129 319.189 147.109 314.297 152.003 314.297 L 160.838 314.297 C 165.732 314.297 169.712 319.19 169.712 325.203 C 169.712 326.031 169.04 326.703 168.212 326.703 L 144.629 326.703 Z " fill="rgb(117,61,14)"/><path d=" M 160.838 315.797 C 164.91 315.797 168.212 320.009 168.212 325.203 L 144.629 325.203 C 144.629 320.009 147.93 315.797 152.003 315.797 L 160.838 315.797 Z  M 160.838 312.797 L 152.003 312.797 C 146.282 312.797 141.629 318.362 141.629 325.203 C 141.629 326.86 142.972 328.203 144.629 328.203 L 168.212 328.203 C 169.869 328.203 171.212 326.86 171.212 325.203 C 171.212 318.362 166.559 312.797 160.838 312.797 L 160.838 312.797 Z " fill="rgb(0,0,0)"/><path d=" M 136.061 301.918 L 125.323 301.918 C 127.41 303.001 129.433 304.456 129.667 306.121 C 129.912 307.869 128.978 309.524 127.016 310.863 L 136.062 310.863 C 138.533 310.863 140.535 308.861 140.535 306.39 C 140.534 303.921 138.532 301.918 136.061 301.918 Z " fill="rgb(81,40,9)"/><path d=" M 145.007 312.363 C 141.714 312.363 139.034 309.683 139.034 306.39 C 139.034 303.097 141.714 300.417 145.007 300.417 L 169.152 300.417 C 172.445 300.417 175.124 303.097 175.124 306.39 C 175.124 309.683 172.445 312.363 169.152 312.363 L 145.007 312.363 Z " fill="rgb(117,61,14)"/><path d=" M 169.152 301.918 C 171.622 301.918 173.624 303.921 173.624 306.391 C 173.624 308.862 171.622 310.864 169.152 310.864 L 145.007 310.864 C 142.536 310.864 140.534 308.862 140.534 306.391 C 140.534 303.921 142.536 301.918 145.007 301.918 L 169.152 301.918 Z  M 169.152 298.918 L 145.007 298.918 C 140.887 298.918 137.534 302.271 137.534 306.391 C 137.534 310.511 140.887 313.864 145.007 313.864 L 169.152 313.864 C 173.272 313.864 176.624 310.511 176.624 306.391 C 176.624 302.271 173.272 298.918 169.152 298.918 L 169.152 298.918 Z " fill="rgb(0,0,0)"/><path d=" M 169.151 301.918 L 158.413 301.918 C 160.5 303.001 162.523 304.456 162.757 306.121 C 163.002 307.869 162.068 309.524 160.106 310.863 L 169.152 310.863 C 171.622 310.863 173.625 308.861 173.625 306.39 C 173.623 303.921 171.62 301.918 169.151 301.918 Z " fill="rgb(81,40,9)"/><path d=" M 136.396 325.203 C 136.396 320.009 133.094 315.797 129.022 315.797 L 126.9 315.797 C 129.65 316.41 131.03 317.934 131.542 319.496 C 132.115 321.246 132.019 323.345 130.918 325.203 L 136.396 325.203 L 136.396 325.203 Z " fill="rgb(81,40,9)"/><path d=" M 168.212 325.203 C 168.212 320.009 164.91 315.797 160.838 315.797 L 158.716 315.797 C 161.467 316.41 162.846 317.934 163.358 319.496 C 163.931 321.246 163.835 323.345 162.734 325.203 L 168.212 325.203 Z " fill="rgb(81,40,9)"/><path d=" M 150.868 282.537 L 170.121 282.537 L 170.121 272.651 L 150.924 272.651 C 153.272 273.99 154.89 275.413 154.918 276.801 C 154.953 278.56 153.45 280.593 150.868 282.537 L 150.868 282.537 Z " fill="rgb(81,40,9)"/><path d=" M 174.759 222.527 L 167.189 216.344 C 164.458 212.64 160.077 210.227 155.122 210.227 L 143.231 210.227 L 142.597 220.616 C 142.597 220.616 171.583 212.706 160.495 271.918 C 163.968 272.159 167.168 271.925 170.121 271.312 L 170.121 254.443 L 174.759 222.527 L 174.759 222.527 Z " fill="rgb(15,15,15)"/><path d=" M 110.946 274.037 C 110.117 274.037 109.446 273.365 109.446 272.537 L 109.446 262.651 C 109.446 261.823 110.117 261.151 110.946 261.151 L 170.122 261.151 C 170.95 261.151 171.622 261.823 171.622 262.651 L 171.622 272.537 C 171.622 273.365 170.95 274.037 170.122 274.037 L 110.946 274.037 Z " fill="rgb(117,61,14)"/><path d=" M 170.121 262.651 L 170.121 272.537 L 110.945 272.537 L 110.945 262.651 L 170.121 262.651 Z  M 170.121 259.651 L 110.945 259.651 C 109.288 259.651 107.945 260.994 107.945 262.651 L 107.945 272.537 C 107.945 274.194 109.288 275.537 110.945 275.537 L 170.121 275.537 C 171.778 275.537 173.121 274.194 173.121 272.537 L 173.121 262.651 C 173.121 260.994 171.779 259.651 170.121 259.651 L 170.121 259.651 Z " fill="rgb(0,0,0)"/><path d=" M 137.856 270.906 C 135.167 270.906 132.979 268.718 132.979 266.029 C 132.979 263.34 135.167 261.151 137.856 261.151 L 145.32 261.151 C 148.009 261.151 150.198 263.339 150.198 266.029 C 150.198 268.719 148.01 270.906 145.32 270.906 L 137.856 270.906 Z " fill="rgb(117,61,14)"/><path d=" M 145.32 262.651 C 147.185 262.651 148.698 264.163 148.698 266.029 C 148.698 267.894 147.185 269.406 145.32 269.406 L 137.856 269.406 C 135.991 269.406 134.479 267.894 134.479 266.029 C 134.479 264.163 135.991 262.651 137.856 262.651 L 145.32 262.651 M 145.32 259.651 L 137.856 259.651 C 134.339 259.651 131.479 262.512 131.479 266.029 C 131.479 269.546 134.339 272.406 137.856 272.406 L 145.32 272.406 C 148.837 272.406 151.698 269.546 151.698 266.029 C 151.698 262.512 148.836 259.651 145.32 259.651 L 145.32 259.651 Z " fill="rgb(0,0,0)"/><path d=" M 137.26 266.476 C 137.26 267.34 136.559 268.041 135.694 268.041 L 130.388 268.041 C 129.524 268.041 128.823 267.34 128.823 266.476 L 128.823 266.476 C 128.823 265.611 129.524 264.91 130.388 264.91 L 135.694 264.91 C 136.559 264.91 137.26 265.611 137.26 266.476 L 137.26 266.476 Z " fill="rgb(0,0,0)"/><rect x="109.446" y="271.151" width="62.267" height="23.039" transform="matrix(1,0,0,1,0,0)" fill="rgb(38,38,38)"/><path d=" M 170.212 272.651 L 170.212 292.69 L 110.945 292.69 L 110.945 272.651 L 170.212 272.651 Z  M 173.212 269.651 L 170.212 269.651 L 110.945 269.651 L 107.945 269.651 L 107.945 272.651 L 107.945 292.69 L 107.945 295.69 L 110.945 295.69 L 170.212 295.69 L 173.212 295.69 L 173.212 292.69 L 173.212 272.651 L 173.212 269.651 L 173.212 269.651 Z " fill="rgb(0,0,0)"/><g id="bow"><g id="Group"><rect x="13.005" y="144.758" width="139" height="190" transform="matrix(1,0,0,1,0,0)" fill="none"/></g><g id="Group"><path d=" M 129.244 319.249 C 128.979 319.249 128.711 319.179 128.469 319.032 C 127.801 318.628 127.554 317.778 127.904 317.079 C 128.55 315.784 129.181 314.43 129.363 313.141 C 129.324 313.036 129.296 312.924 129.28 312.808 C 129.007 310.703 127.448 308.943 124.513 307.43 L 123.672 307.078 L 122.351 306.599 C 120.98 306.106 119.553 305.591 118.13 305.06 C 113.789 303.851 108.704 302.953 103.321 302.001 C 95.642 300.644 87.702 299.24 81.414 296.793 C 73.831 293.843 49.059 283.511 48.674 274.429 C 48.567 271.893 50.158 269.801 53.405 268.21 C 67.347 261.377 66.702 257.103 65.003 253.632 C 64.966 253.558 64.937 253.482 64.913 253.403 L 64.828 253.242 C 64.788 253.183 64.752 253.123 64.721 253.058 L 64.603 252.818 C 64.574 252.758 64.548 252.698 64.528 252.636 L 64.028 251.534 C 63.948 251.44 63.879 251.335 63.822 251.22 C 62.516 248.556 60.759 247.419 57.947 247.419 C 54.905 247.419 50.734 248.738 45.195 251.452 C 43.591 252.238 42.178 252.621 40.878 252.621 C 39.076 252.621 37.55 251.852 36.465 250.399 C 31.055 243.15 37.626 219.025 39.769 211.804 C 41.686 205.34 45.437 198.209 49.065 191.314 C 54.247 181.465 59.602 171.286 57.585 165.979 C 57.432 165.788 57.276 165.627 57.113 165.491 C 55.917 164.477 54.097 164.058 52.335 163.715 C 51.569 163.566 51.045 162.854 51.131 162.078 C 51.215 161.316 51.859 160.743 52.621 160.743 C 52.635 160.743 52.649 160.743 52.663 160.743 C 53.938 160.779 54.978 160.884 55.937 161.074 C 56.689 161.222 57.413 161.441 58.085 161.723 C 58.581 161.929 58.993 162.14 59.377 162.386 C 60.503 163.1 61.46 164.187 62.07 165.446 C 62.56 166.509 62.845 167.671 62.979 169.13 C 63.011 169.767 63.019 170.372 63.004 170.934 L 62.902 172.321 C 62.899 172.362 62.894 172.403 62.888 172.444 L 62.59 174.244 L 62.26 175.805 L 62.062 176.716 C 61.701 178.378 61.344 180.018 61.023 181.662 L 60.852 182.585 C 60.543 184.245 60.251 185.814 60.06 187.415 C 59.832 188.852 59.711 190.295 59.594 191.69 C 59.55 192.212 59.506 192.736 59.457 193.257 C 59.426 193.731 59.411 194.245 59.396 194.76 C 59.382 195.222 59.369 195.684 59.343 196.145 L 59.313 196.845 C 59.279 197.573 59.247 198.259 59.28 198.934 C 59.297 199.536 59.303 200.102 59.309 200.668 C 59.325 202.073 59.339 203.4 59.482 204.728 L 59.716 207.705 C 59.75 208.284 59.836 208.849 59.928 209.445 C 59.985 209.815 60.041 210.185 60.086 210.554 L 60.48 213.446 C 60.538 213.95 60.633 214.423 60.71 214.783 L 61.007 216.244 C 61.13 216.817 61.245 217.407 61.361 217.998 C 61.624 219.344 61.872 220.615 62.24 221.868 L 63.001 224.758 C 63.093 225.075 63.184 225.43 63.274 225.784 C 63.424 226.374 63.566 226.93 63.758 227.454 L 65.617 233.108 C 65.796 233.71 66.025 234.271 66.267 234.866 C 66.394 235.179 66.52 235.491 66.64 235.805 L 67.72 238.534 L 68.799 241.286 L 72.43 249.175 L 76.463 256.829 L 77.943 259.289 L 79.458 261.83 C 79.628 262.101 79.806 262.406 79.985 262.711 C 80.302 263.252 80.602 263.763 80.938 264.22 L 84.284 269.148 C 84.618 269.682 84.984 270.147 85.37 270.639 C 85.584 270.91 85.797 271.183 86.003 271.46 L 87.784 273.778 C 88.567 274.868 89.423 275.832 90.328 276.852 C 90.73 277.304 91.132 277.757 91.525 278.218 L 92.482 279.31 C 92.846 279.734 93.126 280.036 93.399 280.3 L 95.49 282.407 C 95.737 282.65 95.987 282.912 96.238 283.173 C 96.664 283.617 97.066 284.038 97.49 284.405 L 99.7 286.395 C 100.695 287.343 101.736 288.163 102.838 289.03 C 103.285 289.383 103.734 289.735 104.177 290.095 C 104.712 290.544 105.274 290.936 105.868 291.35 L 106.476 291.778 C 106.826 292.018 107.191 292.282 107.556 292.547 C 107.983 292.856 108.41 293.165 108.849 293.459 C 109.246 293.708 109.677 293.984 110.108 294.261 C 111.296 295.024 112.523 295.811 113.762 296.482 C 114.009 296.628 114.206 296.733 114.403 296.838 L 114.774 297.041 L 121.966 300.27 C 122.025 300.296 122.082 300.327 122.137 300.36 L 125.213 302.25 L 125.777 302.522 L 127.161 303.259 C 127.592 303.499 127.937 303.726 128.285 303.955 L 128.63 304.182 C 129.014 304.463 129.327 304.712 129.63 304.96 L 129.73 305.021 C 129.883 305.113 130.018 305.23 130.128 305.368 C 131.199 306.374 131.927 307.291 132.443 308.275 C 133.084 309.544 133.365 310.965 133.246 312.3 C 133.142 313.448 132.795 314.602 132.186 315.827 C 131.758 316.692 131.208 317.582 130.458 318.623 C 130.17 319.03 129.711 319.249 129.244 319.249 L 129.244 319.249 Z " fill="rgb(229,167,28)"/><path d=" M 52.62 162.245 C 53.627 162.273 54.639 162.349 55.644 162.548 C 56.268 162.671 56.898 162.855 57.503 163.109 C 57.867 163.26 58.225 163.433 58.569 163.653 C 59.479 164.23 60.234 165.102 60.718 166.102 C 61.184 167.112 61.385 168.193 61.484 169.269 C 61.509 169.804 61.517 170.371 61.504 170.897 L 61.448 171.649 L 61.419 172.027 L 61.405 172.215 L 61.369 172.446 L 61.109 173.998 L 60.792 175.495 C 60.362 177.478 59.932 179.424 59.551 181.377 C 59.192 183.334 58.806 185.275 58.571 187.238 C 58.26 189.186 58.147 191.16 57.964 193.12 C 57.899 194.099 57.901 195.085 57.846 196.063 C 57.81 197.044 57.734 198.025 57.783 199.01 C 57.835 200.973 57.781 202.934 57.992 204.891 L 58.221 207.824 C 58.278 208.8 58.48 209.767 58.598 210.738 L 58.994 213.65 C 59.05 214.14 59.141 214.622 59.244 215.099 L 59.538 216.544 C 59.947 218.46 60.246 220.4 60.801 222.291 L 61.551 225.141 C 61.823 226.083 62.01 227.047 62.352 227.974 L 64.193 233.578 C 64.472 234.519 64.889 235.419 65.239 236.34 L 66.327 239.089 L 67.404 241.837 L 68.641 244.53 L 71.069 249.804 L 73.755 254.908 L 75.139 257.531 L 76.66 260.063 L 78.173 262.6 C 78.694 263.433 79.151 264.318 79.733 265.11 L 83.046 269.992 C 83.567 270.829 84.217 271.566 84.802 272.355 L 86.599 274.694 C 87.746 276.293 89.113 277.699 90.388 279.194 L 91.358 280.3 C 91.678 280.673 92.005 281.036 92.359 281.379 L 94.43 283.466 C 95.127 284.154 95.773 284.901 96.512 285.541 L 98.7 287.512 C 100.122 288.869 101.708 290.022 103.235 291.262 C 103.989 291.896 104.81 292.433 105.61 293.002 C 106.418 293.558 107.2 294.159 108.018 294.707 C 109.682 295.754 111.316 296.863 113.052 297.803 C 113.4 298.01 113.76 298.191 114.112 298.388 L 121.356 301.64 L 124.497 303.569 L 125.13 303.875 L 126.46 304.585 C 126.97 304.869 127.371 305.154 127.822 305.445 C 128.142 305.682 128.458 305.936 128.768 306.192 L 128.963 306.309 C 128.963 306.309 128.976 306.335 128.996 306.37 C 129.022 306.392 129.051 306.413 129.076 306.435 C 129.867 307.171 130.603 307.99 131.119 308.973 C 131.621 309.967 131.852 311.096 131.757 312.168 C 131.659 313.246 131.304 314.244 130.848 315.162 C 130.395 316.078 129.836 316.93 129.246 317.748 C 130.139 315.961 131 314.047 130.909 312.148 C 130.882 311.462 130.715 310.805 130.431 310.205 C 130.612 310.969 130.745 311.787 130.768 312.615 C 130.4 309.774 128.318 307.691 125.146 306.068 L 124.25 305.694 L 122.864 305.189 C 121.473 304.689 120.031 304.168 118.594 303.631 C 107.881 300.636 92.436 299.472 81.957 295.395 C 64.899 288.758 40.631 276.139 54.064 269.556 C 67.494 262.974 68.828 258.035 66.349 252.972 L 66.643 253.465 L 66.073 252.39 L 66.065 252.396 L 65.947 252.156 L 65.955 252.155 L 64.793 249.595 L 65.167 250.56 C 63.799 247.771 61.754 245.919 57.946 245.919 C 54.842 245.919 50.566 247.15 44.533 250.106 C 43.117 250.8 41.906 251.122 40.876 251.122 C 32.137 251.122 36.547 227.927 41.205 212.232 C 46.018 196.003 62.949 174.914 58.899 165.233 C 58.661 164.909 58.388 164.603 58.068 164.337 C 56.618 163.108 54.577 162.626 52.62 162.245 M 52.618 159.245 C 51.095 159.245 49.806 160.391 49.638 161.915 C 49.467 163.467 50.514 164.891 52.047 165.189 C 53.546 165.481 55.221 165.856 56.13 166.626 C 56.177 166.666 56.222 166.707 56.265 166.751 C 57.784 171.522 52.454 181.653 47.738 190.618 C 44.076 197.578 40.29 204.775 38.331 211.38 C 35.52 220.852 29.595 243.703 35.263 251.298 C 36.642 253.147 38.584 254.123 40.878 254.123 C 42.412 254.123 44.04 253.69 45.855 252.802 C 51.11 250.227 55.179 248.921 57.947 248.921 C 60.189 248.921 61.416 249.724 62.474 251.882 C 62.55 252.036 62.637 252.181 62.733 252.316 L 63.136 253.203 C 63.171 253.298 63.211 253.391 63.256 253.482 L 63.374 253.722 C 63.422 253.82 63.475 253.913 63.532 254.004 C 63.568 254.102 63.609 254.197 63.656 254.293 C 64.722 256.472 66.508 260.118 52.745 266.863 C 47.974 269.202 47.083 272.302 47.176 274.493 C 47.572 283.861 68.457 293.362 80.87 298.192 C 87.296 300.692 95.31 302.109 103.06 303.478 C 108.38 304.418 113.408 305.307 117.666 306.488 C 119.074 307.013 120.486 307.523 121.849 308.013 L 123.158 308.49 L 123.878 308.791 C 127.49 310.669 127.717 312.422 127.793 313.002 C 127.802 313.071 127.813 313.14 127.827 313.207 C 127.62 314.228 127.079 315.373 126.562 316.408 C 125.864 317.806 126.356 319.507 127.694 320.316 C 128.178 320.608 128.714 320.749 129.244 320.749 C 130.179 320.749 131.097 320.312 131.68 319.503 C 132.48 318.394 133.07 317.437 133.537 316.493 C 134.228 315.101 134.624 313.774 134.745 312.439 C 134.889 310.826 134.552 309.116 133.797 307.621 C 133.199 306.479 132.404 305.462 131.288 304.397 C 131.074 304.137 130.814 303.921 130.506 303.737 L 130.5 303.733 C 130.242 303.523 129.932 303.275 129.607 303.035 C 129.555 302.996 129.502 302.959 129.447 302.924 L 129.116 302.707 C 128.775 302.482 128.389 302.227 127.919 301.965 C 127.903 301.956 127.887 301.947 127.871 301.939 L 126.541 301.229 C 126.505 301.209 126.47 301.192 126.433 301.174 L 125.936 300.934 L 122.924 299.084 C 122.814 299.017 122.7 298.956 122.583 298.903 L 115.455 295.704 C 115.342 295.641 115.229 295.581 115.115 295.519 C 114.938 295.424 114.76 295.33 114.586 295.226 C 114.55 295.205 114.515 295.184 114.479 295.164 C 113.289 294.52 112.139 293.782 110.921 293.001 C 110.498 292.73 110.076 292.458 109.651 292.191 C 109.24 291.915 108.838 291.624 108.438 291.333 C 108.063 291.062 107.688 290.792 107.309 290.53 C 107.143 290.411 106.935 290.266 106.728 290.122 C 106.162 289.727 105.627 289.355 105.164 288.966 C 105.151 288.954 105.138 288.944 105.124 288.933 C 104.675 288.569 104.221 288.211 103.768 287.854 C 102.695 287.01 101.681 286.212 100.77 285.342 C 100.749 285.321 100.728 285.302 100.706 285.282 L 98.518 283.311 C 98.504 283.298 98.49 283.286 98.476 283.273 C 98.104 282.952 97.725 282.555 97.324 282.137 C 97.064 281.866 96.804 281.594 96.537 281.33 L 94.487 279.265 C 94.473 279.251 94.46 279.238 94.446 279.225 C 94.207 278.993 93.956 278.721 93.633 278.345 L 92.643 277.215 C 92.27 276.777 91.861 276.317 91.454 275.857 C 90.575 274.867 89.745 273.931 89.036 272.944 C 89.017 272.918 88.998 272.891 88.978 272.865 L 87.196 270.547 C 86.987 270.265 86.77 269.988 86.553 269.713 C 86.192 269.254 85.851 268.82 85.593 268.404 C 85.572 268.371 85.551 268.339 85.529 268.306 L 82.216 263.424 C 82.195 263.393 82.173 263.362 82.151 263.332 C 81.861 262.937 81.581 262.459 81.283 261.952 C 81.103 261.644 80.922 261.338 80.735 261.036 L 79.238 258.525 L 77.756 256.055 L 76.411 253.506 L 73.764 248.475 L 71.369 243.273 L 70.168 240.659 L 69.122 237.991 L 68.031 235.233 C 67.923 234.946 67.791 234.623 67.66 234.299 C 67.432 233.739 67.217 233.211 67.072 232.721 C 67.064 232.694 67.055 232.665 67.046 232.638 L 65.205 227.034 C 65.194 227 65.182 226.966 65.169 226.932 C 65.003 226.483 64.871 225.962 64.731 225.411 C 64.64 225.054 64.548 224.695 64.446 224.341 L 63.705 221.524 C 63.698 221.497 63.69 221.47 63.683 221.443 C 63.335 220.257 63.093 219.019 62.837 217.708 C 62.72 217.109 62.603 216.511 62.475 215.914 L 62.187 214.498 C 62.11 214.14 62.024 213.714 61.978 213.308 C 61.976 213.287 61.973 213.264 61.97 213.243 L 61.574 210.331 C 61.532 209.987 61.474 209.602 61.415 209.217 C 61.329 208.655 61.247 208.125 61.22 207.648 C 61.219 207.627 61.217 207.608 61.216 207.587 L 60.987 204.654 C 60.985 204.625 60.982 204.596 60.979 204.567 C 60.843 203.311 60.829 202.019 60.814 200.651 C 60.808 200.078 60.801 199.503 60.786 198.928 C 60.786 198.905 60.785 198.882 60.783 198.859 C 60.753 198.256 60.784 197.604 60.816 196.914 C 60.827 196.676 60.838 196.437 60.847 196.198 C 60.872 195.734 60.886 195.269 60.9 194.803 C 60.915 194.32 60.928 193.836 60.959 193.355 C 61.007 192.842 61.05 192.329 61.093 191.814 C 61.213 190.383 61.327 189.031 61.538 187.708 C 61.544 187.669 61.55 187.631 61.554 187.593 C 61.741 186.039 62.028 184.493 62.332 182.858 L 62.506 181.917 C 62.817 180.325 63.164 178.727 63.532 177.034 L 63.729 176.128 L 64.049 174.618 C 64.058 174.576 64.066 174.534 64.073 174.491 L 64.333 172.939 L 64.374 172.675 C 64.387 172.593 64.396 172.512 64.402 172.43 L 64.416 172.242 L 64.444 171.878 L 64.5 171.116 C 64.503 171.068 64.506 171.02 64.507 170.972 C 64.522 170.386 64.515 169.747 64.485 169.124 C 64.483 169.08 64.48 169.036 64.476 168.992 C 64.327 167.358 63.999 166.039 63.447 164.842 C 63.439 164.825 63.431 164.808 63.423 164.791 C 62.693 163.284 61.541 161.979 60.18 161.116 C 59.732 160.83 59.232 160.574 58.659 160.335 C 57.902 160.018 57.081 159.77 56.228 159.602 C 55.188 159.396 54.069 159.282 52.708 159.244 C 52.675 159.246 52.647 159.245 52.618 159.245 L 52.618 159.245 L 52.618 159.245 Z " fill="rgb(0,0,0)"/><path d=" M 129.075 306.436 C 128.671 306.099 128.249 305.759 127.82 305.446 C 127.369 305.155 126.967 304.87 126.458 304.586 L 125.128 303.876 L 123.733 303.203 C 121.865 302.324 120.084 301.489 118.297 300.597 C 116.524 299.69 114.752 298.818 113.05 297.805 C 111.314 296.866 109.68 295.756 108.016 294.709 C 107.198 294.161 106.415 293.56 105.608 293.004 C 104.808 292.435 103.987 291.898 103.233 291.264 C 101.706 290.024 100.12 288.871 98.698 287.514 L 96.51 285.543 C 95.771 284.902 95.125 284.156 94.428 283.468 L 92.357 281.381 C 92.003 281.038 91.676 280.675 91.356 280.302 L 90.386 279.196 C 89.111 277.701 87.744 276.295 86.597 274.696 L 84.8 272.357 C 84.215 271.568 83.566 270.831 83.044 269.994 L 79.731 265.112 C 79.149 264.32 78.692 263.435 78.171 262.602 L 76.658 260.065 L 75.137 257.533 L 73.753 254.91 L 71.067 249.806 L 68.639 244.532 L 67.402 241.839 L 66.325 239.091 L 65.237 236.342 C 64.887 235.421 64.47 234.522 64.191 233.58 L 62.35 227.976 C 62.008 227.049 61.822 226.085 61.549 225.143 L 60.799 222.293 C 60.244 220.402 59.945 218.462 59.536 216.546 L 59.242 215.101 C 59.139 214.623 59.048 214.142 58.992 213.652 L 58.596 210.74 C 58.478 209.769 58.276 208.802 58.219 207.826 L 57.99 204.893 C 57.779 202.936 57.833 200.975 57.781 199.012 C 57.732 198.027 57.808 197.046 57.844 196.065 C 57.899 195.086 57.897 194.1 57.962 193.122 C 58.146 191.162 58.259 189.188 58.569 187.24 C 58.804 185.277 59.19 183.336 59.549 181.379 C 59.93 179.426 60.361 177.481 60.79 175.497 L 61.107 174 L 61.367 172.448 L 61.403 172.217 L 61.417 172.029 L 61.446 171.651 L 61.502 170.899 C 61.516 170.373 61.508 169.806 61.482 169.271 C 61.383 168.195 61.182 167.114 60.716 166.104 C 60.232 165.104 59.477 164.232 58.567 163.655 C 58.222 163.435 57.867 163.261 57.501 163.111 C 57.458 163.348 57.403 163.583 57.327 163.813 C 57.584 163.971 57.834 164.145 58.066 164.341 C 58.784 164.94 59.303 165.708 59.598 166.566 C 59.877 167.433 59.946 168.365 59.924 169.301 C 59.885 169.765 59.843 170.206 59.781 170.68 L 59.644 171.425 L 59.579 171.792 L 59.546 171.981 C 59.542 171.968 59.522 172.08 59.505 172.121 L 59.13 173.517 L 58.683 174.942 C 58.314 176.091 57.94 177.257 57.572 178.431 C 57.254 179.895 56.941 181.351 56.66 182.803 C 56.296 184.757 55.916 186.7 55.679 188.663 C 55.367 190.615 55.253 192.587 55.07 194.543 C 55.007 195.524 55.009 196.511 54.952 197.491 C 54.918 198.473 54.845 199.45 54.888 200.433 C 54.94 202.399 54.887 204.358 55.101 206.317 L 55.332 209.245 C 55.387 210.225 55.587 211.193 55.708 212.167 L 56.104 215.077 C 56.159 215.565 56.25 216.044 56.352 216.525 L 56.646 217.968 C 57.056 219.888 57.355 221.824 57.909 223.715 L 58.661 226.564 C 58.93 227.508 59.118 228.473 59.459 229.399 L 61.304 235.004 C 61.579 235.945 61.997 236.844 62.346 237.766 L 63.435 240.512 L 64.513 243.265 L 65.75 245.954 L 68.18 251.23 L 70.866 256.336 L 72.245 258.958 L 73.768 261.487 L 75.282 264.026 C 75.8 264.863 76.259 265.741 76.835 266.536 L 80.154 271.418 C 80.676 272.252 81.324 272.99 81.908 273.781 L 83.703 276.116 C 84.856 277.716 86.22 279.128 87.496 280.618 L 88.464 281.725 C 88.786 282.097 89.113 282.464 89.466 282.8 L 91.537 284.892 C 92.233 285.576 92.879 286.323 93.622 286.966 L 95.807 288.935 C 97.232 290.291 98.818 291.448 100.342 292.682 C 101.095 293.319 101.916 293.858 102.716 294.424 C 103.528 294.979 104.31 295.584 105.127 296.129 C 106.792 297.179 108.426 298.289 110.158 299.226 C 111.858 300.237 113.636 301.114 115.404 302.018 C 116.691 302.663 117.986 303.277 119.3 303.898 C 120.5 304.337 121.699 304.772 122.863 305.19 L 124.249 305.695 L 125.639 306.274 C 126.03 306.444 126.476 306.703 126.899 306.906 C 127.311 307.137 127.709 307.395 128.106 307.649 C 128.863 308.2 129.559 308.821 130.08 309.578 C 130.578 310.334 130.871 311.215 130.908 312.149 C 130.923 312.451 130.905 312.754 130.877 313.057 C 131.105 313.135 131.321 313.232 131.536 313.342 C 131.637 312.965 131.719 312.571 131.756 312.168 C 131.852 311.096 131.62 309.967 131.118 308.973 C 130.602 307.99 129.866 307.172 129.075 306.436 L 129.075 306.436 Z " fill="rgb(168,118,17)"/><rect x="95.244" y="156.914" width="0.705" height="162.555" transform="matrix(0.897,-0.442,0.442,0.897,-95.376,66.717)" fill="rgb(0,0,0)"/><path d=" M 52.621 168.712 C 50.135 168.712 47.912 167.328 46.819 165.099 C 46.055 163.552 45.94 161.798 46.496 160.162 C 47.052 158.527 48.211 157.206 49.762 156.444 C 50.658 156.002 51.619 155.777 52.616 155.777 C 55.097 155.777 57.321 157.16 58.419 159.386 C 59.182 160.936 59.296 162.69 58.741 164.325 C 58.185 165.962 57.026 167.283 55.475 168.045 C 54.579 168.487 53.618 168.712 52.621 168.712 Z " fill="rgb(229,167,28)"/><path d=" M 52.615 157.276 C 54.447 157.276 56.208 158.296 57.073 160.048 C 58.284 162.507 57.274 165.487 54.813 166.697 C 54.107 167.046 53.358 167.211 52.621 167.211 C 50.789 167.211 49.027 166.193 48.166 164.438 C 46.951 161.977 47.962 159 50.424 157.79 C 51.129 157.441 51.878 157.276 52.615 157.276 Z  M 52.615 154.276 L 52.615 154.276 C 51.386 154.276 50.201 154.553 49.095 155.1 C 47.189 156.037 45.761 157.664 45.076 159.679 C 44.391 161.695 44.533 163.856 45.476 165.766 C 46.819 168.505 49.559 170.211 52.621 170.211 C 53.833 170.211 55.05 169.926 56.142 169.387 C 58.048 168.45 59.476 166.822 60.162 164.805 C 60.846 162.79 60.705 160.63 59.766 158.722 C 58.41 155.979 55.671 154.276 52.615 154.276 L 52.615 154.276 Z " fill="rgb(0,0,0)"/><path d=" M 129.249 324.214 C 126.764 324.214 124.54 322.831 123.445 320.605 C 122.682 319.055 122.568 317.301 123.123 315.666 C 123.678 314.031 124.838 312.71 126.388 311.948 C 127.286 311.505 128.248 311.28 129.245 311.28 C 131.727 311.28 133.95 312.662 135.046 314.887 C 136.619 318.085 135.3 321.969 132.105 323.547 C 131.205 323.99 130.245 324.214 129.249 324.214 Z " fill="rgb(229,167,28)"/><path d=" M 129.246 312.779 C 131.078 312.779 132.837 313.796 133.701 315.55 C 134.912 318.011 133.901 320.988 131.441 322.202 C 130.735 322.55 129.986 322.714 129.25 322.714 C 127.417 322.714 125.655 321.697 124.792 319.943 C 123.579 317.48 124.591 314.504 127.051 313.294 C 127.757 312.944 128.507 312.779 129.246 312.779 M 129.246 309.779 C 129.246 309.779 129.246 309.779 129.246 309.779 C 128.016 309.779 126.831 310.055 125.724 310.602 C 123.817 311.54 122.388 313.166 121.703 315.182 C 121.018 317.197 121.16 319.358 122.1 321.267 C 123.448 324.009 126.188 325.713 129.249 325.713 C 130.459 325.713 131.675 325.43 132.766 324.893 C 136.705 322.948 138.33 318.163 136.392 314.225 C 135.041 311.482 132.303 309.779 129.246 309.779 L 129.246 309.779 L 129.246 309.779 Z " fill="rgb(0,0,0)"/><path d=" M 65.617 251.411 L 65.617 251.411 L 65.617 251.411 L 65.617 251.411 Z " fill="rgb(168,118,17)"/><path d=" M 44.534 250.107 C 56.608 244.192 61.635 245.197 64.331 249.133 C 60.489 243.171 54.458 241.105 42.84 244.961 C 40.012 245.902 37.818 245.803 36.124 245.068 C 36.857 250.141 39.3 252.673 44.534 250.107 Z " fill="rgb(168,118,17)"/><path d=" M 64.829 249.93 C 64.94 250.137 65.058 250.343 65.168 250.562 L 65.161 250.55 C 65.05 250.343 64.942 250.13 64.829 249.93 Z " fill="rgb(168,118,17)"/><path d=" M 80.959 291.417 C 68.679 287.378 57.508 277.903 51.139 271.701 C 45.418 278.601 66.605 289.423 81.957 295.396 C 92.436 299.473 107.881 300.637 118.594 303.632 C 120.031 304.169 121.473 304.69 122.864 305.19 C 108.024 298.356 99.97 297.672 80.959 291.417 L 80.959 291.417 Z " fill="rgb(168,118,17)"/><path d=" M 25.59 248.673 C 24.887 248.673 24.269 248.186 24.116 247.499 C 23.988 246.921 24.205 246.333 24.658 245.984 C 26.45 244.233 45.281 226.359 69.663 223.789 C 69.703 223.783 69.742 223.779 69.782 223.776 C 69.824 223.773 69.865 223.771 69.906 223.771 C 70.553 223.771 71.14 224.191 71.338 224.826 C 71.524 225.424 71.318 226.057 70.851 226.436 C 53.709 244.486 27.506 248.418 25.857 248.649 C 25.772 248.664 25.686 248.671 25.6 248.671 C 25.597 248.672 25.59 248.673 25.59 248.673 Z " fill="rgb(234,234,234)"/><path d=" M 69.9 225.261 C 69.895 225.265 69.893 225.27 69.887 225.274 C 69.894 225.274 69.9 225.273 69.906 225.272 L 69.875 225.287 C 52.84 243.329 26.395 247.063 25.609 247.171 L 25.577 247.186 C 25.577 247.186 25.589 247.176 25.591 247.174 C 25.588 247.174 25.572 247.175 25.572 247.175 L 25.603 247.16 C 26.165 246.601 45.19 227.856 69.87 225.276 L 69.9 225.261 M 69.898 222.261 C 69.705 222.261 69.511 222.28 69.318 222.318 C 44.262 225.042 25.023 243.523 23.551 244.97 C 23.511 245.007 23.472 245.045 23.435 245.084 C 22.472 246.064 22.292 247.595 23.037 248.78 C 23.602 249.678 24.575 250.184 25.579 250.184 C 25.802 250.184 26.027 250.16 26.249 250.108 C 29.162 249.675 54.964 245.392 71.995 227.411 C 72.026 227.381 72.056 227.349 72.084 227.318 C 73.011 226.336 73.177 224.831 72.438 223.66 C 71.871 222.763 70.899 222.261 69.898 222.261 L 69.898 222.261 Z " fill="rgb(0,0,0)"/><path d=" M 23.625 227.856 C 22.966 227.856 22.377 227.422 22.187 226.781 C 22.013 226.19 22.218 225.564 22.683 225.189 C 24.02 223.89 37.289 211.395 54.319 209.596 C 54.35 209.592 54.381 209.588 54.411 209.586 C 54.454 209.582 54.498 209.58 54.541 209.58 C 55.163 209.58 55.738 209.969 55.955 210.579 C 56.168 211.18 55.976 211.832 55.511 212.225 C 43.488 224.868 25.149 227.654 23.895 227.831 C 23.875 227.834 23.786 227.846 23.761 227.849 C 23.717 227.854 23.671 227.856 23.625 227.856 Z " fill="rgb(234,234,234)"/><path d=" M 54.54 211.074 C 54.537 211.077 54.535 211.079 54.532 211.083 C 54.537 211.083 54.54 211.082 54.544 211.081 L 54.523 211.091 C 42.644 223.673 24.201 226.278 23.652 226.353 L 23.631 226.363 C 23.631 226.363 23.639 226.357 23.641 226.355 C 23.639 226.356 23.628 226.357 23.628 226.357 L 23.649 226.346 C 24.042 225.957 37.309 212.884 54.521 211.084 L 54.54 211.074 M 54.538 208.074 C 54.36 208.074 54.182 208.09 54.004 208.122 C 36.354 210.056 22.697 223.079 21.59 224.161 C 21.57 224.18 21.551 224.198 21.531 224.218 C 20.554 225.171 20.335 226.689 21.048 227.892 C 21.604 228.83 22.6 229.363 23.631 229.363 C 23.841 229.363 24.053 229.342 24.263 229.296 C 26.512 228.957 44.637 225.878 56.644 213.214 C 56.663 213.194 56.682 213.176 56.701 213.156 C 57.698 212.121 57.822 210.522 56.991 209.344 C 56.412 208.525 55.487 208.074 54.538 208.074 L 54.538 208.074 Z " fill="rgb(0,0,0)"/><path d=" M 25.59 248.673 C 24.887 248.673 24.269 248.186 24.116 247.499 C 23.988 246.921 24.205 246.333 24.658 245.984 C 26.45 244.233 45.281 226.359 69.663 223.789 C 69.703 223.783 69.742 223.779 69.782 223.776 C 69.824 223.773 69.865 223.771 69.906 223.771 C 70.553 223.771 71.14 224.191 71.338 224.826 C 71.524 225.424 71.318 226.057 70.851 226.436 C 53.709 244.486 27.506 248.418 25.857 248.649 C 25.772 248.664 25.686 248.671 25.6 248.671 C 25.597 248.672 25.59 248.673 25.59 248.673 Z " fill="rgb(229,167,28)"/><path d=" M 69.9 225.261 C 69.895 225.265 69.893 225.27 69.887 225.274 C 69.894 225.274 69.9 225.273 69.906 225.272 L 69.875 225.287 C 52.84 243.329 26.395 247.063 25.609 247.171 L 25.577 247.186 C 25.577 247.186 25.589 247.176 25.591 247.174 C 25.588 247.174 25.572 247.175 25.572 247.175 L 25.603 247.16 C 26.165 246.601 45.19 227.856 69.87 225.276 L 69.9 225.261 M 69.898 222.261 C 69.705 222.261 69.511 222.28 69.318 222.318 C 44.262 225.042 25.023 243.523 23.551 244.97 C 23.511 245.007 23.472 245.045 23.435 245.084 C 22.472 246.064 22.292 247.595 23.037 248.78 C 23.602 249.678 24.575 250.184 25.579 250.184 C 25.802 250.184 26.027 250.16 26.249 250.108 C 29.162 249.675 54.964 245.392 71.995 227.411 C 72.026 227.381 72.056 227.349 72.084 227.318 C 73.011 226.336 73.177 224.831 72.438 223.66 C 71.871 222.763 70.899 222.261 69.898 222.261 L 69.898 222.261 Z " fill="rgb(0,0,0)"/><path d=" M 23.625 227.856 C 22.966 227.856 22.377 227.422 22.187 226.781 C 22.013 226.19 22.218 225.564 22.683 225.189 C 24.02 223.89 37.289 211.395 54.319 209.596 C 54.35 209.592 54.381 209.588 54.411 209.586 C 54.454 209.582 54.498 209.58 54.541 209.58 C 55.163 209.58 55.738 209.969 55.955 210.579 C 56.168 211.18 55.976 211.832 55.511 212.225 C 43.488 224.868 25.149 227.654 23.895 227.831 C 23.875 227.834 23.786 227.846 23.761 227.849 C 23.717 227.854 23.671 227.856 23.625 227.856 Z " fill="rgb(229,167,28)"/><path d=" M 54.54 211.074 C 54.537 211.077 54.535 211.079 54.532 211.083 C 54.537 211.083 54.54 211.082 54.544 211.081 L 54.523 211.091 C 42.644 223.673 24.201 226.278 23.652 226.353 L 23.631 226.363 C 23.631 226.363 23.639 226.357 23.641 226.355 C 23.639 226.356 23.628 226.357 23.628 226.357 L 23.649 226.346 C 24.042 225.957 37.309 212.884 54.521 211.084 L 54.54 211.074 M 54.538 208.074 C 54.36 208.074 54.182 208.09 54.004 208.122 C 36.354 210.056 22.697 223.079 21.59 224.161 C 21.57 224.18 21.551 224.198 21.531 224.218 C 20.554 225.171 20.335 226.689 21.048 227.892 C 21.604 228.83 22.6 229.363 23.631 229.363 C 23.841 229.363 24.053 229.342 24.263 229.296 C 26.512 228.957 44.637 225.878 56.644 213.214 C 56.663 213.194 56.682 213.176 56.701 213.156 C 57.698 212.121 57.822 210.522 56.991 209.344 C 56.412 208.525 55.487 208.074 54.538 208.074 L 54.538 208.074 Z " fill="rgb(0,0,0)"/><path d=" M 45.063 288.104 C 44.41 288.104 43.822 287.677 43.628 287.039 C 43.444 286.434 43.662 285.79 44.149 285.416 C 45.925 283.682 64.794 265.789 89.151 263.22 C 89.174 263.217 89.198 263.214 89.222 263.211 C 89.281 263.204 89.339 263.201 89.397 263.201 C 89.992 263.201 90.551 263.556 90.787 264.137 C 91.039 264.758 90.846 265.455 90.347 265.864 C 73.242 283.877 47.111 287.832 45.359 288.079 C 45.311 288.088 45.263 288.094 45.214 288.098 C 45.164 288.102 45.113 288.104 45.063 288.104 L 45.063 288.104 Z " fill="rgb(229,167,28)"/><path d=" M 89.392 264.69 C 89.387 264.695 89.384 264.699 89.379 264.704 C 89.386 264.703 89.392 264.703 89.398 264.701 L 89.368 264.716 C 72.332 282.759 45.886 286.492 45.1 286.6 L 45.07 286.617 C 45.07 286.617 45.081 286.605 45.083 286.603 C 45.08 286.603 45.064 286.605 45.064 286.605 L 45.095 286.589 C 45.658 286.03 64.684 267.285 89.362 264.706 L 89.392 264.69 Z  M 89.391 261.69 C 89.194 261.69 88.996 261.71 88.801 261.749 C 63.765 264.474 44.488 282.98 43.042 284.4 C 42.953 284.484 42.87 284.572 42.792 284.665 C 41.865 285.746 41.825 287.339 42.71 288.468 C 43.295 289.215 44.175 289.616 45.072 289.616 C 45.305 289.616 45.539 289.59 45.769 289.534 C 48.82 289.078 74.512 284.764 91.488 266.841 C 91.541 266.789 91.592 266.735 91.64 266.678 C 92.569 265.63 92.651 264.066 91.815 262.921 C 91.233 262.125 90.322 261.69 89.391 261.69 L 89.391 261.69 L 89.391 261.69 Z " fill="rgb(0,0,0)"/><path d=" M 60.426 302.296 C 59.84 302.296 59.289 301.95 59.048 301.388 C 58.78 300.764 58.967 300.05 59.478 299.634 C 60.781 298.367 74.065 285.837 91.12 284.035 C 91.143 284.032 91.166 284.029 91.189 284.027 C 91.24 284.021 91.292 284.019 91.343 284.019 C 91.958 284.019 92.527 284.398 92.749 284.998 C 92.972 285.599 92.785 286.26 92.316 286.66 C 80.32 299.276 61.991 302.086 60.702 302.269 C 60.609 302.288 60.517 302.296 60.426 302.296 L 60.426 302.296 Z " fill="rgb(229,167,28)"/><path d=" M 91.339 285.513 C 91.336 285.516 91.334 285.518 91.33 285.523 C 91.336 285.52 91.338 285.521 91.342 285.52 L 91.321 285.531 C 79.441 298.113 60.997 300.717 60.451 300.792 L 60.43 300.803 C 60.43 300.803 60.438 300.795 60.44 300.795 C 60.44 300.795 60.439 300.795 60.439 300.795 C 60.435 300.795 60.428 300.797 60.428 300.797 L 60.449 300.785 C 60.843 300.395 74.109 287.323 91.32 285.523 L 91.339 285.513 Z  M 91.338 282.513 C 91.161 282.513 90.983 282.529 90.806 282.561 C 73.151 284.494 59.492 297.523 58.389 298.601 C 58.338 298.649 58.289 298.699 58.242 298.749 C 57.263 299.792 57.154 301.388 57.996 302.556 C 58.576 303.362 59.493 303.802 60.431 303.802 C 60.647 303.802 60.865 303.779 61.079 303.732 C 63.388 303.38 81.479 300.275 93.448 287.649 C 93.459 287.637 93.47 287.626 93.482 287.614 C 94.489 286.588 94.627 284.989 93.806 283.804 C 93.229 282.974 92.297 282.513 91.338 282.513 L 91.338 282.513 L 91.338 282.513 Z " fill="rgb(0,0,0)"/><path d=" M 49.191 239.825 C 56.203 236.535 63.663 231.863 69.875 225.286 L 69.906 225.271 C 69.9 225.272 69.894 225.273 69.887 225.273 C 69.893 225.269 69.895 225.264 69.9 225.26 L 69.87 225.275 C 64.093 225.879 58.632 227.376 53.639 229.309 L 53.583 229.37 C 57.622 228.605 61.749 232.13 49.191 239.825 Z " fill="rgb(168,118,17)"/><path d=" M 38.822 221.811 C 44.071 219.496 49.811 216.08 54.522 211.09 L 54.543 211.08 C 54.539 211.081 54.536 211.082 54.531 211.082 C 54.534 211.078 54.536 211.076 54.539 211.073 L 54.518 211.083 C 49.118 211.648 44.105 213.323 39.756 215.367 L 39.771 215.39 C 44.832 213.828 50.373 215.348 38.822 221.811 Z " fill="rgb(168,118,17)"/><path d=" M 67.172 279.944 C 74.613 276.627 82.707 271.769 89.367 264.715 L 89.397 264.7 C 89.391 264.702 89.385 264.702 89.378 264.703 C 89.383 264.698 89.386 264.694 89.391 264.689 L 89.361 264.705 C 82.61 265.41 76.289 267.33 70.646 269.751 L 70.655 269.792 C 70.656 269.793 86.007 268.435 67.172 279.944 Z " fill="rgb(168,118,17)"/><path d=" M 91.318 285.522 C 87.157 285.958 83.229 287.055 79.654 288.47 L 79.637 288.588 C 79.637 288.588 89.562 287.049 78.134 295.07 C 82.654 292.816 87.353 289.732 91.321 285.529 L 91.342 285.518 C 91.338 285.519 91.336 285.518 91.33 285.521 C 91.334 285.516 91.336 285.514 91.339 285.511 L 91.318 285.522 Z " fill="rgb(168,118,17)"/></g></g><path d=" M 162.297 292.69 L 170.212 292.69 L 170.212 272.651 L 139.191 272.651 C 139.191 272.651 157.349 270.016 162.297 292.69 L 162.297 292.69 Z " fill="rgb(15,15,15)"/><path d=" M 110.946 276.286 C 113.581 273.323 120.729 272.743 124.5 272.651 L 110.946 272.651 L 110.946 276.286 Z " fill="rgb(15,15,15)"/><path d=" M 155.121 210.227 L 125.945 210.227 C 121.001 210.227 116.629 212.629 113.896 216.32 L 106.295 222.527 L 108.664 238.829 C 114.666 240.827 127.232 244.389 140.533 244.389 C 152.394 244.389 164.738 242.439 172.067 241.041 L 174.757 222.527 L 167.187 216.344 C 164.457 212.64 160.076 210.227 155.121 210.227 L 155.121 210.227 Z " fill="rgb(15,15,15)"/><path d=" M 128.343 190.489 C 128.343 190.489 140.604 196.62 154.645 190.489" fill="rgb(239,184,134)" vector-effect="non-scaling-stroke" stroke-width="3" stroke="rgb(0,0,0)" stroke-linejoin="miter" stroke-linecap="round" stroke-miterlimit="10"/><path d=" M 140.27 224.027 C 96.48 224.027 60.854 175.612 60.854 116.101 C 60.854 75.818 96.48 43.045 140.27 43.045 C 184.06 43.045 219.685 75.817 219.685 116.101 C 219.685 175.612 184.06 224.027 140.27 224.027 L 140.27 224.027 Z " fill="rgb(239,184,134)"/><path d=" M 140.27 44.546 C 183.302 44.546 218.185 76.583 218.185 116.102 C 218.185 174.879 183.302 222.528 140.27 222.528 C 97.238 222.528 62.354 174.88 62.354 116.102 C 62.354 76.583 97.238 44.546 140.27 44.546 M 140.27 41.546 C 95.653 41.546 59.354 74.991 59.354 116.102 C 59.354 145.162 67.665 172.517 82.754 193.128 C 98.05 214.022 118.476 225.527 140.27 225.527 C 162.064 225.527 182.49 214.021 197.786 193.128 C 212.875 172.517 221.185 145.161 221.185 116.102 C 221.185 74.991 184.887 41.546 140.27 41.546 L 140.27 41.546 Z " fill="rgb(0,0,0)"/><path d=" M 140.27 224.027 C 96.48 224.027 60.854 175.612 60.854 116.101 C 60.854 75.818 96.48 43.045 140.27 43.045 C 184.06 43.045 219.685 75.817 219.685 116.101 C 219.685 175.612 184.06 224.027 140.27 224.027 L 140.27 224.027 Z " fill="rgb(239,184,134)"/><path d=" M 140.27 44.546 C 183.302 44.546 218.185 76.583 218.185 116.102 C 218.185 174.879 183.302 222.528 140.27 222.528 C 97.238 222.528 62.354 174.88 62.354 116.102 C 62.354 76.583 97.238 44.546 140.27 44.546 M 140.27 41.546 C 95.653 41.546 59.354 74.991 59.354 116.102 C 59.354 145.162 67.665 172.517 82.754 193.128 C 98.05 214.022 118.476 225.527 140.27 225.527 C 162.064 225.527 182.49 214.021 197.786 193.128 C 212.875 172.517 221.185 145.161 221.185 116.102 C 221.185 74.991 184.887 41.546 140.27 41.546 L 140.27 41.546 Z " fill="rgb(0,0,0)"/><path d=" M 70.125 162.482 C 70.125 162.482 148.497 179.001 210.323 162.73 C 193.149 179.209 128.822 187.209 128.822 187.209 L 88.899 178.042 L 70.125 162.482 L 70.125 162.482 Z " fill="rgb(183,126,83)"/><path d=" M 140.27 224.027 C 124.988 224.027 110.154 218.126 97.371 206.962 C 85.002 196.159 75.092 180.952 68.712 162.984 L 67.627 159.927 L 70.658 161.079 C 83.929 166.123 111.013 174.585 143.29 174.585 C 166.811 174.585 189.166 170.132 209.734 161.35 L 212.89 160.002 L 211.735 163.234 C 205.338 181.135 195.428 196.282 183.081 207.036 C 170.319 218.152 155.515 224.027 140.27 224.027 L 140.27 224.027 Z " fill="rgb(38,38,38)"/><path d=" M 70.125 162.482 C 84.378 167.899 111.226 176.086 143.29 176.086 C 164.109 176.086 187.13 172.634 210.323 162.731 C 197.669 198.136 171.056 222.528 140.269 222.528 C 109.41 222.527 82.743 198.022 70.125 162.482 M 215.459 157.275 L 209.146 159.971 C 188.764 168.673 166.608 173.085 143.291 173.085 C 111.253 173.085 84.367 164.685 71.192 159.677 L 65.129 157.373 L 67.299 163.485 C 73.764 181.695 83.822 197.119 96.384 208.09 C 109.445 219.496 124.62 225.526 140.27 225.526 C 155.882 225.526 171.028 219.523 184.067 208.167 C 196.608 197.245 206.665 181.882 213.149 163.739 L 215.459 157.275 L 215.459 157.275 Z " fill="rgb(0,0,0)"/><path d=" M 194.56 107.918 C 194.56 107.918 208.804 206.135 135.808 222.351 C 137.285 222.464 138.772 222.528 140.27 222.528 C 183.302 222.528 218.185 174.88 218.185 116.102 C 218.185 114.369 218.095 112.656 217.962 110.953 L 207.907 98.13 L 194.56 107.918 L 194.56 107.918 Z " fill="rgb(183,126,83)"/><path d=" M 141.711 222.374 C 142.446 222.332 143.178 222.277 143.907 222.21 C 144.057 222.196 144.206 222.187 144.356 222.172 C 145.214 222.085 146.066 221.978 146.916 221.854 C 147.124 221.824 147.333 221.789 147.54 221.756 C 148.232 221.648 148.919 221.528 149.605 221.397 C 149.806 221.358 150.008 221.322 150.208 221.282 C 151.049 221.112 151.885 220.925 152.716 220.72 C 152.865 220.683 153.011 220.642 153.158 220.604 C 153.865 220.423 154.568 220.23 155.269 220.025 C 155.482 219.961 155.696 219.899 155.909 219.834 C 156.739 219.579 157.565 219.315 158.385 219.026 C 158.39 219.024 158.396 219.022 158.401 219.02 C 159.214 218.734 160.021 218.424 160.825 218.104 C 161.029 218.022 161.232 217.938 161.436 217.855 C 162.147 217.563 162.856 217.259 163.557 216.941 C 163.66 216.895 163.762 216.852 163.863 216.804 C 164.663 216.438 165.457 216.051 166.245 215.65 C 166.414 215.564 166.582 215.474 166.75 215.387 C 167.413 215.043 168.072 214.687 168.727 214.321 C 168.876 214.237 169.028 214.155 169.177 214.07 C 169.956 213.625 170.73 213.165 171.495 212.688 C 171.6 212.624 171.703 212.555 171.806 212.49 C 172.48 212.066 173.15 211.628 173.813 211.18 C 173.97 211.073 174.129 210.966 174.286 210.859 C 175.799 209.818 177.284 208.713 178.74 207.547 C 178.883 207.433 179.025 207.318 179.166 207.203 C 179.867 206.635 180.562 206.055 181.248 205.459 C 181.269 205.44 181.29 205.423 181.311 205.404 C 182.04 204.769 182.759 204.116 183.471 203.45 C 183.578 203.35 183.685 203.248 183.793 203.147 C 184.428 202.547 185.056 201.936 185.679 201.312 C 185.755 201.235 185.832 201.16 185.909 201.083 C 186.61 200.374 187.3 199.65 187.983 198.912 C 188.025 198.866 188.067 198.82 188.109 198.774 C 188.743 198.084 189.369 197.381 189.987 196.667 C 190.074 196.564 190.162 196.465 190.25 196.363 C 191.566 194.828 192.846 193.234 194.087 191.588 C 194.163 191.485 194.239 191.385 194.315 191.283 C 195.563 189.614 196.772 187.89 197.937 186.112 C 197.986 186.037 198.036 185.962 198.085 185.885 C 198.653 185.015 199.213 184.134 199.76 183.238 C 199.775 183.213 199.79 183.187 199.806 183.164 C 200.387 182.211 200.957 181.246 201.514 180.267 C 201.516 180.264 201.518 180.262 201.519 180.26 C 202.058 179.311 202.586 178.351 203.102 177.379 C 203.138 177.311 203.174 177.245 203.209 177.178 C 204.25 175.211 205.244 173.194 206.189 171.131 C 206.224 171.055 206.259 170.979 206.295 170.901 C 207.239 168.828 208.135 166.711 208.978 164.55 C 209 164.493 209.022 164.435 209.044 164.378 C 209.464 163.298 209.872 162.209 210.264 161.108 C 203.192 164.127 196.138 166.556 189.154 168.487 C 181.82 192.176 166.184 215.079 133.835 222.281 C 134.092 222.302 134.349 222.324 134.608 222.34 C 135.001 222.365 135.395 222.391 135.788 222.409 C 136.647 222.446 137.508 222.473 138.374 222.473 C 139.254 222.473 140.13 222.447 141.004 222.409 C 141.239 222.4 141.474 222.386 141.711 222.374 L 141.711 222.374 Z " fill="rgb(15,15,15)" vector-effect="non-scaling-stroke" stroke-width="1" stroke="rgb(0,0,0)" stroke-linejoin="miter" stroke-linecap="butt" stroke-miterlimit="4"/><path d=" M 143.052 222.687 C 143.787 222.645 144.518 222.59 145.248 222.522 C 145.398 222.509 145.547 222.5 145.696 222.484 C 146.554 222.398 147.407 222.291 148.257 222.166 C 148.465 222.137 148.673 222.102 148.881 222.069 C 149.572 221.961 150.26 221.841 150.946 221.71 C 151.147 221.671 151.349 221.635 151.549 221.595 C 152.389 221.424 153.226 221.238 154.057 221.032 C 154.206 220.995 154.352 220.954 154.498 220.916 C 155.205 220.736 155.908 220.543 156.609 220.338 C 156.823 220.274 157.036 220.211 157.25 220.147 C 158.08 219.892 158.906 219.627 159.726 219.339 C 159.731 219.337 159.736 219.335 159.741 219.333 C 160.555 219.047 161.362 218.737 162.165 218.417 C 162.369 218.334 162.573 218.251 162.777 218.168 C 163.488 217.876 164.196 217.572 164.898 217.254 C 165.001 217.208 165.102 217.165 165.204 217.117 C 166.003 216.751 166.798 216.364 167.586 215.963 C 167.755 215.877 167.922 215.787 168.091 215.7 C 168.754 215.356 169.412 215 170.067 214.634 C 170.217 214.55 170.369 214.468 170.518 214.382 C 171.297 213.938 172.07 213.478 172.836 213.001 C 172.941 212.936 173.043 212.868 173.147 212.803 C 173.821 212.379 174.49 211.941 175.153 211.493 C 175.31 211.386 175.469 211.279 175.626 211.171 C 177.14 210.131 178.625 209.026 180.081 207.86 C 180.224 207.746 180.365 207.631 180.507 207.516 C 181.208 206.947 181.903 206.368 182.588 205.771 C 182.61 205.753 182.63 205.735 182.652 205.717 C 183.38 205.082 184.1 204.429 184.812 203.763 C 184.919 203.662 185.025 203.561 185.133 203.46 C 185.768 202.86 186.396 202.248 187.019 201.624 C 187.095 201.547 187.172 201.473 187.249 201.396 C 187.95 200.686 188.641 199.963 189.323 199.225 C 189.365 199.179 189.407 199.133 189.449 199.087 C 190.084 198.397 190.71 197.694 191.327 196.98 C 191.415 196.877 191.503 196.778 191.59 196.676 C 192.907 195.141 194.187 193.547 195.427 191.901 C 195.503 191.798 195.579 191.698 195.656 191.596 C 196.904 189.926 198.113 188.202 199.278 186.425 C 199.327 186.35 199.376 186.275 199.425 186.198 C 199.994 185.328 200.553 184.446 201.1 183.551 C 201.116 183.526 201.131 183.5 201.146 183.477 C 201.727 182.524 202.298 181.559 202.855 180.58 C 202.857 180.577 202.858 180.574 202.859 180.572 C 203.399 179.624 203.926 178.664 204.443 177.692 C 204.479 177.624 204.514 177.557 204.549 177.491 C 205.591 175.523 206.584 173.507 207.53 171.444 C 207.564 171.368 207.599 171.292 207.635 171.214 C 208.579 169.141 209.475 167.024 210.319 164.863 C 210.34 164.805 210.363 164.748 210.384 164.691 C 210.804 163.611 211.213 162.522 211.605 161.421 C 204.533 164.44 197.479 166.869 190.494 168.8 C 183.161 192.489 167.524 215.392 135.175 222.594 C 135.433 222.615 135.69 222.636 135.948 222.653 C 136.341 222.677 136.735 222.704 137.128 222.722 C 137.987 222.758 138.848 222.786 139.714 222.786 C 140.595 222.786 141.47 222.76 142.345 222.722 C 142.58 222.713 142.815 222.699 143.052 222.687 L 143.052 222.687 Z " fill="rgb(15,15,15)" vector-effect="non-scaling-stroke" stroke-width="1" stroke="rgb(0,0,0)" stroke-linejoin="miter" stroke-linecap="butt" stroke-miterlimit="4"/><path d=" M 141.002 176.07 C 150.958 180.315 167.104 185.424 189.808 187.21 C 191.988 180.376 193.694 173.792 194.95 168.391 C 176.187 174.253 157.839 176.274 141.002 176.07 L 141.002 176.07 Z " fill="rgb(15,15,15)"/><path d=" M 193.067 178.043 C 193.067 178.043 166.863 196.816 121.298 184.93 C 128.343 191.852 162.375 206.574 188.464 195.455 C 192.056 190.958 193.067 178.043 193.067 178.043 Z " fill="rgb(15,15,15)"/><path d=" M 66.508 155.455 C 66.677 155.893 66.859 156.319 67.031 156.753 C 67.312 157.454 67.59 158.155 67.882 158.847 C 68.093 159.345 68.314 159.835 68.53 160.329 C 68.799 160.942 69.066 161.558 69.343 162.164 C 69.573 162.666 69.812 163.159 70.048 163.655 C 70.326 164.241 70.606 164.829 70.893 165.407 C 71.137 165.898 71.387 166.383 71.636 166.868 C 71.931 167.44 72.227 168.011 72.53 168.575 C 72.784 169.049 73.042 169.517 73.301 169.984 C 73.614 170.548 73.93 171.11 74.251 171.665 C 74.512 172.116 74.775 172.564 75.041 173.01 C 75.378 173.573 75.719 174.13 76.063 174.683 C 76.326 175.105 76.589 175.527 76.857 175.944 C 77.223 176.513 77.596 177.075 77.971 177.634 C 78.23 178.019 78.486 178.405 78.748 178.785 C 79.157 179.378 79.575 179.959 79.995 180.539 C 80.234 180.87 80.47 181.205 80.712 181.531 C 81.21 182.202 81.718 182.857 82.229 183.51 C 82.402 183.732 82.571 183.959 82.746 184.179 C 84.151 185.941 85.603 187.632 87.1 189.251 C 87.233 189.394 87.369 189.53 87.501 189.671 C 88.113 190.325 88.731 190.971 89.358 191.601 C 89.57 191.812 89.786 192.017 89.999 192.226 C 90.556 192.773 91.115 193.315 91.684 193.841 C 91.931 194.07 92.181 194.293 92.43 194.519 C 92.974 195.011 93.521 195.498 94.074 195.972 C 94.342 196.201 94.611 196.425 94.88 196.649 C 95.427 197.105 95.978 197.554 96.533 197.992 C 96.672 198.101 96.811 198.209 96.95 198.316 C 100.692 198.588 104.79 198.636 108.931 198.236 C 101.72 194.513 91.357 177.529 91.357 177.529 C 100.789 180.321 106.716 176.598 106.716 176.598 C 101.379 174.126 92.321 170.646 85.446 158.624 C 77.3 156.451 70.46 154.119 65.283 152.151 C 65.679 153.262 66.086 154.365 66.508 155.455 L 66.508 155.455 Z " fill="rgb(15,15,15)"/><path d=" M 198.659 83.728 L 168.03 64.432 L 145.386 68.682 L 141.45 87.25 C 124.461 83.143 117.963 90.377 117.963 90.377 L 94.158 94.205 C 94.158 94.205 98.383 128.231 113.774 136.861 C 112.146 131.091 116.799 118.528 116.799 118.528 C 121.917 134.348 128.345 145.749 143.977 152.263 C 141.46 148.308 141.493 119.748 141.493 119.748 C 147.511 131.091 157.081 137.373 163.464 139.467 C 160.885 135.491 155.43 121.728 154.345 108.168 C 160.458 115.863 172.085 129.271 181.095 132.33 C 176.908 123.681 175.955 103.977 178.432 94.204 C 184.159 111.181 191.159 129.6 183.409 144.016 C 187.909 142.681 197.616 133.431 200.888 121.681 C 204.16 109.931 198.659 83.728 198.659 83.728 L 198.659 83.728 Z " fill="rgb(183,126,83)"/><path d=" M 192.163 169.681 C 192.163 169.681 185.124 177.246 180.276 179.412 C 182.874 181.578 188.655 180.503 192.163 179.412 C 195.767 172.812 192.163 169.681 192.163 169.681 Z " fill="rgb(15,15,15)"/><path d=" M 107.142 205.408 C 104.862 205.349 84.529 204.431 72.809 190.488 C 66.249 182.684 63.854 172.442 65.691 160.046 C 65.801 159.302 66.441 158.766 67.173 158.766 C 67.242 158.766 67.311 158.771 67.381 158.781 C 79.918 160.521 82.709 168.196 82.821 168.522 C 82.917 168.856 89.921 193.339 107.867 202.576 C 108.489 202.896 108.807 203.604 108.634 204.282 C 108.464 204.947 107.864 205.41 107.181 205.41 C 107.168 205.409 107.156 205.409 107.142 205.408 L 107.142 205.408 Z " fill="rgb(232,42,42)"/><path d=" M 67.175 160.265 C 78.945 161.899 81.404 169.011 81.404 169.011 C 81.404 169.011 88.418 194.251 107.181 203.908 C 95.929 203.619 61.739 196.964 67.175 160.265 Z  M 67.171 157.265 C 65.708 157.265 64.428 158.336 64.207 159.826 C 62.305 172.666 64.813 183.306 71.661 191.453 C 83.804 205.899 104.755 206.848 107.104 206.908 C 107.13 206.909 107.156 206.909 107.182 206.909 C 108.548 206.909 109.747 205.983 110.087 204.653 C 110.434 203.298 109.798 201.882 108.554 201.242 C 91.208 192.314 84.361 168.446 84.293 168.206 C 84.277 168.148 84.258 168.088 84.239 168.031 C 84.114 167.67 81.025 159.159 67.588 157.294 C 67.448 157.274 67.309 157.265 67.171 157.265 L 67.171 157.265 L 67.171 157.265 Z " fill="rgb(0,0,0)"/><path d=" M 66.725 164.382 C 64.837 190.732 84.755 200.005 98.41 202.828 C 89.091 200.213 74.64 191.674 66.725 164.382 Z " fill="rgb(165,23,23)"/><path d=" M 178.618 200.908 C 177.332 200.908 176.149 200.845 175.101 200.721 C 174.442 200.644 173.913 200.144 173.798 199.491 C 173.683 198.838 174.012 198.187 174.605 197.89 C 202.336 184.025 217.69 128.4 217.841 127.84 C 217.974 127.352 218.342 126.964 218.822 126.807 C 218.974 126.757 219.133 126.732 219.289 126.732 C 219.624 126.732 219.955 126.844 220.225 127.059 C 220.442 127.232 241.871 144.629 233.392 164.959 C 221.532 193.394 192.38 200.907 178.62 200.907 C 178.62 200.908 178.619 200.908 178.618 200.908 L 178.618 200.908 Z " fill="rgb(232,42,42)"/><path d=" M 219.29 128.232 C 219.29 128.232 240.149 144.862 232.008 164.382 C 220.32 192.406 191.932 199.407 178.618 199.407 C 177.362 199.407 176.237 199.344 175.276 199.231 C 203.943 184.899 219.29 128.232 219.29 128.232 M 219.29 125.232 C 218.977 125.232 218.662 125.281 218.356 125.381 C 217.396 125.695 216.659 126.472 216.394 127.447 C 216.244 128.001 201.059 182.986 173.934 196.548 C 172.748 197.142 172.092 198.443 172.321 199.749 C 172.55 201.055 173.609 202.056 174.925 202.211 C 176.031 202.341 177.274 202.407 178.617 202.407 C 181.996 202.407 194.049 201.878 207.293 195.072 C 219.92 188.583 229.423 178.37 234.775 165.537 C 243.686 144.173 222.083 126.622 221.159 125.886 C 220.622 125.457 219.961 125.232 219.29 125.232 L 219.29 125.232 L 219.29 125.232 Z " fill="rgb(0,0,0)"/><path d=" M 97.142 136.861 C 97.142 132.912 100.348 129.706 104.297 129.706 C 108.246 129.706 111.452 132.912 111.452 136.861 C 111.452 140.81 108.246 144.016 104.297 144.016 C 100.348 144.016 97.142 140.81 97.142 136.861 Z " fill="rgb(0,0,0)"/><path d=" M 170.695 136.861 C 170.695 132.912 173.901 129.706 177.85 129.706 C 181.799 129.706 185.005 132.912 185.005 136.861 C 185.005 140.81 181.799 144.016 177.85 144.016 C 173.901 144.016 170.695 140.81 170.695 136.861 Z " fill="rgb(0,0,0)"/><path d=" M 232.008 164.382 C 237.649 150.858 229.371 138.727 223.752 132.546 C 230.579 179.688 175.276 199.232 175.276 199.232 C 186.422 200.543 219.216 195.052 232.008 164.382 L 232.008 164.382 Z " fill="rgb(165,23,23)"/><path d=" M 221.715 146.256 C 221.04 146.256 220.447 145.805 220.269 145.153 C 218.368 138.239 215.719 131.566 212.396 125.32 C 212.319 125.174 212.266 125.018 212.24 124.855 C 211.03 117.388 208.667 110.562 205.216 104.564 C 202.669 100.138 194.508 95.938 186.638 95.003 C 186.386 94.973 186.146 94.879 185.94 94.732 C 172.589 85.149 157.097 80.084 141.139 80.084 C 125.183 80.084 109.691 85.148 96.339 94.73 C 96.133 94.878 95.893 94.971 95.641 95.001 C 87.657 95.945 79.676 100.042 77.078 104.531 C 73.611 110.522 71.241 117.362 70.032 124.86 C 70.006 125.023 69.953 125.18 69.875 125.326 C 66.552 131.572 63.905 138.243 62.005 145.153 C 61.826 145.804 61.234 146.256 60.559 146.256 L 60.559 146.256 C 59.884 146.256 59.291 145.805 59.113 145.153 C 56.649 136.189 55.4 126.865 55.4 117.44 C 55.4 65.058 93.862 22.442 141.139 22.442 C 188.414 22.442 226.875 65.058 226.875 117.44 C 226.875 126.866 225.626 136.19 223.162 145.153 C 222.983 145.805 222.391 146.256 221.715 146.256 Z " fill="rgb(38,38,38)"/><path d=" M 141.138 23.943 C 187.66 23.943 225.374 65.803 225.374 117.441 C 225.374 126.946 224.09 136.116 221.715 144.756 C 219.76 137.645 217.061 130.895 213.72 124.615 C 212.515 117.177 210.146 110.125 206.515 103.816 C 203.709 98.94 195.273 94.518 186.814 93.513 C 173.656 84.069 157.974 78.583 141.138 78.583 C 124.302 78.583 108.622 84.067 95.463 93.511 C 87.021 94.509 78.597 98.909 75.778 103.78 C 72.125 110.093 69.752 117.164 68.549 124.622 C 65.209 130.9 62.511 137.647 60.557 144.756 C 58.182 136.114 56.898 126.944 56.898 117.441 C 56.899 65.803 94.614 23.943 141.138 23.943 M 141.138 20.943 C 93.034 20.943 53.899 64.232 53.899 117.441 C 53.899 127 55.166 136.458 57.666 145.551 C 58.024 146.854 59.208 147.756 60.559 147.756 C 61.91 147.756 63.094 146.854 63.452 145.551 C 65.323 138.747 67.93 132.18 71.2 126.031 C 71.355 125.739 71.461 125.425 71.513 125.099 C 72.692 117.782 75.001 111.114 78.376 105.282 C 80.431 101.731 87.516 97.471 95.816 96.49 C 96.32 96.43 96.801 96.244 97.213 95.948 C 110.309 86.55 125.498 81.583 141.139 81.583 C 156.781 81.583 171.971 86.551 185.066 95.95 C 185.478 96.246 185.958 96.432 186.462 96.492 C 194.779 97.48 201.868 101.752 203.916 105.312 C 207.277 111.151 209.58 117.807 210.761 125.095 C 210.813 125.42 210.919 125.734 211.074 126.024 C 214.345 132.173 216.953 138.743 218.825 145.55 C 219.182 146.853 220.367 147.755 221.718 147.755 L 221.718 147.755 C 223.069 147.755 224.253 146.853 224.611 145.55 C 227.11 136.458 228.378 127 228.378 117.44 C 228.374 64.232 189.241 20.943 141.138 20.943 L 141.138 20.943 L 141.138 20.943 Z " fill="rgb(0,0,0)"/><path d=" M 141.138 23.943 C 138.854 23.943 136.593 24.047 134.355 24.245 C 137.019 25.021 172.014 36.155 148.634 78.966 C 162.621 80.336 175.631 85.488 186.814 93.515 C 195.273 94.52 203.71 98.942 206.515 103.818 C 210.146 110.127 212.515 117.178 213.72 124.617 C 217.061 130.896 219.76 137.646 221.715 144.758 C 224.09 136.117 225.374 126.947 225.374 117.443 C 225.374 65.803 187.66 23.943 141.138 23.943 L 141.138 23.943 Z " fill="rgb(15,15,15)"/><path d=" M 97.772 169.608 C 87.38 169.608 67.967 164.161 57.346 152.049 C 51.888 145.825 49.631 138.793 50.637 131.147 C 53.376 110.335 64.731 107.228 71.257 107.228 C 74.233 107.228 76.332 107.883 76.42 107.911 C 77.123 108.134 77.56 108.835 77.45 109.564 C 77.388 109.977 71.577 151.052 100.705 166.688 C 101.288 167.001 101.597 167.657 101.466 168.305 C 101.336 168.952 100.797 169.439 100.138 169.502 C 99.407 169.573 98.611 169.608 97.772 169.608 L 97.772 169.608 Z " fill="rgb(232,42,42)"/><path d=" M 71.255 108.728 C 74.033 108.728 75.965 109.34 75.965 109.34 C 75.965 109.34 69.565 151.675 99.994 168.009 C 99.308 168.074 98.563 168.108 97.771 168.108 C 82.501 168.108 48.892 155.894 52.123 131.343 C 54.7 111.763 65.073 108.728 71.255 108.728 M 71.256 105.728 L 71.256 105.728 C 65.607 105.728 52.145 108.186 49.15 130.952 C 48.085 139.046 50.463 146.476 56.219 153.039 C 67.149 165.503 87.098 171.108 97.773 171.108 C 98.66 171.108 99.504 171.07 100.282 170.996 C 101.598 170.87 102.676 169.897 102.936 168.601 C 103.197 167.305 102.579 165.991 101.414 165.366 C 73.175 150.208 78.871 110.192 78.932 109.789 C 79.153 108.33 78.279 106.927 76.872 106.481 C 76.629 106.404 74.407 105.728 71.256 105.728 L 71.256 105.728 L 71.256 105.728 Z " fill="rgb(0,0,0)"/><path d=" M 112.253 133.332 C 111.863 133.332 111.48 133.18 111.192 132.893 C 93.593 115.294 98.278 92.609 98.486 91.652 C 98.504 91.57 98.528 91.491 98.559 91.413 C 98.718 91.017 102.633 81.728 119.591 81.728 C 123.259 81.728 127.32 82.172 131.663 83.046 C 132.207 83.156 132.646 83.556 132.805 84.088 C 132.964 84.62 132.816 85.195 132.421 85.585 C 118.931 98.889 113.008 123.03 113.747 131.705 C 113.8 132.332 113.456 132.927 112.885 133.192 C 112.682 133.286 112.467 133.332 112.253 133.332 L 112.253 133.332 Z " fill="rgb(232,42,42)"/><path d=" M 119.591 83.228 C 122.944 83.228 126.843 83.605 131.367 84.517 C 117.551 98.143 111.495 122.937 112.252 131.831 C 95.03 114.608 99.951 91.97 99.951 91.97 C 99.951 91.97 103.453 83.228 119.591 83.228 M 119.591 80.228 C 101.629 80.228 97.34 90.421 97.166 90.855 C 97.104 91.01 97.055 91.17 97.02 91.333 C 96.805 92.323 91.96 115.781 110.131 133.953 C 110.706 134.528 111.474 134.832 112.254 134.832 C 112.682 134.832 113.113 134.741 113.518 134.552 C 114.661 134.021 115.35 132.833 115.243 131.577 C 114.61 124.143 120.051 99.893 133.475 86.653 C 134.265 85.874 134.561 84.723 134.244 83.66 C 133.927 82.597 133.049 81.796 131.962 81.577 C 127.52 80.682 123.358 80.228 119.591 80.228 L 119.591 80.228 L 119.591 80.228 Z " fill="rgb(0,0,0)"/><path d=" M 115.326 83.451 C 102.82 84.811 99.951 91.971 99.951 91.971 C 99.951 91.971 95.03 114.61 112.252 131.832 C 101.436 111.652 108.518 93.904 115.326 83.451 Z " fill="rgb(165,23,23)"/><path d=" M 97.273 138.239 C 97.023 138.239 96.77 138.176 96.541 138.048 C 78.687 128.057 71.025 116.104 73.119 101.508 C 73.992 95.423 81.336 76.264 92.015 76.264 C 96.258 76.264 100.317 79.273 104.079 85.207 C 110.908 95.978 105.912 110.159 101.898 121.553 C 99.726 127.72 97.673 133.545 98.677 136.21 C 98.899 136.8 98.729 137.465 98.251 137.876 C 97.973 138.116 97.625 138.239 97.273 138.239 Z " fill="rgb(232,42,42)"/><path d=" M 92.015 77.764 C 95.379 77.764 99.039 80.058 102.813 86.011 C 113.204 102.401 94.128 128.386 97.274 136.74 C 76.02 124.845 73.124 112.045 74.604 101.721 C 75.449 95.829 82.571 77.764 92.015 77.764 M 92.015 74.764 C 79.767 74.764 72.409 95.894 71.634 101.294 C 69.443 116.576 77.35 129.026 95.808 139.357 C 96.266 139.613 96.771 139.739 97.273 139.739 C 97.976 139.739 98.672 139.493 99.23 139.013 C 100.186 138.192 100.525 136.861 100.082 135.681 C 99.271 133.527 101.419 127.43 103.314 122.051 C 107.436 110.351 112.566 95.789 105.347 84.403 C 101.291 78.007 96.805 74.764 92.015 74.764 L 92.015 74.764 L 92.015 74.764 Z " fill="rgb(0,0,0)"/><path d=" M 87.9 91.362 C 90.575 84.911 93.622 81.235 96.744 79.301 C 85.03 71.633 75.586 94.879 74.604 101.72 C 73.124 112.043 76.02 124.844 97.274 136.739 C 97.274 136.739 79.4 111.862 87.9 91.362 L 87.9 91.362 Z " fill="rgb(165,23,23)"/><path d=" M 148.968 147.238 C 148.782 147.238 148.595 147.204 148.416 147.133 C 125.501 138.06 109.514 122.75 103.398 104.024 C 99.015 90.603 100.177 76.104 106.43 66.183 C 110.422 59.85 118.81 56.07 128.869 56.07 C 135.354 56.07 142.306 57.552 149.53 60.476 C 149.902 60.627 150.199 60.92 150.353 61.291 C 150.506 61.662 150.505 62.079 150.349 62.449 C 140.281 86.327 141.796 129.906 150.275 145.004 C 150.587 145.558 150.515 146.247 150.097 146.726 C 149.807 147.057 149.392 147.238 148.968 147.238 L 148.968 147.238 Z " fill="rgb(232,42,42)"/><path d=" M 128.869 57.569 C 134.762 57.569 141.548 58.863 148.968 61.866 C 138.441 86.834 140.546 130.742 148.968 145.738 C 100.674 126.615 95.847 85.786 107.699 66.982 C 111.208 61.416 118.71 57.569 128.869 57.569 M 128.869 54.569 C 118.292 54.569 109.43 58.611 105.161 65.382 C 98.676 75.67 97.454 90.655 101.972 104.489 C 108.229 123.647 124.526 139.286 147.863 148.527 C 148.221 148.67 148.596 148.738 148.967 148.738 C 149.816 148.738 150.646 148.378 151.227 147.712 C 152.063 146.756 152.206 145.377 151.584 144.27 C 144.069 130.889 141.087 88.28 151.732 63.032 C 152.044 62.292 152.046 61.458 151.738 60.716 C 151.43 59.974 150.838 59.387 150.093 59.086 C 142.69 56.088 135.548 54.569 128.869 54.569 L 128.869 54.569 L 128.869 54.569 Z " fill="rgb(0,0,0)"/><path d=" M 148.968 61.866 C 143.727 59.745 138.432 59.075 133.459 59.236 C 119.464 120.844 148.968 145.738 148.968 145.738 C 140.546 130.742 138.441 86.834 148.968 61.866 Z " fill="rgb(165,23,23)"/><path d=" M 171.148 135.037 C 170.85 135.037 170.553 134.949 170.296 134.772 C 137.55 112.188 126.9 80.505 130.873 59.125 C 132.96 47.892 140.251 41.185 150.378 41.185 C 162.649 41.185 176.61 51.371 177.832 66.533 C 178.777 78.259 176.55 89.878 174.395 101.115 C 172.095 113.113 169.922 124.446 172.581 133.097 C 172.769 133.707 172.55 134.369 172.034 134.747 C 171.771 134.94 171.459 135.037 171.148 135.037 Z " fill="rgb(232,42,42)"/><path d=" M 150.378 42.684 C 162.094 42.684 175.201 52.556 176.337 66.653 C 178.313 91.165 165.924 116.538 171.148 133.537 C 138.562 111.063 128.527 79.965 132.348 59.398 C 134.541 47.594 142.113 42.684 150.378 42.684 M 150.378 39.684 C 139.471 39.684 131.628 46.849 129.399 58.85 C 125.337 80.706 136.145 113.04 169.445 136.006 C 169.958 136.36 170.553 136.536 171.148 136.536 C 171.771 136.536 172.394 136.342 172.921 135.955 C 173.951 135.2 174.391 133.875 174.015 132.654 C 171.466 124.359 173.605 113.205 175.869 101.395 C 178.043 90.06 180.29 78.339 179.328 66.41 C 178.039 50.424 163.319 39.684 150.378 39.684 L 150.378 39.684 L 150.378 39.684 Z " fill="rgb(0,0,0)"/><path d=" M 172.861 101.156 C 171.179 89.262 169.874 76.884 176.338 66.653 C 176.105 65.307 175.803 63.636 175.429 61.77 C 172.65 52.307 164.385 45.442 155.774 43.352 C 139.4 85.402 157.851 120.614 171.149 133.537 C 168.404 124.608 170.52 113.368 172.861 101.156 L 172.861 101.156 Z " fill="rgb(165,23,23)"/><path d=" M 59.787 113.211 C 56.331 116.494 53.347 122.046 52.123 131.344 C 48.725 157.168 86.09 169.344 99.994 168.01 C 61.118 158.295 57.929 130.065 59.787 113.211 L 59.787 113.211 Z " fill="rgb(165,23,23)"/><path d=" M 189.808 171.181 C 189.112 171.181 188.507 170.702 188.348 170.024 C 188.189 169.346 188.517 168.648 189.141 168.337 C 203.201 161.353 204.482 146.988 205.611 134.316 C 206.473 124.644 207.218 116.291 213.507 112.879 C 214.396 112.397 215.376 112.152 216.42 112.152 C 219.905 112.152 223.927 114.952 227.178 119.642 C 231.295 125.582 234.492 135.142 231.115 144.152 C 225.411 159.375 204.227 171.181 189.808 171.181 L 189.808 171.181 Z " fill="rgb(232,42,42)"/><path d=" M 216.42 113.652 C 223.938 113.652 234.788 130.078 229.71 143.626 C 224.11 158.571 202.978 169.681 189.808 169.681 C 215.304 157.015 200.902 121.424 214.222 114.198 C 214.906 113.827 215.645 113.652 216.42 113.652 M 216.42 110.652 C 215.123 110.652 213.902 110.958 212.791 111.561 C 205.795 115.356 204.979 124.501 204.116 134.183 C 203.021 146.464 201.781 160.383 188.472 166.995 C 187.225 167.614 186.568 169.011 186.886 170.367 C 187.204 171.722 188.414 172.681 189.807 172.681 C 204.706 172.681 226.61 160.449 232.519 144.679 C 236.099 135.126 232.744 125.04 228.41 118.788 C 224.827 113.618 220.456 110.652 216.42 110.652 L 216.42 110.652 L 216.42 110.652 Z " fill="rgb(0,0,0)"/><path d=" M 221.726 115.895 C 221.041 138.874 212.542 162.672 189.808 169.681 C 202.978 169.681 224.111 158.572 229.71 143.626 C 233.657 133.096 227.98 120.838 221.726 115.895 L 221.726 115.895 Z " fill="rgb(165,23,23)"/><path d=" M 191.02 149.165 C 190.759 149.165 190.498 149.098 190.261 148.959 C 189.706 148.634 189.42 147.99 189.551 147.36 C 197.348 109.737 177.472 84.862 177.27 84.616 C 176.986 84.267 176.873 83.809 176.962 83.368 C 177.051 82.927 177.334 82.55 177.732 82.34 C 178.195 82.096 189.19 76.358 199.635 76.358 C 207.09 76.358 216.305 79.375 217.866 93.749 C 221.16 124.06 203.457 139.072 193.946 147.137 C 193.257 147.723 192.605 148.276 192.003 148.798 C 191.724 149.04 191.372 149.165 191.02 149.165 Z " fill="rgb(232,42,42)"/><path d=" M 199.635 77.858 C 207.571 77.858 215.014 81.381 216.375 93.911 C 219.815 125.572 199.979 139.885 191.02 147.665 C 199.052 108.907 178.432 83.667 178.432 83.667 C 178.432 83.667 189.442 77.858 199.635 77.858 M 199.635 74.858 C 188.822 74.858 177.508 80.762 177.031 81.014 C 176.235 81.434 175.671 82.189 175.491 83.071 C 175.312 83.953 175.539 84.868 176.108 85.565 C 176.154 85.622 181.095 91.78 185.013 102.415 C 188.61 112.178 192.062 127.848 188.081 147.057 C 187.819 148.317 188.392 149.603 189.502 150.253 C 189.973 150.529 190.497 150.665 191.018 150.665 C 191.725 150.665 192.426 150.416 192.986 149.931 C 193.584 149.411 194.231 148.863 194.917 148.282 C 204.64 140.037 222.737 124.69 219.357 93.588 C 218.045 81.509 211.041 74.858 199.635 74.858 L 199.635 74.858 Z " fill="rgb(0,0,0)"/><path d=" M 216.375 93.911 C 214.791 79.335 204.98 76.95 195.733 78.118 C 220.444 109.741 191.019 147.665 191.019 147.665 C 199.98 139.884 219.816 125.572 216.375 93.911 Z " fill="rgb(165,23,23)"/><path d=" M 184.695 136.46 C 184.351 136.46 184.009 136.342 183.734 136.112 C 164.004 119.649 159.495 100.722 157.772 86.072 C 157.01 79.596 159.24 72.884 163.888 67.656 C 168.259 62.74 174.075 59.806 179.444 59.806 C 182.91 59.806 191.175 61.211 193.054 74.225 C 195.074 88.215 192.004 101.24 189.296 112.732 C 187.289 121.246 185.556 128.599 186.187 134.808 C 186.249 135.414 185.937 135.998 185.399 136.284 C 185.177 136.402 184.935 136.46 184.695 136.46 L 184.695 136.46 Z " fill="rgb(232,42,42)"/><path d=" M 179.444 61.306 C 185.17 61.306 190.22 65.091 191.57 74.439 C 195.029 98.398 183.162 119.861 184.695 134.96 C 165.028 118.55 160.876 99.618 159.261 85.897 C 157.691 72.543 169.574 61.306 179.444 61.306 M 179.444 58.306 C 173.653 58.306 167.42 61.429 162.768 66.659 C 157.834 72.207 155.47 79.346 156.282 86.247 C 158.038 101.173 162.636 120.461 182.773 137.264 C 183.324 137.724 184.007 137.96 184.696 137.96 C 185.176 137.96 185.66 137.845 186.102 137.609 C 187.179 137.037 187.802 135.87 187.679 134.656 C 187.075 128.698 188.781 121.458 190.756 113.076 C 193.494 101.454 196.599 88.282 194.538 74.01 C 193.118 64.177 187.476 58.306 179.444 58.306 L 179.444 58.306 L 179.444 58.306 Z " fill="rgb(0,0,0)"/><path d=" M 191.57 74.439 C 190.04 63.84 183.756 60.399 177.12 61.508 C 173.354 74.791 169.718 101.22 184.695 134.959 C 183.161 119.861 195.029 98.398 191.57 74.439 L 191.57 74.439 Z " fill="rgb(165,23,23)"/><g id="Group"><path d=" M 65.509 271.101 C 57.787 270.266 51.244 264.956 48.841 257.573 C 45.471 247.217 51.153 236.049 61.509 232.678 C 64.188 231.806 66.956 231.516 69.736 231.817 C 77.458 232.652 84.001 237.962 86.404 245.344 C 88.038 250.362 87.62 255.714 85.226 260.416 C 82.834 265.119 78.753 268.608 73.736 270.241 C 71.058 271.113 68.29 271.402 65.509 271.101 L 65.509 271.101 Z " fill="rgb(38,38,38)"/><path d=" M 69.574 233.308 C 76.499 234.056 82.681 238.756 84.977 245.808 C 88.098 255.393 82.856 265.693 73.271 268.814 C 70.739 269.639 68.156 269.878 65.67 269.61 C 58.745 268.861 52.562 264.161 50.266 257.108 C 47.147 247.523 52.388 237.224 61.972 234.103 C 64.504 233.28 67.087 233.039 69.574 233.308 Z  M 69.897 230.325 L 69.575 233.308 L 69.897 230.325 L 69.895 230.325 C 66.903 230.002 63.924 230.313 61.043 231.251 C 49.902 234.879 43.787 246.894 47.414 258.037 C 50 265.981 57.04 271.695 65.348 272.593 C 68.341 272.917 71.319 272.605 74.201 271.668 C 79.599 269.911 83.989 266.157 86.564 261.096 C 89.139 256.037 89.588 250.278 87.832 244.881 C 85.244 236.936 78.205 231.224 69.897 230.325 L 69.897 230.325 L 69.897 230.325 Z " fill="rgb(0,0,0)"/><path d=" M 84.978 245.808 C 84.968 245.776 84.954 245.745 84.942 245.712 C 82.121 256.047 72.469 259.838 64.927 258.107 C 56.896 256.264 52.737 249.237 51.672 242.628 C 49.307 246.901 48.637 252.096 50.267 257.108 C 53.388 266.693 63.688 271.933 73.272 268.814 C 82.857 265.693 88.099 255.394 84.978 245.808 L 84.978 245.808 Z " fill="rgb(15,15,15)"/></g></g></svg>