<?xml version="1.0" standalone="no"?><!-- Generator: Gravit.io --><svg xmlns="http://www.w3.org/2000/svg" xmlns:xlink="http://www.w3.org/1999/xlink" style="isolation:isolate" viewBox="0 0 340 300" width="340" height="300"><defs><clipPath id="_clipPath_bRiwtGwD5jlSNpmTXQDqlaLODyghUC9E"><rect width="340" height="300"/></clipPath></defs><g clip-path="url(#_clipPath_bRiwtGwD5jlSNpmTXQDqlaLODyghUC9E)"><g id="Group"><rect x="-64" y="-131" width="582" height="402" transform="matrix(1,0,0,1,0,0)" fill="none"/></g><g id="Group"><path d=" M 134.971 275.387 C 134.971 268.015 172.365 262.03 218.424 262.03 C 264.483 262.03 301.877 268.015 301.877 275.387 C 301.877 282.759 264.483 288.744 218.424 288.744 C 172.365 288.744 134.971 282.759 134.971 275.387 Z " fill="rgb(211,211,211)"/><path d=" M 118.278 264.506 C 117.449 264.506 116.778 263.834 116.778 263.006 L 116.778 162.006 C 116.778 161.178 117.449 160.506 118.278 160.506 L 308.277 160.506 C 309.105 160.506 309.777 161.178 309.777 162.006 L 309.777 263.006 C 309.777 263.834 309.105 264.506 308.277 264.506 L 118.278 264.506 Z " fill="rgb(86,8,4)"/><path d=" M 308.277 162.006 L 308.277 263.006 L 118.278 263.006 L 118.278 162.006 L 308.277 162.006 Z  M 308.277 159.006 L 118.278 159.006 C 116.621 159.006 115.278 160.349 115.278 162.006 L 115.278 263.006 C 115.278 264.663 116.621 266.006 118.278 266.006 L 308.277 266.006 C 309.934 266.006 311.277 264.663 311.277 263.006 L 311.277 162.006 C 311.277 160.349 309.935 159.006 308.277 159.006 L 308.277 159.006 Z " fill="rgb(0,0,0)"/><path d=" M 139.301 274.643 C 139.155 274.643 139.009 274.622 138.865 274.579 L 109.199 265.579 C 108.567 265.387 108.135 264.805 108.135 264.143 L 108.135 165.809 C 108.135 164.981 108.806 164.309 109.635 164.309 L 139.301 164.309 C 140.13 164.309 140.801 164.981 140.801 165.809 L 140.801 273.143 C 140.801 273.618 140.576 274.065 140.195 274.348 C 139.933 274.541 139.619 274.643 139.301 274.643 Z " fill="rgb(175,24,12)"/><path d=" M 139.301 165.809 L 139.301 273.143 L 109.635 264.143 L 109.635 165.809 L 139.301 165.809 Z  M 139.301 162.809 L 109.635 162.809 C 107.978 162.809 106.635 164.152 106.635 165.809 L 106.635 264.143 C 106.635 265.464 107.5 266.63 108.764 267.014 L 138.43 276.014 C 138.716 276.1 139.009 276.143 139.301 276.143 C 139.937 276.143 140.565 275.941 141.088 275.553 C 141.851 274.987 142.301 274.093 142.301 273.143 L 142.301 165.809 C 142.301 164.151 140.958 162.809 139.301 162.809 L 139.301 162.809 Z " fill="rgb(0,0,0)"/><path d=" M 292.938 237.895 C 292.518 237.895 292.117 237.718 291.832 237.409 C 278.484 222.837 263.775 198.392 269.507 164.685 C 269.573 164.292 269.793 163.943 270.117 163.712 C 270.373 163.531 270.677 163.436 270.985 163.436 C 271.069 163.436 271.153 163.443 271.237 163.457 L 287.52 166.228 C 288.336 166.367 288.885 167.141 288.747 167.957 C 284.476 193.087 295.194 211.667 304.937 222.829 C 305.428 223.392 305.43 224.23 304.942 224.796 L 294.073 237.374 C 293.794 237.698 293.388 237.887 292.96 237.894 C 292.952 237.895 292.944 237.895 292.938 237.895 L 292.938 237.895 Z " fill="rgb(229,167,28)"/><path d=" M 270.984 164.936 L 287.267 167.707 C 282.841 193.75 294.257 212.877 303.806 223.816 L 292.937 236.394 C 280.785 223.129 265.225 198.809 270.984 164.936 M 270.984 161.936 C 270.366 161.936 269.759 162.126 269.249 162.489 C 268.6 162.95 268.16 163.649 268.026 164.433 C 265.371 180.053 266.859 195.211 272.45 209.488 C 276.529 219.902 282.679 229.637 290.725 238.422 C 291.293 239.043 292.096 239.396 292.937 239.396 C 292.952 239.396 292.966 239.396 292.981 239.396 C 293.836 239.383 294.647 239.005 295.207 238.358 L 306.076 225.78 C 307.054 224.649 307.05 222.971 306.066 221.845 C 296.537 210.927 286.052 192.76 290.225 168.211 C 290.502 166.577 289.404 165.028 287.77 164.751 L 271.487 161.98 C 271.32 161.949 271.152 161.936 270.984 161.936 L 270.984 161.936 L 270.984 161.936 Z " fill="rgb(0,0,0)"/><path d=" M 276.16 165.816 C 272.353 196.23 285.701 218.541 297.084 231.593 L 292.938 236.394 C 280.786 223.128 265.225 198.808 270.985 164.935 L 276.16 165.816 L 276.16 165.816 Z " fill="rgb(168,118,17)"/><path d=" M 294.344 249.404 C 283.452 249.404 274.592 240.544 274.592 229.652 C 274.592 218.761 283.452 209.902 294.344 209.902 C 305.236 209.902 314.096 218.761 314.096 229.652 C 314.096 240.544 305.235 249.404 294.344 249.404 Z " fill="rgb(229,167,28)"/><path d=" M 294.344 211.402 C 304.424 211.402 312.596 219.572 312.596 229.652 C 312.596 239.732 304.424 247.904 294.344 247.904 C 284.264 247.904 276.092 239.732 276.092 229.652 C 276.092 219.572 284.264 211.402 294.344 211.402 Z  M 294.344 208.402 C 282.625 208.402 273.092 217.935 273.092 229.652 C 273.092 241.371 282.625 250.904 294.344 250.904 C 306.063 250.904 315.596 241.371 315.596 229.652 C 315.596 217.936 306.063 208.402 294.344 208.402 L 294.344 208.402 Z " fill="rgb(0,0,0)"/><path d=" M 276.092 229.652 C 276.092 229.619 276.096 229.586 276.096 229.55 C 281.979 238.503 292.33 239.12 298.965 235.14 C 306.033 230.902 307.813 222.933 306.778 216.318 C 310.35 219.65 312.596 224.382 312.596 229.652 C 312.596 239.732 304.424 247.904 294.344 247.904 C 284.264 247.904 276.092 239.732 276.092 229.652 Z " fill="rgb(168,118,17)"/><path d=" M 289.104 273.383 C 288.786 273.383 288.472 273.281 288.21 273.088 C 287.828 272.805 287.604 272.358 287.604 271.883 L 287.604 164.551 C 287.604 163.723 288.276 163.051 289.104 163.051 L 318.77 163.051 C 319.598 163.051 320.27 163.723 320.27 164.551 L 320.27 262.883 C 320.27 263.544 319.837 264.126 319.206 264.319 L 289.54 273.319 C 289.396 273.361 289.249 273.383 289.104 273.383 Z " fill="rgb(175,24,12)"/><path d=" M 318.77 164.551 L 318.77 262.883 L 289.104 271.883 L 289.104 164.551 L 318.77 164.551 Z  M 318.77 161.551 L 289.104 161.551 C 287.447 161.551 286.104 162.894 286.104 164.551 L 286.104 271.883 C 286.104 272.833 286.554 273.727 287.317 274.292 C 287.84 274.681 288.468 274.883 289.104 274.883 C 289.396 274.883 289.689 274.84 289.975 274.754 L 319.641 265.754 C 320.906 265.37 321.77 264.204 321.77 262.883 L 321.77 164.551 C 321.77 162.894 320.427 161.551 318.77 161.551 L 318.77 161.551 Z " fill="rgb(0,0,0)"/><path d=" M 318.77 169.238 L 296.801 166.308 L 289.104 168.126 L 289.104 213.226 C 289.422 204.013 290.42 185.517 293.301 185.642 C 297.133 185.808 301.467 203.976 301.467 239.808 C 302.133 226.974 303.967 191.808 309.633 191.808 C 315.301 191.808 318.133 204.642 318.633 225.308 C 318.68 225.179 318.723 225.052 318.77 224.923 L 318.77 169.238 Z " fill="rgb(132,14,8)"/><path d=" M 135.762 237.895 C 135.334 237.888 134.929 237.7 134.649 237.375 L 123.781 224.797 C 123.292 224.232 123.294 223.393 123.786 222.83 C 133.529 211.668 144.246 193.088 139.976 167.958 C 139.837 167.142 140.387 166.367 141.204 166.229 L 157.487 163.458 C 157.57 163.443 157.654 163.437 157.738 163.437 C 158.047 163.437 158.35 163.533 158.606 163.713 C 158.931 163.943 159.15 164.293 159.217 164.686 C 164.947 198.395 150.238 222.839 136.89 237.41 C 136.606 237.72 136.204 237.896 135.784 237.896 C 135.777 237.895 135.77 237.895 135.762 237.895 L 135.762 237.895 Z " fill="rgb(229,167,28)"/><path d=" M 157.738 164.936 C 163.497 198.809 147.937 223.129 135.784 236.395 L 124.916 223.817 C 134.465 212.878 145.881 193.751 141.455 167.708 L 157.738 164.936 M 157.738 161.936 C 157.571 161.936 157.402 161.95 157.235 161.979 L 140.952 164.75 C 139.319 165.027 138.22 166.576 138.498 168.21 C 142.67 192.759 132.186 210.926 122.656 221.844 C 121.674 222.97 121.669 224.648 122.646 225.778 L 133.514 238.356 C 134.074 239.004 134.884 239.382 135.741 239.395 C 135.755 239.395 135.77 239.395 135.784 239.395 C 136.625 239.395 137.428 239.042 137.996 238.421 C 146.043 229.638 152.192 219.902 156.271 209.487 C 161.862 195.211 163.351 180.052 160.695 164.432 C 160.562 163.648 160.122 162.949 159.473 162.488 C 158.963 162.126 158.356 161.936 157.738 161.936 L 157.738 161.936 L 157.738 161.936 Z " fill="rgb(0,0,0)"/><path d=" M 152.563 165.816 C 156.369 196.23 143.022 218.541 131.638 231.593 L 135.784 236.394 C 147.937 223.128 163.497 198.808 157.738 164.935 L 152.563 165.816 L 152.563 165.816 Z " fill="rgb(168,118,17)"/><path d=" M 104.967 178.309 C 104.566 178.309 104.182 178.149 103.901 177.864 C 103.62 177.579 103.463 177.193 103.467 176.793 C 103.675 157.96 119.163 142.638 137.99 142.638 C 156.816 142.638 172.303 157.96 172.514 176.793 C 172.518 177.193 172.362 177.579 172.08 177.864 C 171.798 178.149 171.414 178.309 171.014 178.309 L 104.967 178.309 Z " fill="rgb(229,167,28)"/><path d=" M 137.99 144.137 C 156.114 144.137 170.812 158.735 171.014 176.809 L 104.966 176.809 C 105.167 158.734 119.865 144.137 137.99 144.137 M 137.99 141.137 C 128.434 141.137 119.433 144.84 112.645 151.564 C 105.865 158.28 102.072 167.234 101.966 176.776 C 101.957 177.578 102.269 178.349 102.833 178.919 C 103.396 179.489 104.165 179.81 104.966 179.81 L 171.014 179.81 C 171.815 179.81 172.584 179.49 173.147 178.919 C 173.71 178.348 174.022 177.577 174.014 176.776 C 173.907 167.234 170.114 158.28 163.334 151.564 C 156.546 144.84 147.545 141.137 137.99 141.137 L 137.99 141.137 Z " fill="rgb(0,0,0)"/><path d=" M 257.773 178.309 C 257.373 178.309 256.988 178.149 256.707 177.864 C 256.425 177.579 256.269 177.193 256.273 176.793 C 256.483 157.96 271.97 142.638 290.796 142.638 C 309.621 142.638 325.109 157.96 325.321 176.793 C 325.326 177.193 325.17 177.579 324.887 177.864 C 324.606 178.149 324.221 178.309 323.821 178.309 L 257.773 178.309 Z " fill="rgb(229,167,28)"/><path d=" M 290.797 144.137 C 308.922 144.137 323.619 158.735 323.822 176.809 L 257.773 176.809 C 257.975 158.734 272.672 144.137 290.797 144.137 M 290.797 141.137 C 281.241 141.137 272.24 144.84 265.452 151.564 C 258.672 158.28 254.88 167.234 254.773 176.776 C 254.764 177.577 255.077 178.349 255.64 178.919 C 256.203 179.489 256.971 179.81 257.773 179.81 L 323.822 179.81 C 324.624 179.81 325.391 179.49 325.955 178.919 C 326.519 178.348 326.831 177.577 326.822 176.775 C 326.715 167.233 322.922 158.28 316.141 151.564 C 309.354 144.84 300.353 141.137 290.797 141.137 L 290.797 141.137 L 290.797 141.137 Z " fill="rgb(0,0,0)"/><path d=" M 299.941 166.186 C 300.205 163.725 301.384 153.194 302.173 146.151 C 298.626 144.85 294.796 144.137 290.796 144.137 C 272.671 144.137 257.974 158.735 257.773 176.809 L 323.822 176.809 C 323.791 174.104 323.429 171.479 322.787 168.967 C 313.439 171.781 299.641 168.986 299.941 166.186 Z " fill="rgb(168,118,17)"/><path d=" M 163.164 239.904 C 159.58 239.904 156.664 236.988 156.664 233.404 L 156.664 166.05 C 156.664 162.466 159.58 159.55 163.164 159.55 L 266.125 158.577 C 269.723 158.577 272.639 161.493 272.639 165.077 L 272.639 233.403 C 272.639 236.987 269.723 239.903 266.139 239.903 L 163.164 239.903 L 163.164 239.904 L 163.164 239.904 Z " fill="rgb(0,0,0)"/><path d=" M 266.139 160.078 C 268.901 160.078 271.139 162.316 271.139 165.078 L 271.139 233.404 C 271.139 236.166 268.901 238.404 266.139 238.404 L 163.164 238.404 C 160.402 238.404 158.164 236.166 158.164 233.404 L 158.164 166.05 C 158.164 163.288 160.402 161.05 163.164 161.05 L 266.139 160.078 M 266.139 157.078 C 266.129 157.078 266.12 157.078 266.111 157.078 L 163.136 158.051 C 158.753 158.051 155.164 161.64 155.164 166.051 L 155.164 233.405 C 155.164 237.816 158.753 241.405 163.164 241.405 L 266.139 241.405 C 270.55 241.405 274.139 237.816 274.139 233.405 L 274.139 165.079 C 274.139 160.667 270.55 157.078 266.139 157.078 L 266.139 157.078 L 266.139 157.078 Z " fill="rgb(0,0,0)"/><path d=" M 228.689 279.189 C 227.861 279.189 227.189 278.517 227.189 277.689 L 227.189 257.759 C 227.189 250.845 221.564 245.22 214.65 245.22 C 207.737 245.22 202.113 250.845 202.113 257.759 L 202.113 277.689 C 202.113 278.517 201.441 279.189 200.613 279.189 L 158.164 279.189 C 157.335 279.189 156.664 278.517 156.664 277.689 L 156.664 230.666 C 156.664 229.838 157.335 229.166 158.164 229.166 L 271.139 229.166 C 271.967 229.166 272.639 229.838 272.639 230.666 L 272.639 277.689 C 272.639 278.517 271.967 279.189 271.139 279.189 L 228.689 279.189 Z " fill="rgb(0,0,0)"/><path d=" M 271.139 230.666 L 271.139 277.689 L 228.69 277.689 L 228.69 257.759 C 228.69 250.005 222.405 243.72 214.651 243.72 C 206.899 243.72 200.614 250.005 200.614 257.759 L 200.614 277.689 L 158.165 277.689 L 158.165 230.666 L 271.139 230.666 Z  M 271.139 227.666 L 158.164 227.666 C 156.507 227.666 155.164 229.009 155.164 230.666 L 155.164 277.689 C 155.164 279.346 156.507 280.689 158.164 280.689 L 200.613 280.689 C 202.27 280.689 203.613 279.346 203.613 277.689 L 203.613 257.759 C 203.613 251.672 208.564 246.72 214.65 246.72 C 220.737 246.72 225.689 251.672 225.689 257.759 L 225.689 277.689 C 225.689 279.346 227.032 280.689 228.689 280.689 L 271.138 280.689 C 272.795 280.689 274.138 279.346 274.138 277.689 L 274.138 230.666 C 274.139 229.009 272.796 227.666 271.139 227.666 L 271.139 227.666 L 271.139 227.666 Z " fill="rgb(0,0,0)"/><path d=" M 149.164 262.404 C 148.69 262.404 148.245 262.18 147.961 261.8 C 147.678 261.42 147.591 260.93 147.726 260.476 L 156.726 230.238 C 156.915 229.602 157.5 229.166 158.164 229.166 L 205.957 229.166 C 206.431 229.166 206.876 229.39 207.159 229.77 C 207.442 230.15 207.53 230.64 207.394 231.094 L 198.394 261.332 C 198.205 261.968 197.621 262.404 196.956 262.404 L 149.164 262.404 L 149.164 262.404 Z " fill="rgb(229,167,28)"/><path d=" M 205.957 230.666 L 196.957 260.904 L 149.164 260.904 L 158.164 230.666 L 205.957 230.666 Z  M 205.957 227.666 L 158.164 227.666 C 156.837 227.666 155.667 228.538 155.289 229.811 L 146.289 260.049 C 146.019 260.956 146.193 261.939 146.76 262.697 C 147.326 263.457 148.218 263.904 149.165 263.904 L 196.958 263.904 C 198.285 263.904 199.455 263.032 199.833 261.759 L 208.833 231.521 C 209.104 230.614 208.929 229.631 208.363 228.873 C 207.796 228.113 206.904 227.666 205.957 227.666 L 205.957 227.666 L 205.957 227.666 Z " fill="rgb(0,0,0)"/><path d=" M 174.03 260.904 L 196.957 260.904 L 205.957 230.666 L 178.363 230.666 C 185.196 230.666 188.529 234.162 188.196 239.285 C 187.863 244.41 180.697 260.904 174.03 260.904 Z " fill="rgb(168,118,17)"/><path d=" M 232.52 262.404 C 231.856 262.404 231.272 261.967 231.082 261.332 L 222.082 231.094 C 221.946 230.64 222.034 230.15 222.317 229.77 C 222.6 229.39 223.046 229.166 223.519 229.166 L 271.312 229.166 C 271.976 229.166 272.56 229.603 272.75 230.238 L 281.75 260.476 C 281.886 260.93 281.798 261.42 281.515 261.8 C 281.232 262.18 280.786 262.404 280.313 262.404 L 232.52 262.404 Z " fill="rgb(229,167,28)"/><path d=" M 271.313 230.666 L 280.313 260.904 L 232.52 260.904 L 223.52 230.666 L 271.313 230.666 Z  M 271.313 227.666 L 223.52 227.666 C 222.573 227.666 221.681 228.113 221.115 228.873 C 220.55 229.632 220.375 230.614 220.645 231.521 L 229.645 261.759 C 230.023 263.031 231.193 263.904 232.52 263.904 L 280.313 263.904 C 281.26 263.904 282.152 263.457 282.718 262.697 C 283.283 261.938 283.458 260.956 283.188 260.049 L 274.188 229.811 C 273.81 228.538 272.64 227.666 271.313 227.666 L 271.313 227.666 Z " fill="rgb(0,0,0)"/><path d=" M 253.047 260.904 L 280.313 260.904 L 271.313 230.666 L 245.473 230.666 C 251.907 230.666 259.668 232.213 263.434 239.285 C 267.201 246.357 258.639 260.904 253.047 260.904 L 253.047 260.904 Z " fill="rgb(168,118,17)"/><path d=" M 271.139 168.744 L 271.139 206.414 L 158.164 206.414 L 158.164 168.744 L 271.139 168.744 Z  M 271.139 165.744 L 158.164 165.744 C 156.507 165.744 155.164 167.087 155.164 168.744 L 155.164 206.414 C 155.164 208.071 156.507 209.414 158.164 209.414 L 271.139 209.414 C 272.796 209.414 274.139 208.071 274.139 206.414 L 274.139 168.744 C 274.139 167.087 272.796 165.744 271.139 165.744 L 271.139 165.744 Z " fill="rgb(0,0,0)"/><path d=" M 203.332 154.977 C 203.332 154.977 215.594 161.108 229.635 154.977" fill="rgb(239,184,134)" vector-effect="non-scaling-stroke" stroke-width="3" stroke="rgb(0,0,0)" stroke-linejoin="miter" stroke-linecap="round" stroke-miterlimit="10"/><path d=" M 128.184 148.516 C 128.184 148.516 109.854 153.536 108.064 173.266 C 110.33 168.92 113.491 156.559 128.184 148.516 Z " fill="rgb(239,199,117)"/><path d=" M 151.688 253.926 C 151.265 253.926 150.856 253.746 150.569 253.425 C 150.222 253.037 150.102 252.497 150.25 251.998 L 156.727 230.238 C 156.916 229.602 157.501 229.166 158.165 229.166 L 179.296 229.166 C 179.797 229.166 180.265 229.416 180.544 229.833 C 180.823 230.25 180.874 230.778 180.682 231.241 C 177.094 239.885 169.196 250.832 151.953 253.902 C 151.863 253.918 151.775 253.926 151.688 253.926 Z " fill="rgb(15,74,114)"/><path d=" M 179.295 230.666 C 175.914 238.809 168.358 249.457 151.688 252.426 L 158.165 230.666 L 179.295 230.666 Z  M 179.295 227.666 L 158.164 227.666 C 156.837 227.666 155.667 228.538 155.289 229.811 L 148.812 251.571 C 148.515 252.568 148.756 253.648 149.45 254.425 C 150.025 255.069 150.842 255.427 151.688 255.427 C 151.863 255.427 152.039 255.411 152.214 255.38 C 170.125 252.191 178.334 240.806 182.066 231.817 C 182.451 230.891 182.347 229.835 181.791 229.001 C 181.233 228.167 180.297 227.666 179.295 227.666 L 179.295 227.666 Z " fill="rgb(0,0,0)"/><path d=" M 277.945 253.926 C 277.858 253.926 277.77 253.918 277.682 253.903 C 260.438 250.833 252.54 239.884 248.952 231.242 C 248.761 230.779 248.812 230.251 249.09 229.834 C 249.368 229.417 249.837 229.167 250.338 229.167 L 271.469 229.167 C 272.133 229.167 272.717 229.604 272.907 230.239 L 279.384 251.999 C 279.532 252.498 279.412 253.038 279.066 253.426 C 278.777 253.746 278.368 253.926 277.945 253.926 L 277.945 253.926 Z " fill="rgb(15,74,114)"/><path d=" M 271.469 230.666 L 277.946 252.426 C 261.276 249.457 253.719 238.809 250.339 230.666 L 271.469 230.666 M 271.469 227.666 L 250.338 227.666 C 249.336 227.666 248.4 228.167 247.843 229 C 247.286 229.834 247.183 230.891 247.568 231.816 C 251.3 240.804 259.508 252.189 277.42 255.379 C 277.596 255.41 277.772 255.426 277.946 255.426 C 278.793 255.426 279.609 255.068 280.184 254.424 C 280.876 253.648 281.118 252.568 280.821 251.57 L 274.344 229.81 C 273.966 228.538 272.796 227.666 271.469 227.666 L 271.469 227.666 L 271.469 227.666 Z " fill="rgb(0,0,0)"/><path d=" M 153.27 279.189 C 152.441 279.189 151.77 278.517 151.77 277.689 C 151.77 262.335 164.261 249.845 179.614 249.845 C 194.968 249.845 207.458 262.335 207.458 277.689 C 207.458 278.517 206.786 279.189 205.958 279.189 L 153.27 279.189 L 153.27 279.189 Z " fill="rgb(229,167,28)"/><path d=" M 179.613 251.346 C 194.162 251.346 205.957 263.141 205.957 277.69 L 153.27 277.69 C 153.27 263.141 165.064 251.346 179.613 251.346 M 179.613 248.346 C 163.433 248.346 150.269 261.509 150.269 277.69 C 150.269 279.347 151.612 280.69 153.269 280.69 L 205.957 280.69 C 207.614 280.69 208.957 279.347 208.957 277.69 C 208.957 261.509 195.794 248.346 179.613 248.346 L 179.613 248.346 L 179.613 248.346 Z " fill="rgb(0,0,0)"/><path d=" M 223.52 279.189 C 222.692 279.189 222.02 278.517 222.02 277.689 C 222.02 262.335 234.51 249.845 249.864 249.845 C 265.218 249.845 277.708 262.335 277.708 277.689 C 277.708 278.517 277.036 279.189 276.208 279.189 L 223.52 279.189 Z " fill="rgb(229,167,28)"/><path d=" M 249.863 251.346 C 264.412 251.346 276.207 263.141 276.207 277.69 L 223.52 277.69 C 223.52 263.141 235.314 251.346 249.863 251.346 Z  M 249.863 248.346 C 233.682 248.346 220.519 261.509 220.519 277.69 C 220.519 279.347 221.862 280.69 223.519 280.69 L 276.207 280.69 C 277.864 280.69 279.207 279.347 279.207 277.69 C 279.207 261.509 266.044 248.346 249.863 248.346 L 249.863 248.346 Z " fill="rgb(0,0,0)"/><path d=" M 179.613 251.346 C 178.116 251.346 176.651 251.477 175.222 251.717 C 187.68 253.809 197.175 264.637 197.175 277.69 L 205.956 277.69 C 205.957 263.141 194.162 251.346 179.613 251.346 L 179.613 251.346 Z " fill="rgb(168,118,17)"/><path d=" M 249.863 251.346 C 248.365 251.346 246.9 251.477 245.472 251.717 C 257.929 253.809 267.425 264.637 267.425 277.69 L 276.206 277.69 C 276.207 263.141 264.412 251.346 249.863 251.346 L 249.863 251.346 Z " fill="rgb(168,118,17)"/><path d=" M 214.824 260.143 C 214.53 260.143 214.24 260.056 213.993 259.891 C 188.724 253.3 187.41 225.232 187.4 224.948 C 187.385 224.546 187.533 224.155 187.809 223.862 C 188.086 223.57 188.468 223.401 188.87 223.393 L 214.664 222.902 C 214.717 222.896 214.835 222.893 214.841 222.893 C 214.841 222.893 215.142 222.893 215.148 222.893 C 215.202 222.893 215.255 222.896 215.309 222.902 L 241.102 223.393 C 241.504 223.401 241.887 223.57 242.164 223.862 C 242.44 224.155 242.588 224.546 242.573 224.948 C 242.562 225.233 241.245 253.387 215.863 259.923 C 215.628 260.058 215.363 260.137 215.096 260.137 C 215.064 260.137 215.032 260.136 214.999 260.133 C 214.941 260.14 214.883 260.143 214.824 260.143 L 214.824 260.143 Z " fill="rgb(15,74,114)"/><path d=" M 215.148 224.393 L 215.148 224.399 L 241.074 224.893 C 241.074 224.893 240.074 252.391 215.148 258.555 L 215.148 258.643 C 215.093 258.629 215.043 258.612 214.986 258.598 C 214.931 258.612 214.881 258.629 214.824 258.643 L 214.824 258.555 C 189.899 252.391 188.899 224.893 188.899 224.893 L 214.824 224.399 L 214.824 224.393 L 214.986 224.395 L 215.148 224.393 Z  M 214.824 221.393 C 214.742 221.393 214.661 221.396 214.58 221.403 L 188.842 221.894 C 188.037 221.909 187.273 222.247 186.72 222.832 C 186.167 223.416 185.872 224.198 185.901 225.003 C 185.912 225.307 186.213 232.544 189.769 240.622 C 194.461 251.28 202.626 258.413 213.411 261.29 C 213.847 261.522 214.332 261.644 214.824 261.644 C 214.878 261.644 214.932 261.643 214.986 261.64 C 215.04 261.643 215.094 261.644 215.148 261.644 C 215.64 261.644 216.126 261.523 216.561 261.29 C 227.345 258.413 235.511 251.28 240.204 240.622 C 243.761 232.544 244.061 225.307 244.072 225.003 C 244.101 224.198 243.806 223.416 243.254 222.832 C 242.7 222.247 241.936 221.909 241.132 221.894 L 215.392 221.403 C 215.311 221.396 215.23 221.393 215.149 221.393 C 215.136 221.393 215.125 221.393 215.113 221.393 L 214.987 221.395 L 214.861 221.393 C 214.849 221.393 214.836 221.393 214.824 221.393 L 214.824 221.393 Z " fill="rgb(0,0,0)"/><path d=" M 215.148 224.398 L 215.148 224.392 L 215.103 224.392 L 215.103 224.398 L 233.671 224.892 C 233.671 224.892 232.956 252.39 215.103 258.554 L 215.103 258.628 C 215.117 258.634 215.132 258.638 215.148 258.642 L 215.148 258.554 C 240.074 252.39 241.074 224.892 241.074 224.892 L 215.148 224.398 Z " fill="rgb(9,54,79)"/><path d=" M 158.164 232.166 C 157.335 232.166 156.664 231.494 156.664 230.666 L 156.664 220.488 C 156.664 219.66 157.335 218.988 158.164 218.988 L 271.139 218.988 C 271.967 218.988 272.639 219.66 272.639 220.488 L 272.639 230.666 C 272.639 231.494 271.967 232.166 271.139 232.166 L 158.164 232.166 L 158.164 232.166 Z " fill="rgb(229,167,28)"/><path d=" M 271.139 220.488 L 271.139 230.666 L 158.164 230.666 L 158.164 220.488 L 271.139 220.488 Z  M 271.139 217.488 L 158.164 217.488 C 156.507 217.488 155.164 218.831 155.164 220.488 L 155.164 230.666 C 155.164 232.323 156.507 233.666 158.164 233.666 L 271.139 233.666 C 272.796 233.666 274.139 232.323 274.139 230.666 L 274.139 220.488 C 274.139 218.831 272.796 217.488 271.139 217.488 L 271.139 217.488 Z " fill="rgb(0,0,0)"/><path d=" M 215.26 111.737 C 206.578 111.737 199.516 104.674 199.516 95.993 C 199.516 87.312 206.579 80.249 215.26 80.249 C 223.941 80.249 231.004 87.312 231.004 95.993 C 231.004 104.674 223.941 111.737 215.26 111.737 Z " fill="rgb(229,229,229)"/><path d=" M 215.26 81.749 C 223.125 81.749 229.504 88.127 229.504 95.993 C 229.504 103.859 223.125 110.237 215.26 110.237 C 207.393 110.237 201.016 103.859 201.016 95.993 C 201.016 88.127 207.393 81.749 215.26 81.749 Z  M 215.26 78.749 C 205.751 78.749 198.016 86.485 198.016 95.993 C 198.016 105.501 205.751 113.237 215.26 113.237 C 224.769 113.237 232.504 105.501 232.504 95.993 C 232.504 86.485 224.769 78.749 215.26 78.749 L 215.26 78.749 Z " fill="rgb(0,0,0)"/><path d=" M 215.26 207.914 C 171.47 207.914 135.844 159.499 135.844 99.988 C 135.844 59.705 171.47 26.932 215.26 26.932 C 259.05 26.932 294.676 59.704 294.676 99.988 C 294.676 159.499 259.05 207.914 215.26 207.914 Z " fill="rgb(239,184,134)"/><path d=" M 215.26 28.433 C 258.291 28.433 293.176 60.47 293.176 99.989 C 293.176 158.766 258.291 206.415 215.26 206.415 C 172.228 206.415 137.344 158.767 137.344 99.989 C 137.344 60.47 172.228 28.433 215.26 28.433 Z  M 215.26 25.433 C 170.643 25.433 134.344 58.878 134.344 99.989 C 134.344 129.049 142.655 156.404 157.744 177.015 C 173.04 197.909 193.466 209.414 215.26 209.414 C 237.053 209.414 257.479 197.908 272.776 177.015 C 287.866 156.404 296.176 129.048 296.176 99.989 C 296.176 58.878 259.877 25.433 215.26 25.433 L 215.26 25.433 Z " fill="rgb(0,0,0)"/><path d=" M 215.26 28.433 C 246.588 28.433 271.985 60.47 271.985 99.989 C 271.985 158.766 246.589 206.415 215.26 206.415 C 258.291 206.415 293.176 158.767 293.176 99.989 C 293.176 60.47 258.291 28.433 215.26 28.433 Z " fill="rgb(183,126,83)"/><path d=" M 171.323 124.578 C 171.323 120.629 174.529 117.423 178.478 117.423 C 182.427 117.423 185.633 120.629 185.633 124.578 C 185.633 128.527 182.427 131.733 178.478 131.733 C 174.529 131.733 171.323 128.527 171.323 124.578 Z " fill="rgb(0,0,0)"/><path d=" M 244.875 124.578 C 244.875 120.629 248.081 117.423 252.03 117.423 C 255.979 117.423 259.185 120.629 259.185 124.578 C 259.185 128.527 255.979 131.733 252.03 131.733 C 248.081 131.733 244.875 128.527 244.875 124.578 Z " fill="rgb(0,0,0)"/><path d=" M 205.959 241.178 C 197.19 241.178 190.057 234.044 190.057 225.276 C 190.057 216.508 197.191 209.374 205.959 209.374 C 214.726 209.374 221.857 216.508 221.857 225.276 C 221.857 234.044 214.726 241.178 205.959 241.178 Z " fill="rgb(211,81,30)"/><path d=" M 205.959 210.873 C 213.912 210.873 220.357 217.32 220.357 225.275 C 220.357 233.228 213.912 239.677 205.959 239.677 C 198 239.677 191.557 233.228 191.557 225.275 C 191.557 217.32 198 210.873 205.959 210.873 Z  M 205.959 207.873 C 196.363 207.873 188.557 215.68 188.557 225.275 C 188.557 234.87 196.364 242.677 205.959 242.677 C 215.553 242.677 223.357 234.87 223.357 225.275 C 223.357 215.68 215.553 207.873 205.959 207.873 L 205.959 207.873 Z " fill="rgb(0,0,0)"/><path d=" M 197.635 227.988 C 196.139 227.988 194.924 226.771 194.924 225.275 C 194.924 219.187 199.871 214.24 205.959 214.24 C 207.455 214.24 208.67 215.457 208.67 216.953 C 208.67 218.449 207.455 219.666 205.959 219.666 C 202.863 219.666 200.35 222.18 200.35 225.275 C 200.35 226.771 199.135 227.988 197.635 227.988 L 197.635 227.988 Z " fill="rgb(234,131,99)"/><path d=" M 212.097 266.018 C 211.833 266.018 211.568 265.949 211.327 265.805 C 202.287 260.395 197.318 254.003 196.559 246.808 C 195.403 235.842 204.487 227.251 204.874 226.891 C 205.162 226.622 205.528 226.489 205.895 226.489 C 206.264 226.489 206.633 226.625 206.921 226.895 C 207.02 226.987 216.654 236.215 211.067 246.945 C 208.232 252.388 208.978 257.994 213.286 263.605 C 213.724 264.176 213.695 264.978 213.217 265.516 C 212.925 265.845 212.514 266.018 212.097 266.018 L 212.097 266.018 Z " fill="rgb(255,255,255)"/><path d=" M 205.896 227.988 C 205.896 227.988 214.865 236.406 209.738 246.252 C 206.058 253.316 208.431 259.742 212.097 264.518 C 184.432 247.961 205.896 227.988 205.896 227.988 M 205.896 224.988 C 205.163 224.988 204.428 225.256 203.852 225.792 C 203.443 226.173 193.833 235.263 195.067 246.966 C 195.879 254.654 201.089 261.426 210.556 267.092 C 211.035 267.379 211.568 267.518 212.096 267.518 C 212.929 267.518 213.75 267.171 214.337 266.513 C 215.295 265.438 215.354 263.833 214.477 262.691 C 210.555 257.584 209.856 252.519 212.399 247.638 C 217.285 238.254 211.625 229.251 207.949 225.801 C 207.373 225.26 206.635 224.988 205.896 224.988 L 205.896 224.988 L 205.896 224.988 Z " fill="rgb(0,0,0)"/><path d=" M 209.738 246.252 C 214.865 236.406 205.896 227.988 205.896 227.988 C 205.896 227.988 210.681 235.492 205.896 243.492 C 201.113 251.492 208.084 261.793 212.097 264.517 C 208.432 259.742 206.059 253.316 209.738 246.252 L 209.738 246.252 Z " fill="rgb(209,209,209)"/><path d=" M 175.556 195.842 C 175.287 195.842 175.019 195.77 174.782 195.626 L 140.6 175.017 C 140.188 174.769 139.92 174.337 139.88 173.858 L 132.884 90.475 C 132.83 89.828 133.197 89.22 133.795 88.968 L 155.369 79.862 C 155.557 79.783 155.755 79.744 155.952 79.744 C 156.243 79.744 156.532 79.828 156.781 79.994 C 157.2 80.272 157.452 80.741 157.452 81.244 L 157.452 130.151 L 176.317 141.276 C 176.775 141.546 177.055 142.037 177.055 142.568 L 177.055 194.343 C 177.055 194.884 176.763 195.383 176.293 195.649 C 176.064 195.777 175.81 195.842 175.556 195.842 L 175.556 195.842 Z " fill="rgb(117,61,14)"/><path d=" M 155.952 81.242 L 155.952 131.006 L 175.556 142.567 L 175.556 194.342 L 141.374 173.733 L 134.378 90.349 L 155.952 81.242 M 155.952 78.242 C 155.556 78.242 155.16 78.32 154.785 78.478 L 133.211 87.584 C 132.015 88.088 131.279 89.305 131.388 90.599 L 138.384 173.983 C 138.464 174.942 139 175.804 139.824 176.301 L 174.006 196.91 C 174.482 197.197 175.018 197.341 175.555 197.341 C 176.063 197.341 176.572 197.212 177.03 196.953 C 177.972 196.421 178.555 195.423 178.555 194.341 L 178.555 142.566 C 178.555 141.504 177.993 140.521 177.079 139.982 L 158.952 129.292 L 158.952 81.242 C 158.952 80.237 158.448 79.298 157.61 78.742 C 157.111 78.411 156.533 78.242 155.952 78.242 L 155.952 78.242 L 155.952 78.242 Z " fill="rgb(0,0,0)"/><path d=" M 257.412 195.842 C 257.158 195.842 256.903 195.778 256.675 195.648 C 256.203 195.382 255.912 194.883 255.912 194.342 L 255.912 142.567 C 255.912 142.036 256.192 141.545 256.65 141.275 L 275.515 130.15 L 275.515 101.932 L 216.731 127.518 C 216.541 127.601 216.336 127.643 216.132 127.643 C 215.926 127.643 215.72 127.601 215.528 127.516 L 157.452 101.942 L 157.452 130.15 L 176.317 141.275 C 176.775 141.545 177.055 142.036 177.055 142.567 L 177.055 194.342 C 177.055 194.883 176.763 195.382 176.293 195.648 C 176.064 195.778 175.81 195.842 175.555 195.842 C 175.286 195.842 175.018 195.77 174.781 195.626 L 140.6 175.017 C 140.188 174.769 139.92 174.337 139.88 173.858 L 132.884 90.475 C 132.881 90.433 132.879 90.392 132.879 90.35 C 132.879 43.423 170.384 5.245 216.483 5.245 C 262.558 5.245 300.047 43.383 300.088 90.274 C 300.091 90.341 300.09 90.408 300.085 90.476 L 293.089 173.859 C 293.048 174.338 292.78 174.77 292.368 175.018 L 258.186 195.627 C 257.948 195.77 257.681 195.842 257.412 195.842 L 257.412 195.842 Z " fill="rgb(229,167,28)"/><path d=" M 216.482 6.743 C 261.828 6.743 298.587 44.174 298.587 90.347 L 298.589 90.348 L 291.593 173.732 L 257.411 194.341 L 257.411 142.566 L 277.015 131.005 L 277.015 99.642 L 216.132 126.142 L 155.951 99.642 L 155.951 131.005 L 175.555 142.566 L 175.555 194.341 L 141.373 173.732 L 134.377 90.348 C 134.378 44.175 171.138 6.743 216.482 6.743 M 216.482 3.743 C 169.555 3.743 131.378 42.594 131.378 90.348 C 131.378 90.431 131.381 90.515 131.388 90.599 L 138.384 173.983 C 138.465 174.942 139.001 175.804 139.825 176.301 L 174.007 196.91 C 174.483 197.197 175.019 197.341 175.556 197.341 C 176.064 197.341 176.573 197.212 177.031 196.953 C 177.973 196.421 178.556 195.423 178.556 194.341 L 178.556 142.566 C 178.556 141.504 177.994 140.521 177.08 139.982 L 158.953 129.292 L 158.953 104.242 L 214.925 128.888 C 215.31 129.058 215.722 129.143 216.134 129.143 C 216.542 129.143 216.949 129.06 217.331 128.894 L 274.017 104.221 L 274.017 129.293 L 255.89 139.983 C 254.975 140.522 254.413 141.505 254.413 142.567 L 254.413 194.342 C 254.413 195.424 254.996 196.422 255.937 196.954 C 256.395 197.213 256.905 197.342 257.413 197.342 C 257.95 197.342 258.486 197.198 258.962 196.911 L 293.144 176.302 C 293.968 175.805 294.504 174.943 294.584 173.984 L 301.58 90.6 C 301.591 90.478 301.594 90.356 301.589 90.236 C 301.527 42.534 263.372 3.743 216.482 3.743 L 216.482 3.743 L 216.482 3.743 Z " fill="rgb(0,0,0)"/><path d=" M 259.764 107.152 L 277.016 99.642 L 277.016 131.005 L 257.412 142.566 L 257.412 194.341 L 291.594 173.732 L 298.59 90.348 L 298.588 90.347 C 298.588 44.173 261.828 6.743 216.483 6.743 C 216.482 6.743 255.186 9.778 259.764 107.152 L 259.764 107.152 Z " fill="rgb(168,118,17)"/><path d=" M 146.634 56.393 C 146.634 56.393 160.634 18.643 203.133 11.643 C 187.884 19.143 168.634 26.393 146.634 56.393 Z " fill="rgb(239,199,117)"/><path d=" M 215.801 152.201 C 209.46 152.201 204.301 147.042 204.301 140.701 L 204.301 100.036 C 204.301 93.695 209.46 88.536 215.801 88.536 L 217.135 88.536 C 223.476 88.536 228.635 93.695 228.635 100.036 L 228.635 140.701 C 228.635 147.042 223.476 152.201 217.135 152.201 L 215.801 152.201 Z " fill="rgb(229,167,28)"/><path d=" M 217.135 90.036 C 222.656 90.036 227.135 94.514 227.135 100.036 L 227.135 140.701 C 227.135 146.224 222.656 150.701 217.135 150.701 L 215.801 150.701 C 210.278 150.701 205.801 146.224 205.801 140.701 L 205.801 100.036 C 205.801 94.514 210.278 90.036 215.801 90.036 L 217.135 90.036 M 217.135 87.036 L 215.801 87.036 C 208.633 87.036 202.801 92.868 202.801 100.036 L 202.801 140.701 C 202.801 147.869 208.633 153.701 215.801 153.701 L 217.135 153.701 C 224.303 153.701 230.135 147.869 230.135 140.701 L 230.135 100.036 C 230.135 92.868 224.303 87.036 217.135 87.036 L 217.135 87.036 Z " fill="rgb(0,0,0)"/><path d=" M 196.115 122.019 L 162.133 118.919 C 161.683 118.878 161.276 118.637 161.024 118.262 C 160.772 117.887 160.703 117.419 160.835 116.987 L 164.003 106.619 C 164.128 106.21 164.422 105.873 164.811 105.695 C 165.01 105.604 165.224 105.558 165.438 105.558 C 165.643 105.558 165.847 105.6 166.039 105.683 L 196.853 119.151 C 197.528 119.446 197.888 120.186 197.706 120.899 C 197.534 121.566 196.932 122.025 196.254 122.025 C 196.208 122.025 196.162 122.023 196.115 122.019 L 196.115 122.019 Z " fill="rgb(96,29,29)"/><path d=" M 165.438 107.058 L 196.252 120.526 L 162.27 117.426 L 165.438 107.058 M 165.438 104.058 C 165.01 104.058 164.582 104.15 164.185 104.332 C 163.407 104.69 162.819 105.362 162.569 106.181 L 159.401 116.549 C 159.137 117.412 159.276 118.349 159.78 119.099 C 160.284 119.849 161.098 120.331 161.998 120.413 L 195.98 123.513 C 196.072 123.521 196.164 123.525 196.254 123.525 C 197.61 123.525 198.815 122.608 199.157 121.272 C 199.523 119.847 198.802 118.366 197.453 117.776 L 166.639 104.308 C 166.256 104.141 165.847 104.058 165.438 104.058 L 165.438 104.058 L 165.438 104.058 Z " fill="rgb(0,0,0)"/><path d=" M 235.474 122.025 C 234.795 122.025 234.194 121.566 234.022 120.899 C 233.839 120.186 234.2 119.446 234.875 119.151 L 265.689 105.683 C 265.88 105.6 266.085 105.558 266.29 105.558 C 266.504 105.558 266.718 105.604 266.917 105.695 C 267.306 105.874 267.6 106.21 267.725 106.619 L 270.893 116.987 C 271.025 117.419 270.956 117.887 270.704 118.262 C 270.452 118.637 270.045 118.878 269.596 118.919 L 235.614 122.019 C 235.564 122.023 235.519 122.025 235.474 122.025 L 235.474 122.025 Z " fill="rgb(96,29,29)"/><path d=" M 266.289 107.058 L 269.457 117.426 L 235.475 120.526 L 266.289 107.058 M 266.289 104.058 C 265.88 104.058 265.471 104.141 265.088 104.309 L 234.274 117.777 C 232.925 118.366 232.204 119.847 232.57 121.273 C 232.913 122.609 234.117 123.526 235.473 123.526 C 235.564 123.526 235.656 123.522 235.747 123.514 L 269.729 120.414 C 270.628 120.332 271.443 119.849 271.947 119.1 C 272.451 118.351 272.59 117.413 272.326 116.55 L 269.158 106.182 C 268.908 105.363 268.32 104.691 267.543 104.333 C 267.146 104.149 266.717 104.058 266.289 104.058 L 266.289 104.058 L 266.289 104.058 Z " fill="rgb(0,0,0)"/><path d=" M 100.068 210.719 C 99.576 210.719 99.094 210.478 98.807 210.033 L 13.746 78.539 C 1.208 59.156 6.72 34.788 7.261 32.559 C 7.293 32.344 7.37 32.136 7.494 31.951 C 7.594 31.802 7.718 31.673 7.857 31.569 C 8.036 31.434 8.245 31.339 8.471 31.295 C 8.568 31.276 8.665 31.267 8.762 31.267 C 8.915 31.267 9.066 31.29 9.21 31.335 C 11.731 31.807 35.96 36.796 48.443 56.094 L 133.504 187.589 C 133.72 187.923 133.795 188.329 133.712 188.718 C 133.629 189.107 133.394 189.447 133.06 189.663 L 100.881 210.479 C 100.629 210.641 100.347 210.719 100.068 210.719 L 100.068 210.719 Z " fill="rgb(168,168,168)"/><path d=" M 8.758 32.759 L 8.774 32.78 C 9.598 32.925 34.594 37.446 47.185 56.909 C 59.989 76.7 132.246 188.403 132.246 188.403 L 122.541 194.68 L 109.772 202.942 L 100.067 209.219 C 100.067 209.219 27.81 97.517 15.005 77.724 C 2.415 58.26 8.542 33.608 8.747 32.796 L 8.734 32.774 C 8.734 32.774 8.75 32.776 8.753 32.777 L 8.758 32.759 M 8.759 29.77 C 8.621 29.77 8.483 29.78 8.345 29.799 C 7.5 29.909 6.728 30.378 6.241 31.106 C 5.979 31.498 5.818 31.939 5.76 32.39 C 5 35.633 -0.094 59.904 12.487 79.354 C 25.292 99.147 97.549 210.849 97.549 210.849 C 98.123 211.737 99.087 212.22 100.071 212.22 C 100.629 212.22 101.194 212.065 101.697 211.739 L 111.402 205.462 L 124.171 197.2 L 133.876 190.923 C 134.544 190.491 135.013 189.812 135.18 189.033 C 135.347 188.256 135.198 187.443 134.766 186.775 C 134.766 186.775 62.509 75.071 49.705 55.28 C 36.907 35.497 12.162 30.364 9.492 29.862 C 9.252 29.801 9.007 29.77 8.759 29.77 L 8.759 29.77 L 8.759 29.77 Z " fill="rgb(0,0,0)"/><path d=" M 8.736 32.84 C 8.426 34.076 2.531 58.44 15.005 77.724 C 27.81 97.517 100.067 209.219 100.067 209.219 L 109.772 202.942 L 116.117 198.837 L 8.736 32.84 L 8.736 32.84 Z " fill="rgb(255,255,255)"/><path d=" M 93.815 184.502 C 93.323 184.502 92.841 184.261 92.554 183.816 L 47.395 114.005 C 40.659 103.591 43.504 90.532 43.849 89.085 C 43.879 88.904 43.942 88.728 44.038 88.565 C 44.04 88.562 44.041 88.56 44.043 88.557 C 44.246 88.213 44.581 87.957 44.982 87.86 C 45.1 87.831 45.218 87.818 45.336 87.818 C 45.487 87.818 45.636 87.841 45.778 87.884 C 47.49 88.217 60.332 91.021 66.996 101.324 L 112.155 171.135 C 112.605 171.83 112.406 172.759 111.711 173.208 L 94.628 184.262 C 94.376 184.425 94.094 184.502 93.815 184.502 L 93.815 184.502 Z " fill="rgb(170,119,17)"/><path d=" M 45.336 89.317 L 45.346 89.329 C 45.783 89.406 59.054 91.806 65.738 102.139 C 72.535 112.647 110.897 171.95 110.897 171.95 L 105.746 175.284 L 98.967 179.671 L 93.815 183.003 C 93.815 183.003 55.453 123.697 48.656 113.191 C 41.972 102.858 45.224 89.769 45.333 89.338 L 45.325 89.326 L 45.336 89.327 C 45.334 89.326 45.336 89.317 45.336 89.317 M 45.336 86.324 C 45.102 86.324 44.866 86.352 44.632 86.408 C 44.419 86.46 44.215 86.533 44.023 86.627 C 43.503 86.878 43.057 87.278 42.751 87.793 C 42.562 88.111 42.436 88.455 42.373 88.807 C 41.837 91.057 39.173 104.055 46.136 114.82 C 52.933 125.326 91.295 184.631 91.295 184.631 C 91.869 185.519 92.833 186.002 93.817 186.002 C 94.375 186.002 94.94 185.847 95.443 185.522 L 100.595 182.19 L 107.375 177.802 L 112.526 174.468 C 113.917 173.568 114.315 171.711 113.415 170.32 L 68.256 100.51 C 61.23 89.648 47.731 86.734 46.026 86.405 C 45.801 86.351 45.57 86.324 45.336 86.324 L 45.336 86.324 L 45.336 86.324 Z " fill="rgb(0,0,0)"/><path d=" M 102.316 177.502 L 45.318 89.392 C 45.087 90.33 42.111 103.077 48.654 113.191 C 55.451 123.697 93.813 183.003 93.813 183.003 L 98.965 179.671 L 102.316 177.502 Z " fill="rgb(229,167,28)"/><path d=" M 150.33 262.709 C 147.773 262.709 145.418 261.43 144.032 259.285 L 103.184 196.137 C 102.097 194.458 101.729 192.455 102.149 190.497 C 102.568 188.541 103.725 186.864 105.404 185.777 L 108.676 183.662 C 109.891 182.876 111.297 182.46 112.74 182.46 C 115.295 182.46 117.649 183.739 119.036 185.882 L 159.885 249.031 C 162.129 252.499 161.132 257.147 157.663 259.391 L 154.393 261.507 C 153.178 262.294 151.773 262.709 150.33 262.709 L 150.33 262.709 Z " fill="rgb(15,74,114)"/><path d=" M 112.741 183.96 C 114.706 183.96 116.631 184.926 117.778 186.697 L 158.627 249.845 C 160.425 252.624 159.629 256.333 156.85 258.132 L 153.58 260.247 C 152.574 260.897 151.446 261.208 150.331 261.208 C 148.365 261.208 146.439 260.243 145.293 258.47 L 104.444 195.322 C 102.646 192.545 103.443 188.834 106.22 187.037 L 109.491 184.922 C 110.497 184.271 111.625 183.96 112.741 183.96 Z  M 112.741 180.96 L 112.741 180.96 C 111.008 180.96 109.321 181.459 107.862 182.403 L 104.591 184.517 C 102.574 185.822 101.187 187.833 100.683 190.182 C 100.179 192.532 100.62 194.936 101.925 196.952 L 142.773 260.1 C 144.437 262.672 147.262 264.208 150.33 264.208 C 152.062 264.208 153.749 263.71 155.208 262.767 L 158.478 260.651 C 162.642 257.957 163.837 252.379 161.145 248.215 L 120.296 185.067 C 118.631 182.495 115.807 180.96 112.741 180.96 L 112.741 180.96 L 112.741 180.96 Z " fill="rgb(0,0,0)"/><path d=" M 109.491 184.922 L 106.22 187.037 C 106.171 187.068 106.126 187.105 106.078 187.141 C 108.839 185.467 112.446 186.276 114.211 189.004 L 155.061 252.152 C 156.826 254.881 156.085 258.504 153.427 260.336 C 153.476 260.305 153.529 260.279 153.579 260.248 L 156.849 258.133 C 159.628 256.334 160.424 252.625 158.626 249.846 L 117.777 186.698 C 115.979 183.92 112.271 183.123 109.491 184.922 L 109.491 184.922 Z " fill="rgb(9,54,79)"/><g id="svg_169"><path d=" M 88.136 224.908 C 85.58 224.908 83.227 223.628 81.841 221.484 L 77.342 214.529 C 76.255 212.85 75.887 210.846 76.307 208.889 C 76.726 206.931 77.883 205.255 79.564 204.169 L 87.357 199.128 C 87.373 198.808 87.408 198.478 87.461 198.141 L 91.673 171.62 C 92.032 169.365 93.25 167.464 95.102 166.265 C 96.337 165.465 97.772 165.042 99.253 165.042 C 99.966 165.042 100.686 165.14 101.394 165.331 L 127.311 172.363 C 127.64 172.451 127.955 172.554 128.255 172.672 L 136.047 167.631 C 137.262 166.845 138.668 166.429 140.111 166.429 C 142.666 166.429 145.02 167.708 146.406 169.852 L 150.906 176.807 C 153.149 180.275 152.153 184.922 148.685 187.167 L 92.2 223.705 C 90.985 224.492 89.579 224.908 88.136 224.908 L 88.136 224.908 L 88.136 224.908 Z " fill="rgb(229,167,28)"/><path d=" M 99.253 166.542 C 99.83 166.542 100.417 166.621 101.002 166.779 L 126.918 173.81 C 127.505 173.968 127.983 174.164 128.381 174.376 L 136.862 168.89 C 137.868 168.239 138.996 167.928 140.111 167.928 C 142.076 167.928 144.001 168.894 145.147 170.665 L 149.647 177.62 C 151.445 180.399 150.648 184.108 147.87 185.907 L 91.386 222.444 C 90.38 223.095 89.251 223.407 88.136 223.407 C 86.171 223.407 84.246 222.441 83.1 220.669 L 78.602 213.714 C 76.804 210.937 77.6 207.224 80.378 205.429 L 88.859 199.943 C 88.829 199.494 88.847 198.976 88.942 198.375 L 93.154 171.855 C 93.445 170.027 94.426 168.488 95.917 167.523 C 96.92 166.874 98.066 166.542 99.253 166.542 M 99.253 163.542 L 99.253 163.542 C 97.482 163.542 95.765 164.048 94.287 165.005 C 92.073 166.439 90.619 168.704 90.192 171.384 L 85.98 197.905 C 85.961 198.026 85.944 198.147 85.929 198.267 L 78.749 202.912 C 76.733 204.214 75.345 206.225 74.841 208.576 C 74.337 210.926 74.778 213.33 76.084 215.346 L 80.582 222.3 C 82.247 224.873 85.071 226.409 88.137 226.409 C 89.87 226.409 91.558 225.909 93.017 224.965 L 149.5 188.428 C 153.663 185.733 154.859 180.155 152.167 175.992 L 147.667 169.037 C 146.003 166.465 143.179 164.93 140.112 164.93 C 138.379 164.93 136.692 165.429 135.233 166.373 L 128.054 171.017 C 127.937 170.982 127.819 170.948 127.7 170.915 L 101.789 163.885 C 100.951 163.657 100.098 163.542 99.253 163.542 L 99.253 163.542 L 99.253 163.542 Z " fill="rgb(0,0,0)"/></g><g id="svg_172"><g id="svg_173"><path d=" M 136.862 168.891 L 133.674 170.954 C 136.452 169.155 140.163 169.95 141.959 172.731 L 146.459 179.684 C 148.256 182.463 147.461 186.172 144.682 187.969 L 147.87 185.908 C 150.648 184.109 151.445 180.4 149.647 177.621 L 145.147 170.666 C 143.351 167.889 139.641 167.092 136.862 168.891 L 136.862 168.891 Z " fill="rgb(168,118,17)"/></g></g><g id="svg_175"><path d=" M 117.763 202.949 C 117.415 202.949 117.079 202.832 116.815 202.611 L 99.688 194.387 C 99.186 194.146 98.858 193.646 98.838 193.088 L 98.14 173.765 C 97.986 173.279 98.088 172.735 98.433 172.333 C 98.69 172.034 99.045 171.857 99.418 171.819 C 99.495 171.807 99.572 171.801 99.648 171.801 C 100.001 171.801 100.342 171.922 100.609 172.15 L 117.962 180.716 C 118.462 180.962 118.783 181.466 118.797 182.023 L 119.276 201.006 C 119.424 201.497 119.313 202.043 118.958 202.44 C 118.691 202.738 118.326 202.909 117.947 202.936 C 117.887 202.945 117.824 202.949 117.763 202.949 L 117.763 202.949 Z " fill="rgb(170,119,17)"/><g id="svg_177"><path d=" M 99.622 173.277 L 99.68 173.365 L 117.299 182.062 L 117.786 201.355 L 117.842 201.441 L 117.787 201.414 L 117.789 201.475 L 117.733 201.389 L 100.337 193.035 L 99.628 173.398 L 99.57 173.312 L 99.624 173.337 L 99.622 173.277 M 99.622 170.277 C 99.321 170.277 99.017 170.322 98.718 170.417 C 98.426 170.51 98.155 170.645 97.912 170.813 C 97.687 170.962 97.48 171.143 97.298 171.356 C 96.661 172.096 96.438 173.078 96.649 173.989 L 97.34 193.144 C 97.38 194.257 98.035 195.257 99.039 195.74 L 116.006 203.887 C 116.521 204.268 117.148 204.475 117.791 204.475 C 118.089 204.475 118.391 204.431 118.687 204.338 C 118.948 204.256 119.192 204.141 119.414 203.997 C 119.657 203.849 119.881 203.662 120.079 203.441 C 120.735 202.709 120.975 201.722 120.774 200.801 L 120.299 181.986 C 120.271 180.872 119.627 179.866 118.628 179.372 L 101.433 170.885 C 100.912 170.491 100.275 170.277 99.622 170.277 L 99.622 170.277 L 99.622 170.277 Z " fill="rgb(0,0,0)"/></g></g><g id="svg_179"><path d=" M 112.963 195.49 C 112.653 195.49 112.353 195.395 112.103 195.22 L 104.124 191.387 C 103.622 191.146 103.294 190.646 103.274 190.089 L 102.943 180.959 C 102.9 180.583 102.994 180.196 103.225 179.887 C 103.407 179.633 103.667 179.436 103.977 179.335 C 104.133 179.285 104.292 179.261 104.449 179.261 C 104.764 179.261 105.071 179.359 105.324 179.542 L 113.407 183.533 C 113.907 183.779 114.228 184.283 114.242 184.84 L 114.47 193.808 C 114.513 194.223 114.39 194.649 114.102 194.97 C 113.916 195.185 113.671 195.348 113.387 195.429 C 113.247 195.471 113.104 195.49 112.963 195.49 L 112.963 195.49 Z " fill="rgb(175,24,12)"/><g id="svg_181"><path d=" M 104.437 180.75 L 104.464 180.791 L 112.743 184.879 L 112.973 193.947 L 112.999 193.988 L 112.973 193.974 L 112.973 194.001 L 112.949 193.962 L 104.772 190.034 L 104.438 180.805 L 104.412 180.764 L 104.437 180.776 L 104.437 180.75 M 104.435 177.773 C 104.245 177.773 104.053 177.791 103.863 177.829 C 103.217 177.952 102.613 178.283 102.162 178.803 C 101.566 179.489 101.321 180.382 101.453 181.238 L 101.775 190.144 C 101.816 191.257 102.47 192.257 103.474 192.74 L 111.512 196.601 C 111.958 196.847 112.462 196.981 112.975 196.981 C 113.18 196.981 113.386 196.96 113.59 196.917 C 114.197 196.793 114.766 196.483 115.204 196.003 C 115.826 195.32 116.089 194.415 115.964 193.547 L 115.742 184.804 C 115.714 183.69 115.07 182.684 114.071 182.19 L 105.922 178.167 C 105.47 177.91 104.957 177.773 104.435 177.773 L 104.435 177.773 L 104.435 177.773 Z " fill="rgb(0,0,0)"/></g></g><path d=" M 104.437 180.75 L 104.438 180.777 L 104.412 180.766 L 104.438 180.807 L 104.772 190.035 L 104.782 190.041 L 112.745 184.891 L 112.743 184.879 L 104.464 180.791 L 104.437 180.75 Z " fill="rgb(211,63,55)"/><path d=" M 97.085 196.604 L 101.45 198.663 L 105.801 200.755 C 108.697 202.153 111.607 203.53 114.493 204.95 L 115.239 205.315 L 114.537 205.79 C 110.704 208.372 106.865 210.942 103.015 213.493 C 99.172 216.057 95.307 218.589 91.449 221.13 L 90.767 221.579 L 90.308 220.884 C 87.388 216.468 84.52 212.019 81.629 207.583 L 81.147 206.845 L 81.892 206.357 C 85.572 203.951 89.276 201.587 92.968 199.207 L 93.409 198.922 L 93.866 199.174 L 100.276 202.711 L 106.674 206.277 L 107.842 206.929 L 106.723 207.646 C 102.474 210.361 98.198 213.035 93.928 215.722 L 93.386 216.066 L 93.057 215.537 L 88.262 207.844 L 88.005 207.43 L 88.404 207.186 L 93.325 204.153 L 93.507 204.044 L 93.676 204.138 L 99.704 207.505 L 99.975 207.657 L 99.716 207.817 C 98.019 208.866 96.3 209.883 94.589 210.917 C 96.234 209.782 97.866 208.632 99.52 207.513 L 99.533 207.824 L 93.352 204.758 L 93.704 204.74 L 88.922 207.988 L 89.065 207.326 L 94.116 214.853 L 93.246 214.667 C 97.447 211.876 101.64 209.071 105.859 206.31 L 105.91 207.677 L 99.459 204.208 L 93.024 200.712 L 93.92 200.679 C 90.234 203.074 86.559 205.482 82.857 207.851 L 83.12 206.622 C 85.979 211.077 88.862 215.517 91.692 219.989 L 90.551 219.745 C 94.448 217.266 98.342 214.778 102.258 212.327 C 106.162 209.86 110.081 207.411 114.007 204.975 L 114.05 205.817 C 111.208 204.311 108.388 202.76 105.556 201.233 L 101.312 198.936 L 97.085 196.604 L 97.085 196.604 Z " fill="rgb(239,199,117)"/><path d=" M 122.12 180.41 L 122.208 185.236 L 122.332 190.058 C 122.421 193.275 122.483 196.494 122.594 199.706 L 122.622 200.538 L 123.343 200.091 C 127.269 197.653 131.189 195.206 135.093 192.741 C 139.008 190.288 142.902 187.8 146.799 185.321 L 147.489 184.883 L 147.043 184.18 C 144.213 179.707 141.331 175.268 138.472 170.811 L 137.994 170.067 L 137.242 170.549 C 133.541 172.916 129.866 175.326 126.179 177.721 L 125.74 178.006 L 125.782 178.524 L 126.38 185.823 L 127.011 193.12 L 127.126 194.452 L 128.237 193.725 C 132.457 190.961 136.649 188.157 140.852 185.368 L 141.385 185.014 L 141.039 184.496 L 135.986 176.969 L 135.715 176.565 L 135.326 176.827 L 130.545 180.073 L 130.369 180.194 L 130.385 180.387 L 130.985 187.264 L 131.013 187.577 L 131.264 187.405 C 132.918 186.288 134.551 185.135 136.193 184.001 C 134.485 185.036 132.766 186.052 131.069 187.101 L 131.347 187.242 L 131.082 180.347 L 130.923 180.66 L 135.846 177.631 L 135.184 177.488 L 139.979 185.181 L 140.167 184.31 C 135.899 186.999 131.622 189.673 127.373 192.39 L 128.599 192.995 L 128.08 185.69 L 127.529 178.387 L 127.132 179.19 C 130.827 176.809 134.53 174.446 138.208 172.04 L 136.979 171.776 C 139.87 176.212 142.738 180.661 145.658 185.077 L 145.902 183.936 C 142.044 186.475 138.179 189.006 134.338 191.571 C 130.486 194.122 126.647 196.692 122.815 199.274 L 123.567 199.659 C 123.358 196.45 123.099 193.241 122.869 190.032 L 122.513 185.219 L 122.12 180.41 L 122.12 180.41 Z " fill="rgb(239,199,117)"/><g id="svg_186"><path d=" M 134.378 249.404 C 123.487 249.404 114.626 240.544 114.626 229.652 C 114.626 218.761 123.487 209.902 134.378 209.902 C 145.269 209.902 154.13 218.761 154.13 229.652 C 154.13 240.544 145.269 249.404 134.378 249.404 Z " fill="rgb(229,167,28)"/><g id="svg_188"><path d=" M 134.378 211.402 C 144.458 211.402 152.63 219.572 152.63 229.652 C 152.63 239.732 144.458 247.904 134.378 247.904 C 124.298 247.904 116.126 239.732 116.126 229.652 C 116.126 219.572 124.298 211.402 134.378 211.402 Z  M 134.378 208.402 C 122.66 208.402 113.126 217.935 113.126 229.652 C 113.126 241.371 122.66 250.904 134.378 250.904 C 146.096 250.904 155.63 241.371 155.63 229.652 C 155.63 217.936 146.096 208.402 134.378 208.402 L 134.378 208.402 Z " fill="rgb(0,0,0)"/></g></g><path d=" M 152.63 229.652 C 152.63 229.619 152.626 229.586 152.626 229.55 C 146.743 238.503 136.392 239.12 129.757 235.14 C 122.69 230.902 120.91 222.933 121.944 216.318 C 118.372 219.65 116.126 224.382 116.126 229.652 C 116.126 239.732 124.298 247.904 134.378 247.904 C 144.458 247.904 152.63 239.732 152.63 229.652 L 152.63 229.652 Z " fill="rgb(168,118,17)"/></g></g></svg>