<svg width="16" height="10" xmlns="http://www.w3.org/2000/svg">

 <title/>
 <g>
  <title>background</title>
  <rect fill="none" id="canvas_background" height="12" width="18" y="-1" x="-1"/>
 </g>
 <g>
  <title>Layer 1</title>
  <path fill="#ffffff" id="svg_2" d="m13.778108,0.569367c-0.3735,-0.2687 -1.4137,-0.6257 -5.7728,-0.6257c-4.6714,0 -5.3646,0.41 -5.5869,0.5442c-1.1838,0.7111 -1.2961,3.8594 -1.3066,4.4977c0.0144,0.8433 0.1506,3.6486 1.3058,4.3423c0.222,0.1337 0.9112,0.5412 5.5879,0.5412c4.3621,0 5.4012,-0.3553 5.7729,-0.6227c1.0089,-0.7258 1.1249,-3.2254 1.1279,-4.2717c-0.0028,-0.8415 -0.091,-3.6586 -1.1282,-4.4053zm-3.5124,4.6434l-3.015,2.1077a0.3637,0.3637 0 0 1 -0.576,-0.2826l0,-4.2144a0.364,0.364 0 0 1 0.576,-0.2829l3.015,2.1069a0.3421,0.3421 0 0 1 0,0.5653z" class="cls-2"/>
 </g>
</svg>